<?plantuml 1.2026.1?><svg xmlns="http://www.w3.org/2000/svg" xmlns:xlink="http://www.w3.org/1999/xlink" contentStyleType="text/css" data-diagram-type="DESCRIPTION" height="869px" preserveAspectRatio="none" style="width:1052px;height:869px;background:#FFFFFF;" version="1.1" viewBox="0 0 1052 869" width="1052px" zoomAndPan="magnify"><title>HexaStock &#8212; High-level Architecture Overview</title><defs/><g><g class="title" data-source-line="1"><text fill="#000000" font-family="'Helvetica'" font-size="14" font-weight="bold" lengthAdjust="spacing" textLength="369.3457" x="334.5492" y="22.9951">HexaStock &#8212; High-level Architecture Overview</text></g><!--cluster boot--><g class="cluster" data-qualified-name="boot" data-source-line="16" id="ent0004"><path d="M11,182.3869 L351.7158,182.3869 A7.5,7.5 0 0 1 356.7158,187.3869 L363.7158,204.6838 L752,204.6838 A5,5 0 0 1 757,209.6838 L757,857.4369 A5,5 0 0 1 752,862.4369 L11,862.4369 A5,5 0 0 1 6,857.4369 L6,187.3869 A5,5 0 0 1 11,182.3869" fill="#F4F7FB" style="stroke:#B3C4D9;stroke-width:1.5;"/><line style="stroke:#B3C4D9;stroke-width:1.5;" x1="6" x2="363.7158" y1="204.6838" y2="204.6838"/><text fill="#000000" font-family="'Helvetica'" font-size="14" font-weight="bold" lengthAdjust="spacing" textLength="344.7158" x="10" y="197.382">HexaStock &#8212; single Spring Boot deployable</text></g><!--cluster inbound--><g class="cluster" data-qualified-name="boot.inbound" data-source-line="18" id="ent0005"><path d="M44,225.3869 L181.3945,225.3869 A7.5,7.5 0 0 1 186.3945,230.3869 L193.3945,247.6838 L726,247.6838 A5,5 0 0 1 731,252.6838 L731,333.9869 A5,5 0 0 1 726,338.9869 L44,338.9869 A5,5 0 0 1 39,333.9869 L39,230.3869 A5,5 0 0 1 44,225.3869" fill="#F4F7FB" style="stroke:#B3C4D9;stroke-width:1.5;"/><line style="stroke:#B3C4D9;stroke-width:1.5;" x1="39" x2="193.3945" y1="247.6838" y2="247.6838"/><text fill="#000000" font-family="'Helvetica'" font-size="14" font-weight="bold" lengthAdjust="spacing" textLength="141.3945" x="43" y="240.382">Inbound Adapters</text></g><!--cluster modules--><g class="cluster" data-qualified-name="boot.modules" data-source-line="24" id="ent0009"><path d="M43,395.9869 L199.3369,395.9869 A7.5,7.5 0 0 1 204.3369,400.9869 L211.3369,434.5806 L621,434.5806 A5,5 0 0 1 626,439.5806 L626,678.8469 A5,5 0 0 1 621,683.8469 L43,683.8469 A5,5 0 0 1 38,678.8469 L38,400.9869 A5,5 0 0 1 43,395.9869" fill="#F4F7FB" style="stroke:#B3C4D9;stroke-width:1.5;"/><line style="stroke:#B3C4D9;stroke-width:1.5;" x1="38" x2="211.3369" y1="434.5806" y2="434.5806"/><text fill="#000000" font-family="'Helvetica'" font-size="14" font-weight="bold" lengthAdjust="spacing" textLength="160.3369" x="42" y="410.982">Application Modules</text><text fill="#000000" font-family="'Helvetica'" font-size="14" font-weight="bold" lengthAdjust="spacing" textLength="139.2617" x="52.5376" y="427.2789">(Spring Modulith)</text></g><!--cluster outbound--><g class="cluster" data-qualified-name="boot.outbound" data-source-line="31" id="ent0014"><path d="M35,724.8469 L185.7793,724.8469 A7.5,7.5 0 0 1 190.7793,729.8469 L197.7793,747.1438 L728,747.1438 A5,5 0 0 1 733,752.1438 L733,833.4369 A5,5 0 0 1 728,838.4369 L35,838.4369 A5,5 0 0 1 30,833.4369 L30,729.8469 A5,5 0 0 1 35,724.8469" fill="#F4F7FB" style="stroke:#B3C4D9;stroke-width:1.5;"/><line style="stroke:#B3C4D9;stroke-width:1.5;" x1="30" x2="197.7793" y1="747.1438" y2="747.1438"/><text fill="#000000" font-family="'Helvetica'" font-size="14" font-weight="bold" lengthAdjust="spacing" textLength="154.7793" x="34" y="739.842">Outbound Adapters</text></g><!--entity rest--><g class="entity" data-qualified-name="boot.inbound.rest" data-source-line="19" id="ent0006"><rect fill="#E7EEF7" height="62.5938" rx="5" ry="5" style="stroke:#1F4E79;stroke-width:0.5;" width="207.1113" x="55.44" y="260.3869"/><rect fill="#E7EEF7" height="10" style="stroke:#1F4E79;stroke-width:0.5;" width="15" x="242.5513" y="265.3869"/><rect fill="#E7EEF7" height="2" style="stroke:#1F4E79;stroke-width:0.5;" width="4" x="240.5513" y="267.3869"/><rect fill="#E7EEF7" height="2" style="stroke:#1F4E79;stroke-width:0.5;" width="4" x="240.5513" y="271.3869"/><text fill="#000000" font-family="'Helvetica'" font-size="14" lengthAdjust="spacing" textLength="116.9287" x="70.44" y="293.382">REST Controllers</text><text fill="#000000" font-family="'Helvetica'" font-size="14" lengthAdjust="spacing" textLength="167.1113" x="70.44" y="309.6789">(adapters-inbound-rest)</text></g><!--entity bot--><g class="entity" data-qualified-name="boot.inbound.bot" data-source-line="20" id="ent0007"><rect fill="#E7EEF7" height="62.5938" rx="5" ry="5" style="stroke:#1F4E79;stroke-width:0.5;" width="243.4238" x="471.29" y="260.3869"/><rect fill="#E7EEF7" height="10" style="stroke:#1F4E79;stroke-width:0.5;" width="15" x="694.7138" y="265.3869"/><rect fill="#E7EEF7" height="2" style="stroke:#1F4E79;stroke-width:0.5;" width="4" x="692.7138" y="267.3869"/><rect fill="#E7EEF7" height="2" style="stroke:#1F4E79;stroke-width:0.5;" width="4" x="692.7138" y="271.3869"/><text fill="#000000" font-family="'Helvetica'" font-size="14" lengthAdjust="spacing" textLength="94.6367" x="486.29" y="293.382">Telegram Bot</text><text fill="#000000" font-family="'Helvetica'" font-size="14" lengthAdjust="spacing" textLength="203.4238" x="486.29" y="309.6789">(adapters-inbound-telegram)</text></g><!--entity sched--><g class="entity" data-qualified-name="boot.inbound.sched" data-source-line="21" id="ent0008"><rect fill="#E7EEF7" height="62.5938" rx="5" ry="5" style="stroke:#1F4E79;stroke-width:0.5;" width="138.1436" x="297.93" y="260.3869"/><rect fill="#E7EEF7" height="10" style="stroke:#1F4E79;stroke-width:0.5;" width="15" x="416.0736" y="265.3869"/><rect fill="#E7EEF7" height="2" style="stroke:#1F4E79;stroke-width:0.5;" width="4" x="414.0736" y="267.3869"/><rect fill="#E7EEF7" height="2" style="stroke:#1F4E79;stroke-width:0.5;" width="4" x="414.0736" y="271.3869"/><text fill="#000000" font-family="'Helvetica'" font-size="14" lengthAdjust="spacing" textLength="77.3828" x="312.93" y="293.382">Schedulers</text><text fill="#000000" font-family="'Helvetica'" font-size="14" lengthAdjust="spacing" textLength="98.1436" x="312.93" y="309.6789">(@Scheduled)</text></g><!--entity portfolios--><g class="entity" data-qualified-name="boot.modules.portfolios" data-source-line="25" id="ent0010"><rect fill="#E7EEF7" height="46.2969" rx="5" ry="5" style="stroke:#1F4E79;stroke-width:0.5;" width="105.3857" x="477.31" y="463.1369"/><rect fill="#E7EEF7" height="10" style="stroke:#1F4E79;stroke-width:0.5;" width="15" x="562.6957" y="468.1369"/><rect fill="#E7EEF7" height="2" style="stroke:#1F4E79;stroke-width:0.5;" width="4" x="560.6957" y="470.1369"/><rect fill="#E7EEF7" height="2" style="stroke:#1F4E79;stroke-width:0.5;" width="4" x="560.6957" y="474.1369"/><text fill="#000000" font-family="'Helvetica'" font-size="14" lengthAdjust="spacing" textLength="65.3857" x="492.31" y="496.132">Portfolios</text></g><!--entity marketdata--><g class="entity" data-qualified-name="boot.modules.marketdata" data-source-line="26" id="ent0011"><rect fill="#E7EEF7" height="46.2969" rx="5" ry="5" style="stroke:#1F4E79;stroke-width:0.5;" width="126.502" x="65.75" y="613.5469"/><rect fill="#E7EEF7" height="10" style="stroke:#1F4E79;stroke-width:0.5;" width="15" x="172.252" y="618.5469"/><rect fill="#E7EEF7" height="2" style="stroke:#1F4E79;stroke-width:0.5;" width="4" x="170.252" y="620.5469"/><rect fill="#E7EEF7" height="2" style="stroke:#1F4E79;stroke-width:0.5;" width="4" x="170.252" y="624.5469"/><text fill="#000000" font-family="'Helvetica'" font-size="14" lengthAdjust="spacing" textLength="86.502" x="80.75" y="646.542">Market Data</text></g><!--entity watchlists--><g class="entity" data-qualified-name="boot.modules.watchlists" data-source-line="27" id="ent0012"><rect fill="#E7EEF7" height="62.5938" rx="5" ry="5" style="stroke:#1F4E79;stroke-width:0.5;" width="150.2021" x="291.9" y="454.9869"/><rect fill="#E7EEF7" height="10" style="stroke:#1F4E79;stroke-width:0.5;" width="15" x="422.1021" y="459.9869"/><rect fill="#E7EEF7" height="2" style="stroke:#1F4E79;stroke-width:0.5;" width="4" x="420.1021" y="461.9869"/><rect fill="#E7EEF7" height="2" style="stroke:#1F4E79;stroke-width:0.5;" width="4" x="420.1021" y="465.9869"/><text fill="#000000" font-family="'Helvetica'" font-size="14" lengthAdjust="spacing" textLength="81.5049" x="306.9" y="487.982">Watchlists /</text><text fill="#000000" font-family="'Helvetica'" font-size="14" lengthAdjust="spacing" textLength="110.2021" x="306.9" y="504.2789">Market Sentinel</text></g><!--entity notifications--><g class="entity" data-qualified-name="boot.modules.notifications" data-source-line="28" id="ent0013"><rect fill="#E7EEF7" height="46.2969" rx="5" ry="5" style="stroke:#1F4E79;stroke-width:0.5;" width="127.623" x="299.19" y="613.5469"/><rect fill="#E7EEF7" height="10" style="stroke:#1F4E79;stroke-width:0.5;" width="15" x="406.813" y="618.5469"/><rect fill="#E7EEF7" height="2" style="stroke:#1F4E79;stroke-width:0.5;" width="4" x="404.813" y="620.5469"/><rect fill="#E7EEF7" height="2" style="stroke:#1F4E79;stroke-width:0.5;" width="4" x="404.813" y="624.5469"/><text fill="#000000" font-family="'Helvetica'" font-size="14" lengthAdjust="spacing" textLength="87.623" x="314.19" y="646.542">Notifications</text></g><!--entity jpa--><g class="entity" data-qualified-name="boot.outbound.jpa" data-source-line="32" id="ent0015"><rect fill="#E7EEF7" height="46.2969" rx="5" ry="5" style="stroke:#1F4E79;stroke-width:0.5;" width="123.8359" x="450.08" y="767.9869"/><rect fill="#E7EEF7" height="10" style="stroke:#1F4E79;stroke-width:0.5;" width="15" x="553.9159" y="772.9869"/><rect fill="#E7EEF7" height="2" style="stroke:#1F4E79;stroke-width:0.5;" width="4" x="551.9159" y="774.9869"/><rect fill="#E7EEF7" height="2" style="stroke:#1F4E79;stroke-width:0.5;" width="4" x="551.9159" y="778.9869"/><text fill="#000000" font-family="'Helvetica'" font-size="14" lengthAdjust="spacing" textLength="83.8359" x="465.08" y="800.982">JPA / MySQL</text></g><!--entity mongo--><g class="entity" data-qualified-name="boot.outbound.mongo" data-source-line="33" id="ent0016"><rect fill="#E7EEF7" height="46.2969" rx="5" ry="5" style="stroke:#1F4E79;stroke-width:0.5;" width="107.3545" x="609.32" y="767.9869"/><rect fill="#E7EEF7" height="10" style="stroke:#1F4E79;stroke-width:0.5;" width="15" x="696.6745" y="772.9869"/><rect fill="#E7EEF7" height="2" style="stroke:#1F4E79;stroke-width:0.5;" width="4" x="694.6745" y="774.9869"/><rect fill="#E7EEF7" height="2" style="stroke:#1F4E79;stroke-width:0.5;" width="4" x="694.6745" y="778.9869"/><text fill="#000000" font-family="'Helvetica'" font-size="14" lengthAdjust="spacing" textLength="67.3545" x="624.32" y="800.982">MongoDB</text></g><!--entity feed--><g class="entity" data-qualified-name="boot.outbound.feed" data-source-line="34" id="ent0017"><rect fill="#E7EEF7" height="62.5938" rx="5" ry="5" style="stroke:#1F4E79;stroke-width:0.5;" width="183.3154" x="46.34" y="759.8469"/><rect fill="#E7EEF7" height="10" style="stroke:#1F4E79;stroke-width:0.5;" width="15" x="209.6554" y="764.8469"/><rect fill="#E7EEF7" height="2" style="stroke:#1F4E79;stroke-width:0.5;" width="4" x="207.6554" y="766.8469"/><rect fill="#E7EEF7" height="2" style="stroke:#1F4E79;stroke-width:0.5;" width="4" x="207.6554" y="770.8469"/><text fill="#000000" font-family="'Helvetica'" font-size="14" lengthAdjust="spacing" textLength="65.4883" x="61.34" y="792.842">Finnhub /</text><text fill="#000000" font-family="'Helvetica'" font-size="14" lengthAdjust="spacing" textLength="143.3154" x="61.34" y="809.1389">Alpha Vantage REST</text></g><!--entity senders--><g class="entity" data-qualified-name="boot.outbound.senders" data-source-line="35" id="ent0018"><rect fill="#E7EEF7" height="62.5938" rx="5" ry="5" style="stroke:#1F4E79;stroke-width:0.5;" width="149.8672" x="265.07" y="759.8469"/><rect fill="#E7EEF7" height="10" style="stroke:#1F4E79;stroke-width:0.5;" width="15" x="394.9372" y="764.8469"/><rect fill="#E7EEF7" height="2" style="stroke:#1F4E79;stroke-width:0.5;" width="4" x="392.9372" y="766.8469"/><rect fill="#E7EEF7" height="2" style="stroke:#1F4E79;stroke-width:0.5;" width="4" x="392.9372" y="770.8469"/><text fill="#000000" font-family="'Helvetica'" font-size="14" lengthAdjust="spacing" textLength="75.6943" x="280.07" y="792.842">Telegram /</text><text fill="#000000" font-family="'Helvetica'" font-size="14" lengthAdjust="spacing" textLength="109.8672" x="280.07" y="809.1389">Logging Sender</text></g><!--entity client--><g class="entity" data-qualified-name="client" data-source-line="13" id="ent0002"><ellipse cx="158.9988" cy="51.2969" fill="#F1F1F1" rx="8" ry="8" style="stroke:#181818;stroke-width:0.5;"/><path d="M158.9988,59.2969 L158.9988,86.2969 M145.9988,67.2969 L171.9988,67.2969 M158.9988,86.2969 L145.9988,101.2969 M158.9988,86.2969 L171.9988,101.2969" fill="none" style="stroke:#181818;stroke-width:0.5;"/><text fill="#000000" font-family="'Helvetica'" font-size="14" lengthAdjust="spacing" textLength="80.9922" x="103.18" y="115.792">REST Client</text><text fill="#000000" font-family="'Helvetica'" font-size="14" lengthAdjust="spacing" textLength="111.6377" x="103.18" y="132.0889">(Postman / curl)</text></g><!--entity tg--><g class="entity" data-qualified-name="tg" data-source-line="14" id="ent0003"><ellipse cx="593.0038" cy="59.4469" fill="#F1F1F1" rx="8" ry="8" style="stroke:#181818;stroke-width:0.5;"/><path d="M593.0038,67.4469 L593.0038,94.4469 M580.0038,75.4469 L606.0038,75.4469 M593.0038,94.4469 L580.0038,109.4469 M593.0038,94.4469 L606.0038,109.4469" fill="none" style="stroke:#181818;stroke-width:0.5;"/><text fill="#000000" font-family="'Helvetica'" font-size="14" lengthAdjust="spacing" textLength="102.8877" x="541.56" y="123.942">Telegram User</text></g><g class="entity" data-qualified-name="GMN35" data-source-line="59" id="ent0036"><path d="M772.55,456.0169 L772.55,516.5481 A5,5 0 0 0 777.55,521.5481 L1040.444,521.5481 A5,5 0 0 0 1045.444,516.5481 L1045.444,461.0169 L1035.444,451.0169 L777.55,451.0169 A5,5 0 0 0 772.55,456.0169" fill="#FEFFDD" style="stroke:#181818;stroke-width:0.5;"/><path d="M1035.444,451.0169 L1035.444,458.5169 A2.5,2.5 0 0 0 1037.944,461.0169 L1045.444,461.0169 L1035.444,451.0169" fill="#FEFFDD" style="stroke:#181818;stroke-width:1;"/><text fill="#000000" font-family="'Helvetica'" font-size="13" lengthAdjust="spacing" textLength="217.4707" x="778.55" y="468.0838">Each module is a Spring Modulith</text><text fill="#000000" font-family="'Helvetica'" font-size="13" lengthAdjust="spacing" textLength="207.4287" x="778.55" y="483.2166">application module with explicit</text><text fill="#000000" font-family="'Helvetica'" font-size="13" lengthAdjust="spacing" textLength="219.4639" x="778.55" y="498.3494">allowed dependencies, verified at</text><text fill="#000000" font-family="'Helvetica'" font-size="13" lengthAdjust="spacing" textLength="251.894" x="778.55" y="513.4822">build time by ModulithVerificationTest.</text></g><!--link client to rest--><g class="link" data-entity-1="ent0002" data-entity-2="ent0006" data-link-type="dependency" data-source-line="39" id="lnk19"><path d="M159,135.8669 C159,173.9069 159,220.9869 159,254.0669" fill="none" id="client-to-rest" style="stroke:#1F4E79;stroke-width:1;"/><polygon fill="#1F4E79" points="159,260.0669,163,251.0669,159,255.0669,155,251.0669,159,260.0669" style="stroke:#1F4E79;stroke-width:1;"/></g><!--link tg to bot--><g class="link" data-entity-1="ent0003" data-entity-2="ent0007" data-link-type="dependency" data-source-line="40" id="lnk20"><path d="M593,127.3569 C593,165.6469 593,218.5669 593,254.1869" fill="none" id="tg-to-bot" style="stroke:#1F4E79;stroke-width:1;"/><polygon fill="#1F4E79" points="593,260.1869,597,251.1869,593,255.1869,589,251.1869,593,260.1869" style="stroke:#1F4E79;stroke-width:1;"/></g><!--link sched to watchlists--><g class="link" data-entity-1="ent0008" data-entity-2="ent0012" data-link-type="dependency" data-source-line="41" id="lnk21"><path d="M367,323.2069 C367,359.1569 367,412.5569 367,448.5869" fill="none" id="sched-to-watchlists" style="stroke:#1F4E79;stroke-width:1;"/><polygon fill="#1F4E79" points="367,454.5869,371,445.5869,367,449.5869,363,445.5869,367,454.5869" style="stroke:#1F4E79;stroke-width:1;"/><text fill="#000000" font-family="'Helvetica'" font-size="13" lengthAdjust="spacing" textLength="123.2905" x="368" y="368.0538">detectBuySignals()</text></g><!--link rest to portfolios--><g class="link" data-entity-1="ent0006" data-entity-2="ent0010" data-link-type="dependency" data-source-line="42" id="lnk22"><path d="M215.27,323.3469 C235.14,332.7069 258.02,341.8569 280,346.9869 C303.82,352.5369 481.14,339.4069 500,354.9869 C531.5,381.0069 534.191,426.8355 532.591,456.6955" fill="none" id="rest-to-portfolios" style="stroke:#1F4E79;stroke-width:1;"/><polygon fill="#1F4E79" points="532.27,462.6869,536.7458,453.9138,532.5375,457.694,528.7573,453.4857,532.27,462.6869" style="stroke:#1F4E79;stroke-width:1;"/></g><!--link rest to marketdata--><g class="link" data-entity-1="ent0006" data-entity-2="ent0011" data-link-type="dependency" data-source-line="43" id="lnk23"><path d="M146.33,323.4769 C127.41,371.2869 92.65,466.7369 80,551.5469 C77.9,565.6169 74.76,570.3269 80,583.5469 C84.44,594.7469 88.3048,600.7068 96.6648,609.0568" fill="none" id="rest-to-marketdata" style="stroke:#1F4E79;stroke-width:1;"/><polygon fill="#1F4E79" points="100.91,613.2969,97.369,604.1066,97.3724,609.7635,91.7155,609.7668,100.91,613.2969" style="stroke:#1F4E79;stroke-width:1;"/></g><!--link rest to watchlists--><g class="link" data-entity-1="ent0006" data-entity-2="ent0012" data-link-type="dependency" data-source-line="44" id="lnk24"><path d="M191.96,323.2069 C230.79,359.1569 290.5376,414.4803 329.4476,450.5103" fill="none" id="rest-to-watchlists" style="stroke:#1F4E79;stroke-width:1;"/><polygon fill="#1F4E79" points="333.85,454.5869,329.9641,445.537,330.1813,451.1897,324.5286,451.407,333.85,454.5869" style="stroke:#1F4E79;stroke-width:1;"/></g><!--link bot to portfolios--><g class="link" data-entity-1="ent0007" data-entity-2="ent0010" data-link-type="dependency" data-source-line="45" id="lnk25"><path d="M583.02,323.2069 C570.32,362.0269 550.5447,422.464 539.2447,457.024" fill="none" id="bot-to-portfolios" style="stroke:#1F4E79;stroke-width:1;"/><polygon fill="#1F4E79" points="537.38,462.7269,543.9789,455.4156,538.9339,457.9745,536.3751,452.9294,537.38,462.7269" style="stroke:#1F4E79;stroke-width:1;"/></g><!--link portfolios to marketdata--><g class="link" data-entity-1="ent0010" data-entity-2="ent0011" data-link-type="dependency" data-source-line="47" id="lnk26"><path d="M489.42,509.7869 C479.99,514.2669 469.83,518.5169 460,521.5469 C370.75,549.0769 339.03,517.6269 252,551.5469 C242,555.4469 198.1331,586.1804 165.0931,609.7704" fill="none" id="portfolios-to-marketdata" style="stroke:#1F4E79;stroke-width:1;"/><polygon fill="#1F4E79" points="160.21,613.2569,169.8589,611.2826,164.2792,610.3515,165.2103,604.7718,160.21,613.2569" style="stroke:#1F4E79;stroke-width:1;"/><text fill="#000000" font-family="'Helvetica'" font-size="13" lengthAdjust="spacing" textLength="102.4258" x="253" y="572.1138">MarketDataPort</text></g><!--link watchlists to marketdata--><g class="link" data-entity-1="ent0012" data-entity-2="ent0011" data-link-type="dependency" data-source-line="48" id="lnk27"><path d="M291.5,494.6469 C219.41,503.4269 118.26,520.9169 94,551.5469 C79.46,569.9069 89.6913,590.4641 104.0713,608.5141" fill="none" id="watchlists-to-marketdata" style="stroke:#1F4E79;stroke-width:1;"/><polygon fill="#1F4E79" points="107.81,613.2069,105.3306,603.6752,104.6945,609.2962,99.0735,608.6601,107.81,613.2069" style="stroke:#1F4E79;stroke-width:1;"/><text fill="#000000" font-family="'Helvetica'" font-size="13" lengthAdjust="spacing" textLength="102.4258" x="95" y="572.1138">MarketDataPort</text></g><!--link watchlists to notifications--><g class="link" data-entity-1="ent0012" data-entity-2="ent0013" data-link-type="dependency" data-source-line="49" id="lnk28"><path d="M366.17,518.0369 C365.41,546.3869 364.4507,581.819 363.7707,607.199" fill="none" id="watchlists-to-notifications" style="stroke:#1F4E79;stroke-width:1;stroke-dasharray:7,7;"/><polygon fill="#1F4E79" points="363.61,613.1969,367.8496,604.3072,363.7439,608.1987,359.8525,604.093,363.61,613.1969" style="stroke:#1F4E79;stroke-width:1;"/><text fill="#000000" font-family="'Helvetica'" font-size="13" lengthAdjust="spacing" textLength="207.4858" x="366.24" y="564.6138">&#171;WatchlistAlertTriggeredEvent&#187;</text><text fill="#000000" font-family="'Helvetica'" font-size="13" lengthAdjust="spacing" textLength="170.9043" x="384.5308" y="579.7466">(in-process domain event)</text></g><!--link portfolios to jpa--><g class="link" data-entity-1="ent0010" data-entity-2="ent0015" data-link-type="dependency" data-source-line="51" id="lnk29"><path d="M570.88,509.8869 C585.74,520.4369 600.87,534.4669 609,551.5469 C615.11,564.3869 610.67,569.4269 609,583.5469 C602.29,640.4169 604.53,657.5869 579,708.8469 C567.99,730.9469 554.1006,748.0046 539.5206,763.2946" fill="none" id="portfolios-to-jpa" style="stroke:#1F4E79;stroke-width:1;"/><polygon fill="#1F4E79" points="535.38,767.6369,544.4858,763.8839,538.8305,764.0183,538.6961,758.3631,535.38,767.6369" style="stroke:#1F4E79;stroke-width:1;"/></g><!--link portfolios to mongo--><g class="link" data-entity-1="ent0010" data-entity-2="ent0016" data-link-type="dependency" data-source-line="52" id="lnk30"><path d="M567.15,509.7469 C588.78,523.5769 613.12,540.6769 620,551.5469 C663.91,620.8869 666.0891,717.0305 664.5291,761.7705" fill="none" id="portfolios-to-mongo" style="stroke:#1F4E79;stroke-width:1;"/><polygon fill="#1F4E79" points="664.32,767.7669,668.6312,758.9117,664.4942,762.7699,660.6361,758.633,664.32,767.7669" style="stroke:#1F4E79;stroke-width:1;"/></g><!--link watchlists to jpa--><g class="link" data-entity-1="ent0012" data-entity-2="ent0015" data-link-type="dependency" data-source-line="53" id="lnk31"><path d="M442.39,515.8569 C448.32,517.8669 454.24,519.7869 460,521.5469 C513.39,537.8869 547.55,507.5969 582,551.5469 C608.96,585.9469 552.1353,709.8413 526.0953,762.3613" fill="none" id="watchlists-to-jpa" style="stroke:#1F4E79;stroke-width:1;"/><polygon fill="#1F4E79" points="523.43,767.7369,531.0116,761.4504,525.651,763.2573,523.8442,757.8967,523.43,767.7369" style="stroke:#1F4E79;stroke-width:1;"/></g><!--link watchlists to mongo--><g class="link" data-entity-1="ent0012" data-entity-2="ent0016" data-link-type="dependency" data-source-line="54" id="lnk32"><path d="M442.6,516.0769 C448.46,518.0169 454.31,519.8669 460,521.5469 C518.54,538.7969 549.54,509.7369 594,551.5469 C602.11,559.1669 640.5133,703.9317 655.6533,761.8817" fill="none" id="watchlists-to-mongo" style="stroke:#1F4E79;stroke-width:1;"/><polygon fill="#1F4E79" points="657.17,767.6869,658.7651,757.968,655.9061,762.8492,651.0249,759.9903,657.17,767.6869" style="stroke:#1F4E79;stroke-width:1;"/></g><!--link marketdata to feed--><g class="link" data-entity-1="ent0011" data-entity-2="ent0017" data-link-type="dependency" data-source-line="55" id="lnk33"><path d="M130.33,660.1869 C131.88,686.4469 134.0972,724.0173 135.8272,753.3873" fill="none" id="marketdata-to-feed" style="stroke:#1F4E79;stroke-width:1;"/><polygon fill="#1F4E79" points="136.18,759.3769,139.6439,750.1572,135.886,754.3855,131.6577,750.6277,136.18,759.3769" style="stroke:#1F4E79;stroke-width:1;"/></g><!--link notifications to senders--><g class="link" data-entity-1="ent0013" data-entity-2="ent0018" data-link-type="dependency" data-source-line="56" id="lnk34"><path d="M359.61,660.1869 C355.65,686.4469 349.9649,724.074 345.5349,753.444" fill="none" id="notifications-to-senders" style="stroke:#1F4E79;stroke-width:1;"/><polygon fill="#1F4E79" points="344.64,759.3769,349.9376,751.0741,345.3857,754.4328,342.0271,749.881,344.64,759.3769" style="stroke:#1F4E79;stroke-width:1;"/></g><!--link modules to GMN35--><g class="link" data-entity-1="ent0009" data-entity-2="ent0036" data-link-type="association" data-source-line="59" id="lnk37"><path d="M626.0359,486.2769 C626.8344,486.2769 627.6328,486.2769 628.4312,486.2769 C631.625,486.2769 634.8187,486.2769 638.0125,486.2769 C644.4,486.2769 650.7874,486.2769 657.1748,486.2769 C669.9497,486.2769 682.7244,486.2769 695.4988,486.2769 C721.0475,486.2769 746.595,486.2769 772.14,486.2769" fill="none" id="modules-GMN35" style="stroke:#1F4E79;stroke-width:1;stroke-dasharray:7,7;"/></g><?plantuml-src bLNDRjim3BxxAOZiqW1Bks85WWv5iAG_w8QcpPQiEwmxo3PjQr4aGvAJ1iM0FSIUS4yoId9IDIqmB2U9_4X-v4Svbbk1S8dtR6fLDeS_ltx39I-hdi0b2XZghE8MCzjeX9ibwYN7LPAOEPSrqsm1fcAvMd5PGi64mSYJicnUQjN8_5G9fU7LXVz5YDQf9MeuV1CvSYnO8-o5alQQBH0wboYMQ7d6EX5ggBLQjRaFYoFi7qVEKxMebKHfHqhdgFyDssMBVSIY7q4dX60bFWCMHqM_I5y0neNJjzbHVfmaBBDqxNm-dyxWL70gV2Vt9ihO1PDm05cZHRS3p43cdHly30MMBlSNWzhxRPaaTIZanXFBPqWDqdHQQoVBI2bB0ws5MhDKe0zEdUqXIG2sAJx8rFK4mvpL5hNnEDuQ7mW9y2sm9b6q4e8mH9sry5uBxMaqjllT1RjJYDko7odxKenj_I4kLMtODAimRzf2xpUtFA2CknBkvvCkXdKjQ4iiLnB6oi5TR3i9R-2s2WDU1FUcjudIjb22A-FJrzjhS8-PdgE5CsQPzo_yFQThy7zbDgi4DzR0mPriqLDIa4iKFcArHOI8QsLvqN8DDMLiUTRQJMDVK4Xjh6qR7oT3MgFnUlhfokVyKRS4nqgMwcmKoBjpC5zmAQicTQI7eguOt39fNJsdjGSNwESSoqZWArMMRgRK8YrvKCGV0t6Y7XOOUhr1s0HR-hDJrsldRuz3WNUqfEv3CshMKrvA-fZiTHCNwO6H7bjRfC7M5asPAks69e_ddGnKFeZc57Qxa4JK_WEwlpzugYEXJqwssp6aRROppSiIDURdIvhGO40RocMlrYf3Oo1N2yObeFDrdp5sUkusuTNSeUjmknruNDI7Ctfrdn9svesMpeL0V2iBgjYy6PBud6LLUmLkWC7E6oC8YzvYYroH1_3UsRbxv4m8jQ9LeC-JAoWpZkOrqByCqI4pSvYquI87o-bl85rlyzzwJCW-8_7t4qhW9e_9Nm00?></g></svg>