<?plantuml 1.2026.1?><svg xmlns="http://www.w3.org/2000/svg" xmlns:xlink="http://www.w3.org/1999/xlink" contentStyleType="text/css" data-diagram-type="DESCRIPTION" height="601px" preserveAspectRatio="none" style="width:3647px;height:601px;background:#FFFFFF;" version="1.1" viewBox="0 0 3647 601" width="3647px" zoomAndPan="magnify"><title>HexaStock &#8212; Filesystem Layout (current state)</title><defs/><g><g class="title" data-source-line="1"><text fill="#000000" font-family="sans-serif" font-size="14" font-weight="bold" lengthAdjust="spacing" textLength="372.7432" x="1630.6171" y="22.9951">HexaStock &#8212; Filesystem Layout (current state)</text></g><g class="legend" data-source-line="10"><rect fill="#F4F7FB" height="79.1875" rx="7.5" ry="7.5" style="stroke:#B3C4D9;stroke-width:1;" width="380.7539" x="12" y="49.2969"/><text fill="#000000" font-family="sans-serif" font-size="14" lengthAdjust="spacing" textLength="36.5518" x="21.4502" y="69.292">Color</text><text fill="#000000" font-family="sans-serif" font-size="14" lengthAdjust="spacing" textLength="59.7939" x="66.9023" y="69.292">Meaning</text><rect fill="#E7EEF7" height="16.2969" style="stroke:none;stroke-width:1;" width="45.4521" x="17" y="72.5938"/><text fill="#000000" font-family="sans-serif" font-size="14" lengthAdjust="spacing" textLength="4.4502" x="17" y="85.5889">&#160;</text><text fill="#000000" font-family="sans-serif" font-size="14" lengthAdjust="spacing" textLength="136.1719" x="66.9023" y="85.5889">Maven module root</text><rect fill="#FFF3CD" height="16.2969" style="stroke:none;stroke-width:1;" width="45.4521" x="17" y="88.8906"/><text fill="#000000" font-family="sans-serif" font-size="14" lengthAdjust="spacing" textLength="4.4502" x="17" y="101.8857">&#160;</text><text fill="#000000" font-family="sans-serif" font-size="14" lengthAdjust="spacing" textLength="316.4014" x="66.9023" y="101.8857">Bounded context package (Modulith module)</text><rect fill="#D4EDDA" height="16.2969" style="stroke:none;stroke-width:1;" width="45.4521" x="17" y="105.1875"/><text fill="#000000" font-family="sans-serif" font-size="14" lengthAdjust="spacing" textLength="4.4502" x="17" y="118.1826">&#160;</text><text fill="#000000" font-family="sans-serif" font-size="14" lengthAdjust="spacing" textLength="203.2256" x="66.9023" y="118.1826">Hexagonal layer subpackage</text><line style="stroke:#000000;stroke-width:1;" x1="17" x2="387.7539" y1="56.2969" y2="56.2969"/><line style="stroke:#000000;stroke-width:1;" x1="17" x2="387.7539" y1="72.5938" y2="72.5938"/><line style="stroke:#000000;stroke-width:1;" x1="17" x2="387.7539" y1="88.8906" y2="88.8906"/><line style="stroke:#000000;stroke-width:1;" x1="17" x2="387.7539" y1="105.1875" y2="105.1875"/><line style="stroke:#000000;stroke-width:1;" x1="17" x2="387.7539" y1="121.4844" y2="121.4844"/><line style="stroke:#000000;stroke-width:1;" x1="17" x2="17" y1="56.2969" y2="121.4844"/><line style="stroke:#000000;stroke-width:1;" x1="62.4521" x2="62.4521" y1="56.2969" y2="121.4844"/><line style="stroke:#000000;stroke-width:1;" x1="387.7539" x2="387.7539" y1="56.2969" y2="121.4844"/></g><!--cluster root--><g class="cluster" data-qualified-name="root" data-source-line="17" id="ent0002"><path d="M8.5,147.4844 L98.3057,147.4844 A3.75,3.75 0 0 1 100.8057,149.9844 L107.8057,169.7813 L3257.5,169.7813 A2.5,2.5 0 0 1 3260,172.2813 L3260,592.3244 A2.5,2.5 0 0 1 3257.5,594.8244 L8.5,594.8244 A2.5,2.5 0 0 1 6,592.3244 L6,149.9844 A2.5,2.5 0 0 1 8.5,147.4844" fill="#FFFFFF" style="stroke:#000000;stroke-width:1.5;"/><line style="stroke:#000000;stroke-width:1.5;" x1="6" x2="107.8057" y1="169.7813" y2="169.7813"/><text fill="#000000" font-family="sans-serif" font-size="14" font-weight="bold" lengthAdjust="spacing" textLength="88.8057" x="10" y="162.4795">HexaStock/</text></g><!--cluster domain--><g class="cluster" data-qualified-name="root.domain" data-source-line="19" id="ent0003"><path d="M40.5,198.4844 L105.0537,198.4844 A3.75,3.75 0 0 1 107.5537,200.9844 L114.5537,220.7813 L2329.5,220.7813 A2.5,2.5 0 0 1 2332,223.2813 L2332,560.3244 A2.5,2.5 0 0 1 2329.5,562.8244 L40.5,562.8244 A2.5,2.5 0 0 1 38,560.3244 L38,200.9844 A2.5,2.5 0 0 1 40.5,198.4844" fill="#E7EEF7" style="stroke:#000000;stroke-width:1.5;"/><line style="stroke:#000000;stroke-width:1.5;" x1="38" x2="114.5537" y1="220.7813" y2="220.7813"/><text fill="#000000" font-family="sans-serif" font-size="14" font-weight="bold" lengthAdjust="spacing" textLength="63.5537" x="42" y="213.4795">domain/</text></g><!--cluster cat.gencat.agaur.hexastock--><g class="cluster" data-qualified-name="root.domain.cat.gencat.agaur.hexastock" data-source-line="20" id="ent0004"><path d="M64.5,241.4844 L285.7949,241.4844 A3.75,3.75 0 0 1 288.2949,243.9844 L295.2949,263.7813 L2305.5,263.7813 A2.5,2.5 0 0 1 2308,266.2813 L2308,536.3244 A2.5,2.5 0 0 1 2305.5,538.8244 L64.5,538.8244 A2.5,2.5 0 0 1 62,536.3244 L62,243.9844 A2.5,2.5 0 0 1 64.5,241.4844" fill="none" style="stroke:#000000;stroke-width:1.5;"/><line style="stroke:#000000;stroke-width:1.5;" x1="62" x2="295.2949" y1="263.7813" y2="263.7813"/><text fill="#000000" font-family="sans-serif" font-size="14" font-weight="bold" lengthAdjust="spacing" textLength="220.2949" x="66" y="256.4795">cat.gencat.agaur.hexastock</text></g><!--cluster p_dom--><g class="cluster" data-qualified-name="root.domain.cat.gencat.agaur.hexastock.p_dom" data-source-line="22" id="ent0006"><path d="M88.5,284.4844 L171.1074,284.4844 A3.75,3.75 0 0 1 173.6074,286.9844 L180.6074,306.7813 L664.5,306.7813 A2.5,2.5 0 0 1 667,309.2813 L667,372.2844 A2.5,2.5 0 0 1 664.5,374.7844 L88.5,374.7844 A2.5,2.5 0 0 1 86,372.2844 L86,286.9844 A2.5,2.5 0 0 1 88.5,284.4844" fill="#FFF3CD" style="stroke:#000000;stroke-width:1.5;"/><line style="stroke:#000000;stroke-width:1.5;" x1="86" x2="180.6074" y1="306.7813" y2="306.7813"/><text fill="#000000" font-family="sans-serif" font-size="14" font-weight="bold" lengthAdjust="spacing" textLength="81.6074" x="90" y="299.4795">portfolios/</text></g><!--cluster m_dom--><g class="cluster" data-qualified-name="root.domain.cat.gencat.agaur.hexastock.m_dom" data-source-line="26" id="ent0009"><path d="M693.5,284.4844 L791.6592,284.4844 A3.75,3.75 0 0 1 794.1592,286.9844 L801.1592,306.7813 L970.5,306.7813 A2.5,2.5 0 0 1 973,309.2813 L973,372.2844 A2.5,2.5 0 0 1 970.5,374.7844 L693.5,374.7844 A2.5,2.5 0 0 1 691,372.2844 L691,286.9844 A2.5,2.5 0 0 1 693.5,284.4844" fill="#FFF3CD" style="stroke:#000000;stroke-width:1.5;"/><line style="stroke:#000000;stroke-width:1.5;" x1="691" x2="801.1592" y1="306.7813" y2="306.7813"/><text fill="#000000" font-family="sans-serif" font-size="14" font-weight="bold" lengthAdjust="spacing" textLength="97.1592" x="695" y="299.4795">marketdata/</text></g><!--cluster w_dom--><g class="cluster" data-qualified-name="root.domain.cat.gencat.agaur.hexastock.w_dom" data-source-line="29" id="ent0011"><path d="M999.5,284.4844 L1085.9082,284.4844 A3.75,3.75 0 0 1 1088.4082,286.9844 L1095.4082,306.7813 L1280.5,306.7813 A2.5,2.5 0 0 1 1283,309.2813 L1283,372.2844 A2.5,2.5 0 0 1 1280.5,374.7844 L999.5,374.7844 A2.5,2.5 0 0 1 997,372.2844 L997,286.9844 A2.5,2.5 0 0 1 999.5,284.4844" fill="#FFF3CD" style="stroke:#000000;stroke-width:1.5;"/><line style="stroke:#000000;stroke-width:1.5;" x1="997" x2="1095.4082" y1="306.7813" y2="306.7813"/><text fill="#000000" font-family="sans-serif" font-size="14" font-weight="bold" lengthAdjust="spacing" textLength="85.4082" x="1001" y="299.4795">watchlists/</text></g><!--cluster p_app--><g class="cluster" data-qualified-name="root.domain.cat.gencat.agaur.hexastock.p_app" data-source-line="37" id="ent0014"><path d="M1309.5,284.4844 L1392.1074,284.4844 A3.75,3.75 0 0 1 1394.6074,286.9844 L1401.6074,306.7813 L1751.5,306.7813 A2.5,2.5 0 0 1 1754,309.2813 L1754,512.3244 A2.5,2.5 0 0 1 1751.5,514.8244 L1309.5,514.8244 A2.5,2.5 0 0 1 1307,512.3244 L1307,286.9844 A2.5,2.5 0 0 1 1309.5,284.4844" fill="#FFF3CD" style="stroke:#000000;stroke-width:1.5;"/><line style="stroke:#000000;stroke-width:1.5;" x1="1307" x2="1401.6074" y1="306.7813" y2="306.7813"/><text fill="#000000" font-family="sans-serif" font-size="14" font-weight="bold" lengthAdjust="spacing" textLength="81.6074" x="1311" y="299.4795">portfolios/</text></g><!--cluster boot--><g class="cluster" data-qualified-name="root.boot" data-source-line="50" id="ent0022"><path d="M2358.5,260.0444 L2441.9619,260.0444 A3.75,3.75 0 0 1 2444.4619,262.5444 L2451.4619,282.3413 L2595.5,282.3413 A2.5,2.5 0 0 1 2598,284.8413 L2598,396.7344 A2.5,2.5 0 0 1 2595.5,399.2344 L2358.5,399.2344 A2.5,2.5 0 0 1 2356,396.7344 L2356,262.5444 A2.5,2.5 0 0 1 2358.5,260.0444" fill="#E7EEF7" style="stroke:#000000;stroke-width:1.5;"/><line style="stroke:#000000;stroke-width:1.5;" x1="2356" x2="2451.4619" y1="282.3413" y2="282.3413"/><text fill="#000000" font-family="sans-serif" font-size="14" font-weight="bold" lengthAdjust="spacing" textLength="82.4619" x="2360" y="275.0395">bootstrap/</text></g><!--entity adapters--><g class="entity" data-qualified-name="root.adapters" data-source-line="48" id="ent0021"><path d="M2618.79,311.3444 L2702.1523,311.3444 A3.75,3.75 0 0 1 2704.6523,313.8444 L2711.6523,333.6412 L3067.2148,333.6412 A2.5,2.5 0 0 1 3069.7148,336.1412 L3069.7148,364.4381 A2.5,2.5 0 0 1 3067.2148,366.9381 L2618.79,366.9381 A2.5,2.5 0 0 1 2616.29,364.4381 L2616.29,313.8444 A2.5,2.5 0 0 1 2618.79,311.3444" fill="#E7EEF7" style="stroke:#181818;stroke-width:0.5;"/><line style="stroke:#181818;stroke-width:0.5;" x1="2616.29" x2="2711.6523" y1="333.6412" y2="333.6412"/><text fill="#000000" font-family="sans-serif" font-size="14" font-weight="bold" lengthAdjust="spacing" textLength="70.3623" x="2626.29" y="327.3395">adapters</text><text fill="#000000" font-family="sans-serif" font-size="14" lengthAdjust="spacing" textLength="423.4248" x="2626.29" y="353.6364">adapters-* (rest, jpa, mongo, market, notification, telegram)</text></g><!--entity cross--><g class="entity" data-qualified-name="root.domain.cat.gencat.agaur.hexastock.cross" data-source-line="21" id="ent0005"><path d="M1775.86,311.3444 L1830.3473,311.3444 A3.75,3.75 0 0 1 1832.8473,313.8444 L1839.8473,333.6412 L2138.1383,333.6412 A2.5,2.5 0 0 1 2140.6383,336.1412 L2140.6383,364.4381 A2.5,2.5 0 0 1 2138.1383,366.9381 L1775.86,366.9381 A2.5,2.5 0 0 1 1773.36,364.4381 L1773.36,313.8444 A2.5,2.5 0 0 1 1775.86,311.3444" fill="#D4EDDA" style="stroke:#181818;stroke-width:0.5;"/><line style="stroke:#181818;stroke-width:0.5;" x1="1773.36" x2="1839.8473" y1="333.6412" y2="333.6412"/><text fill="#000000" font-family="sans-serif" font-size="14" font-weight="bold" lengthAdjust="spacing" textLength="41.4873" x="1783.36" y="327.3395">cross</text><text fill="#000000" font-family="sans-serif" font-size="14" lengthAdjust="spacing" textLength="337.2783" x="1783.36" y="353.6364">model/ (cross-cutting VOs: Money, Price, Ticker)</text></g><!--entity m_app--><g class="entity" data-qualified-name="root.domain.cat.gencat.agaur.hexastock.m_app" data-source-line="42" id="ent0018"><path d="M2178.28,311.3444 L2242.3581,311.3444 A3.75,3.75 0 0 1 2244.8581,313.8444 L2251.8581,333.6412 L2289.7136,333.6412 A2.5,2.5 0 0 1 2292.2136,336.1412 L2292.2136,364.4381 A2.5,2.5 0 0 1 2289.7136,366.9381 L2178.28,366.9381 A2.5,2.5 0 0 1 2175.78,364.4381 L2175.78,313.8444 A2.5,2.5 0 0 1 2178.28,311.3444" fill="#FFF3CD" style="stroke:#181818;stroke-width:0.5;"/><line style="stroke:#181818;stroke-width:0.5;" x1="2175.78" x2="2251.8581" y1="333.6412" y2="333.6412"/><text fill="#000000" font-family="sans-serif" font-size="14" font-weight="bold" lengthAdjust="spacing" textLength="51.0781" x="2185.78" y="327.3395">m_app</text><text fill="#000000" font-family="sans-serif" font-size="14" lengthAdjust="spacing" textLength="86.4336" x="2185.78" y="353.6364">marketdata/</text></g><!--entity w_app--><g class="entity" data-qualified-name="root.domain.cat.gencat.agaur.hexastock.w_app" data-source-line="43" id="ent0019"><path d="M1907.17,451.3744 L1969.5938,451.3744 A3.75,3.75 0 0 1 1972.0938,453.8744 L1979.0938,473.6713 L2006.8321,473.6713 A2.5,2.5 0 0 1 2009.3321,476.1713 L2009.3321,504.4681 A2.5,2.5 0 0 1 2006.8321,506.9681 L1907.17,506.9681 A2.5,2.5 0 0 1 1904.67,504.4681 L1904.67,453.8744 A2.5,2.5 0 0 1 1907.17,451.3744" fill="#FFF3CD" style="stroke:#181818;stroke-width:0.5;"/><line style="stroke:#181818;stroke-width:0.5;" x1="1904.67" x2="1979.0938" y1="473.6713" y2="473.6713"/><text fill="#000000" font-family="sans-serif" font-size="14" font-weight="bold" lengthAdjust="spacing" textLength="49.4238" x="1914.67" y="467.3695">w_app</text><text fill="#000000" font-family="sans-serif" font-size="14" lengthAdjust="spacing" textLength="74.6621" x="1914.67" y="493.6664">watchlists/</text></g><!--entity cross_app--><g class="entity" data-qualified-name="root.domain.cat.gencat.agaur.hexastock.cross_app" data-source-line="44" id="ent0020"><path d="M2046.56,443.2344 L2137.5375,443.2344 A3.75,3.75 0 0 1 2140.0375,445.7344 L2147.0375,465.5312 L2241.433,465.5312 A2.5,2.5 0 0 1 2243.933,468.0312 L2243.933,512.625 A2.5,2.5 0 0 1 2241.433,515.125 L2046.56,515.125 A2.5,2.5 0 0 1 2044.06,512.625 L2044.06,445.7344 A2.5,2.5 0 0 1 2046.56,443.2344" fill="#D4EDDA" style="stroke:#181818;stroke-width:0.5;"/><line style="stroke:#181818;stroke-width:0.5;" x1="2044.06" x2="2147.0375" y1="465.5312" y2="465.5312"/><text fill="#000000" font-family="sans-serif" font-size="14" font-weight="bold" lengthAdjust="spacing" textLength="77.9775" x="2054.06" y="459.2295">cross_app</text><text fill="#000000" font-family="sans-serif" font-size="14" lengthAdjust="spacing" textLength="137.751" x="2070.121" y="485.5264">application.port.out</text><text fill="#000000" font-family="sans-serif" font-size="14" lengthAdjust="spacing" textLength="169.873" x="2054.06" y="501.8232">(DomainEventPublisher)</text></g><!--entity portfolios.model.portfolio--><g class="entity" data-qualified-name="root.domain.cat.gencat.agaur.hexastock.p_dom.portfolios.model.portfolio" data-source-line="23" id="ent0007"><path d="M104.59,319.4844 L321.4035,319.4844 A3.75,3.75 0 0 1 323.9035,321.9844 L330.9035,341.7813 L345.4035,341.7813 A2.5,2.5 0 0 1 347.9035,344.2813 L347.9035,356.2813 A2.5,2.5 0 0 1 345.4035,358.7813 L104.59,358.7813 A2.5,2.5 0 0 1 102.09,356.2813 L102.09,321.9844 A2.5,2.5 0 0 1 104.59,319.4844" fill="#D4EDDA" style="stroke:#181818;stroke-width:0.5;"/><line style="stroke:#181818;stroke-width:0.5;" x1="102.09" x2="330.9035" y1="341.7813" y2="341.7813"/><text fill="#000000" font-family="sans-serif" font-size="14" font-weight="bold" lengthAdjust="spacing" textLength="203.8135" x="112.09" y="335.4795">portfolios.model.portfolio</text></g><!--entity portfolios.model.transaction--><g class="entity" data-qualified-name="root.domain.cat.gencat.agaur.hexastock.p_dom.portfolios.model.transaction" data-source-line="24" id="ent0008"><path d="M385.59,319.4844 L624.4084,319.4844 A3.75,3.75 0 0 1 626.9084,321.9844 L633.9084,341.7813 L648.4084,341.7813 A2.5,2.5 0 0 1 650.9084,344.2813 L650.9084,356.2813 A2.5,2.5 0 0 1 648.4084,358.7813 L385.59,358.7813 A2.5,2.5 0 0 1 383.09,356.2813 L383.09,321.9844 A2.5,2.5 0 0 1 385.59,319.4844" fill="#D4EDDA" style="stroke:#181818;stroke-width:0.5;"/><line style="stroke:#181818;stroke-width:0.5;" x1="383.09" x2="633.9084" y1="341.7813" y2="341.7813"/><text fill="#000000" font-family="sans-serif" font-size="14" font-weight="bold" lengthAdjust="spacing" textLength="225.8184" x="393.09" y="335.4795">portfolios.model.transaction</text></g><!--entity marketdata.model.market--><g class="entity" data-qualified-name="root.domain.cat.gencat.agaur.hexastock.m_dom.marketdata.model.market" data-source-line="27" id="ent0010"><path d="M709.68,319.4844 L930.3216,319.4844 A3.75,3.75 0 0 1 932.8216,321.9844 L939.8216,341.7813 L954.3216,341.7813 A2.5,2.5 0 0 1 956.8216,344.2813 L956.8216,356.2813 A2.5,2.5 0 0 1 954.3216,358.7813 L709.68,358.7813 A2.5,2.5 0 0 1 707.18,356.2813 L707.18,321.9844 A2.5,2.5 0 0 1 709.68,319.4844" fill="#D4EDDA" style="stroke:#181818;stroke-width:0.5;"/><line style="stroke:#181818;stroke-width:0.5;" x1="707.18" x2="939.8216" y1="341.7813" y2="341.7813"/><text fill="#000000" font-family="sans-serif" font-size="14" font-weight="bold" lengthAdjust="spacing" textLength="207.6416" x="717.18" y="335.4795">marketdata.model.market</text></g><!--entity watchlists.model.watchlist--><g class="entity" data-qualified-name="root.domain.cat.gencat.agaur.hexastock.w_dom.watchlists.model.watchlist" data-source-line="30" id="ent0012"><path d="M1015.79,319.4844 L1240.205,319.4844 A3.75,3.75 0 0 1 1242.705,321.9844 L1249.705,341.7813 L1264.205,341.7813 A2.5,2.5 0 0 1 1266.705,344.2813 L1266.705,356.2813 A2.5,2.5 0 0 1 1264.205,358.7813 L1015.79,358.7813 A2.5,2.5 0 0 1 1013.29,356.2813 L1013.29,321.9844 A2.5,2.5 0 0 1 1015.79,319.4844" fill="#D4EDDA" style="stroke:#181818;stroke-width:0.5;"/><line style="stroke:#181818;stroke-width:0.5;" x1="1013.29" x2="1249.705" y1="341.7813" y2="341.7813"/><text fill="#000000" font-family="sans-serif" font-size="14" font-weight="bold" lengthAdjust="spacing" textLength="211.415" x="1023.29" y="335.4795">watchlists.model.watchlist</text></g><!--entity application.service--><g class="entity" data-qualified-name="root.domain.cat.gencat.agaur.hexastock.p_app.application.service" data-source-line="38" id="ent0015"><path d="M1325.66,319.4844 L1488.3397,319.4844 A3.75,3.75 0 0 1 1490.8397,321.9844 L1497.8397,341.7813 L1512.3397,341.7813 A2.5,2.5 0 0 1 1514.8397,344.2813 L1514.8397,356.2813 A2.5,2.5 0 0 1 1512.3397,358.7813 L1325.66,358.7813 A2.5,2.5 0 0 1 1323.16,356.2813 L1323.16,321.9844 A2.5,2.5 0 0 1 1325.66,319.4844" fill="#D4EDDA" style="stroke:#181818;stroke-width:0.5;"/><line style="stroke:#181818;stroke-width:0.5;" x1="1323.16" x2="1497.8397" y1="341.7813" y2="341.7813"/><text fill="#000000" font-family="sans-serif" font-size="14" font-weight="bold" lengthAdjust="spacing" textLength="149.6797" x="1333.16" y="335.4795">application.service</text></g><!--entity application.port.in--><g class="entity" data-qualified-name="root.domain.cat.gencat.agaur.hexastock.p_app.application.port.in" data-source-line="39" id="ent0016"><path d="M1552.23,319.4844 L1711.7788,319.4844 A3.75,3.75 0 0 1 1714.2788,321.9844 L1721.2788,341.7813 L1735.7788,341.7813 A2.5,2.5 0 0 1 1738.2788,344.2813 L1738.2788,356.2813 A2.5,2.5 0 0 1 1735.7788,358.7813 L1552.23,358.7813 A2.5,2.5 0 0 1 1549.73,356.2813 L1549.73,321.9844 A2.5,2.5 0 0 1 1552.23,319.4844" fill="#D4EDDA" style="stroke:#181818;stroke-width:0.5;"/><line style="stroke:#181818;stroke-width:0.5;" x1="1549.73" x2="1721.2788" y1="341.7813" y2="341.7813"/><text fill="#000000" font-family="sans-serif" font-size="14" font-weight="bold" lengthAdjust="spacing" textLength="146.5488" x="1559.73" y="335.4795">application.port.in</text></g><!--entity application.port.out--><g class="entity" data-qualified-name="root.domain.cat.gencat.agaur.hexastock.p_app.application.port.out" data-source-line="40" id="ent0017"><path d="M1325.47,459.5244 L1496.5305,459.5244 A3.75,3.75 0 0 1 1499.0305,462.0244 L1506.0305,481.8212 L1520.5305,481.8212 A2.5,2.5 0 0 1 1523.0305,484.3212 L1523.0305,496.3212 A2.5,2.5 0 0 1 1520.5305,498.8212 L1325.47,498.8212 A2.5,2.5 0 0 1 1322.97,496.3212 L1322.97,462.0244 A2.5,2.5 0 0 1 1325.47,459.5244" fill="#D4EDDA" style="stroke:#181818;stroke-width:0.5;"/><line style="stroke:#181818;stroke-width:0.5;" x1="1322.97" x2="1506.0305" y1="481.8212" y2="481.8212"/><text fill="#000000" font-family="sans-serif" font-size="14" font-weight="bold" lengthAdjust="spacing" textLength="158.0605" x="1332.97" y="475.5195">application.port.out</text></g><!--entity app--><g class="entity" data-qualified-name="root.app" data-source-line="35" id="ent0013"><path d="M3107.53,311.3444 L3150.0202,311.3444 A3.75,3.75 0 0 1 3152.5202,313.8444 L3159.5202,333.6412 L3214.4724,333.6412 A2.5,2.5 0 0 1 3216.9724,336.1412 L3216.9724,364.4381 A2.5,2.5 0 0 1 3214.4724,366.9381 L3107.53,366.9381 A2.5,2.5 0 0 1 3105.03,364.4381 L3105.03,313.8444 A2.5,2.5 0 0 1 3107.53,311.3444" fill="#E7EEF7" style="stroke:#181818;stroke-width:0.5;"/><line style="stroke:#181818;stroke-width:0.5;" x1="3105.03" x2="3159.5202" y1="333.6412" y2="333.6412"/><text fill="#000000" font-family="sans-serif" font-size="14" font-weight="bold" lengthAdjust="spacing" textLength="29.4902" x="3115.03" y="327.3395">app</text><text fill="#000000" font-family="sans-serif" font-size="14" lengthAdjust="spacing" textLength="81.9424" x="3115.03" y="353.6364">application/</text></g><!--entity bootcfg--><g class="entity" data-qualified-name="root.boot.bootcfg" data-source-line="51" id="ent0023"><path d="M2374.73,295.0444 L2448.0913,295.0444 A3.75,3.75 0 0 1 2450.5913,297.5444 L2457.5913,317.3413 L2579.2759,317.3413 A2.5,2.5 0 0 1 2581.7759,319.8413 L2581.7759,380.7319 A2.5,2.5 0 0 1 2579.2759,383.2319 L2374.73,383.2319 A2.5,2.5 0 0 1 2372.23,380.7319 L2372.23,297.5444 A2.5,2.5 0 0 1 2374.73,295.0444" fill="#D4EDDA" style="stroke:#181818;stroke-width:0.5;"/><line style="stroke:#181818;stroke-width:0.5;" x1="2372.23" x2="2457.5913" y1="317.3413" y2="317.3413"/><text fill="#000000" font-family="sans-serif" font-size="14" font-weight="bold" lengthAdjust="spacing" textLength="60.3613" x="2382.23" y="311.0395">bootcfg</text><text fill="#000000" font-family="sans-serif" font-size="14" lengthAdjust="spacing" textLength="169.627" x="2387.1895" y="337.3364">@SpringBootApplication</text><text fill="#000000" font-family="sans-serif" font-size="14" lengthAdjust="spacing" textLength="159.3115" x="2392.3472" y="353.6332">+ @ApplicationModule</text><text fill="#000000" font-family="sans-serif" font-size="14" lengthAdjust="spacing" textLength="179.5459" x="2382.23" y="369.9301">package-info.java mirrors</text></g><g class="entity" data-qualified-name="GMN24" data-source-line="56" id="ent0025"><path d="M3287.03,303.8744 L3287.03,374.4056 L3640.9773,374.4056 L3640.9773,313.8744 L3630.9773,303.8744 L3287.03,303.8744" fill="#FEFFDD" style="stroke:#181818;stroke-width:0.5;"/><path d="M3630.9773,303.8744 L3630.9773,313.8744 L3640.9773,313.8744 L3630.9773,303.8744" fill="#FEFFDD" style="stroke:#181818;stroke-width:1;"/><text fill="#000000" font-family="sans-serif" font-size="13" lengthAdjust="spacing" textLength="295.8452" x="3293.03" y="320.9413">Each Modulith module (yellow) cuts vertically</text><text fill="#000000" font-family="sans-serif" font-size="13" lengthAdjust="spacing" textLength="332.9473" x="3293.03" y="336.0741">through ALL Maven modules. The package name is</text><text fill="#000000" font-family="sans-serif" font-size="13" lengthAdjust="spacing" textLength="297.8447" x="3293.03" y="351.2069">the module identity; the Maven module is the</text><text fill="#000000" font-family="sans-serif" font-size="13" lengthAdjust="spacing" textLength="108.7988" x="3293.03" y="366.3397">hexagonal layer.</text></g><!--link root to GMN24--><g class="link" data-entity-1="ent0002" data-entity-2="ent0025" data-link-type="association" data-source-line="56" id="lnk26"><path d="M3260.0951,339.1344 C3260.1391,339.1344 3260.1831,339.1344 3260.2272,339.1344 C3260.5795,339.1344 3260.9318,339.1344 3261.2841,339.1344 C3264.1025,339.1344 3266.9213,339.1344 3269.74,339.1344 C3275.3775,339.1344 3281.015,339.1344 3286.65,339.1344" fill="none" id="root-GMN24" style="stroke:#181818;stroke-width:1;stroke-dasharray:7,7;"/></g><?plantuml-src hLNRRjf047ttLup82xJ4UKYag1TLITf4VI1gf4HzYbGDzjZUiEnQksC8AaZzY7vXlwJZ2uuXDAXLUS0mFZFdpCpwc1LhWi_qYBTiemdy-l4JhfGcl_1CKnZXmXOC_QXmZWo3PsGQ186VA9EZmodu36CxLoQ51BMdpfqnHfFKsSB47wss3Wwkgay7CQAKJ0pV0u2BRN1oafmcu_AETJ6v9Ze-ZaxYDy4g27ITopO7JGaBS0arQ0dNXAPKj2oZxm_eb2Wv_I1nd961gOqBwTbPosj4aYJ7KIo8Yr81nH1Pm_J8a8iiJ0dwrsMIugp97gmpunEAOvJCSeIfDQX1uu8S-6AyJbu6ehJM6mJhOA-T-L4FqDTocX79HAHwYupj59MfOVLlQ7ggHjT1HiYXq9GNJB5mOIOalYJfDT0EM3eXVIIxTTRxmwXWBcVszOj_2zVMq688Dqv5D8Gx5Kt83Ih-2WnDsziLS-iuiLfPNulDlubSQARR2jYP45PgmZRGs-9uAOaT6eyHAsksqrRFcaOt8OwHiPOutIVnAQ5XgmDxYUR8KQQLvsOMytr4JmaDKHlOpLL-hpRE2UQvLh9xcKFDAO7_SbAUxxMg_ETUEaf2Jsucn-Y5XNRH9LMepD-WnQ3-OUsT3lQlxWNmBZdtfl-fUaulnM_ufXXBiMpZ2QehTZJls6QCEPFpXw-WxyZp41vo78h_cDJAfMfe2CQoIXh-8J29pOYpraph2kipi55-B7xZvSd9wnx7bVtiFYjdjxaJQxWGoFbJj_VcDPnr_bSEIVUcIJjK9h7X0yuGfievwtpB4oLff_TLwURIXZYoIZC6crHUA7SkCSfWotYXlo2jxNm0ObWUPkHO-BLU29upUO6a6PoFHXjMxqEuowZjn-2KGFagWTPbLIoRKhnuLmKtNXJAbp61PviM7vQsNYw0Wjy0?></g></svg>