<?plantuml 1.2026.1?><svg xmlns="http://www.w3.org/2000/svg" xmlns:xlink="http://www.w3.org/1999/xlink" contentStyleType="text/css" data-diagram-type="DESCRIPTION" height="594px" preserveAspectRatio="none" style="width:855px;height:594px;background:#FFFFFF;" version="1.1" viewBox="0 0 855 594" width="855px" zoomAndPan="magnify"><title>HexaStock &#8212; Spring Modulith Application Modules</title><defs/><g><g class="title" data-source-line="1"><text fill="#000000" font-family="sans-serif" font-size="14" font-weight="bold" lengthAdjust="spacing" textLength="399.1162" x="221.32" y="22.9951">HexaStock &#8212; Spring Modulith Application Modules</text></g><!--entity marketdata--><g class="entity" data-qualified-name="marketdata" data-source-line="10" id="ent0002"><rect fill="#D4EDDA" height="62.5938" rx="2.5" ry="2.5" style="stroke:#1F4E79;stroke-width:0.5;" width="121.7168" x="274.15" y="423.4869"/><rect fill="#D4EDDA" height="10" style="stroke:#1F4E79;stroke-width:0.5;" width="15" x="375.8668" y="428.4869"/><rect fill="#D4EDDA" height="2" style="stroke:#1F4E79;stroke-width:0.5;" width="4" x="373.8668" y="430.4869"/><rect fill="#D4EDDA" height="2" style="stroke:#1F4E79;stroke-width:0.5;" width="4" x="373.8668" y="434.4869"/><text fill="#000000" font-family="sans-serif" font-size="14" font-style="italic" lengthAdjust="spacing" textLength="43.292" x="308.3624" y="456.482">&#171;leaf&#187;</text><text fill="#000000" font-family="sans-serif" font-size="14" lengthAdjust="spacing" textLength="81.7168" x="289.15" y="472.7789">marketdata</text></g><!--entity portfolios--><g class="entity" data-qualified-name="portfolios" data-source-line="11" id="ent0003"><rect fill="#FFF3CD" height="46.2969" rx="2.5" ry="2.5" style="stroke:#1F4E79;stroke-width:0.5;" width="105.8301" x="688.1" y="245.5069"/><rect fill="#FFF3CD" height="10" style="stroke:#1F4E79;stroke-width:0.5;" width="15" x="773.9301" y="250.5069"/><rect fill="#FFF3CD" height="2" style="stroke:#1F4E79;stroke-width:0.5;" width="4" x="771.9301" y="252.5069"/><rect fill="#FFF3CD" height="2" style="stroke:#1F4E79;stroke-width:0.5;" width="4" x="771.9301" y="256.5069"/><text fill="#000000" font-family="sans-serif" font-size="14" lengthAdjust="spacing" textLength="65.8301" x="703.1" y="278.502">portfolios</text></g><!--entity watchlists--><g class="entity" data-qualified-name="watchlists" data-source-line="12" id="ent0004"><rect fill="#FFF3CD" height="46.2969" rx="2.5" ry="2.5" style="stroke:#1F4E79;stroke-width:0.5;" width="109.9453" x="280.04" y="245.5069"/><rect fill="#FFF3CD" height="10" style="stroke:#1F4E79;stroke-width:0.5;" width="15" x="369.9853" y="250.5069"/><rect fill="#FFF3CD" height="2" style="stroke:#1F4E79;stroke-width:0.5;" width="4" x="367.9853" y="252.5069"/><rect fill="#FFF3CD" height="2" style="stroke:#1F4E79;stroke-width:0.5;" width="4" x="367.9853" y="256.5069"/><text fill="#000000" font-family="sans-serif" font-size="14" lengthAdjust="spacing" textLength="69.9453" x="295.04" y="278.502">watchlists</text></g><!--entity notifications--><g class="entity" data-qualified-name="notifications" data-source-line="13" id="ent0005"><rect fill="#FFF3CD" height="46.2969" rx="2.5" ry="2.5" style="stroke:#1F4E79;stroke-width:0.5;" width="126.0234" x="7" y="55.4069"/><rect fill="#FFF3CD" height="10" style="stroke:#1F4E79;stroke-width:0.5;" width="15" x="113.0234" y="60.4069"/><rect fill="#FFF3CD" height="2" style="stroke:#1F4E79;stroke-width:0.5;" width="4" x="111.0234" y="62.4069"/><rect fill="#FFF3CD" height="2" style="stroke:#1F4E79;stroke-width:0.5;" width="4" x="111.0234" y="66.4069"/><text fill="#000000" font-family="sans-serif" font-size="14" lengthAdjust="spacing" textLength="86.0234" x="22" y="88.402">notifications</text></g><g class="entity" data-qualified-name="GMN10" data-source-line="21" id="ent0011"><path d="M231.3,547.0769 L231.3,587.3425 A0,0 0 0 0 231.3,587.3425 L438.7243,587.3425 A0,0 0 0 0 438.7243,587.3425 L438.7243,557.0769 L428.7243,547.0769 L339.01,547.0769 L335.01,486.5469 L331.01,547.0769 L231.3,547.0769 A0,0 0 0 0 231.3,547.0769" fill="#FEFFDD" style="stroke:#181818;stroke-width:0.5;"/><path d="M428.7243,547.0769 L428.7243,557.0769 L438.7243,557.0769 L428.7243,547.0769" fill="#FEFFDD" style="stroke:#181818;stroke-width:0.5;"/><text fill="#000000" font-family="sans-serif" font-size="13" lengthAdjust="spacing" textLength="168.3081" x="237.3" y="564.1438">Leaf module. No outgoing</text><text fill="#000000" font-family="sans-serif" font-size="13" lengthAdjust="spacing" textLength="186.4243" x="237.3" y="579.2766">cross-module dependencies.</text></g><g class="entity" data-qualified-name="GMN13" data-source-line="26" id="ent0014"><path d="M167.74,43.2969 L167.74,74.5569 L133.49,78.5569 L167.74,82.5569 L167.74,113.8281 A0,0 0 0 0 167.74,113.8281 L472.2771,113.8281 A0,0 0 0 0 472.2771,113.8281 L472.2771,53.2969 L462.2771,43.2969 L167.74,43.2969 A0,0 0 0 0 167.74,43.2969" fill="#FEFFDD" style="stroke:#181818;stroke-width:0.5;"/><path d="M462.2771,43.2969 L462.2771,53.2969 L472.2771,53.2969 L462.2771,43.2969" fill="#FEFFDD" style="stroke:#181818;stroke-width:0.5;"/><text fill="#000000" font-family="sans-serif" font-size="13" lengthAdjust="spacing" textLength="200.0591" x="173.74" y="60.3638">Only module that knows about</text><text fill="#000000" font-family="sans-serif" font-size="13" lengthAdjust="spacing" textLength="215.4966" x="173.74" y="75.4966">channels (Telegram, logging, ...).</text><text fill="#000000" font-family="sans-serif" font-size="13" lengthAdjust="spacing" textLength="283.5371" x="173.74" y="90.6294">Subscribes to WatchlistAlertTriggeredEvent</text><text fill="#000000" font-family="sans-serif" font-size="13" lengthAdjust="spacing" textLength="212.748" x="173.74" y="105.7622">via @ApplicationModuleListener.</text></g><g class="entity" data-qualified-name="GMN16" data-source-line="33" id="ent0017"><path d="M424.86,225.8269 L424.86,311.4909 A0,0 0 0 0 424.86,311.4909 L653.1554,311.4909 A0,0 0 0 0 653.1554,311.4909 L653.1554,272.6569 L687.64,268.6569 L653.1554,264.6569 L653.1554,235.8269 L643.1554,225.8269 L424.86,225.8269 A0,0 0 0 0 424.86,225.8269" fill="#FEFFDD" style="stroke:#181818;stroke-width:0.5;"/><path d="M643.1554,225.8269 L643.1554,235.8269 L653.1554,235.8269 L643.1554,225.8269" fill="#FEFFDD" style="stroke:#181818;stroke-width:0.5;"/><text fill="#000000" font-family="sans-serif" font-size="13" lengthAdjust="spacing" textLength="169.3428" x="430.86" y="242.8938">Owns Portfolio aggregate,</text><text fill="#000000" font-family="sans-serif" font-size="13" lengthAdjust="spacing" textLength="174.9478" x="430.86" y="258.0266">FIFO trading orchestration,</text><text fill="#000000" font-family="sans-serif" font-size="13" lengthAdjust="spacing" textLength="126.001" x="430.86" y="273.1594">Transaction ledger.</text><text fill="#000000" font-family="sans-serif" font-size="13" lengthAdjust="spacing" textLength="207.2954" x="430.86" y="288.2922">Does NOT depend on watchlists</text><text fill="#000000" font-family="sans-serif" font-size="13" lengthAdjust="spacing" textLength="101.4419" x="430.86" y="303.425">or notifications.</text></g><!--link portfolios to marketdata--><g class="link" data-entity-1="ent0003" data-entity-2="ent0002" data-link-type="dependency" data-source-line="15" id="lnk6"><path d="M713.03,292.1669 C677.68,319.6169 614.04,365.7769 553.01,393.4869 C502.24,416.5369 446.5834,431.294 401.8534,441.004" fill="none" id="portfolios-to-marketdata" style="stroke:#1F4E79;stroke-width:1;"/><polygon fill="#1F4E79" points="395.99,442.2769,405.6337,444.2766,400.8762,441.2162,403.9366,436.4587,395.99,442.2769" style="stroke:#1F4E79;stroke-width:1;"/><text fill="#000000" font-family="sans-serif" font-size="13" lengthAdjust="spacing" textLength="142.543" x="675.0616" y="354.5538">allowedDependencies</text><text fill="#000000" font-family="sans-serif" font-size="17" font-weight="bold" lengthAdjust="spacing" textLength="202.8462" x="644.91" y="373.3995">{marketdata::model,</text><text fill="#000000" font-family="sans-serif" font-size="13" lengthAdjust="spacing" textLength="145.5391" x="679.7621" y="389.4756">marketdata::port-out}</text></g><!--link watchlists to marketdata--><g class="link" data-entity-1="ent0004" data-entity-2="ent0002" data-link-type="dependency" data-source-line="16" id="lnk7"><path d="M335.01,292.2369 C335.01,325.0769 335.01,380.1269 335.01,417.0469" fill="none" id="watchlists-to-marketdata" style="stroke:#1F4E79;stroke-width:1;"/><polygon fill="#1F4E79" points="335.01,423.0469,339.01,414.0469,335.01,418.0469,331.01,414.0469,335.01,423.0469" style="stroke:#1F4E79;stroke-width:1;"/><text fill="#000000" font-family="sans-serif" font-size="13" lengthAdjust="spacing" textLength="142.543" x="368.9839" y="362.5538">allowedDependencies</text><text fill="#000000" font-family="sans-serif" font-size="17" font-weight="bold" lengthAdjust="spacing" textLength="208.4907" x="336.01" y="381.3995">{marketdata::model}</text></g><!--link notifications to watchlists--><g class="link" data-entity-1="ent0005" data-entity-2="ent0004" data-link-type="dependency" data-source-line="17" id="lnk8"><path d="M101.71,102.0569 C152.68,138.2369 247.3871,205.4642 298.3771,241.6542" fill="none" id="notifications-to-watchlists" style="stroke:#1F4E79;stroke-width:1;"/><polygon fill="#1F4E79" points="303.27,245.1269,298.2458,236.6559,299.1926,242.233,293.6155,243.1797,303.27,245.1269" style="stroke:#1F4E79;stroke-width:1;"/><text fill="#000000" font-family="sans-serif" font-size="13" lengthAdjust="spacing" textLength="142.543" x="315.1626" y="156.8938">allowedDependencies</text><text fill="#000000" font-family="sans-serif" font-size="17" font-weight="bold" lengthAdjust="spacing" textLength="318.3682" x="227.25" y="175.7395">{watchlists, marketdata::model}</text><text fill="#000000" font-family="sans-serif" font-size="13" lengthAdjust="spacing" textLength="169.9077" x="301.4802" y="191.8156">(consumes domain event)</text></g><!--link notifications to marketdata--><g class="link" data-entity-1="ent0005" data-entity-2="ent0002" data-link-type="dependency" data-source-line="18" id="lnk9"><path d="M61.23,102.0269 C45.61,145.9469 18.31,244.7069 59.01,311.4869 C105.59,387.9069 201.9923,423.5792 268.1123,440.2592" fill="none" id="notifications-to-marketdata" style="stroke:#1F4E79;stroke-width:1;stroke-dasharray:7,7;"/><polygon fill="#1F4E79" points="273.93,441.7269,266.1818,435.6469,269.0819,440.5038,264.225,443.4039,273.93,441.7269" style="stroke:#1F4E79;stroke-width:1;"/><text fill="#000000" font-family="sans-serif" font-size="13" lengthAdjust="spacing" textLength="202.4331" x="60.01" y="273.2238">Ticker VO inside event payload</text></g><?plantuml-src fLJ1QXin4BtlLmpE9G5xeJHGQb9JDwbf8OqBDkt5bx4qkojMgraaEMueWNv4lh1VKibhTsM7qaBtj9fvyzxJI2Ell2RuGDzmuLdKyFF74onQgqm9drXkjF8LJDjMAu5UiUc2vBBCrSgqQB41Lw7aRQmeK3jACciKTMbvO-GrQxPmDjjz2M9gBM_toHV59RrwdIIlkMdPaF7ls4goVuUToXL5yLB8Vu1UNMd2OZA1Ctb9KcAMYGCI1WtQchn4ZmFu3KG7VJn5jsnzmLgn6qHGlqn1M_IYqihv3jGlKv1XhufztplSKIJBUcw8tsWqIJp1651htfAyePQC92CKkPLv0zzxq7ZSi2GzN9bGduOZzOWt_Z7hlVsdo6DsPB-ZIjZ_JDM3Xl2STcNEHU3RDEH0SeFA0Ds71bwSwkNvYVMb4ZLP-387PPoIrDL1Ym-QKMQndc3DtdC3NAJd3N0RhW4qks78uOuXzAhaC0CX9ImxD-fo89FDv5duZOT8Uswhoif7wkE31PWR_R1d1r-XXzhmrW6kWqnKgD0OqWxEbwIf33Tx29hBCkWFmpRpYpo05fkr4rQjGriymzT33wUQh5y6vP8ioVTnnm5yhn3U9dFUZVbjm9CX-youfcBdExdTmVGsTFdp8G9ObfPAz3GCkTd7sHoyHHcV2RQY8XTMKIbcbnQDGx5xO3J9CYe2t72mVZTVxdi88PaC2WIQuxubBdy1?></g></svg>