<?plantuml 1.2026.1?><svg xmlns="http://www.w3.org/2000/svg" xmlns:xlink="http://www.w3.org/1999/xlink" contentStyleType="text/css" data-diagram-type="DESCRIPTION" height="873px" preserveAspectRatio="none" style="width:1200px;height:873px;background:#FFFFFF;" version="1.1" viewBox="0 0 1200 873" width="1200px" zoomAndPan="magnify"><title>HexaStock &#8212; Hexagonal (Ports &amp; Adapters) View, per Bounded Context</title><defs/><g><g class="title" data-source-line="1"><text fill="#000000" font-family="sans-serif" font-size="14" font-weight="bold" lengthAdjust="spacing" textLength="564.9971" x="310.5015" y="22.9951">HexaStock &#8212; Hexagonal (Ports &amp; Adapters) View, per Bounded Context</text></g><!--cluster inbound--><g class="cluster" data-qualified-name="inbound" data-source-line="8" id="ent0002"><path d="M260,43.2969 L424.8135,43.2969 A7.5,7.5 0 0 1 429.8135,48.2969 L436.8135,65.5938 L746,65.5938 A5,5 0 0 1 751,70.5938 L751,135.5969 A5,5 0 0 1 746,140.5969 L260,140.5969 A5,5 0 0 1 255,135.5969 L255,48.2969 A5,5 0 0 1 260,43.2969" fill="#E7EEF7" style="stroke:#000000;stroke-width:1.5;"/><line style="stroke:#000000;stroke-width:1.5;" x1="255" x2="436.8135" y1="65.5938" y2="65.5938"/><text fill="#000000" font-family="sans-serif" font-size="14" font-weight="bold" lengthAdjust="spacing" textLength="168.8135" x="259" y="58.292">Inbound (Driver) side</text></g><!--cluster domain--><g class="cluster" data-qualified-name="domain" data-source-line="16" id="ent0007"><path d="M751,456.1269 L807.04,456.1269 A7.5,7.5 0 0 1 812.04,461.1269 L819.04,478.4238 L1188,478.4238 A5,5 0 0 1 1193,483.4238 L1193,564.7269 A5,5 0 0 1 1188,569.7269 L751,569.7269 A5,5 0 0 1 746,564.7269 L746,461.1269 A5,5 0 0 1 751,456.1269" fill="#D4EDDA" style="stroke:#000000;stroke-width:1.5;"/><line style="stroke:#000000;stroke-width:1.5;" x1="746" x2="819.04" y1="478.4238" y2="478.4238"/><text fill="#000000" font-family="sans-serif" font-size="14" font-weight="bold" lengthAdjust="spacing" textLength="60.04" x="750" y="471.122">Domain</text></g><!--cluster outbound--><g class="cluster" data-qualified-name="outbound" data-source-line="21" id="ent0010"><path d="M11,614.4269 L192.2607,614.4269 A7.5,7.5 0 0 1 197.2607,619.4269 L204.2607,636.7238 L744,636.7238 A5,5 0 0 1 749,641.7238 L749,861.3169 A5,5 0 0 1 744,866.3169 L11,866.3169 A5,5 0 0 1 6,861.3169 L6,619.4269 A5,5 0 0 1 11,614.4269" fill="#E7EEF7" style="stroke:#000000;stroke-width:1.5;"/><line style="stroke:#000000;stroke-width:1.5;" x1="6" x2="204.2607" y1="636.7238" y2="636.7238"/><text fill="#000000" font-family="sans-serif" font-size="14" font-weight="bold" lengthAdjust="spacing" textLength="185.2607" x="10" y="629.422">Outbound (Driven) side</text></g><!--entity rest--><g class="entity" data-qualified-name="inbound.rest" data-source-line="9" id="ent0003"><rect fill="#F1F1F1" height="46.2969" rx="5" ry="5" style="stroke:#181818;stroke-width:0.5;" width="149.6348" x="271.18" y="78.2969"/><rect fill="#F1F1F1" height="10" style="stroke:#181818;stroke-width:0.5;" width="15" x="400.8148" y="83.2969"/><rect fill="#F1F1F1" height="2" style="stroke:#181818;stroke-width:0.5;" width="4" x="398.8148" y="85.2969"/><rect fill="#F1F1F1" height="2" style="stroke:#181818;stroke-width:0.5;" width="4" x="398.8148" y="89.2969"/><text fill="#000000" font-family="sans-serif" font-size="14" lengthAdjust="spacing" textLength="109.6348" x="286.18" y="111.292">REST Controller</text></g><!--entity sched--><g class="entity" data-qualified-name="inbound.sched" data-source-line="10" id="ent0004"><rect fill="#F1F1F1" height="46.2969" rx="5" ry="5" style="stroke:#181818;stroke-width:0.5;" width="110.0889" x="455.96" y="78.2969"/><rect fill="#F1F1F1" height="10" style="stroke:#181818;stroke-width:0.5;" width="15" x="546.0489" y="83.2969"/><rect fill="#F1F1F1" height="2" style="stroke:#181818;stroke-width:0.5;" width="4" x="544.0489" y="85.2969"/><rect fill="#F1F1F1" height="2" style="stroke:#181818;stroke-width:0.5;" width="4" x="544.0489" y="89.2969"/><text fill="#000000" font-family="sans-serif" font-size="14" lengthAdjust="spacing" textLength="70.0889" x="470.96" y="111.292">Scheduler</text></g><!--entity tg--><g class="entity" data-qualified-name="inbound.tg" data-source-line="11" id="ent0005"><rect fill="#F1F1F1" height="46.2969" rx="5" ry="5" style="stroke:#181818;stroke-width:0.5;" width="134.6367" x="600.68" y="78.2969"/><rect fill="#F1F1F1" height="10" style="stroke:#181818;stroke-width:0.5;" width="15" x="715.3167" y="83.2969"/><rect fill="#F1F1F1" height="2" style="stroke:#181818;stroke-width:0.5;" width="4" x="713.3167" y="85.2969"/><rect fill="#F1F1F1" height="2" style="stroke:#181818;stroke-width:0.5;" width="4" x="713.3167" y="89.2969"/><text fill="#000000" font-family="sans-serif" font-size="14" lengthAdjust="spacing" textLength="94.6367" x="615.68" y="111.292">Telegram Bot</text></g><!--entity agg--><g class="entity" data-qualified-name="domain.agg" data-source-line="17" id="ent0008"><rect fill="#F1F1F1" height="62.5938" rx="5" ry="5" style="stroke:#181818;stroke-width:0.5;" width="187.6768" x="762.16" y="491.1269"/><rect fill="#F1F1F1" height="10" style="stroke:#181818;stroke-width:0.5;" width="15" x="929.8368" y="496.1269"/><rect fill="#F1F1F1" height="2" style="stroke:#181818;stroke-width:0.5;" width="4" x="927.8368" y="498.1269"/><rect fill="#F1F1F1" height="2" style="stroke:#181818;stroke-width:0.5;" width="4" x="927.8368" y="502.1269"/><text fill="#000000" font-family="sans-serif" font-size="14" lengthAdjust="spacing" textLength="110.0859" x="777.16" y="524.122">Aggregate Root</text><text fill="#000000" font-family="sans-serif" font-size="14" lengthAdjust="spacing" textLength="147.6768" x="777.16" y="540.4189">(Portfolio / Watchlist)</text></g><!--entity vo--><g class="entity" data-qualified-name="domain.vo" data-source-line="18" id="ent0009"><rect fill="#F1F1F1" height="62.5938" rx="5" ry="5" style="stroke:#181818;stroke-width:0.5;" width="192.1543" x="984.92" y="491.1269"/><rect fill="#F1F1F1" height="10" style="stroke:#181818;stroke-width:0.5;" width="15" x="1157.0743" y="496.1269"/><rect fill="#F1F1F1" height="2" style="stroke:#181818;stroke-width:0.5;" width="4" x="1155.0743" y="498.1269"/><rect fill="#F1F1F1" height="2" style="stroke:#181818;stroke-width:0.5;" width="4" x="1155.0743" y="502.1269"/><text fill="#000000" font-family="sans-serif" font-size="14" lengthAdjust="spacing" textLength="96.8721" x="999.92" y="524.122">Value Objects</text><text fill="#000000" font-family="sans-serif" font-size="14" lengthAdjust="spacing" textLength="152.1543" x="999.92" y="540.4189">(Money, Ticker, Price)</text></g><!--entity jpa--><g class="entity" data-qualified-name="outbound.jpa" data-source-line="22" id="ent0011"><rect fill="#F1F1F1" height="46.2969" rx="5" ry="5" style="stroke:#181818;stroke-width:0.5;" width="122.3867" x="21.81" y="657.5769"/><rect fill="#F1F1F1" height="10" style="stroke:#181818;stroke-width:0.5;" width="15" x="124.1967" y="662.5769"/><rect fill="#F1F1F1" height="2" style="stroke:#181818;stroke-width:0.5;" width="4" x="122.1967" y="664.5769"/><rect fill="#F1F1F1" height="2" style="stroke:#181818;stroke-width:0.5;" width="4" x="122.1967" y="668.5769"/><text fill="#000000" font-family="sans-serif" font-size="14" lengthAdjust="spacing" textLength="82.3867" x="36.81" y="690.572">JPA Adapter</text></g><!--entity mongo--><g class="entity" data-qualified-name="outbound.mongo" data-source-line="23" id="ent0012"><rect fill="#F1F1F1" height="46.2969" rx="5" ry="5" style="stroke:#181818;stroke-width:0.5;" width="147.208" x="179.4" y="657.5769"/><rect fill="#F1F1F1" height="10" style="stroke:#181818;stroke-width:0.5;" width="15" x="306.608" y="662.5769"/><rect fill="#F1F1F1" height="2" style="stroke:#181818;stroke-width:0.5;" width="4" x="304.608" y="664.5769"/><rect fill="#F1F1F1" height="2" style="stroke:#181818;stroke-width:0.5;" width="4" x="304.608" y="668.5769"/><text fill="#000000" font-family="sans-serif" font-size="14" lengthAdjust="spacing" textLength="107.208" x="194.4" y="690.572">Mongo Adapter</text></g><!--entity feed--><g class="entity" data-qualified-name="outbound.feed" data-source-line="24" id="ent0013"><rect fill="#F1F1F1" height="46.2969" rx="5" ry="5" style="stroke:#181818;stroke-width:0.5;" width="186.7402" x="361.63" y="657.5769"/><rect fill="#F1F1F1" height="10" style="stroke:#181818;stroke-width:0.5;" width="15" x="528.3702" y="662.5769"/><rect fill="#F1F1F1" height="2" style="stroke:#181818;stroke-width:0.5;" width="4" x="526.3702" y="664.5769"/><rect fill="#F1F1F1" height="2" style="stroke:#181818;stroke-width:0.5;" width="4" x="526.3702" y="668.5769"/><text fill="#000000" font-family="sans-serif" font-size="14" lengthAdjust="spacing" textLength="146.7402" x="376.63" y="690.572">Market Data Adapter</text></g><!--entity ev--><g class="entity" data-qualified-name="outbound.ev" data-source-line="25" id="ent0014"><rect fill="#F1F1F1" height="62.5938" rx="5" ry="5" style="stroke:#181818;stroke-width:0.5;" width="149.0742" x="583.46" y="649.4269"/><rect fill="#F1F1F1" height="10" style="stroke:#181818;stroke-width:0.5;" width="15" x="712.5342" y="654.4269"/><rect fill="#F1F1F1" height="2" style="stroke:#181818;stroke-width:0.5;" width="4" x="710.5342" y="656.4269"/><rect fill="#F1F1F1" height="2" style="stroke:#181818;stroke-width:0.5;" width="4" x="710.5342" y="660.4269"/><text fill="#000000" font-family="sans-serif" font-size="14" lengthAdjust="spacing" textLength="109.0742" x="598.46" y="682.422">Event Publisher</text><text fill="#000000" font-family="sans-serif" font-size="14" lengthAdjust="spacing" textLength="55.7881" x="598.46" y="698.7189">Adapter</text></g><!--entity sender--><g class="entity" data-qualified-name="outbound.sender" data-source-line="26" id="ent0015"><rect fill="#F1F1F1" height="46.2969" rx="5" ry="5" style="stroke:#181818;stroke-width:0.5;" width="174.4082" x="458.8" y="804.0169"/><rect fill="#F1F1F1" height="10" style="stroke:#181818;stroke-width:0.5;" width="15" x="613.2082" y="809.0169"/><rect fill="#F1F1F1" height="2" style="stroke:#181818;stroke-width:0.5;" width="4" x="611.2082" y="811.0169"/><rect fill="#F1F1F1" height="2" style="stroke:#181818;stroke-width:0.5;" width="4" x="611.2082" y="815.0169"/><text fill="#000000" font-family="sans-serif" font-size="14" lengthAdjust="spacing" textLength="134.4082" x="473.8" y="837.012">Notification Sender</text></g><!--entity usecase--><g class="entity" data-qualified-name="usecase" data-source-line="14" id="ent0006"><polygon fill="#FFF3CD" points="661.32,373.8669,586.16,344.4169,435.84,344.4169,360.68,373.8669,435.84,403.3069,586.16,403.3069,661.32,373.8669" style="stroke:#181818;stroke-width:0.5;"/><text fill="#000000" font-family="sans-serif" font-size="14" lengthAdjust="spacing" textLength="64.8662" x="435.8377" y="362.412">Use Case</text><text fill="#000000" font-family="sans-serif" font-size="14" lengthAdjust="spacing" textLength="145.3389" x="435.8377" y="378.7089">(Application Service)</text><text fill="#000000" font-family="sans-serif" font-size="14" lengthAdjust="spacing" textLength="150.3154" x="435.8377" y="395.0057">implements &#171;port.in&#187;</text></g><!--entity portIn--><g class="entity" data-qualified-name="portIn" data-source-line="29" id="ent0016"><ellipse cx="511" cy="232.5969" fill="#F1F1F1" rx="8" ry="8" style="stroke:#181818;stroke-width:0.5;"/><text fill="#000000" font-family="sans-serif" font-size="14" lengthAdjust="spacing" textLength="63.041" x="479.4795" y="262.592">&#171;port.in&#187;</text><text fill="#000000" font-family="sans-serif" font-size="14" lengthAdjust="spacing" textLength="60.416" x="479.4795" y="278.8889">UseCase</text></g><!--entity portRepo--><g class="entity" data-qualified-name="portRepo" data-source-line="30" id="ent0017"><ellipse cx="253" cy="522.4269" fill="#F1F1F1" rx="8" ry="8" style="stroke:#181818;stroke-width:0.5;"/><text fill="#000000" font-family="sans-serif" font-size="14" lengthAdjust="spacing" textLength="73.2061" x="201.3374" y="552.422">&#171;port.out&#187;</text><text fill="#000000" font-family="sans-serif" font-size="14" lengthAdjust="spacing" textLength="103.3252" x="201.3374" y="568.7189">RepositoryPort</text></g><!--entity portFeed--><g class="entity" data-qualified-name="portFeed" data-source-line="31" id="ent0018"><ellipse cx="455" cy="522.4269" fill="#F1F1F1" rx="8" ry="8" style="stroke:#181818;stroke-width:0.5;"/><text fill="#000000" font-family="sans-serif" font-size="14" lengthAdjust="spacing" textLength="73.2061" x="399.8477" y="552.422">&#171;port.out&#187;</text><text fill="#000000" font-family="sans-serif" font-size="14" lengthAdjust="spacing" textLength="110.3047" x="399.8477" y="568.7189">MarketDataPort</text></g><!--entity portEv--><g class="entity" data-qualified-name="portEv" data-source-line="32" id="ent0019"><ellipse cx="640" cy="522.4269" fill="#F1F1F1" rx="8" ry="8" style="stroke:#181818;stroke-width:0.5;"/><text fill="#000000" font-family="sans-serif" font-size="14" lengthAdjust="spacing" textLength="73.2061" x="560.5254" y="552.422">&#171;port.out&#187;</text><text fill="#000000" font-family="sans-serif" font-size="14" lengthAdjust="spacing" textLength="158.9492" x="560.5254" y="568.7189">DomainEventPublisher</text></g><g class="entity" data-qualified-name="GMN33" data-source-line="49" id="ent0034"><path d="M696.51,343.5969 L696.51,369.8669 L662.49,373.8669 L696.51,377.8669 L696.51,404.1281 A5,5 0 0 0 701.51,409.1281 L878.4822,409.1281 A5,5 0 0 0 883.4822,404.1281 L883.4822,348.5969 L873.4822,338.5969 L701.51,338.5969 A5,5 0 0 0 696.51,343.5969" fill="#FEFFDD" style="stroke:#181818;stroke-width:0.5;"/><path d="M873.4822,338.5969 L873.4822,346.0969 A2.5,2.5 0 0 0 875.9822,348.5969 L883.4822,348.5969 L873.4822,338.5969" fill="#FEFFDD" style="stroke:#181818;stroke-width:0.5;"/><text fill="#000000" font-family="sans-serif" font-size="13" lengthAdjust="spacing" textLength="151.7153" x="702.51" y="355.6638">The hexagon is per-BC.</text><text fill="#000000" font-family="sans-serif" font-size="13" lengthAdjust="spacing" textLength="159.3706" x="702.51" y="370.7966">HexaStock currently has</text><text fill="#000000" font-family="sans-serif" font-size="13" lengthAdjust="spacing" textLength="165.9722" x="702.51" y="385.9294">4 hexagons (one per BC),</text><text fill="#000000" font-family="sans-serif" font-size="13" lengthAdjust="spacing" textLength="157.9995" x="702.51" y="401.0622">not one global hexagon.</text></g><!--link rest to portIn--><g class="link" data-entity-1="ent0003" data-entity-2="ent0016" data-link-type="dependency" data-source-line="34" id="lnk20"><path d="M374.74,124.9469 C412.97,154.8669 473.7348,202.4293 497.4148,220.9593" fill="none" id="rest-to-portIn" style="stroke:#1F4E79;stroke-width:1;"/><polygon fill="#1F4E79" points="502.14,224.6569,497.5172,215.9603,498.2023,221.5756,492.5871,222.2607,502.14,224.6569" style="stroke:#1F4E79;stroke-width:1;"/></g><!--link sched to portIn--><g class="link" data-entity-1="ent0004" data-entity-2="ent0016" data-link-type="dependency" data-source-line="35" id="lnk21"><path d="M511,124.9469 C511,154.4269 511,198.6469 511,217.8369" fill="none" id="sched-to-portIn" style="stroke:#1F4E79;stroke-width:1;"/><polygon fill="#1F4E79" points="511,223.8369,515,214.8369,511,218.8369,507,214.8369,511,223.8369" style="stroke:#1F4E79;stroke-width:1;"/></g><!--link tg to portIn--><g class="link" data-entity-1="ent0005" data-entity-2="ent0016" data-link-type="dependency" data-source-line="36" id="lnk22"><path d="M640.65,124.9469 C604.46,154.7169 547.1942,201.8258 524.3942,220.5758" fill="none" id="tg-to-portIn" style="stroke:#1F4E79;stroke-width:1;"/><polygon fill="#1F4E79" points="519.76,224.3869,529.252,221.7598,523.6219,221.211,524.1706,215.5808,519.76,224.3869" style="stroke:#1F4E79;stroke-width:1;"/></g><!--link portIn to usecase--><g class="link" data-entity-1="ent0016" data-entity-2="ent0006" data-link-type="dependency" data-source-line="37" id="lnk23"><path d="M511,241.4869 C511,260.8769 511,305.6569 511,338.1069" fill="none" id="portIn-to-usecase" style="stroke:#1F4E79;stroke-width:1;stroke-dasharray:7,7;"/><polygon fill="#1F4E79" points="511,344.1069,515,335.1069,511,339.1069,507,335.1069,511,344.1069" style="stroke:#1F4E79;stroke-width:1;"/></g><!--link usecase to agg--><g class="link" data-entity-1="ent0006" data-entity-2="ent0008" data-link-type="dependency" data-source-line="38" id="lnk24"><path d="M602.97,397.2269 C647.04,409.5469 699.92,426.7069 745,448.1269 C769.61,459.8269 790.2199,472.8443 810.5699,487.2243" fill="none" id="usecase-to-agg" style="stroke:#1F4E79;stroke-width:1;"/><polygon fill="#1F4E79" points="815.47,490.6869,810.4283,482.2263,811.3866,487.8014,805.8115,488.7598,815.47,490.6869" style="stroke:#1F4E79;stroke-width:1;"/></g><!--link usecase to portRepo--><g class="link" data-entity-1="ent0006" data-entity-2="ent0017" data-link-type="dependency" data-source-line="39" id="lnk25"><path d="M456.08,403.6969 C431.18,416.9569 401.45,433.0669 375,448.1269 C332.05,472.5769 286.8489,500.4044 266.8889,512.7844" fill="none" id="usecase-to-portRepo" style="stroke:#1F4E79;stroke-width:1;"/><polygon fill="#1F4E79" points="261.79,515.9469,271.5466,514.6023,266.0391,513.3114,267.33,507.8038,261.79,515.9469" style="stroke:#1F4E79;stroke-width:1;"/></g><!--link usecase to portFeed--><g class="link" data-entity-1="ent0006" data-entity-2="ent0018" data-link-type="dependency" data-source-line="40" id="lnk26"><path d="M500.07,403.4669 C486.96,437.7969 467.8993,487.6512 460.1293,508.0112" fill="none" id="usecase-to-portFeed" style="stroke:#1F4E79;stroke-width:1;"/><polygon fill="#1F4E79" points="457.99,513.6169,464.936,506.6346,459.7727,508.9455,457.4618,503.7822,457.99,513.6169" style="stroke:#1F4E79;stroke-width:1;"/></g><!--link usecase to portEv--><g class="link" data-entity-1="ent0006" data-entity-2="ent0019" data-link-type="dependency" data-source-line="41" id="lnk27"><path d="M536.18,403.4669 C566.39,437.7969 611.2471,488.7518 629.1571,509.1118" fill="none" id="usecase-to-portEv" style="stroke:#1F4E79;stroke-width:1;"/><polygon fill="#1F4E79" points="633.12,513.6169,630.179,504.2174,629.8176,509.8627,624.1723,509.5013,633.12,513.6169" style="stroke:#1F4E79;stroke-width:1;"/></g><!--link portRepo to jpa--><g class="link" data-entity-1="ent0017" data-entity-2="ent0011" data-link-type="dependency" data-source-line="42" id="lnk28"><path d="M244.19,531.4169 C227.92,546.1869 192.06,578.7769 162,606.4269 C143.55,623.3969 127.1632,638.6003 111.5432,653.1303" fill="none" id="portRepo-to-jpa" style="stroke:#1F4E79;stroke-width:1;stroke-dasharray:7,7;"/><polygon fill="#1F4E79" points="107.15,657.2169,116.4641,654.0158,110.811,653.8114,111.0153,648.1582,107.15,657.2169" style="stroke:#1F4E79;stroke-width:1;"/></g><!--link portRepo to mongo--><g class="link" data-entity-1="ent0017" data-entity-2="ent0012" data-link-type="dependency" data-source-line="43" id="lnk29"><path d="M253,531.3969 C253,554.4069 253,615.6269 253,651.1369" fill="none" id="portRepo-to-mongo" style="stroke:#1F4E79;stroke-width:1;stroke-dasharray:7,7;"/><polygon fill="#1F4E79" points="253,657.1369,257,648.1369,253,652.1369,249,648.1369,253,657.1369" style="stroke:#1F4E79;stroke-width:1;"/></g><!--link portFeed to feed--><g class="link" data-entity-1="ent0018" data-entity-2="ent0013" data-link-type="dependency" data-source-line="44" id="lnk30"><path d="M455,531.3969 C455,554.4069 455,615.6269 455,651.1369" fill="none" id="portFeed-to-feed" style="stroke:#1F4E79;stroke-width:1;stroke-dasharray:7,7;"/><polygon fill="#1F4E79" points="455,657.1369,459,648.1369,455,652.1369,451,648.1369,455,657.1369" style="stroke:#1F4E79;stroke-width:1;"/></g><!--link portEv to ev--><g class="link" data-entity-1="ent0019" data-entity-2="ent0014" data-link-type="dependency" data-source-line="45" id="lnk31"><path d="M640.92,531.3969 C643.38,552.7869 649.5634,606.4363 653.8034,643.2463" fill="none" id="portEv-to-ev" style="stroke:#1F4E79;stroke-width:1;stroke-dasharray:7,7;"/><polygon fill="#1F4E79" points="654.49,649.2069,657.4339,639.8083,653.9179,644.2397,649.4864,640.7237,654.49,649.2069" style="stroke:#1F4E79;stroke-width:1;"/></g><!--link ev to sender--><g class="link" data-entity-1="ent0014" data-entity-2="ent0015" data-link-type="dependency" data-source-line="46" id="lnk32"><path d="M634.25,712.3569 C613.06,739.6869 586.1968,774.3255 567.1668,798.8655" fill="none" id="ev-to-sender" style="stroke:#1F4E79;stroke-width:1;"/><polygon fill="#1F4E79" points="563.49,803.6069,572.1662,798.946,566.554,799.6557,565.8443,794.0435,563.49,803.6069" style="stroke:#1F4E79;stroke-width:1;"/><text fill="#000000" font-family="sans-serif" font-size="13" lengthAdjust="spacing" textLength="66.7837" x="668.9241" y="755.0838">in-process</text><text fill="#000000" font-family="sans-serif" font-size="13" lengthAdjust="spacing" textLength="185.2119" x="609.71" y="770.2166">@ApplicationModuleListener</text></g><?plantuml-src TLHHRzem47xthpY1D844RDKgLPigD4fRRTEweiAwXy63IIwEYx4Zsz1MqwJzYFt2_PBT9OG6TSrBalk-pxxlxkoeeq7uY0zo6bsoWh-__vH_obbfe3DnFWPu1QDK5X5zwCAjnliU5EZXp6riYYcCdOtu48K8AsqBwUKQGYvJTw-jWaoQW0raAPELygmSE-Cyj2_Bfy7OWTxI5aTl6i38UtU_KnrbntZoJeY2bfCAeVN9Bba7dNElj-Yx47IABP01z0vfumbYTW8_1S2Fculfh4pSEsFGBu0V8diCaV5facEwsIDGuu7ZJ9YXGSLPdRcuQ12Y4h-4oAiAGkjRG1ZBW7FR6HM5qOcCck9Jz5kTO7TkzRemk4PBLJuzBQZQ0ss7mpBnJS24fD3EiknjaZRCdhkrrBOafUKdjDDZJ5DPcHifvL79Y73ZNAIjkOkPCzh1Q_WkOv8R7M9tmNgf54jkfTaWN2_lC8c155VEucCFPZfPeU_1n7EsfM3hsE0-bUjDR1RUDWhlQkYWyfydetgQ5WUblIiauxIpSiyOXAyPA1dIhp32kOoomID6XbLlBYYF29FDacpcwEUskHhnSCkihoxgxAaXDCgxPKBvpIur3RRFP48-6ysPM-egDxLra3_Zd-n_D5G75jrWuOAEpZzoErfx3STVLbLcsUkXwfAzlgYg1gIimxuChLfwiHM2vnoWtn_MQPU3tGn4nRuQWUf5iS5WMC-cg6UqOl8m7KRs1f-7ImVFmvHTBQgsuhauZ5IJKAzHnShULthOvKXjnctT85w-QYoyfokXNtYNOA1H_z0ubrUEp_mNEXn8juyGrj4Pybhb4Loszmmmon7g8wu3NuRzi_60WATxDDbuJzKtZv3BGCXnBGZGeRDLNQ3ZReyWsWKuf8nRqfsxumq4PSiOYdy0?></g></svg>