<?plantuml 1.2026.1?><svg xmlns="http://www.w3.org/2000/svg" xmlns:xlink="http://www.w3.org/1999/xlink" contentStyleType="text/css" data-diagram-type="DESCRIPTION" height="912px" preserveAspectRatio="none" style="width:776px;height:912px;background:#FFFFFF;" version="1.1" viewBox="0 0 776 912" width="776px" zoomAndPan="magnify"><title>Watchlist Alert Event Flow &#8212; Component View</title><defs/><g><g class="title" data-source-line="1"><text fill="#000000" font-family="sans-serif" font-size="14" font-weight="bold" lengthAdjust="spacing" textLength="366.502" x="197.972" y="22.9951">Watchlist Alert Event Flow &#8212; Component View</text></g><!--cluster W--><g class="cluster" data-qualified-name="W" data-source-line="11" id="ent0002"><path d="M8.5,43.2969 L153.1572,43.2969 A3.75,3.75 0 0 1 155.6572,45.7969 L162.6572,65.5938 L515.5,65.5938 A2.5,2.5 0 0 1 518,68.0938 L518,281.6569 A2.5,2.5 0 0 1 515.5,284.1569 L8.5,284.1569 A2.5,2.5 0 0 1 6,281.6569 L6,45.7969 A2.5,2.5 0 0 1 8.5,43.2969" fill="#FFF3CD" style="stroke:#000000;stroke-width:1.5;"/><line style="stroke:#000000;stroke-width:1.5;" x1="6" x2="162.6572" y1="65.5938" y2="65.5938"/><text fill="#000000" font-family="sans-serif" font-size="14" font-weight="bold" lengthAdjust="spacing" textLength="143.6572" x="10" y="58.292">watchlists module</text></g><!--cluster B--><g class="cluster" data-qualified-name="B" data-source-line="17" id="ent0006"><path d="M267.5,335.1169 L409.2109,335.1169 A3.75,3.75 0 0 1 411.7109,337.6169 L418.7109,357.4138 L538.5,357.4138 A2.5,2.5 0 0 1 541,359.9138 L541,585.8069 A2.5,2.5 0 0 1 538.5,588.3069 L267.5,588.3069 A2.5,2.5 0 0 1 265,585.8069 L265,337.6169 A2.5,2.5 0 0 1 267.5,335.1169" fill="#E7EEF7" style="stroke:#000000;stroke-width:1.5;"/><line style="stroke:#000000;stroke-width:1.5;" x1="265" x2="418.7109" y1="357.4138" y2="357.4138"/><text fill="#000000" font-family="sans-serif" font-size="14" font-weight="bold" lengthAdjust="spacing" textLength="140.7109" x="269" y="350.112">bootstrap module</text></g><!--cluster N--><g class="cluster" data-qualified-name="N" data-source-line="22" id="ent0009"><path d="M178.5,652.3069 L341.9834,652.3069 A3.75,3.75 0 0 1 344.4834,654.8069 L351.4834,674.6038 L673.5,674.6038 A2.5,2.5 0 0 1 676,677.1038 L676,902.9969 A2.5,2.5 0 0 1 673.5,905.4969 L178.5,905.4969 A2.5,2.5 0 0 1 176,902.9969 L176,654.8069 A2.5,2.5 0 0 1 178.5,652.3069" fill="#FFF3CD" style="stroke:#000000;stroke-width:1.5;"/><line style="stroke:#000000;stroke-width:1.5;" x1="176" x2="351.4834" y1="674.6038" y2="674.6038"/><text fill="#000000" font-family="sans-serif" font-size="14" font-weight="bold" lengthAdjust="spacing" textLength="162.4834" x="180" y="667.302">notifications module</text></g><!--entity sentinel--><g class="entity" data-qualified-name="W.sentinel" data-source-line="12" id="ent0003"><rect fill="#E7EEF7" height="46.2969" rx="2.5" ry="2.5" style="stroke:#1F4E79;stroke-width:0.5;" width="197.4932" x="133.25" y="78.2969"/><rect fill="#E7EEF7" height="10" style="stroke:#1F4E79;stroke-width:0.5;" width="15" x="310.7432" y="83.2969"/><rect fill="#E7EEF7" height="2" style="stroke:#1F4E79;stroke-width:0.5;" width="4" x="308.7432" y="85.2969"/><rect fill="#E7EEF7" height="2" style="stroke:#1F4E79;stroke-width:0.5;" width="4" x="308.7432" y="89.2969"/><text fill="#000000" font-family="sans-serif" font-size="14" lengthAdjust="spacing" textLength="157.4932" x="148.25" y="111.292">MarketSentinelService</text></g><!--entity port--><g class="entity" data-qualified-name="W.port" data-source-line="13" id="ent0004"><rect fill="#E7EEF7" height="62.5938" rx="2.5" ry="2.5" style="stroke:#1F4E79;stroke-width:0.5;" width="198.9492" x="303.53" y="205.5569"/><rect fill="#E7EEF7" height="10" style="stroke:#1F4E79;stroke-width:0.5;" width="15" x="482.4792" y="210.5569"/><rect fill="#E7EEF7" height="2" style="stroke:#1F4E79;stroke-width:0.5;" width="4" x="480.4792" y="212.5569"/><rect fill="#E7EEF7" height="2" style="stroke:#1F4E79;stroke-width:0.5;" width="4" x="480.4792" y="216.5569"/><text fill="#000000" font-family="sans-serif" font-size="14" lengthAdjust="spacing" textLength="158.9492" x="318.53" y="238.552">DomainEventPublisher</text><text fill="#000000" font-family="sans-serif" font-size="14" lengthAdjust="spacing" textLength="66.999" x="318.53" y="254.8489">(port out)</text></g><!--entity event--><g class="entity" data-qualified-name="W.event" data-source-line="14" id="ent0005"><rect fill="#E7EEF7" height="62.5938" rx="2.5" ry="2.5" style="stroke:#1F4E79;stroke-width:0.5;" width="246.3154" x="21.84" y="205.5569"/><rect fill="#E7EEF7" height="10" style="stroke:#1F4E79;stroke-width:0.5;" width="15" x="248.1554" y="210.5569"/><rect fill="#E7EEF7" height="2" style="stroke:#1F4E79;stroke-width:0.5;" width="4" x="246.1554" y="212.5569"/><rect fill="#E7EEF7" height="2" style="stroke:#1F4E79;stroke-width:0.5;" width="4" x="246.1554" y="216.5569"/><text fill="#000000" font-family="sans-serif" font-size="14" lengthAdjust="spacing" textLength="206.3154" x="36.84" y="238.552">WatchlistAlertTriggeredEvent</text><text fill="#000000" font-family="sans-serif" font-size="14" lengthAdjust="spacing" textLength="56.1982" x="36.84" y="254.8489">(record)</text></g><!--entity adapter--><g class="entity" data-qualified-name="B.adapter" data-source-line="18" id="ent0007"><rect fill="#E7EEF7" height="62.5938" rx="2.5" ry="2.5" style="stroke:#1F4E79;stroke-width:0.5;" width="244.1279" x="280.94" y="370.1169"/><rect fill="#E7EEF7" height="10" style="stroke:#1F4E79;stroke-width:0.5;" width="15" x="505.0679" y="375.1169"/><rect fill="#E7EEF7" height="2" style="stroke:#1F4E79;stroke-width:0.5;" width="4" x="503.0679" y="377.1169"/><rect fill="#E7EEF7" height="2" style="stroke:#1F4E79;stroke-width:0.5;" width="4" x="503.0679" y="381.1169"/><text fill="#000000" font-family="sans-serif" font-size="14" lengthAdjust="spacing" textLength="204.1279" x="295.94" y="403.112">SpringDomainEventPublisher</text><text fill="#000000" font-family="sans-serif" font-size="14" lengthAdjust="spacing" textLength="106.2031" x="295.94" y="419.4089">(@Component)</text></g><!--entity spring--><g class="entity" data-qualified-name="B.spring" data-source-line="19" id="ent0008"><rect fill="#E7EEF7" height="62.5938" rx="2.5" ry="2.5" style="stroke:#1F4E79;stroke-width:0.5;" width="222.8477" x="280.58" y="509.7169"/><rect fill="#E7EEF7" height="10" style="stroke:#1F4E79;stroke-width:0.5;" width="15" x="483.4277" y="514.7169"/><rect fill="#E7EEF7" height="2" style="stroke:#1F4E79;stroke-width:0.5;" width="4" x="481.4277" y="516.7169"/><rect fill="#E7EEF7" height="2" style="stroke:#1F4E79;stroke-width:0.5;" width="4" x="481.4277" y="520.7169"/><text fill="#000000" font-family="sans-serif" font-size="14" lengthAdjust="spacing" textLength="45.1787" x="295.58" y="542.712">Spring</text><text fill="#000000" font-family="sans-serif" font-size="14" lengthAdjust="spacing" textLength="182.8477" x="295.58" y="559.0089">ApplicationEventPublisher</text></g><!--entity listener--><g class="entity" data-qualified-name="N.listener" data-source-line="23" id="ent0010"><rect fill="#E7EEF7" height="62.5938" rx="2.5" ry="2.5" style="stroke:#1F4E79;stroke-width:0.5;" width="275.0264" x="254.49" y="687.3069"/><rect fill="#E7EEF7" height="10" style="stroke:#1F4E79;stroke-width:0.5;" width="15" x="509.5164" y="692.3069"/><rect fill="#E7EEF7" height="2" style="stroke:#1F4E79;stroke-width:0.5;" width="4" x="507.5164" y="694.3069"/><rect fill="#E7EEF7" height="2" style="stroke:#1F4E79;stroke-width:0.5;" width="4" x="507.5164" y="698.3069"/><text fill="#000000" font-family="sans-serif" font-size="14" lengthAdjust="spacing" textLength="235.0264" x="269.49" y="720.302">WatchlistAlertNotificationListener</text><text fill="#000000" font-family="sans-serif" font-size="14" lengthAdjust="spacing" textLength="199.459" x="269.49" y="736.5989">@ApplicationModuleListener</text></g><!--entity resolver--><g class="entity" data-qualified-name="N.resolver" data-source-line="24" id="ent0011"><rect fill="#E7EEF7" height="46.2969" rx="2.5" ry="2.5" style="stroke:#1F4E79;stroke-width:0.5;" width="246.7529" x="191.62" y="835.0469"/><rect fill="#E7EEF7" height="10" style="stroke:#1F4E79;stroke-width:0.5;" width="15" x="418.3729" y="840.0469"/><rect fill="#E7EEF7" height="2" style="stroke:#1F4E79;stroke-width:0.5;" width="4" x="416.3729" y="842.0469"/><rect fill="#E7EEF7" height="2" style="stroke:#1F4E79;stroke-width:0.5;" width="4" x="416.3729" y="846.0469"/><text fill="#000000" font-family="sans-serif" font-size="14" lengthAdjust="spacing" textLength="206.7529" x="206.62" y="868.042">NotificationRecipientResolver</text></g><!--entity sender--><g class="entity" data-qualified-name="N.sender" data-source-line="25" id="ent0012"><rect fill="#E7EEF7" height="62.5938" rx="2.5" ry="2.5" style="stroke:#1F4E79;stroke-width:0.5;" width="186.8564" x="473.57" y="826.9069"/><rect fill="#E7EEF7" height="10" style="stroke:#1F4E79;stroke-width:0.5;" width="15" x="640.4264" y="831.9069"/><rect fill="#E7EEF7" height="2" style="stroke:#1F4E79;stroke-width:0.5;" width="4" x="638.4264" y="833.9069"/><rect fill="#E7EEF7" height="2" style="stroke:#1F4E79;stroke-width:0.5;" width="4" x="638.4264" y="837.9069"/><text fill="#000000" font-family="sans-serif" font-size="14" lengthAdjust="spacing" textLength="129.958" x="488.57" y="859.902">NotificationSender</text><text fill="#000000" font-family="sans-serif" font-size="14" lengthAdjust="spacing" textLength="146.8564" x="488.57" y="876.1989">(Telegram / Logging)</text></g><g class="entity" data-qualified-name="GMN20" data-source-line="37" id="ent0021"><path d="M537.96,201.5869 L537.96,272.1181 L754.0425,272.1181 L754.0425,211.5869 L744.0425,201.5869 L537.96,201.5869" fill="#FEFFDD" style="stroke:#181818;stroke-width:0.5;"/><path d="M744.0425,201.5869 L744.0425,211.5869 L754.0425,211.5869 L744.0425,201.5869" fill="#FEFFDD" style="stroke:#181818;stroke-width:1;"/><text fill="#000000" font-family="sans-serif" font-size="13" lengthAdjust="spacing" textLength="115.9971" x="543.96" y="218.6538">Pure POJO record.</text><text fill="#000000" font-family="sans-serif" font-size="13" lengthAdjust="spacing" textLength="195.0825" x="543.96" y="233.7866">No Spring, no JPA, no Jackson.</text><text fill="#000000" font-family="sans-serif" font-size="13" lengthAdjust="spacing" textLength="183.9741" x="543.96" y="248.9194">Carries ONLY business data;</text><text fill="#000000" font-family="sans-serif" font-size="13" lengthAdjust="spacing" textLength="192.5117" x="543.96" y="264.0522">channel info is resolved later.</text></g><g class="entity" data-qualified-name="GMN23" data-source-line="44" id="ent0024"><path d="M556.55,513.3169 L556.55,568.7153 L769.446,568.7153 L769.446,523.3169 L759.446,513.3169 L556.55,513.3169" fill="#FEFFDD" style="stroke:#181818;stroke-width:0.5;"/><path d="M759.446,513.3169 L759.446,523.3169 L769.446,523.3169 L759.446,513.3169" fill="#FEFFDD" style="stroke:#181818;stroke-width:1;"/><text fill="#000000" font-family="sans-serif" font-size="13" lengthAdjust="spacing" textLength="185.6309" x="562.55" y="530.3838">The only Spring-aware piece</text><text fill="#000000" font-family="sans-serif" font-size="13" lengthAdjust="spacing" textLength="151.252" x="562.55" y="545.5166">in the publication path.</text><text fill="#000000" font-family="sans-serif" font-size="13" lengthAdjust="spacing" textLength="191.896" x="562.55" y="560.6494">Application stays Spring-free.</text></g><!--link sentinel to event--><g class="link" data-entity-1="ent0003" data-entity-2="ent0005" data-link-type="dependency" data-source-line="28" id="lnk13"><path d="M217.24,125.0769 C202.89,147.0769 184.2682,175.6416 168.3382,200.0616" fill="none" id="sentinel-to-event" style="stroke:#1F4E79;stroke-width:1;"/><polygon fill="#1F4E79" points="165.06,205.0869,173.3275,199.7344,167.7918,200.8991,166.6271,195.3635,165.06,205.0869" style="stroke:#1F4E79;stroke-width:1;"/><text fill="#000000" font-family="sans-serif" font-size="13" lengthAdjust="spacing" textLength="48.3247" x="197.29" y="167.6538">creates</text></g><!--link sentinel to port--><g class="link" data-entity-1="ent0003" data-entity-2="ent0004" data-link-type="dependency" data-source-line="29" id="lnk14"><path d="M261.01,125.0769 C289.21,147.0769 327.5289,176.9769 358.8389,201.3969" fill="none" id="sentinel-to-port" style="stroke:#1F4E79;stroke-width:1;"/><polygon fill="#1F4E79" points="363.57,205.0869,358.9333,196.3977,359.6274,202.0119,354.0133,202.7059,363.57,205.0869" style="stroke:#1F4E79;stroke-width:1;"/><text fill="#000000" font-family="sans-serif" font-size="13" lengthAdjust="spacing" textLength="94.1484" x="318.5" y="167.6538">publish(event)</text></g><!--link port to adapter--><g class="link" data-entity-1="ent0004" data-entity-2="ent0007" data-link-type="dependency" data-source-line="30" id="lnk15"><path d="M403,268.4369 C403,297.4069 403,334.6869 403,363.7069" fill="none" id="port-to-adapter" style="stroke:#1F4E79;stroke-width:1;stroke-dasharray:7,7;"/><polygon fill="#1F4E79" points="403,369.7069,407,360.7069,403,364.7069,399,360.7069,403,369.7069" style="stroke:#1F4E79;stroke-width:1;"/><text fill="#000000" font-family="sans-serif" font-size="13" lengthAdjust="spacing" textLength="92.8154" x="404" y="315.1838">&#171;implements&#187;</text></g><!--link adapter to spring--><g class="link" data-entity-1="ent0007" data-entity-2="ent0008" data-link-type="dependency" data-source-line="31" id="lnk16"><path d="M400.56,432.9569 C398.74,455.7569 396.7405,480.7961 394.9105,503.5761" fill="none" id="adapter-to-spring" style="stroke:#1F4E79;stroke-width:1;"/><polygon fill="#1F4E79" points="394.43,509.5569,399.1378,500.9061,394.8304,504.5729,391.1635,500.2655,394.43,509.5569" style="stroke:#1F4E79;stroke-width:1;"/><text fill="#000000" font-family="sans-serif" font-size="13" lengthAdjust="spacing" textLength="131.3901" x="399.16" y="475.7838">publishEvent(event)</text></g><!--link spring to listener--><g class="link" data-entity-1="ent0008" data-entity-2="ent0010" data-link-type="dependency" data-source-line="32" id="lnk17"><path d="M392,572.5969 C392,604.7269 392,648.9669 392,681.0769" fill="none" id="spring-to-listener" style="stroke:#1F4E79;stroke-width:1;stroke-dasharray:7,7;"/><polygon fill="#1F4E79" points="392,687.0769,396,678.0769,392,682.0769,388,678.0769,392,687.0769" style="stroke:#1F4E79;stroke-width:1;"/><text fill="#000000" font-family="sans-serif" font-size="13" lengthAdjust="spacing" textLength="161.1226" x="393" y="617.3738">delivers AFTER_COMMIT,</text><text fill="#000000" font-family="sans-serif" font-size="13" lengthAdjust="spacing" textLength="149.7031" x="398.7097" y="632.5066">async, REQUIRES_NEW</text></g><!--link listener to resolver--><g class="link" data-entity-1="ent0010" data-entity-2="ent0011" data-link-type="dependency" data-source-line="33" id="lnk18"><path d="M365.29,750.3069 C358.12,759.4469 350.76,769.7469 345,779.9069 C335.05,797.4269 328.8923,813.2098 323.6523,829.0698" fill="none" id="listener-to-resolver" style="stroke:#1F4E79;stroke-width:1;"/><polygon fill="#1F4E79" points="321.77,834.7669,328.3915,827.4761,323.3386,830.0193,320.7953,824.9664,321.77,834.7669" style="stroke:#1F4E79;stroke-width:1;"/><text fill="#000000" font-family="sans-serif" font-size="13" lengthAdjust="spacing" textLength="97.957" x="346" y="792.9738">resolve(userId)</text></g><!--link listener to sender--><g class="link" data-entity-1="ent0010" data-entity-2="ent0012" data-link-type="dependency" data-source-line="34" id="lnk19"><path d="M430.84,750.1469 C459.74,772.8669 494.3024,800.0496 523.2524,822.7996" fill="none" id="listener-to-sender" style="stroke:#1F4E79;stroke-width:1;"/><polygon fill="#1F4E79" points="527.97,826.5069,523.3651,817.8009,524.0386,823.4175,518.422,824.091,527.97,826.5069" style="stroke:#1F4E79;stroke-width:1;"/><text fill="#000000" font-family="sans-serif" font-size="13" lengthAdjust="spacing" textLength="159.5356" x="490.98" y="792.9738">send(destination, event)</text></g><!--link event to GMN20--><g class="link" data-entity-1="ent0005" data-entity-2="ent0021" data-link-type="association" data-source-line="37" id="lnk22"><path d="M197.94,205.1169 C227.8,189.0669 266.46,171.2869 303.5,163.0869 C388.99,144.1769 415.34,142.7369 500.5,163.0869 C532.18,170.6569 564.76,186.3169 591.03,201.2669" fill="none" id="event-GMN20" style="stroke:#1F4E79;stroke-width:1;stroke-dasharray:7,7;"/></g><!--link adapter to GMN23--><g class="link" data-entity-1="ent0007" data-entity-2="ent0024" data-link-type="association" data-source-line="44" id="lnk25"><path d="M477.3,433.1169 C497.59,442.0969 519.37,452.3169 539,462.7169 C567.8,477.9769 598.93,497.3969 622.8,512.9469" fill="none" id="adapter-GMN23" style="stroke:#1F4E79;stroke-width:1;stroke-dasharray:7,7;"/></g><?plantuml-src TLBRQjj047tNLmp9YmsEIsaXD0qcZkj0GdofxJQKfeIrD9AMh7QNtPLDA8L-HB-mNzBPbMHBWVh5sfapCsVE7CUTG7XWBiu5jmx60es3wGwbWnkXzl3tzn-Og48hwKDVEUwZo3vpgPbX1TYS9MhFPGOf4nPRcIsBdpEZIfbCb506Jc_2huKO6wFsTV9j-XxFFxIInv4_8u1hPH8qNIn5Nu_0SyJqFFeLHPfIB4CusJURMIXKKWey0MRX0KxJD7qN9w7xznapp-ZMD8rB56iqEnxZ3m-qTSoZFgc2SHcaMPPRwfcZUPGzhKWmLRf-AF0l3pue6WJT69vbQ309rLHaCAQLgXBqiGxfhLBEEiDqc_Drir_5UQqDoVuVJbS7-QeHB67QeJdMFSgnreB7p77rghpQEw0wfAHoFAqhEcBEks9sDv-tgkufYD8Jl6fDduLEJIvC5_N3jsitM67CDIUoAxHAx6gqgH-lqNJF9AYnGO6PDzKRk5TPHelrc-CIm2_Pd1dEpaRLFU02OeFCeUqcmxKlG5TgzGAs7uNeS3XgX2R4vIKljC22ydOqYfg4xr69U-mIz6zQrKdVh961a0aAJYjQ6DzifgkdoM8skzqC7YMpBp8Um6hw-SljQhf-cayVeaEPdzM8GptgprvfqTmc_IwkqW88vhzw2LhQESWuW9fPH0v082VdvFUqjYt0iZG8oyNT0YfJ3oasLr3vR01ImTroNFsJbQoI7Z1Xnd2qi9ZVVuDjQKbVQo5XZdsaR9mpwGNdCbN03nTEGD11p30YXk39r9IsoZbLU4v7dszo12N5IytZZEqPqIJpn4XPBi4H8EXVcGKqSxbdrd8cMCTURDCXDOYjqVy0?></g></svg>