<?plantuml 1.2026.1?><svg xmlns="http://www.w3.org/2000/svg" xmlns:xlink="http://www.w3.org/1999/xlink" contentStyleType="text/css" data-diagram-type="DESCRIPTION" height="735px" preserveAspectRatio="none" style="width:1362px;height:735px;background:#FFFFFF;" version="1.1" viewBox="0 0 1362 735" width="1362px" zoomAndPan="magnify"><title>Domain Events &#8212; Current (in-process) vs Possible Production Evolutions</title><defs/><g><g class="title" data-source-line="1"><text fill="#000000" font-family="sans-serif" font-size="14" font-weight="bold" lengthAdjust="spacing" textLength="572.5371" x="387.7684" y="22.9951">Domain Events &#8212; Current (in-process) vs Possible Production Evolutions</text></g><!--cluster today--><g class="cluster" data-qualified-name="today" data-source-line="7" id="ent0002"><path d="M8.5,100.3469 L261.3291,100.3469 A3.75,3.75 0 0 1 263.8291,102.8469 L270.8291,122.6438 L299.5,122.6438 A2.5,2.5 0 0 1 302,125.1438 L302,568.0469 A2.5,2.5 0 0 1 299.5,570.5469 L8.5,570.5469 A2.5,2.5 0 0 1 6,568.0469 L6,102.8469 A2.5,2.5 0 0 1 8.5,100.3469" fill="#D4EDDA" style="stroke:#000000;stroke-width:1.5;"/><line style="stroke:#000000;stroke-width:1.5;" x1="6" x2="270.8291" y1="122.6438" y2="122.6438"/><text fill="#000000" font-family="sans-serif" font-size="14" font-weight="bold" lengthAdjust="spacing" textLength="251.8291" x="10" y="115.342">TODAY &#8212; in-process, single JVM</text></g><!--cluster evo1--><g class="cluster" data-qualified-name="evo1" data-source-line="15" id="ent0008"><path d="M344.5,92.4969 L668.8672,92.4969 A3.75,3.75 0 0 1 671.3672,94.9969 L678.3672,131.0906 L777.5,131.0906 A2.5,2.5 0 0 1 780,133.5906 L780,725.6369 A2.5,2.5 0 0 1 777.5,728.1369 L344.5,728.1369 A2.5,2.5 0 0 1 342,725.6369 L342,94.9969 A2.5,2.5 0 0 1 344.5,92.4969" fill="#FFF3CD" style="stroke:#000000;stroke-width:1.5;"/><line style="stroke:#000000;stroke-width:1.5;" x1="342" x2="678.3672" y1="131.0906" y2="131.0906"/><text fill="#000000" font-family="sans-serif" font-size="14" font-weight="bold" lengthAdjust="spacing" textLength="323.3672" x="346" y="107.492">EVOLUTION 1 &#8212; Modulith Externalization</text><text fill="#000000" font-family="sans-serif" font-size="14" font-weight="bold" lengthAdjust="spacing" textLength="293.2412" x="361.063" y="123.7889">(spring-modulith-events-jpa, outbox)</text></g><!--cluster evo2--><g class="cluster" data-qualified-name="evo2" data-source-line="27" id="ent0018"><path d="M822.5,92.4969 L1050.5488,92.4969 A3.75,3.75 0 0 1 1053.0488,94.9969 L1060.0488,131.0906 L1348.5,131.0906 A2.5,2.5 0 0 1 1351,133.5906 L1351,394.1569 A2.5,2.5 0 0 1 1348.5,396.6569 L822.5,396.6569 A2.5,2.5 0 0 1 820,394.1569 L820,94.9969 A2.5,2.5 0 0 1 822.5,92.4969" fill="#F8E9E9" style="stroke:#000000;stroke-width:1.5;"/><line style="stroke:#000000;stroke-width:1.5;" x1="820" x2="1060.0488" y1="131.0906" y2="131.0906"/><text fill="#000000" font-family="sans-serif" font-size="14" font-weight="bold" lengthAdjust="spacing" textLength="227.0488" x="824" y="107.492">EVOLUTION 2 &#8212; Service split</text><text fill="#000000" font-family="sans-serif" font-size="14" font-weight="bold" lengthAdjust="spacing" textLength="163.4063" x="855.8213" y="123.7889">(physical extraction)</text></g><!--entity P1--><g class="entity" data-qualified-name="today.P1" data-source-line="8" id="ent0003"><rect fill="#F1F1F1" height="62.5938" rx="2.5" ry="2.5" style="stroke:#181818;stroke-width:0.5;" width="208.417" x="45.79" y="143.3469"/><rect fill="#F1F1F1" height="10" style="stroke:#181818;stroke-width:0.5;" width="15" x="234.207" y="148.3469"/><rect fill="#F1F1F1" height="2" style="stroke:#181818;stroke-width:0.5;" width="4" x="232.207" y="150.3469"/><rect fill="#F1F1F1" height="2" style="stroke:#181818;stroke-width:0.5;" width="4" x="232.207" y="154.3469"/><text fill="#000000" font-family="sans-serif" font-size="14" lengthAdjust="spacing" textLength="64.5176" x="60.79" y="176.342">Publisher</text><text fill="#000000" font-family="sans-serif" font-size="14" lengthAdjust="spacing" textLength="168.417" x="60.79" y="192.6389">(MarketSentinelService)</text></g><!--entity S1--><g class="entity" data-qualified-name="today.S1" data-source-line="9" id="ent0004"><rect fill="#F1F1F1" height="62.5938" rx="2.5" ry="2.5" style="stroke:#181818;stroke-width:0.5;" width="222.8477" x="38.58" y="306.0869"/><rect fill="#F1F1F1" height="10" style="stroke:#181818;stroke-width:0.5;" width="15" x="241.4277" y="311.0869"/><rect fill="#F1F1F1" height="2" style="stroke:#181818;stroke-width:0.5;" width="4" x="239.4277" y="313.0869"/><rect fill="#F1F1F1" height="2" style="stroke:#181818;stroke-width:0.5;" width="4" x="239.4277" y="317.0869"/><text fill="#000000" font-family="sans-serif" font-size="14" lengthAdjust="spacing" textLength="45.1787" x="53.58" y="339.082">Spring</text><text fill="#000000" font-family="sans-serif" font-size="14" lengthAdjust="spacing" textLength="182.8477" x="53.58" y="355.3789">ApplicationEventPublisher</text></g><!--entity L1--><g class="entity" data-qualified-name="today.L1" data-source-line="10" id="ent0005"><rect fill="#F1F1F1" height="78.8906" rx="2.5" ry="2.5" style="stroke:#181818;stroke-width:0.5;" width="239.459" x="30.27" y="467.6569"/><rect fill="#F1F1F1" height="10" style="stroke:#181818;stroke-width:0.5;" width="15" x="249.729" y="472.6569"/><rect fill="#F1F1F1" height="2" style="stroke:#181818;stroke-width:0.5;" width="4" x="247.729" y="474.6569"/><rect fill="#F1F1F1" height="2" style="stroke:#181818;stroke-width:0.5;" width="4" x="247.729" y="478.6569"/><text fill="#000000" font-family="sans-serif" font-size="14" lengthAdjust="spacing" textLength="56.3281" x="45.27" y="500.652">Listener</text><text fill="#000000" font-family="sans-serif" font-size="14" lengthAdjust="spacing" textLength="199.459" x="45.27" y="516.9489">@ApplicationModuleListener</text><text fill="#000000" font-family="sans-serif" font-size="14" lengthAdjust="spacing" textLength="159.0176" x="45.27" y="533.2457">AFTER_COMMIT, async</text></g><!--entity P2--><g class="entity" data-qualified-name="evo1.P2" data-source-line="16" id="ent0009"><rect fill="#F1F1F1" height="46.2969" rx="2.5" ry="2.5" style="stroke:#181818;stroke-width:0.5;" width="104.5176" x="466.74" y="151.4969"/><rect fill="#F1F1F1" height="10" style="stroke:#181818;stroke-width:0.5;" width="15" x="551.2576" y="156.4969"/><rect fill="#F1F1F1" height="2" style="stroke:#181818;stroke-width:0.5;" width="4" x="549.2576" y="158.4969"/><rect fill="#F1F1F1" height="2" style="stroke:#181818;stroke-width:0.5;" width="4" x="549.2576" y="162.4969"/><text fill="#000000" font-family="sans-serif" font-size="14" lengthAdjust="spacing" textLength="64.5176" x="481.74" y="184.492">Publisher</text></g><!--entity Reg--><g class="entity" data-qualified-name="evo1.Reg" data-source-line="17" id="ent0010"><rect fill="#F1F1F1" height="78.8906" rx="2.5" ry="2.5" style="stroke:#181818;stroke-width:0.5;" width="166.0957" x="435.95" y="297.9369"/><rect fill="#F1F1F1" height="10" style="stroke:#181818;stroke-width:0.5;" width="15" x="582.0457" y="302.9369"/><rect fill="#F1F1F1" height="2" style="stroke:#181818;stroke-width:0.5;" width="4" x="580.0457" y="304.9369"/><rect fill="#F1F1F1" height="2" style="stroke:#181818;stroke-width:0.5;" width="4" x="580.0457" y="308.9369"/><text fill="#000000" font-family="sans-serif" font-size="14" lengthAdjust="spacing" textLength="110.1748" x="450.95" y="330.932">Spring Modulith</text><text fill="#000000" font-family="sans-serif" font-size="14" lengthAdjust="spacing" textLength="102.498" x="450.95" y="347.2289">Event Registry</text><text fill="#000000" font-family="sans-serif" font-size="14" lengthAdjust="spacing" textLength="126.0957" x="450.95" y="363.5257">(JPA outbox table)</text></g><!--entity Ext--><g class="entity" data-qualified-name="evo1.Ext" data-source-line="18" id="ent0011"><rect fill="#F1F1F1" height="62.5938" rx="2.5" ry="2.5" style="stroke:#181818;stroke-width:0.5;" width="174.3535" x="365.82" y="475.7969"/><rect fill="#F1F1F1" height="10" style="stroke:#181818;stroke-width:0.5;" width="15" x="520.1735" y="480.7969"/><rect fill="#F1F1F1" height="2" style="stroke:#181818;stroke-width:0.5;" width="4" x="518.1735" y="482.7969"/><rect fill="#F1F1F1" height="2" style="stroke:#181818;stroke-width:0.5;" width="4" x="518.1735" y="486.7969"/><text fill="#000000" font-family="sans-serif" font-size="14" lengthAdjust="spacing" textLength="83.9385" x="380.82" y="508.792">Externalizer</text><text fill="#000000" font-family="sans-serif" font-size="14" lengthAdjust="spacing" textLength="134.3535" x="380.82" y="525.0889">(adapter to broker)</text></g><!--entity L2a--><g class="entity" data-qualified-name="evo1.L2a" data-source-line="19" id="ent0012"><rect fill="#F1F1F1" height="46.2969" rx="2.5" ry="2.5" style="stroke:#181818;stroke-width:0.5;" width="172.9385" x="575.53" y="483.9469"/><rect fill="#F1F1F1" height="10" style="stroke:#181818;stroke-width:0.5;" width="15" x="728.4685" y="488.9469"/><rect fill="#F1F1F1" height="2" style="stroke:#181818;stroke-width:0.5;" width="4" x="726.4685" y="490.9469"/><rect fill="#F1F1F1" height="2" style="stroke:#181818;stroke-width:0.5;" width="4" x="726.4685" y="494.9469"/><text fill="#000000" font-family="sans-serif" font-size="14" lengthAdjust="spacing" textLength="132.9385" x="590.53" y="516.942">In-process Listener</text></g><!--entity L2b--><g class="entity" data-qualified-name="evo1.L2b" data-source-line="20" id="ent0013"><rect fill="#F1F1F1" height="62.5938" rx="2.5" ry="2.5" style="stroke:#181818;stroke-width:0.5;" width="143.0859" x="381.46" y="641.5469"/><rect fill="#F1F1F1" height="10" style="stroke:#181818;stroke-width:0.5;" width="15" x="504.5459" y="646.5469"/><rect fill="#F1F1F1" height="2" style="stroke:#181818;stroke-width:0.5;" width="4" x="502.5459" y="648.5469"/><rect fill="#F1F1F1" height="2" style="stroke:#181818;stroke-width:0.5;" width="4" x="502.5459" y="652.5469"/><text fill="#000000" font-family="sans-serif" font-size="14" lengthAdjust="spacing" textLength="103.0859" x="396.46" y="674.542">Out-of-process</text><text fill="#000000" font-family="sans-serif" font-size="14" lengthAdjust="spacing" textLength="71.3877" x="396.46" y="690.8389">Consumer</text></g><!--entity ws--><g class="entity" data-qualified-name="evo2.ws" data-source-line="28" id="ent0019"><rect fill="#F1F1F1" height="46.2969" rx="2.5" ry="2.5" style="stroke:#181818;stroke-width:0.5;" width="166.9365" x="962.53" y="151.4969"/><rect fill="#F1F1F1" height="10" style="stroke:#181818;stroke-width:0.5;" width="15" x="1109.4665" y="156.4969"/><rect fill="#F1F1F1" height="2" style="stroke:#181818;stroke-width:0.5;" width="4" x="1107.4665" y="158.4969"/><rect fill="#F1F1F1" height="2" style="stroke:#181818;stroke-width:0.5;" width="4" x="1107.4665" y="162.4969"/><text fill="#000000" font-family="sans-serif" font-size="14" lengthAdjust="spacing" textLength="126.9365" x="977.53" y="184.492">Watchlists service</text></g><!--entity ns--><g class="entity" data-qualified-name="evo2.ns" data-source-line="29" id="ent0020"><rect fill="#F1F1F1" height="46.2969" rx="2.5" ry="2.5" style="stroke:#181818;stroke-width:0.5;" width="182.2217" x="843.89" y="314.2369"/><rect fill="#F1F1F1" height="10" style="stroke:#181818;stroke-width:0.5;" width="15" x="1006.1117" y="319.2369"/><rect fill="#F1F1F1" height="2" style="stroke:#181818;stroke-width:0.5;" width="4" x="1004.1117" y="321.2369"/><rect fill="#F1F1F1" height="2" style="stroke:#181818;stroke-width:0.5;" width="4" x="1004.1117" y="325.2369"/><text fill="#000000" font-family="sans-serif" font-size="14" lengthAdjust="spacing" textLength="142.2217" x="858.89" y="347.232">Notifications service</text></g><g class="entity" data-qualified-name="evo2.GMN22" data-source-line="32" id="ent0023"><path d="M1061.32,302.1169 L1061.32,372.6481 L1318.675,372.6481 L1318.675,312.1169 L1308.675,302.1169 L1061.32,302.1169" fill="#FEFFDD" style="stroke:#181818;stroke-width:0.5;"/><path d="M1308.675,302.1169 L1308.675,312.1169 L1318.675,312.1169 L1308.675,302.1169" fill="#FEFFDD" style="stroke:#181818;stroke-width:1;"/><text fill="#000000" font-family="sans-serif" font-size="13" lengthAdjust="spacing" textLength="236.355" x="1067.32" y="319.1838">Contract migrated from POJO record</text><text fill="#000000" font-family="sans-serif" font-size="13" lengthAdjust="spacing" textLength="220.1875" x="1067.32" y="334.3166">to Avro / Protobuf / JSON Schema.</text><text fill="#000000" font-family="sans-serif" font-size="13" lengthAdjust="spacing" textLength="220.6572" x="1067.32" y="349.4494">Externalization annotation moved</text><text fill="#000000" font-family="sans-serif" font-size="13" lengthAdjust="spacing" textLength="159.7451" x="1067.32" y="364.5822">to the same event class.</text></g><!--link P1 to S1--><g class="link" data-entity-1="ent0003" data-entity-2="ent0004" data-link-type="dependency" data-source-line="11" id="lnk6"><path d="M150,206.2569 C150,234.7669 150,271.0569 150,299.6169" fill="none" id="P1-to-S1" style="stroke:#1F4E79;stroke-width:1;"/><polygon fill="#1F4E79" points="150,305.6169,154,296.6169,150,300.6169,146,296.6169,150,305.6169" style="stroke:#1F4E79;stroke-width:1;"/></g><!--link S1 to L1--><g class="link" data-entity-1="ent0004" data-entity-2="ent0005" data-link-type="dependency" data-source-line="12" id="lnk7"><path d="M150,369.1469 C150,396.7569 150,431.4169 150,461.2669" fill="none" id="S1-to-L1" style="stroke:#1F4E79;stroke-width:1;"/><polygon fill="#1F4E79" points="150,467.2669,154,458.2669,150,462.2669,146,458.2669,150,467.2669" style="stroke:#1F4E79;stroke-width:1;"/></g><!--link P2 to Reg--><g class="link" data-entity-1="ent0009" data-entity-2="ent0010" data-link-type="dependency" data-source-line="21" id="lnk14"><path d="M519,197.9969 C519,223.7069 519,260.3669 519,291.5369" fill="none" id="P2-to-Reg" style="stroke:#1F4E79;stroke-width:1;"/><polygon fill="#1F4E79" points="519,297.5369,523,288.5369,519,292.5369,515,288.5369,519,297.5369" style="stroke:#1F4E79;stroke-width:1;"/><text fill="#000000" font-family="sans-serif" font-size="13" lengthAdjust="spacing" textLength="183.3267" x="520" y="256.5038">same TX as aggregate write</text></g><!--link Reg to L2a--><g class="link" data-entity-1="ent0010" data-entity-2="ent0012" data-link-type="dependency" data-source-line="22" id="lnk15"><path d="M552.17,377.2869 C580.38,410.3769 616.0163,452.1718 639.1563,479.3018" fill="none" id="Reg-to-L2a" style="stroke:#1F4E79;stroke-width:1;"/><polygon fill="#1F4E79" points="643.05,483.8669,640.2529,474.4236,639.8053,480.0627,634.1662,479.6151,643.05,483.8669" style="stroke:#1F4E79;stroke-width:1;"/><text fill="#000000" font-family="sans-serif" font-size="13" lengthAdjust="spacing" textLength="123.1191" x="604.31" y="433.7238">in-process delivery</text></g><!--link Reg to Ext--><g class="link" data-entity-1="ent0010" data-entity-2="ent0011" data-link-type="dependency" data-source-line="23" id="lnk16"><path d="M501.37,377.0569 C495.32,390.7369 488.65,406.2869 483,420.6569 C475.92,438.6469 470.6427,453.3967 465.0727,469.7667" fill="none" id="Reg-to-Ext" style="stroke:#1F4E79;stroke-width:1;"/><polygon fill="#1F4E79" points="463.14,475.4469,469.8259,468.2151,464.7506,470.7134,462.2523,465.6381,463.14,475.4469" style="stroke:#1F4E79;stroke-width:1;"/><text fill="#000000" font-family="sans-serif" font-size="13" lengthAdjust="spacing" textLength="84.2524" x="484" y="433.7238">after commit</text></g><!--link Ext to L2b--><g class="link" data-entity-1="ent0011" data-entity-2="ent0013" data-link-type="dependency" data-source-line="24" id="lnk17"><path d="M453,538.5169 C453,567.8269 453,605.9569 453,635.3069" fill="none" id="Ext-to-L2b" style="stroke:#1F4E79;stroke-width:1;"/><polygon fill="#1F4E79" points="453,641.3069,457,632.3069,453,636.3069,449,632.3069,453,641.3069" style="stroke:#1F4E79;stroke-width:1;"/><text fill="#000000" font-family="sans-serif" font-size="13" lengthAdjust="spacing" textLength="151.7407" x="454" y="607.6138">Kafka / RabbitMQ / SNS</text></g><!--link ws to ns--><g class="link" data-entity-1="ent0019" data-entity-2="ent0020" data-link-type="dependency" data-source-line="30" id="lnk21"><path d="M1016.51,198.0469 C1004.09,208.5469 990.18,221.8569 980,235.9369 C962.43,260.2569 951.4427,286.857 944.0627,308.177" fill="none" id="ws-to-ns" style="stroke:#1F4E79;stroke-width:1;"/><polygon fill="#1F4E79" points="942.1,313.8469,948.8239,306.6504,943.7356,309.1219,941.2641,304.0336,942.1,313.8469" style="stroke:#1F4E79;stroke-width:1;"/><text fill="#000000" font-family="sans-serif" font-size="13" lengthAdjust="spacing" textLength="72.7568" x="1036.5483" y="249.0038">Kafka topic</text><text fill="#000000" font-family="sans-serif" font-size="13" lengthAdjust="spacing" textLength="183.8535" x="981" y="264.1366">'watchlist.alert.triggered.v1'</text></g><!--link ws to GMN22--><g class="link" data-entity-1="ent0019" data-entity-2="ent0023" data-link-type="association" data-source-line="32" id="lnk24"><path d="M1103.84,198.2069 C1131.28,210.0169 1160.03,224.3969 1169,235.9369 C1183.54,254.6569 1188.64,281.0369 1190.18,302.0669" fill="none" id="ws-GMN22" style="stroke:#1F4E79;stroke-width:1;stroke-dasharray:7,7;"/></g><!--link today to evo1--><!--link evo1 to evo2--><?plantuml-src TLJRRjD047tFLupQXxPI7PI01EMX8afJgQLfGXqAgAdGs1xRI-nTQtVjD20aFe8lv4kONUT69VoqtZbpvioPiQsm1S65Ab5863KahO4_ltx3iDQQN-1OoA3IAYPZJg0nC5N6Y8XJfbebTMo5SccggDt9T3fc8MI56aimEIPgAMG6AHQ6zY8HnejCgrecGrKe3OUN_jb33BHMotMmbxwYrsUTJiLPc14Sp2ONWozUv4xRAHYknBAkxyS7W0QiId05XyahIXA47ns0XsaT5SBafEVoU8nwGJRa3eMa8YJTY9XE7btcjEV0OQMPS2u7LLM865rttfqjYSU67diZZ2NfUD_jmSViJq6xsE1oDhhxEfoCnrUpKqvUoTXpt3YEQG-2uBpb2zipt__SwtfqFxdvEBkQt4BFz-xfXSrXz6H9Iop4Tr-McpDUUr2k4G7viGRVAZm5LTj8FPruZwXHFJXCq_Hbd3opg7MYltDYMs_U-W1tb75hUiNrhgU3DIzOvDreVMI0Iz_9yyPZWXLVy7mWqcf1kWKpoe6ljWE5ZN6jHtrquKbj0vLk87Cvv9MhooqcSaRslNbS7Dw2mP9Wzjb5CSiqPMW9bbfOOgI3U9_xoD3TAa52XMX8h_OmB8ync3hbiIfBuTIwovOWuk1xJ1S8B-0EeqZOyGS-XhVXVqROzoDShnqOtXdBtbJvol3o541FLgF_jhQ3wlEWtj0PdRM3-eGspdbK_BMQbiLxi3GkUAkiIDTR-6zSklZIUDaSsgYsgXBnN1ujDwnTB4ZRhjKYoqXJqcrwHvmf5ViNAMjL2Ifjgm7m5BnSA4McsU44Kis0wUHw0ffYfHCFuuaF6gtO5_vrM1NLAH-lGtOZZ7CgiUjHpxOPK7BHzbYgXhPKDgTsl7wv8IxG6CT0Cl4odV7jFo1uo4MIa7myzmlVyLl_xBRV-Gi0?></g></svg>