<?plantuml 1.2026.1?><svg xmlns="http://www.w3.org/2000/svg" xmlns:xlink="http://www.w3.org/1999/xlink" contentStyleType="text/css" data-diagram-type="DESCRIPTION" height="742px" preserveAspectRatio="none" style="width:1589px;height:742px;background:#FEFEFE;" version="1.1" viewBox="0 0 1589 742" width="1589px" zoomAndPan="magnify"><title>Snapshot / CQRS Read Model Architecture</title><defs/><g><rect fill="#FEFEFE" height="742" style="stroke:none;stroke-width:1;" width="1589" x="0" y="0"/><g class="title" data-source-line="5"><text fill="#000000" font-family="Verdana" font-size="22" font-weight="bold" lengthAdjust="spacing" textLength="522.6719" x="529.0769" y="35.4209">Snapshot / CQRS Read Model Architecture</text></g><!--cluster WriteSide--><g class="cluster" data-qualified-name="WriteSide" data-source-line="7" id="ent0002"><rect fill="#FFFFFF" height="306.69" rx="2.5" ry="2.5" style="stroke:#000000;stroke-width:1;" width="384" x="410" y="66.6094"/><text fill="#000000" font-family="Verdana" font-size="14" font-weight="bold" lengthAdjust="spacing" textLength="187.1133" x="508.4434" y="81.6045">Write Side (Commands)</text></g><!--cluster Sync--><g class="cluster" data-qualified-name="Sync" data-source-line="16" id="ent0008"><rect fill="#FFFFFF" height="433.59" rx="2.5" ry="2.5" style="stroke:#000000;stroke-width:1;" width="374" x="12" y="265.2094"/><text fill="#000000" font-family="Verdana" font-size="14" font-weight="bold" lengthAdjust="spacing" textLength="206.4043" x="95.7979" y="280.2045">Snapshot Synchronization</text></g><!--cluster ReadSide--><g class="cluster" data-qualified-name="ReadSide" data-source-line="33" id="ent0014"><rect fill="#FFFFFF" height="394.35" rx="2.5" ry="2.5" style="stroke:#000000;stroke-width:1;" width="262" x="1304" y="265.2094"/><text fill="#000000" font-family="Verdana" font-size="14" font-weight="bold" lengthAdjust="spacing" textLength="157.582" x="1356.209" y="280.2045">Read Side (Queries)</text></g><!--cluster Recon--><g class="cluster" data-qualified-name="Recon" data-source-line="62" id="ent0024"><rect fill="#FFFFFF" height="119.6" rx="2.5" ry="2.5" style="stroke:#000000;stroke-width:1;" width="209" x="826" y="58.6094"/><text fill="#000000" font-family="Verdana" font-size="14" font-weight="bold" lengthAdjust="spacing" textLength="193.2451" x="833.8774" y="73.6045">Reconciliation (Periodic)</text></g><!--entity WriteService--><g class="entity" data-qualified-name="WriteSide.WriteService" data-source-line="8" id="ent0003"><rect fill="#FFFFFF" height="52.5938" rx="2.5" ry="2.5" style="stroke:#000000;stroke-width:1;" width="245.5449" x="426.23" y="101.6094"/><text fill="#000000" font-family="Verdana" font-size="14" lengthAdjust="spacing" textLength="225.5449" x="436.23" y="124.6045">PortfolioStockOperationsService</text><text fill="#000000" font-family="Verdana" font-size="14" lengthAdjust="spacing" textLength="145.3389" x="436.23" y="140.9014">(Application Service)</text></g><!--entity Aggregate--><g class="entity" data-qualified-name="WriteSide.Aggregate" data-source-line="9" id="ent0004"><rect fill="#FFFFFF" height="52.5938" rx="2.5" ry="2.5" style="stroke:#000000;stroke-width:1;" width="141.0098" x="426.5" y="300.2094"/><text fill="#000000" font-family="Verdana" font-size="14" lengthAdjust="spacing" textLength="58.0918" x="436.5" y="323.2045">Portfolio</text><text fill="#000000" font-family="Verdana" font-size="14" lengthAdjust="spacing" textLength="121.0098" x="436.5" y="339.5014">(Aggregate Root)</text></g><!--entity WriteDB--><g class="entity" data-qualified-name="WriteSide.WriteDB" data-source-line="10" id="ent0005"><path d="M602.21,305.7094 C602.21,295.7094 689.9996,295.7094 689.9996,295.7094 C689.9996,295.7094 777.7891,295.7094 777.7891,305.7094 L777.7891,347.3031 C777.7891,357.3031 689.9996,357.3031 689.9996,357.3031 C689.9996,357.3031 602.21,357.3031 602.21,347.3031 L602.21,305.7094" fill="#FFFFFF" style="stroke:#000000;stroke-width:1;"/><path d="M602.21,305.7094 C602.21,315.7094 689.9996,315.7094 689.9996,315.7094 C689.9996,315.7094 777.7891,315.7094 777.7891,305.7094" fill="none" style="stroke:#000000;stroke-width:1;"/><text fill="#000000" font-family="Verdana" font-size="14" lengthAdjust="spacing" textLength="155.5791" x="612.21" y="332.7045">portfolio / holding / lot</text><text fill="#000000" font-family="Verdana" font-size="14" lengthAdjust="spacing" textLength="98.7793" x="612.21" y="349.0014">(Write Tables)</text></g><!--entity Updater--><g class="entity" data-qualified-name="Sync.Updater" data-source-line="17" id="ent0009"><rect fill="#FFFFFF" height="52.5938" rx="2.5" ry="2.5" style="stroke:#000000;stroke-width:1;" width="220.9902" x="149.5" y="300.2094"/><text fill="#000000" font-family="Verdana" font-size="14" lengthAdjust="spacing" textLength="121.9053" x="159.5" y="323.2045">SnapshotUpdater</text><text fill="#000000" font-family="Verdana" font-size="14" lengthAdjust="spacing" textLength="200.9902" x="159.5" y="339.5014">(Domain Service or Listener)</text></g><g class="entity" data-qualified-name="Sync.GMN10" data-source-line="20" id="ent0011"><path d="M28.47,551.7294 L28.47,682.7919 A0,0 0 0 0 28.47,682.7919 L369.5252,682.7919 A0,0 0 0 0 369.5252,682.7919 L369.5252,561.7294 L359.5252,551.7294 L216.71,551.7294 L254.59,353.1294 L208.71,551.7294 L28.47,551.7294 A0,0 0 0 0 28.47,551.7294" fill="#FFFFFF" style="stroke:#000000;stroke-width:1;"/><path d="M359.5252,551.7294 L359.5252,561.7294 L369.5252,561.7294 L359.5252,551.7294" fill="#FFFFFF" style="stroke:#000000;stroke-width:1;"/><text fill="#000000" font-family="Verdana" font-size="13" font-weight="bold" lengthAdjust="spacing" textLength="202.5728" x="34.47" y="568.7963">Synchronous path (simple):</text><text fill="#000000" font-family="Verdana" font-size="13" lengthAdjust="spacing" textLength="223.209" x="34.47" y="583.9291">Called after each buy/sell commit.</text><text fill="#000000" font-family="Verdana" font-size="13" lengthAdjust="spacing" textLength="282.5596" x="34.47" y="599.0619">Updates snapshot row in same transaction.</text><text fill="#000000" font-family="Verdana" font-size="13" lengthAdjust="spacing" textLength="4.1323" x="34.47" y="614.1947">&#160;</text><text fill="#000000" font-family="Verdana" font-size="13" font-weight="bold" lengthAdjust="spacing" textLength="162.938" x="34.47" y="629.3275">Async path (scalable):</text><text fill="#000000" font-family="Verdana" font-size="13" lengthAdjust="spacing" textLength="310.0894" x="34.47" y="644.4603">Listens to domain events (TransactionCreated).</text><text fill="#000000" font-family="Verdana" font-size="13" lengthAdjust="spacing" textLength="320.0552" x="34.47" y="659.5931">Updates snapshot outside command transaction.</text><text fill="#000000" font-family="Verdana" font-size="13" lengthAdjust="spacing" textLength="214.792" x="34.47" y="674.726">Introduces eventual consistency.</text></g><!--entity ReadService--><g class="entity" data-qualified-name="ReadSide.ReadService" data-source-line="34" id="ent0015"><rect fill="#FFFFFF" height="52.5938" rx="2.5" ry="2.5" style="stroke:#000000;stroke-width:1;" width="165.3389" x="1320.33" y="300.2094"/><text fill="#000000" font-family="Verdana" font-size="14" lengthAdjust="spacing" textLength="120.4287" x="1330.33" y="323.2045">ReportingService</text><text fill="#000000" font-family="Verdana" font-size="14" lengthAdjust="spacing" textLength="145.3389" x="1330.33" y="339.5014">(Application Service)</text></g><!--entity PricePort--><g class="entity" data-qualified-name="ReadSide.PricePort" data-source-line="35" id="ent0016"><rect fill="#FFFFFF" height="52.5938" rx="2.5" ry="2.5" style="stroke:#000000;stroke-width:1;" width="179.5918" x="1321.2" y="590.9694"/><text fill="#000000" font-family="Verdana" font-size="14" lengthAdjust="spacing" textLength="159.5918" x="1331.2" y="613.9645">StockPriceProviderPort</text><text fill="#000000" font-family="Verdana" font-size="14" lengthAdjust="spacing" textLength="117.7695" x="1331.2" y="630.2614">(Secondary Port)</text></g><!--entity ReconJob--><g class="entity" data-qualified-name="Recon.ReconJob" data-source-line="63" id="ent0025"><rect fill="#FFFFFF" height="52.5938" rx="2.5" ry="2.5" style="stroke:#000000;stroke-width:1;" width="141.126" x="850.44" y="101.6094"/><text fill="#000000" font-family="Verdana" font-size="14" lengthAdjust="spacing" textLength="119.8203" x="860.44" y="124.6045">ReconciliationJob</text><text fill="#000000" font-family="Verdana" font-size="14" lengthAdjust="spacing" textLength="121.126" x="860.44" y="140.9014">(Scheduled Task)</text></g><!--entity SnapshotDB--><g class="entity" data-qualified-name="SnapshotDB" data-source-line="31" id="ent0013"><path d="M749.12,596.4694 C749.12,586.4694 849.0023,586.4694 849.0023,586.4694 C849.0023,586.4694 948.8846,586.4694 948.8846,596.4694 L948.8846,638.0631 C948.8846,648.0631 849.0023,648.0631 849.0023,648.0631 C849.0023,648.0631 749.12,648.0631 749.12,638.0631 L749.12,596.4694" fill="#90EE90" style="stroke:#000000;stroke-width:1;"/><path d="M749.12,596.4694 C749.12,606.4694 849.0023,606.4694 849.0023,606.4694 C849.0023,606.4694 948.8846,606.4694 948.8846,596.4694" fill="none" style="stroke:#000000;stroke-width:1;"/><text fill="#000000" font-family="Verdana" font-size="14" lengthAdjust="spacing" textLength="130.0127" x="759.12" y="623.4645">holdings_snapshot</text><text fill="#000000" font-family="Verdana" font-size="14" lengthAdjust="spacing" textLength="179.7646" x="759.12" y="639.7614">(Materialized Read Table)</text></g><g class="entity" data-qualified-name="GMN21" data-source-line="45" id="ent0022"><path d="M983.62,498.7694 L983.62,613.2594 L949.27,617.2594 L983.62,621.2594 L983.62,735.7616 A0,0 0 0 0 983.62,735.7616 L1286.3798,735.7616 A0,0 0 0 0 1286.3798,735.7616 L1286.3798,508.7694 L1276.3798,498.7694 L983.62,498.7694 A0,0 0 0 0 983.62,498.7694" fill="#FFFFFF" style="stroke:#000000;stroke-width:1;"/><path d="M1276.3798,498.7694 L1276.3798,508.7694 L1286.3798,508.7694 L1276.3798,498.7694" fill="#FFFFFF" style="stroke:#000000;stroke-width:1;"/><text fill="#000000" font-family="Verdana" font-size="13" font-weight="bold" lengthAdjust="spacing" textLength="188.6714" x="989.62" y="515.8363">Snapshot table structure:</text><text fill="#000000" font-family="Verdana" font-size="13" lengthAdjust="spacing" textLength="281.7598" x="989.62" y="530.9691">&#9484;&#9472;&#9472;&#9472;&#9472;&#9472;&#9472;&#9472;&#9472;&#9472;&#9472;&#9472;&#9472;&#9472;&#9472;&#9472;&#9472;&#9472;&#9472;&#9472;&#9472;&#9472;&#9472;&#9472;&#9472;&#9472;&#9472;&#9472;&#9472;&#9472;&#9472;&#9472;&#9472;&#9472;&#9472;&#9488;</text><text fill="#000000" font-family="Verdana" font-size="13" lengthAdjust="spacing" textLength="210.7612" x="989.62" y="546.1019">&#9474; holdings_snapshot                 &#9474;</text><text fill="#000000" font-family="Verdana" font-size="13" lengthAdjust="spacing" textLength="281.7598" x="989.62" y="561.2347">&#9500;&#9472;&#9472;&#9472;&#9472;&#9472;&#9472;&#9472;&#9472;&#9472;&#9472;&#9472;&#9472;&#9472;&#9472;&#9472;&#9472;&#9472;&#9472;&#9472;&#9472;&#9472;&#9472;&#9472;&#9472;&#9472;&#9472;&#9472;&#9472;&#9472;&#9472;&#9472;&#9472;&#9472;&#9472;&#9508;</text><text fill="#000000" font-family="Verdana" font-size="13" lengthAdjust="spacing" textLength="222.0537" x="989.62" y="576.3675">&#9474; portfolio_id   VARCHAR PK        &#9474;</text><text fill="#000000" font-family="Verdana" font-size="13" lengthAdjust="spacing" textLength="210.8564" x="989.62" y="591.5003">&#9474; ticker         VARCHAR PK        &#9474;</text><text fill="#000000" font-family="Verdana" font-size="13" lengthAdjust="spacing" textLength="229.3979" x="989.62" y="606.6331">&#9474; total_bought_qty    DECIMAL      &#9474;</text><text fill="#000000" font-family="Verdana" font-size="13" lengthAdjust="spacing" textLength="231.1943" x="989.62" y="621.766">&#9474; total_bought_cost   DECIMAL      &#9474;</text><text fill="#000000" font-family="Verdana" font-size="13" lengthAdjust="spacing" textLength="214.6587" x="989.62" y="636.8988">&#9474; remaining_shares    INT          &#9474;</text><text fill="#000000" font-family="Verdana" font-size="13" lengthAdjust="spacing" textLength="218.1689" x="989.62" y="652.0316">&#9474; realized_gain       DECIMAL      &#9474;</text><text fill="#000000" font-family="Verdana" font-size="13" lengthAdjust="spacing" textLength="235.8916" x="989.62" y="667.1644">&#9474; last_updated_at     TIMESTAMP    &#9474;</text><text fill="#000000" font-family="Verdana" font-size="13" lengthAdjust="spacing" textLength="281.7598" x="989.62" y="682.2972">&#9492;&#9472;&#9472;&#9472;&#9472;&#9472;&#9472;&#9472;&#9472;&#9472;&#9472;&#9472;&#9472;&#9472;&#9472;&#9472;&#9472;&#9472;&#9472;&#9472;&#9472;&#9472;&#9472;&#9472;&#9472;&#9472;&#9472;&#9472;&#9472;&#9472;&#9472;&#9472;&#9472;&#9472;&#9472;&#9496;</text><text fill="#000000" font-family="Verdana" font-size="13" lengthAdjust="spacing" textLength="4.1323" x="989.62" y="697.43">&#160;</text><text fill="#000000" font-family="Verdana" font-size="13" lengthAdjust="spacing" textLength="194.6509" x="989.62" y="712.5628">Query is O(H) &#8212; reads H rows</text><text fill="#000000" font-family="Verdana" font-size="13" lengthAdjust="spacing" textLength="227.7476" x="989.62" y="727.6956">instead of scanning T transactions.</text></g><g class="entity" data-qualified-name="GMN28" data-source-line="69" id="ent0029"><path d="M1034.25,291.2394 L1034.25,361.7706 L1249.7549,361.7706 L1249.7549,301.2394 L1239.7549,291.2394 L1034.25,291.2394" fill="#FFFFFF" style="stroke:#000000;stroke-width:1;"/><path d="M1239.7549,291.2394 L1239.7549,301.2394 L1249.7549,301.2394 L1239.7549,291.2394" fill="#FFFFFF" style="stroke:#000000;stroke-width:1;"/><text fill="#000000" font-family="Verdana" font-size="13" lengthAdjust="spacing" textLength="194.3462" x="1040.25" y="308.3063">Catches bugs, missed events,</text><text fill="#000000" font-family="Verdana" font-size="13" lengthAdjust="spacing" textLength="115.667" x="1040.25" y="323.4391">or partial failures.</text><text fill="#000000" font-family="Verdana" font-size="13" lengthAdjust="spacing" textLength="194.5049" x="1040.25" y="338.5719">Runs hourly / daily depending</text><text fill="#000000" font-family="Verdana" font-size="13" lengthAdjust="spacing" textLength="140.5371" x="1040.25" y="353.7047">on SLA requirements.</text></g><!--link WriteService to Aggregate--><g class="link" data-entity-1="ent0003" data-entity-2="ent0004" data-link-type="dependency" data-source-line="12" id="lnk6"><path d="M523.17,154.6494 C511.88,167.7194 499.89,184.5494 494,202.2094 C483.23,234.4994 485.979,268.3269 490.379,293.8069" fill="none" id="WriteService-to-Aggregate" style="stroke:#000000;stroke-width:1;"/><polygon fill="#000000" points="491.4,299.7194,493.8102,290.17,490.5492,294.7923,485.9268,291.5313,491.4,299.7194" style="stroke:#000000;stroke-width:1;"/><text fill="#000000" font-family="Verdana" font-size="13" lengthAdjust="spacing" textLength="79.1108" x="495" y="230.2763">buy() / sell()</text></g><!--link WriteService to WriteDB--><g class="link" data-entity-1="ent0003" data-entity-2="ent0005" data-link-type="dependency" data-source-line="13" id="lnk7"><path d="M560.51,154.5394 C572.41,179.7694 592.4,218.8094 615,249.2094 C627.19,265.5994 638.4423,277.8128 652.2323,291.1828" fill="none" id="WriteService-to-WriteDB" style="stroke:#000000;stroke-width:1;"/><polygon fill="#000000" points="656.54,295.3594,652.8628,286.2228,652.9502,291.8789,647.294,291.9664,656.54,295.3594" style="stroke:#000000;stroke-width:1;"/><text fill="#000000" font-family="Verdana" font-size="13" lengthAdjust="spacing" textLength="94.5166" x="616" y="230.2763">savePortfolio()</text></g><!--link ReadService to SnapshotDB--><g class="link" data-entity-1="ent0015" data-entity-2="ent0013" data-link-type="dependency" data-source-line="37" id="lnk17"><path d="M1348.59,353.2094 C1324.17,363.6394 1294.67,374.7494 1267,381.2994 C1215.33,393.5194 1198.57,375.5894 1148,391.7694 C1058.63,420.3594 1040.16,441.2694 966,498.7694 C931.87,525.2294 901.5808,556.557 879.0208,581.657" fill="none" id="ReadService-to-SnapshotDB" style="stroke:#000000;stroke-width:1;"/><polygon fill="#000000" points="875.01,586.1194,884.0012,582.0996,878.3524,582.4007,878.0513,576.7519,875.01,586.1194" style="stroke:#000000;stroke-width:1;"/><text fill="#000000" font-family="Verdana" font-size="13" lengthAdjust="spacing" textLength="226.5225" x="1149" y="427.3363">SELECT * FROM holdings_snapshot</text><text fill="#000000" font-family="Verdana" font-size="13" lengthAdjust="spacing" textLength="150.998" x="1186.7622" y="442.4691">WHERE portfolio_id = ?</text></g><!--link ReadService to PricePort--><g class="link" data-entity-1="ent0015" data-entity-2="ent0016" data-link-type="dependency" data-source-line="38" id="lnk18"><path d="M1395.08,353.1894 C1391.88,364.8394 1388.58,378.8694 1387,391.7694 C1378.17,463.7394 1393.2666,543.0887 1403.0766,584.8087" fill="none" id="ReadService-to-PricePort" style="stroke:#000000;stroke-width:1;"/><polygon fill="#000000" points="1404.45,590.6494,1406.2837,580.9727,1403.3055,585.7821,1398.4961,582.8039,1404.45,590.6494" style="stroke:#000000;stroke-width:1;"/><text fill="#000000" font-family="Verdana" font-size="13" lengthAdjust="spacing" textLength="193.8257" x="1388" y="434.8363">fetchStockPrice(Set&lt;Ticker&gt;)</text></g><!--link WriteService to Updater--><g class="link" data-entity-1="ent0003" data-entity-2="ent0009" data-link-type="dependency" data-source-line="41" id="lnk19"><path d="M462.36,154.6394 C430.98,166.3094 396.32,182.0694 368,202.2094 C329.73,229.4094 299.3749,267.8569 280.1749,295.2369" fill="none" id="WriteService-to-Updater" style="stroke:#000000;stroke-width:1;stroke-dasharray:7,7;"/><polygon fill="#000000" points="276.73,300.1494,285.1723,295.0772,279.6007,296.0556,278.6223,290.484,276.73,300.1494" style="stroke:#000000;stroke-width:1;"/><text fill="#000000" font-family="Verdana" font-size="13" lengthAdjust="spacing" textLength="88.6323" x="379.2991" y="222.7763">after commit:</text><text fill="#000000" font-family="Verdana" font-size="13" lengthAdjust="spacing" textLength="109.2305" x="369" y="237.9091">update snapshot</text></g><!--link Updater to SnapshotDB--><g class="link" data-entity-1="ent0009" data-entity-2="ent0013" data-link-type="dependency" data-source-line="42" id="lnk20"><path d="M312.53,353.2494 C421.36,406.6094 665.6226,526.3582 781.9126,583.3682" fill="none" id="Updater-to-SnapshotDB" style="stroke:#000000;stroke-width:1;"/><polygon fill="#000000" points="787.3,586.0094,780.9796,578.4561,782.8105,583.8084,777.4581,585.6393,787.3,586.0094" style="stroke:#000000;stroke-width:1;"/><text fill="#000000" font-family="Verdana" font-size="13" lengthAdjust="spacing" textLength="121.7607" x="537.84" y="404.8363">UPSERT per ticker:</text><text fill="#000000" font-family="Verdana" font-size="13" lengthAdjust="spacing" textLength="113.9341" x="541.7533" y="419.9691">total_bought_qty,</text><text fill="#000000" font-family="Verdana" font-size="13" lengthAdjust="spacing" textLength="119.8628" x="538.789" y="435.1019">total_bought_cost,</text><text fill="#000000" font-family="Verdana" font-size="13" lengthAdjust="spacing" textLength="90.3081" x="553.5663" y="450.2347">realized_gain,</text><text fill="#000000" font-family="Verdana" font-size="13" lengthAdjust="spacing" textLength="115.521" x="540.9599" y="465.3675">remaining_shares</text></g><!--link ReconJob to WriteDB--><g class="link" data-entity-1="ent0025" data-entity-2="ent0005" data-link-type="dependency" data-source-line="64" id="lnk26"><path d="M878.59,154.6694 C854.54,168.2494 823.44,184.1394 794,194.2094 C775.61,200.4894 766.5,190.4794 751,202.2094 C735.14,214.1994 716.3054,257.1655 703.5354,289.6455" fill="none" id="ReconJob-to-WriteDB" style="stroke:#000000;stroke-width:1;"/><polygon fill="#000000" points="701.34,295.2294,708.3557,288.3171,703.1695,290.5761,700.9105,285.3899,701.34,295.2294" style="stroke:#000000;stroke-width:1;"/><text fill="#000000" font-family="Verdana" font-size="13" lengthAdjust="spacing" textLength="105.3647" x="752" y="215.2763">recompute from</text><text fill="#000000" font-family="Verdana" font-size="13" lengthAdjust="spacing" textLength="97.3857" x="755.9895" y="230.4091">source-of-truth</text><text fill="#000000" font-family="Verdana" font-size="13" lengthAdjust="spacing" textLength="80.209" x="764.5779" y="245.5419">transactions</text></g><!--link ReconJob to SnapshotDB--><g class="link" data-entity-1="ent0025" data-entity-2="ent0013" data-link-type="dependency" data-source-line="65" id="lnk27"><path d="M917.21,154.4694 C913.37,180.3594 907.27,221.5694 902,257.2094 C883.98,379.0694 863.4451,518.2735 854.3351,580.0635" fill="none" id="ReconJob-to-SnapshotDB" style="stroke:#000000;stroke-width:1;"/><polygon fill="#000000" points="853.46,585.9994,858.7299,577.6791,854.1893,581.0528,850.8155,576.5122,853.46,585.9994" style="stroke:#000000;stroke-width:1;"/><text fill="#000000" font-family="Verdana" font-size="13" lengthAdjust="spacing" textLength="91.6094" x="913.8608" y="323.5663">compare &amp; fix</text><text fill="#000000" font-family="Verdana" font-size="13" lengthAdjust="spacing" textLength="113.3311" x="903" y="338.6991">drifted snapshots</text></g><!--link Recon to GMN28--><g class="link" data-entity-1="ent0024" data-entity-2="ent0029" data-link-type="association" data-source-line="69" id="lnk30"><path d="M1035.0083,142.6018 C1035.3569,143.1978 1035.7154,143.8105 1036.0833,144.4395 C1036.8191,145.6973 1037.5927,147.0198 1038.4016,148.4025 C1044.8725,159.4644 1053.5987,174.3819 1063.255,190.8894 C1082.5675,223.9044 1105.6,263.2794 1121.75,290.8894" fill="none" id="Recon-GMN28" style="stroke:#000000;stroke-width:1;stroke-dasharray:7,7;"/></g><?plantuml-src lLPFRzis5B_hKxovm60RINeFjWoUuoxPuiMLtFKImA19sY92aIf9fNE70aNFFVIGmmuxxfFba-oHb6JPSTkTekHWFRx_x_T-r7SkvmM7KXAX4dihL4aCAM19wEtQw4gniPRQmBCN4__NqQ2wABNYocLk8paOJXrHQycJn0c7WaoHqkRQmNCOlqmpI3bXCDMCInWPcWk71fL1zTOIUgyDYY4JZ4D_h8k2A6O7FI0Mmaau-2i1VDheq9jfurPQ2fqvJM-lIsw84rhPZ9ixGVcDwe_AKWeQf51BkrwZv8jklOFrsl0rmTnIhLsqRMN1a157biHY3MLZXuNdMZAXrlXBQeT-OdrpifIyMzVvpqbmqaq7Ze_FjZ7W59RLfZz0JvPBsHySrg-zeRObTxoj0DNVx_IvdKssKJGtMebteJiX9IzxtEN6v5M9fNA3nPph0Z7JD1GG95V2EgwuYQNLch4qfR68fNPE5w1NxHdKpt3OPA8h2oLnEVIjA4h91wV3OQis9b9o1cI5ji09pNrNdlkE-5GBuKvQrHZ1WcrADVejOBgM8DgT8SeIwai-IJf9ZAollGvFYVI3saaWLcZ1QM2nV7w7xR7GdszTZWt7q6pmbMHqvQm7CuqWtqseiRfKpcXMKJGCKIhYorGsv40tKP6ZjM-kd_0MX3NmxAA9YFEQ-euB8iKxR67OnW34EAncl0YUPrTYdRjV3ETg1pJ19ExcomezDH3syiERcNA_39Z7_rZ5uENm9eQzdXaycHbzXv6CHpOwopYsWn6p0I-8Vg8UliQvTjo63UdKUGhPv6eodiCGNgJNKpZGizSNatG2xKOl18CVuQU3Zjkuw7V57SstMMEUxeUveBVSd8LDtDdRavEpPXtGj1Un7T5yUgEgSD82fvSqge-AwRsQPPDq3iX_u48mD7VQ4RbOwWedkdZZDaTx8ggjGna2Di1YiKP8XtUFRMp6mkR4SDjBah30nYF3x-ysSbAlRuDivp45rfagq7kpF0_tdnxkFpp9_-SwuCV74uNz1xLgxN-UAhr_s_HsS0NmnoWTNunIcFtsEBkFzKZRnB-Xl3TsBp-VZ2-dewjlA7j0V4rv7nc1ftwV7-geL-x0gZx_ecT9h5j4kBC5YQEQNqudsNmqdUqgtp_LhFwE9EBfRWF2mdN_OW0F7-vzPSp2XRzKR50H2aaP-H5t0oyEvJi4yowjsvEafUfTLaKEeqAAo8dz6JAhPe8sh8YdXuYrQ_IhNdeof3bdbRyUvyJUTipnk6Qi-BBtfT33PD1pXUkzChguKLPNXl9ZlJh69NOvCaQdYjvZLxiiv7qXCE1xM8a_RnGp0WcDjGI63jxNPBBz6WZkadZ18tCYgfRLsXv18Qn5stZ57WK5_Cf0zmwlCLWH8P5XRBm7qmglvHnJbnlyI69ujW76I-mvZYAQuerpDSBHlQa4mjZxxCpaFm00?></g></svg>