<?plantuml 1.2026.1?><svg xmlns="http://www.w3.org/2000/svg" xmlns:xlink="http://www.w3.org/1999/xlink" contentStyleType="text/css" data-diagram-type="SEQUENCE" height="1125px" preserveAspectRatio="none" style="width:960px;height:1125px;background:#FFFFFF;" version="1.1" viewBox="0 0 960 1125" width="960px" zoomAndPan="magnify"><title>Anemic Model &#8212; Settlement-Aware Sell (Service Inline Logic)</title><defs/><g><text fill="#000000" font-family="Verdana" font-size="22" font-weight="bold" lengthAdjust="spacing" textLength="759.7197" x="104.5485" y="35.4209">Anemic Model &#8212; Settlement-Aware Sell (Service Inline Logic)</text><g><title>REST Controller</title><rect fill="#FFFFFF" height="862.3359" style="stroke:#000000;stroke-width:1;" width="10" x="236.9417" y="167.0234"/></g><g><title>StockOperationsService</title><rect fill="#FFFFFF" height="795.9219" style="stroke:#000000;stroke-width:1;" width="10" x="475.5969" y="193.8281"/></g><g><title>Holding</title><rect fill="#FFFFFF" height="26.8047" style="stroke:#000000;stroke-width:1;" width="10" x="840.6201" y="385.4609"/></g><rect fill="#FFFFFF" height="108.2188" style="stroke:#000000;stroke-width:1;" width="567.0049" x="387.8118" y="427.2656"/><rect fill="#FFFFFF" height="148.8281" style="stroke:#000000;stroke-width:1;" width="567.0049" x="387.8118" y="668.8984"/><g class="participant-lifeline" data-entity-uid="part1" data-qualified-name="Client" id="part1-lifeline"><g><title>Client</title><rect fill="#000000" fill-opacity="0.00000" height="921.9453" width="8" x="24.9226" y="125.4141"/><line style="stroke:#000000;stroke-width:1;stroke-dasharray:5,5;" x1="28" x2="28" y1="125.4141" y2="1047.3594"/></g></g><g class="participant-lifeline" data-entity-uid="part2" data-qualified-name="ctrl" id="part2-lifeline"><g><title>REST Controller</title><rect fill="#000000" fill-opacity="0.00000" height="921.9453" width="8" x="237.9417" y="125.4141"/><line style="stroke:#000000;stroke-width:1;stroke-dasharray:5,5;" x1="241.8708" x2="241.8708" y1="125.4141" y2="1047.3594"/></g></g><g class="participant-lifeline" data-entity-uid="part3" data-qualified-name="svc" id="part3-lifeline"><g><title>StockOperationsService</title><rect fill="#000000" fill-opacity="0.00000" height="921.9453" width="8" x="476.5969" y="125.4141"/><line style="stroke:#000000;stroke-width:1;stroke-dasharray:5,5;" x1="479.8118" x2="479.8118" y1="125.4141" y2="1047.3594"/></g></g><g class="participant-lifeline" data-entity-uid="part4" data-qualified-name="portfolio" id="part4-lifeline"><g><title>Portfolio</title><rect fill="#000000" fill-opacity="0.00000" height="921.9453" width="8" x="753.7732" y="125.4141"/><line style="stroke:#000000;stroke-width:1;stroke-dasharray:5,5;" x1="756.9514" x2="756.9514" y1="125.4141" y2="1047.3594"/></g></g><g class="participant-lifeline" data-entity-uid="part5" data-qualified-name="holding" id="part5-lifeline"><g><title>Holding</title><rect fill="#000000" fill-opacity="0.00000" height="921.9453" width="8" x="841.6201" y="125.4141"/><line style="stroke:#000000;stroke-width:1;stroke-dasharray:5,5;" x1="845.595" x2="845.595" y1="125.4141" y2="1047.3594"/></g></g><g class="participant-lifeline" data-entity-uid="part6" data-qualified-name="lot" id="part6-lifeline"><g><title>Lot</title><rect fill="#000000" fill-opacity="0.00000" height="921.9453" width="8" x="915.231" y="125.4141"/><line style="stroke:#000000;stroke-width:1;stroke-dasharray:5,5;" x1="918.6453" x2="918.6453" y1="125.4141" y2="1047.3594"/></g></g><g class="participant participant-head" data-entity-uid="part1" data-qualified-name="Client" id="part1-head"><text fill="#000000" font-family="Verdana" font-size="11" lengthAdjust="spacing" textLength="31.8452" x="10" y="122.8198">Client</text><ellipse cx="28.9226" cy="60.6094" fill="#FFFFFF" rx="8" ry="8" style="stroke:#000000;stroke-width:1;"/><path d="M28.9226,68.6094 L28.9226,95.6094 M15.9226,76.6094 L41.9226,76.6094 M28.9226,95.6094 L15.9226,110.6094 M28.9226,95.6094 L41.9226,110.6094" fill="none" style="stroke:#000000;stroke-width:1;"/></g><g class="participant participant-tail" data-entity-uid="part1" data-qualified-name="Client" id="part1-tail"><text fill="#000000" font-family="Verdana" font-size="11" lengthAdjust="spacing" textLength="31.8452" x="10" y="1056.5698">Client</text><ellipse cx="28.9226" cy="1068.1641" fill="#FFFFFF" rx="8" ry="8" style="stroke:#000000;stroke-width:1;"/><path d="M28.9226,1076.1641 L28.9226,1103.1641 M15.9226,1084.1641 L41.9226,1084.1641 M28.9226,1103.1641 L15.9226,1118.1641 M28.9226,1103.1641 L41.9226,1118.1641" fill="none" style="stroke:#000000;stroke-width:1;"/></g><g class="participant participant-head" data-entity-uid="part2" data-qualified-name="ctrl" id="part2-head"><rect fill="#FFFFFF" height="26.8047" rx="2.5" ry="2.5" style="stroke:#000000;stroke-width:1;" width="100.1416" x="191.8708" y="97.6094"/><text fill="#000000" font-family="Verdana" font-size="11" lengthAdjust="spacing" textLength="86.1416" x="198.8708" y="114.8198">REST Controller</text></g><g class="participant participant-tail" data-entity-uid="part2" data-qualified-name="ctrl" id="part2-tail"><rect fill="#FFFFFF" height="26.8047" rx="2.5" ry="2.5" style="stroke:#000000;stroke-width:1;" width="100.1416" x="191.8708" y="1046.3594"/><text fill="#000000" font-family="Verdana" font-size="11" lengthAdjust="spacing" textLength="86.1416" x="198.8708" y="1063.5698">REST Controller</text></g><g class="participant participant-head" data-entity-uid="part3" data-qualified-name="svc" id="part3-head"><rect fill="#FFFFFF" height="26.8047" rx="2.5" ry="2.5" style="stroke:#000000;stroke-width:1;" width="145.5703" x="407.8118" y="97.6094"/><text fill="#000000" font-family="Verdana" font-size="11" lengthAdjust="spacing" textLength="131.5703" x="414.8118" y="114.8198">StockOperationsService</text></g><g class="participant participant-tail" data-entity-uid="part3" data-qualified-name="svc" id="part3-tail"><rect fill="#FFFFFF" height="26.8047" rx="2.5" ry="2.5" style="stroke:#000000;stroke-width:1;" width="145.5703" x="407.8118" y="1046.3594"/><text fill="#000000" font-family="Verdana" font-size="11" lengthAdjust="spacing" textLength="131.5703" x="414.8118" y="1063.5698">StockOperationsService</text></g><g class="participant participant-head" data-entity-uid="part4" data-qualified-name="portfolio" id="part4-head"><rect fill="#FFFFFF" height="26.8047" rx="2.5" ry="2.5" style="stroke:#000000;stroke-width:1;" width="59.6436" x="727.9514" y="97.6094"/><text fill="#000000" font-family="Verdana" font-size="11" lengthAdjust="spacing" textLength="45.6436" x="734.9514" y="114.8198">Portfolio</text></g><g class="participant participant-tail" data-entity-uid="part4" data-qualified-name="portfolio" id="part4-tail"><rect fill="#FFFFFF" height="26.8047" rx="2.5" ry="2.5" style="stroke:#000000;stroke-width:1;" width="59.6436" x="727.9514" y="1046.3594"/><text fill="#000000" font-family="Verdana" font-size="11" lengthAdjust="spacing" textLength="45.6436" x="734.9514" y="1063.5698">Portfolio</text></g><g class="participant participant-head" data-entity-uid="part5" data-qualified-name="holding" id="part5-head"><rect fill="#FFFFFF" height="26.8047" rx="2.5" ry="2.5" style="stroke:#000000;stroke-width:1;" width="56.0503" x="817.595" y="97.6094"/><text fill="#000000" font-family="Verdana" font-size="11" lengthAdjust="spacing" textLength="42.0503" x="824.595" y="114.8198">Holding</text></g><g class="participant participant-tail" data-entity-uid="part5" data-qualified-name="holding" id="part5-tail"><rect fill="#FFFFFF" height="26.8047" rx="2.5" ry="2.5" style="stroke:#000000;stroke-width:1;" width="56.0503" x="817.595" y="1046.3594"/><text fill="#000000" font-family="Verdana" font-size="11" lengthAdjust="spacing" textLength="42.0503" x="824.595" y="1063.5698">Holding</text></g><g class="participant participant-head" data-entity-uid="part6" data-qualified-name="lot" id="part6-head"><rect fill="#FFFFFF" height="26.8047" rx="2.5" ry="2.5" style="stroke:#000000;stroke-width:1;" width="31.1714" x="903.6453" y="97.6094"/><text fill="#000000" font-family="Verdana" font-size="11" lengthAdjust="spacing" textLength="17.1714" x="910.6453" y="114.8198">Lot</text></g><g class="participant participant-tail" data-entity-uid="part6" data-qualified-name="lot" id="part6-tail"><rect fill="#FFFFFF" height="26.8047" rx="2.5" ry="2.5" style="stroke:#000000;stroke-width:1;" width="31.1714" x="903.6453" y="1046.3594"/><text fill="#000000" font-family="Verdana" font-size="11" lengthAdjust="spacing" textLength="17.1714" x="910.6453" y="1063.5698">Lot</text></g><g><title>REST Controller</title><rect fill="#FFFFFF" height="862.3359" style="stroke:#000000;stroke-width:1;" width="10" x="236.9417" y="167.0234"/></g><g><title>StockOperationsService</title><rect fill="#FFFFFF" height="795.9219" style="stroke:#000000;stroke-width:1;" width="10" x="475.5969" y="193.8281"/></g><g><title>Holding</title><rect fill="#FFFFFF" height="26.8047" style="stroke:#000000;stroke-width:1;" width="10" x="840.6201" y="385.4609"/></g><g class="message" data-entity-1="part1" data-entity-2="part2" id="msg1"><polygon fill="#000000" points="224.9417,163.0234,234.9417,167.0234,224.9417,171.0234,228.9417,167.0234" style="stroke:#000000;stroke-width:1;"/><line style="stroke:#000000;stroke-width:1;" x1="28.9226" x2="230.9417" y1="167.0234" y2="167.0234"/><text fill="#000000" font-family="Verdana" font-size="11" lengthAdjust="spacing" textLength="127.9072" x="35.9226" y="149.6245">POST /settlement-sales</text><text fill="#000000" font-family="Verdana" font-size="11" lengthAdjust="spacing" textLength="154.1396" x="35.9226" y="162.4292">{ticker: AAPL, quantity: 10}</text></g><g class="message" data-entity-1="part2" data-entity-2="part3" id="msg2"><polygon fill="#000000" points="463.5969,189.8281,473.5969,193.8281,463.5969,197.8281,467.5969,193.8281" style="stroke:#000000;stroke-width:1;"/><line style="stroke:#000000;stroke-width:1;" x1="246.9417" x2="469.5969" y1="193.8281" y2="193.8281"/><text fill="#000000" font-family="Verdana" font-size="11" lengthAdjust="spacing" textLength="209.6553" x="253.9417" y="189.2339">sellStockWithSettlement(id, AAPL, 10)</text></g><g class="message" data-entity-1="part3" data-entity-2="part3" id="msg3"><line style="stroke:#000000;stroke-width:1;" x1="485.5969" x2="527.5969" y1="220.6328" y2="220.6328"/><line style="stroke:#000000;stroke-width:1;" x1="527.5969" x2="527.5969" y1="220.6328" y2="233.6328"/><line style="stroke:#000000;stroke-width:1;" x1="486.5969" x2="527.5969" y1="233.6328" y2="233.6328"/><polygon fill="#000000" points="496.5969,229.6328,486.5969,233.6328,496.5969,237.6328,492.5969,233.6328" style="stroke:#000000;stroke-width:1;"/><text fill="#000000" font-family="Verdana" font-size="11" lengthAdjust="spacing" textLength="133.9067" x="492.5969" y="216.0386">Load portfolio from repo</text></g><g class="message" data-entity-1="part3" data-entity-2="part4" id="msg4"><polygon fill="#000000" points="745.7732,256.4375,755.7732,260.4375,745.7732,264.4375,749.7732,260.4375" style="stroke:#000000;stroke-width:1;"/><line style="stroke:#000000;stroke-width:1;" x1="485.5969" x2="751.7732" y1="260.4375" y2="260.4375"/><text fill="#000000" font-family="Verdana" font-size="11" lengthAdjust="spacing" textLength="96.5078" x="492.5969" y="255.8433">getHolding(AAPL)</text></g><g class="message" data-entity-1="part3" data-entity-2="part3" id="msg5"><line style="stroke:#000000;stroke-width:1;" x1="485.5969" x2="527.5969" y1="287.2422" y2="287.2422"/><line style="stroke:#000000;stroke-width:1;" x1="527.5969" x2="527.5969" y1="287.2422" y2="300.2422"/><line style="stroke:#000000;stroke-width:1;" x1="486.5969" x2="527.5969" y1="300.2422" y2="300.2422"/><polygon fill="#000000" points="496.5969,296.2422,486.5969,300.2422,496.5969,304.2422,492.5969,300.2422" style="stroke:#000000;stroke-width:1;"/><text fill="#000000" font-family="Verdana" font-size="11" lengthAdjust="spacing" textLength="140.207" x="492.5969" y="282.6479">Fetch price from provider</text></g><path d="M331,313.2422 L331,361.2422 L629,361.2422 L629,323.2422 L619,313.2422 L331,313.2422" fill="#FFE0B2" style="stroke:#000000;stroke-width:1;"/><path d="M619,313.2422 L619,323.2422 L629,323.2422 L619,313.2422" fill="#FFE0B2" style="stroke:#000000;stroke-width:1;"/><text fill="#000000" font-family="Verdana" font-size="11" font-weight="bold" lengthAdjust="spacing" textLength="252.4199" x="337" y="328.4526">All business logic is inline in the service:</text><text fill="#000000" font-family="Verdana" font-size="11" lengthAdjust="spacing" textLength="243.0259" x="337" y="341.2573">The service reads data from domain objects</text><text fill="#000000" font-family="Verdana" font-size="11" lengthAdjust="spacing" textLength="277.6694" x="337" y="354.062">but does not delegate business decisions to them.</text><g class="message" data-entity-1="part3" data-entity-2="part5" id="msg6"><polygon fill="#000000" points="828.6201,381.4609,838.6201,385.4609,828.6201,389.4609,832.6201,385.4609" style="stroke:#000000;stroke-width:1;"/><line style="stroke:#000000;stroke-width:1;" x1="485.5969" x2="834.6201" y1="385.4609" y2="385.4609"/><text fill="#000000" font-family="Verdana" font-size="11" lengthAdjust="spacing" textLength="49.5483" x="492.5969" y="380.8667">getLots()</text></g><g class="message" data-entity-1="part5" data-entity-2="part3" id="msg7"><polygon fill="#000000" points="496.5969,408.2656,486.5969,412.2656,496.5969,416.2656,492.5969,412.2656" style="stroke:#000000;stroke-width:1;"/><line style="stroke:#000000;stroke-width:1;stroke-dasharray:2,2;" x1="490.5969" x2="844.6201" y1="412.2656" y2="412.2656"/><text fill="#000000" font-family="Verdana" font-size="11" lengthAdjust="spacing" textLength="54.8335" x="502.5969" y="407.6714">List&lt;Lot&gt;</text></g><path d="M387.8118,427.2656 L459.5706,427.2656 L459.5706,432.0703 L449.5706,442.0703 L387.8118,442.0703 L387.8118,427.2656" fill="#FFFFFF" style="stroke:#000000;stroke-width:1;"/><rect fill="none" height="108.2188" style="stroke:#000000;stroke-width:1;" width="567.0049" x="387.8118" y="427.2656"/><text fill="#000000" font-family="Verdana" font-size="11" font-weight="bold" lengthAdjust="spacing" textLength="26.7588" x="402.8118" y="438.4761">loop</text><text fill="#000000" font-family="Verdana" font-size="11" font-weight="bold" lengthAdjust="spacing" textLength="197.6992" x="474.5706" y="439.4761">[for each lot &#8212; eligibility check]</text><g class="message" data-entity-1="part3" data-entity-2="part6" id="msg8"><polygon fill="#000000" points="907.231,456.875,917.231,460.875,907.231,464.875,911.231,460.875" style="stroke:#000000;stroke-width:1;"/><line style="stroke:#000000;stroke-width:1;" x1="485.5969" x2="913.231" y1="460.875" y2="460.875"/><text fill="#000000" font-family="Verdana" font-size="11" lengthAdjust="spacing" textLength="113.9048" x="492.5969" y="456.2808">getSettlementDate()</text></g><g class="message" data-entity-1="part3" data-entity-2="part6" id="msg9"><polygon fill="#000000" points="907.231,483.6797,917.231,487.6797,907.231,491.6797,911.231,487.6797" style="stroke:#000000;stroke-width:1;"/><line style="stroke:#000000;stroke-width:1;" x1="485.5969" x2="913.231" y1="487.6797" y2="487.6797"/><text fill="#000000" font-family="Verdana" font-size="11" lengthAdjust="spacing" textLength="69.0615" x="492.5969" y="483.0854">isReserved()</text></g><g class="message" data-entity-1="part3" data-entity-2="part3" id="msg10"><line style="stroke:#000000;stroke-width:1;" x1="485.5969" x2="527.5969" y1="514.4844" y2="514.4844"/><line style="stroke:#000000;stroke-width:1;" x1="527.5969" x2="527.5969" y1="514.4844" y2="527.4844"/><line style="stroke:#000000;stroke-width:1;" x1="486.5969" x2="527.5969" y1="527.4844" y2="527.4844"/><polygon fill="#000000" points="496.5969,523.4844,486.5969,527.4844,496.5969,531.4844,492.5969,527.4844" style="stroke:#000000;stroke-width:1;"/><text fill="#000000" font-family="Verdana" font-size="11" lengthAdjust="spacing" textLength="172.729" x="492.5969" y="509.8901">if settled &amp;&amp; !reserved &#8594; count</text></g><g class="message" data-entity-1="part3" data-entity-2="part3" id="msg11"><line style="stroke:#000000;stroke-width:1;" x1="485.5969" x2="527.5969" y1="561.2891" y2="561.2891"/><line style="stroke:#000000;stroke-width:1;" x1="527.5969" x2="527.5969" y1="561.2891" y2="574.2891"/><line style="stroke:#000000;stroke-width:1;" x1="486.5969" x2="527.5969" y1="574.2891" y2="574.2891"/><polygon fill="#000000" points="496.5969,570.2891,486.5969,574.2891,496.5969,578.2891,492.5969,574.2891" style="stroke:#000000;stroke-width:1;"/><text fill="#000000" font-family="Verdana" font-size="11" lengthAdjust="spacing" textLength="154.1987" x="492.5969" y="556.6948">Check eligibleShares &gt;= 10</text></g><g class="message" data-entity-1="part3" data-entity-2="part3" id="msg12"><line style="stroke:#000000;stroke-width:1;" x1="485.5969" x2="527.5969" y1="601.0938" y2="601.0938"/><line style="stroke:#000000;stroke-width:1;" x1="527.5969" x2="527.5969" y1="601.0938" y2="614.0938"/><line style="stroke:#000000;stroke-width:1;" x1="486.5969" x2="527.5969" y1="614.0938" y2="614.0938"/><polygon fill="#000000" points="496.5969,610.0938,486.5969,614.0938,496.5969,618.0938,492.5969,614.0938" style="stroke:#000000;stroke-width:1;"/><text fill="#000000" font-family="Verdana" font-size="11" lengthAdjust="spacing" textLength="161.1274" x="492.5969" y="596.4995">Compute fee = 0.1% &#215; gross</text></g><g class="message" data-entity-1="part3" data-entity-2="part3" id="msg13"><line style="stroke:#000000;stroke-width:1;" x1="485.5969" x2="527.5969" y1="640.8984" y2="640.8984"/><line style="stroke:#000000;stroke-width:1;" x1="527.5969" x2="527.5969" y1="640.8984" y2="653.8984"/><line style="stroke:#000000;stroke-width:1;" x1="486.5969" x2="527.5969" y1="653.8984" y2="653.8984"/><polygon fill="#000000" points="496.5969,649.8984,486.5969,653.8984,496.5969,657.8984,492.5969,653.8984" style="stroke:#000000;stroke-width:1;"/><text fill="#000000" font-family="Verdana" font-size="11" lengthAdjust="spacing" textLength="121.8916" x="492.5969" y="636.3042">Compute netProceeds</text></g><path d="M387.8118,668.8984 L459.5706,668.8984 L459.5706,673.7031 L449.5706,683.7031 L387.8118,683.7031 L387.8118,668.8984" fill="#FFFFFF" style="stroke:#000000;stroke-width:1;"/><rect fill="none" height="148.8281" style="stroke:#000000;stroke-width:1;" width="567.0049" x="387.8118" y="668.8984"/><text fill="#000000" font-family="Verdana" font-size="11" font-weight="bold" lengthAdjust="spacing" textLength="26.7588" x="402.8118" y="680.1089">loop</text><text fill="#000000" font-family="Verdana" font-size="11" font-weight="bold" lengthAdjust="spacing" textLength="153.812" x="474.5706" y="681.1089">[for each lot &#8212; FIFO sell]</text><g class="message" data-entity-1="part3" data-entity-2="part6" id="msg14"><polygon fill="#000000" points="907.231,698.5078,917.231,702.5078,907.231,706.5078,911.231,702.5078" style="stroke:#000000;stroke-width:1;"/><line style="stroke:#000000;stroke-width:1;" x1="485.5969" x2="913.231" y1="702.5078" y2="702.5078"/><text fill="#000000" font-family="Verdana" font-size="11" lengthAdjust="spacing" textLength="113.9048" x="492.5969" y="697.9136">getSettlementDate()</text></g><g class="message" data-entity-1="part3" data-entity-2="part6" id="msg15"><polygon fill="#000000" points="907.231,725.3125,917.231,729.3125,907.231,733.3125,911.231,729.3125" style="stroke:#000000;stroke-width:1;"/><line style="stroke:#000000;stroke-width:1;" x1="485.5969" x2="913.231" y1="729.3125" y2="729.3125"/><text fill="#000000" font-family="Verdana" font-size="11" lengthAdjust="spacing" textLength="69.0615" x="492.5969" y="724.7183">isReserved()</text></g><g class="message" data-entity-1="part3" data-entity-2="part6" id="msg16"><polygon fill="#000000" points="907.231,752.1172,917.231,756.1172,907.231,760.1172,911.231,756.1172" style="stroke:#000000;stroke-width:1;"/><line style="stroke:#000000;stroke-width:1;" x1="485.5969" x2="913.231" y1="756.1172" y2="756.1172"/><text fill="#000000" font-family="Verdana" font-size="11" lengthAdjust="spacing" textLength="52.8408" x="492.5969" y="751.5229">isEmpty()</text></g><g class="message" data-entity-1="part3" data-entity-2="part6" id="msg17"><polygon fill="#000000" points="907.231,778.9219,917.231,782.9219,907.231,786.9219,911.231,782.9219" style="stroke:#000000;stroke-width:1;"/><line style="stroke:#000000;stroke-width:1;" x1="485.5969" x2="913.231" y1="782.9219" y2="782.9219"/><text fill="#000000" font-family="Verdana" font-size="11" lengthAdjust="spacing" textLength="83.1069" x="492.5969" y="778.3276">reduce(shares)</text></g><g class="message" data-entity-1="part3" data-entity-2="part6" id="msg18"><polygon fill="#000000" points="907.231,805.7266,917.231,809.7266,907.231,813.7266,911.231,809.7266" style="stroke:#000000;stroke-width:1;"/><line style="stroke:#000000;stroke-width:1;" x1="485.5969" x2="913.231" y1="809.7266" y2="809.7266"/><text fill="#000000" font-family="Verdana" font-size="11" lengthAdjust="spacing" textLength="148.0488" x="492.5969" y="805.1323">calculateCostBasis(shares)</text></g><g class="message" data-entity-1="part3" data-entity-2="part4" id="msg19"><polygon fill="#000000" points="745.7732,839.5313,755.7732,843.5313,745.7732,847.5313,749.7732,843.5313" style="stroke:#000000;stroke-width:1;"/><line style="stroke:#000000;stroke-width:1;" x1="485.5969" x2="751.7732" y1="843.5313" y2="843.5313"/><text fill="#000000" font-family="Verdana" font-size="11" lengthAdjust="spacing" textLength="117.3799" x="492.5969" y="838.937">deposit(netProceeds)</text></g><g class="message" data-entity-1="part3" data-entity-2="part3" id="msg20"><line style="stroke:#000000;stroke-width:1;" x1="485.5969" x2="527.5969" y1="870.3359" y2="870.3359"/><line style="stroke:#000000;stroke-width:1;" x1="527.5969" x2="527.5969" y1="870.3359" y2="883.3359"/><line style="stroke:#000000;stroke-width:1;" x1="486.5969" x2="527.5969" y1="883.3359" y2="883.3359"/><polygon fill="#000000" points="496.5969,879.3359,486.5969,883.3359,496.5969,887.3359,492.5969,883.3359" style="stroke:#000000;stroke-width:1;"/><text fill="#000000" font-family="Verdana" font-size="11" lengthAdjust="spacing" textLength="243.1763" x="492.5969" y="865.7417">SellResult.withFee(proceeds, costBasis, fee)</text></g><g class="message" data-entity-1="part3" data-entity-2="part3" id="msg21"><line style="stroke:#000000;stroke-width:1;" x1="485.5969" x2="527.5969" y1="910.1406" y2="910.1406"/><line style="stroke:#000000;stroke-width:1;" x1="527.5969" x2="527.5969" y1="910.1406" y2="923.1406"/><line style="stroke:#000000;stroke-width:1;" x1="486.5969" x2="527.5969" y1="923.1406" y2="923.1406"/><polygon fill="#000000" points="496.5969,919.1406,486.5969,923.1406,496.5969,927.1406,492.5969,923.1406" style="stroke:#000000;stroke-width:1;"/><text fill="#000000" font-family="Verdana" font-size="11" lengthAdjust="spacing" textLength="76.4897" x="492.5969" y="905.5464">Save portfolio</text></g><g class="message" data-entity-1="part3" data-entity-2="part3" id="msg22"><line style="stroke:#000000;stroke-width:1;" x1="485.5969" x2="527.5969" y1="949.9453" y2="949.9453"/><line style="stroke:#000000;stroke-width:1;" x1="527.5969" x2="527.5969" y1="949.9453" y2="962.9453"/><line style="stroke:#000000;stroke-width:1;" x1="486.5969" x2="527.5969" y1="962.9453" y2="962.9453"/><polygon fill="#000000" points="496.5969,958.9453,486.5969,962.9453,496.5969,966.9453,492.5969,962.9453" style="stroke:#000000;stroke-width:1;"/><text fill="#000000" font-family="Verdana" font-size="11" lengthAdjust="spacing" textLength="104.3281" x="492.5969" y="945.3511">Record transaction</text></g><g class="message" data-entity-1="part3" data-entity-2="part2" id="msg23"><polygon fill="#000000" points="257.9417,985.75,247.9417,989.75,257.9417,993.75,253.9417,989.75" style="stroke:#000000;stroke-width:1;"/><line style="stroke:#000000;stroke-width:1;stroke-dasharray:2,2;" x1="251.9417" x2="479.5969" y1="989.75" y2="989.75"/><text fill="#000000" font-family="Verdana" font-size="11" lengthAdjust="spacing" textLength="54.3447" x="263.9417" y="985.1558">SellResult</text></g><g class="message" data-entity-1="part2" data-entity-2="part1" id="msg24"><polygon fill="#000000" points="39.9226,1025.3594,29.9226,1029.3594,39.9226,1033.3594,35.9226,1029.3594" style="stroke:#000000;stroke-width:1;"/><line style="stroke:#000000;stroke-width:1;stroke-dasharray:2,2;" x1="33.9226" x2="240.9417" y1="1029.3594" y2="1029.3594"/><text fill="#000000" font-family="Verdana" font-size="11" lengthAdjust="spacing" textLength="40.3638" x="45.9226" y="1011.9604">200 OK</text><text fill="#000000" font-family="Verdana" font-size="11" lengthAdjust="spacing" textLength="184.019" x="45.9226" y="1024.7651">{proceeds, costBasis, profit, fee}</text></g><?plantuml-src hLJDRXen4BxlKqnIjG94KiWHDP483MhKLA0GgPTUZ3t05A-zjRr4QHMffpv0LQaFr3V9atIykx10wAqty7pxpJVV_1o51QO8cHPa4hyaamadKb0u4xaEGsl2XBuYTBj9eA0H-WPJal31AjJmzFqNJ33mUuecdFJlXKD-q1eQ4tGhaWZNHfD1kB5paiqa4J9O1mDDZ4yuLI19cJ01Zc-l9dSmu7pEQetk68G76PpUHKs2bSjHXau4iiPNMGgmNybTxDYwCBEQR17ErlzsGU-iLcJc1MHH_ju5tDXG1BKDIL8AXvEBGXhqO3nYrQzzxO4N6lqdyuq9bkXwqE-FRzhm9MSk2Wyzw7OUemcq4W7B-fA2YYcv06RqR5zHvKSAYzhS1gbsHTRjD6kAM7KIlzmGt5YXwcfXvcmA3ZExHjMX7imnL0Oq8dTpbsc8GIuWSx6F1Ktcx8eKkYGnbdFR5Re2-c8ulEfSdYK0hLQVkp_DFJVTHzEuxK0Ug1m3Ci3pnZKMRUkrMlp9NVt0EeNoe4GGPK9bKvvBiDFFA8Ddy3GF_8WUM00FgSPvD66JJw4a7mS3WesPqjC4ZOfWtBXKTRcidhlh6rjshaTW3JgfRIKVtZ3y8b7u39veQpEOyMXpR15dfTWDr3IdAMdkFCW5oYLN053fYA12Gztajyp9Qfw1oDzYj0ZLRhHKHZCe1r31grTmv2eeFFtu2TBcl6ZimTwG3AAQIf_6oO8NryF5ES_M7iwcMSw5pX3X73gdtPVmvpVCdVN-CD1W63ih4PN_bol3w-6e6FF_xCOwUfLcuU5GoA7A9JPyKUs1k1HQvfgp3gmFbyAJts2t7TnU8CMBvIaqjihUMw9u3bal7zFJUzxe8M8Zgv1jRa-Lg1qTRkurQI9Mk7MtTcAtAArJ49mmFewZDMMyFarruks9BUv5UN4OMjsp7fnrEZ1wptVhe3P-d54eD3vkaqMUlm00?></g></svg>