<?plantuml 1.2026.1?><svg xmlns="http://www.w3.org/2000/svg" xmlns:xlink="http://www.w3.org/1999/xlink" contentStyleType="text/css" data-diagram-type="DESCRIPTION" height="605px" preserveAspectRatio="none" style="width:1194px;height:605px;background:#FFFFFF;" version="1.1" viewBox="0 0 1194 605" width="1194px" zoomAndPan="magnify"><title>Anemic Domain Model &#8212; Architecture</title><defs/><g><g class="title" data-source-line="4"><text fill="#000000" font-family="Verdana" font-size="22" font-weight="bold" lengthAdjust="spacing" textLength="467.8652" x="358.5674" y="35.4209">Anemic Domain Model &#8212; Architecture</text></g><!--cluster Primary Adapter--><g class="cluster" data-qualified-name="Primary Adapter" data-source-line="6" id="ent0002"><path d="M100.5,57.6094 L213.2031,57.6094 A3.75,3.75 0 0 1 215.7031,60.1094 L222.7031,77.5781 L283.5,77.5781 A2.5,2.5 0 0 1 286,80.0781 L286,151.0794 A2.5,2.5 0 0 1 283.5,153.5794 L100.5,153.5794 A2.5,2.5 0 0 1 98,151.0794 L98,60.1094 A2.5,2.5 0 0 1 100.5,57.6094" fill="#E8F5E9" style="stroke:#000000;stroke-width:1;"/><line style="stroke:#000000;stroke-width:1;" x1="98" x2="222.7031" y1="77.5781" y2="77.5781"/><text fill="#000000" font-family="Verdana" font-size="12" font-weight="bold" lengthAdjust="spacing" textLength="111.7031" x="102" y="70.748">Primary Adapter</text><text fill="#000000" font-family="Verdana" font-size="12" font-style="italic" lengthAdjust="spacing" textLength="75.1289" x="158.4355" y="90.7168">&#171;Rectangle&#187;</text></g><!--cluster Application Layer--><g class="cluster" data-qualified-name="Application Layer" data-source-line="10" id="ent0004"><path d="M13.5,200.5794 L132.8418,200.5794 A3.75,3.75 0 0 1 135.3418,203.0794 L142.3418,220.5481 L312.5,220.5481 A2.5,2.5 0 0 1 315,223.0481 L315,480.8894 A2.5,2.5 0 0 1 312.5,483.3894 L13.5,483.3894 A2.5,2.5 0 0 1 11,480.8894 L11,203.0794 A2.5,2.5 0 0 1 13.5,200.5794" fill="#E3F2FD" style="stroke:#000000;stroke-width:1;"/><line style="stroke:#000000;stroke-width:1;" x1="11" x2="142.3418" y1="220.5481" y2="220.5481"/><text fill="#000000" font-family="Verdana" font-size="12" font-weight="bold" lengthAdjust="spacing" textLength="118.3418" x="15" y="213.718">Application Layer</text><text fill="#000000" font-family="Verdana" font-size="12" font-style="italic" lengthAdjust="spacing" textLength="75.1289" x="129.4355" y="233.6868">&#171;Rectangle&#187;</text></g><!--cluster Domain Model (Data Holders)--><g class="cluster" data-qualified-name="Domain Model .Data Holders." data-source-line="21" id="ent0009"><path d="M341.5,364.4894 L542.5742,364.4894 A3.75,3.75 0 0 1 545.0742,366.9894 L552.0742,384.4581 L769.5,384.4581 A2.5,2.5 0 0 1 772,386.9581 L772,595.7994 A2.5,2.5 0 0 1 769.5,598.2994 L341.5,598.2994 A2.5,2.5 0 0 1 339,595.7994 L339,366.9894 A2.5,2.5 0 0 1 341.5,364.4894" fill="#FFF3E0" style="stroke:#000000;stroke-width:1;"/><line style="stroke:#000000;stroke-width:1;" x1="339" x2="552.0742" y1="384.4581" y2="384.4581"/><text fill="#000000" font-family="Verdana" font-size="12" font-weight="bold" lengthAdjust="spacing" textLength="200.0742" x="343" y="377.628">Domain Model (Data Holders)</text><text fill="#000000" font-family="Verdana" font-size="12" font-style="italic" lengthAdjust="spacing" textLength="75.1289" x="521.9355" y="397.5968">&#171;Rectangle&#187;</text></g><!--cluster Secondary Adapters--><g class="cluster" data-qualified-name="Secondary Adapters" data-source-line="40" id="ent0020"><path d="M798.5,364.4894 L936.2871,364.4894 A3.75,3.75 0 0 1 938.7871,366.9894 L945.7871,384.4581 L1184.5,384.4581 A2.5,2.5 0 0 1 1187,386.9581 L1187,457.9594 A2.5,2.5 0 0 1 1184.5,460.4594 L798.5,460.4594 A2.5,2.5 0 0 1 796,457.9594 L796,366.9894 A2.5,2.5 0 0 1 798.5,364.4894" fill="#FCE4EC" style="stroke:#000000;stroke-width:1;"/><line style="stroke:#000000;stroke-width:1;" x1="796" x2="945.7871" y1="384.4581" y2="384.4581"/><text fill="#000000" font-family="Verdana" font-size="12" font-weight="bold" lengthAdjust="spacing" textLength="136.7871" x="800" y="377.628">Secondary Adapters</text><text fill="#000000" font-family="Verdana" font-size="12" font-style="italic" lengthAdjust="spacing" textLength="75.1289" x="957.9355" y="397.5968">&#171;Rectangle&#187;</text></g><!--entity ctrl--><g class="entity" data-qualified-name="Primary Adapter.ctrl" data-source-line="7" id="ent0003"><rect fill="#FFFFFF" height="33.9688" rx="2.5" ry="2.5" style="stroke:#000000;stroke-width:1;" width="155.7617" x="114.12" y="103.6094"/><text fill="#000000" font-family="Verdana" font-size="12" lengthAdjust="spacing" textLength="135.7617" x="124.12" y="124.748">PortfolioRestController</text></g><!--entity svc--><g class="entity" data-qualified-name="Application Layer.svc" data-source-line="11" id="ent0005"><rect fill="#FFFFFF" height="33.9688" rx="2.5" ry="2.5" style="stroke:#000000;stroke-width:1;" width="213.3242" x="85.34" y="246.5794"/><text fill="#000000" font-family="Verdana" font-size="12" lengthAdjust="spacing" textLength="193.3242" x="95.34" y="267.718">PortfolioStockOperationsService</text></g><g class="entity" data-qualified-name="Application Layer.GMN6" data-source-line="13" id="ent0007"><path d="M27.06,387.5494 L27.06,467.3931 A0,0 0 0 0 27.06,467.3931 L298.935,467.3931 A0,0 0 0 0 298.935,467.3931 L298.935,397.5494 L288.935,387.5494 L174,387.5494 L189.06,280.9794 L166,387.5494 L27.06,387.5494 A0,0 0 0 0 27.06,387.5494" fill="#FFFFFF" style="stroke:#000000;stroke-width:1;"/><path d="M288.935,387.5494 L288.935,397.5494 L298.935,397.5494 L288.935,387.5494" fill="#FFFFFF" style="stroke:#000000;stroke-width:1;"/><text fill="#000000" font-family="Verdana" font-size="12" font-weight="bold" lengthAdjust="spacing" textLength="250.875" x="33.06" y="403.688">Fat service &#8212; all business logic here:</text><text fill="#000000" font-family="Verdana" font-size="12" lengthAdjust="spacing" textLength="240.9258" x="33.06" y="417.6568">&#8226; Inline FIFO loop with settlement check</text><text fill="#000000" font-family="Verdana" font-size="12" lengthAdjust="spacing" textLength="154.7813" x="33.06" y="431.6255">&#8226; Inline reservation check</text><text fill="#000000" font-family="Verdana" font-size="12" lengthAdjust="spacing" textLength="225.082" x="33.06" y="445.5943">&#8226; Fee calculation and balance update</text><text fill="#000000" font-family="Verdana" font-size="12" lengthAdjust="spacing" textLength="171.4746" x="33.06" y="459.563">&#8226; 70+ lines of business logic</text></g><!--entity portfolio--><g class="entity" data-qualified-name="Domain Model .Data Holders..portfolio" data-source-line="22" id="ent0010"><rect fill="#FFFFFF" height="33.9688" rx="2.5" ry="2.5" style="stroke:#000000;stroke-width:1;" width="69.793" x="355.1" y="410.4894"/><text fill="#000000" font-family="Verdana" font-size="12" lengthAdjust="spacing" textLength="49.793" x="365.1" y="431.628">Portfolio</text></g><!--entity holding--><g class="entity" data-qualified-name="Domain Model .Data Holders..holding" data-source-line="23" id="ent0011"><rect fill="#FFFFFF" height="33.9688" rx="2.5" ry="2.5" style="stroke:#000000;stroke-width:1;" width="65.873" x="460.06" y="410.4894"/><text fill="#000000" font-family="Verdana" font-size="12" lengthAdjust="spacing" textLength="45.873" x="470.06" y="431.628">Holding</text></g><!--entity lot--><g class="entity" data-qualified-name="Domain Model .Data Holders..lot" data-source-line="24" id="ent0012"><rect fill="#FFFFFF" height="33.9688" rx="2.5" ry="2.5" style="stroke:#000000;stroke-width:1;" width="38.7324" x="560.63" y="410.4894"/><text fill="#000000" font-family="Verdana" font-size="12" lengthAdjust="spacing" textLength="18.7324" x="570.63" y="431.628">Lot</text></g><!--entity result--><g class="entity" data-qualified-name="Domain Model .Data Holders..result" data-source-line="25" id="ent0013"><rect fill="#FFFFFF" height="33.9688" rx="2.5" ry="2.5" style="stroke:#000000;stroke-width:1;" width="79.2852" x="634.36" y="410.4894"/><text fill="#000000" font-family="Verdana" font-size="12" lengthAdjust="spacing" textLength="59.2852" x="644.36" y="431.628">SellResult</text></g><g class="entity" data-qualified-name="Domain Model .Data Holders..GMN14" data-source-line="28" id="ent0015"><path d="M355.2,530.3894 L355.2,582.2956 A0,0 0 0 0 355.2,582.2956 L562.7977,582.2956 A0,0 0 0 0 562.7977,582.2956 L562.7977,540.3894 L552.7977,530.3894 L449.41,530.3894 L398.88,444.7994 L441.41,530.3894 L355.2,530.3894 A0,0 0 0 0 355.2,530.3894" fill="#FFFFFF" style="stroke:#000000;stroke-width:1;"/><path d="M552.7977,530.3894 L552.7977,540.3894 L562.7977,540.3894 L552.7977,530.3894" fill="#FFFFFF" style="stroke:#000000;stroke-width:1;"/><text fill="#000000" font-family="Verdana" font-size="12" lengthAdjust="spacing" textLength="127.7285" x="361.2" y="546.528">sellWithSettlement():</text><text fill="#000000" font-family="Verdana" font-size="12" lengthAdjust="spacing" textLength="178.9688" x="368.8289" y="560.4968">profit = proceeds &#8722; costBasis</text><text fill="#000000" font-family="Verdana" font-size="12" lengthAdjust="spacing" textLength="7.6289" x="361.2" y="574.4655">&#160;&#160;</text><text fill="#000000" font-family="Verdana" font-size="12" font-weight="bold" lengthAdjust="spacing" textLength="85.6348" x="368.8289" y="574.4655">(forgets fee)</text></g><g class="entity" data-qualified-name="Domain Model .Data Holders..GMN17" data-source-line="34" id="ent0018"><path d="M597.98,530.3894 L597.98,582.2956 L756.0249,582.2956 L756.0249,540.3894 L746.0249,530.3894 L597.98,530.3894" fill="#FFFFFF" style="stroke:#000000;stroke-width:1;"/><path d="M746.0249,530.3894 L746.0249,540.3894 L756.0249,540.3894 L746.0249,530.3894" fill="#FFFFFF" style="stroke:#000000;stroke-width:1;"/><text fill="#000000" font-family="Verdana" font-size="12" lengthAdjust="spacing" textLength="122.877" x="603.98" y="546.528">isAvailableForSale():</text><text fill="#000000" font-family="Verdana" font-size="12" lengthAdjust="spacing" textLength="88.9688" x="611.6089" y="560.4968">isSettled(asOf)</text><text fill="#000000" font-family="Verdana" font-size="12" lengthAdjust="spacing" textLength="7.6289" x="603.98" y="574.4655">&#160;&#160;</text><text fill="#000000" font-family="Verdana" font-size="12" font-weight="bold" lengthAdjust="spacing" textLength="129.416" x="611.6089" y="574.4655">(forgets !reserved)</text></g><!--entity repo--><g class="entity" data-qualified-name="Secondary Adapters.repo" data-source-line="41" id="ent0021"><rect fill="#FFFFFF" height="33.9688" rx="2.5" ry="2.5" style="stroke:#000000;stroke-width:1;" width="152.6504" x="811.67" y="410.4894"/><text fill="#000000" font-family="Verdana" font-size="12" lengthAdjust="spacing" textLength="132.6504" x="821.67" y="431.628">JpaPortfolioRepository</text></g><!--entity price--><g class="entity" data-qualified-name="Secondary Adapters.price" data-source-line="42" id="ent0022"><rect fill="#FFFFFF" height="33.9688" rx="2.5" ry="2.5" style="stroke:#000000;stroke-width:1;" width="171.1836" x="999.41" y="410.4894"/><text fill="#000000" font-family="Verdana" font-size="12" lengthAdjust="spacing" textLength="151.1836" x="1009.41" y="431.628">FinhubStockPriceAdapter</text></g><g class="entity" data-qualified-name="GMN30" data-source-line="54" id="ent0031"><path d="M334.01,223.6394 L334.01,259.5694 L299.05,263.5694 L334.01,267.5694 L334.01,303.4831 A0,0 0 0 0 334.01,303.4831 L589.9885,303.4831 A0,0 0 0 0 589.9885,303.4831 L589.9885,233.6394 L579.9885,223.6394 L334.01,223.6394 A0,0 0 0 0 334.01,223.6394" fill="#FFFFFF" style="stroke:#000000;stroke-width:1;"/><path d="M579.9885,223.6394 L579.9885,233.6394 L589.9885,233.6394 L579.9885,223.6394" fill="#FFFFFF" style="stroke:#000000;stroke-width:1;"/><text fill="#000000" font-family="Verdana" font-size="12" font-weight="bold" lengthAdjust="spacing" textLength="139.3359" x="340.01" y="239.778">Two sell paths exist:</text><text fill="#000000" font-family="Verdana" font-size="12" lengthAdjust="spacing" textLength="172.1602" x="340.01" y="253.7468">1. sellStockWithSettlement()</text><text fill="#000000" font-family="Verdana" font-size="12" lengthAdjust="spacing" textLength="149.4727" x="351.4534" y="267.7155">&#8594; inline logic (CORRECT)</text><text fill="#000000" font-family="Verdana" font-size="12" lengthAdjust="spacing" textLength="234.9785" x="340.01" y="281.6843">2. sellStockWithSettlementAggregate()</text><text fill="#000000" font-family="Verdana" font-size="12" lengthAdjust="spacing" textLength="201.1758" x="351.4534" y="295.653">&#8594; delegates to domain (FLAWED)</text></g><!--link lot to GMN17--><g class="link" data-entity-1="ent0012" data-entity-2="ent0018" data-link-type="association" data-source-line="34" id="lnk19"><path d="M588.34,444.8694 C595.29,457.9494 605.84,476.4794 617,491.3894 C627.13,504.9194 639.75,518.7394 650.8,530.0594" fill="none" id="lot-GMN17" style="stroke:#000000;stroke-width:1;stroke-dasharray:7,7;"/></g><!--link ctrl to svc--><g class="link" data-entity-1="ent0003" data-entity-2="ent0005" data-link-type="dependency" data-source-line="45" id="lnk23"><path d="M192,138.0394 C192,165.2094 192,213.1294 192,240.2194" fill="none" id="ctrl-to-svc" style="stroke:#000000;stroke-width:1;"/><polygon fill="#000000" points="192,246.2194,196,237.2194,192,241.2194,188,237.2194,192,246.2194" style="stroke:#000000;stroke-width:1;"/><text fill="#000000" font-family="Verdana" font-size="12" lengthAdjust="spacing" textLength="55.9043" x="193" y="181.718">uses port</text></g><!--link svc to portfolio--><g class="link" data-entity-1="ent0005" data-entity-2="ent0010" data-link-type="dependency" data-source-line="46" id="lnk24"><path d="M215.24,280.7794 C240.41,298.6094 281.46,328.4494 315,356.4894 C335.91,373.9594 354.3172,391.3575 369.2072,405.8975" fill="none" id="svc-to-portfolio" style="stroke:#000000;stroke-width:1;"/><polygon fill="#000000" points="373.5,410.0894,369.8554,400.9397,369.9227,406.5961,364.2662,406.6634,373.5,410.0894" style="stroke:#000000;stroke-width:1;"/><text fill="#000000" font-family="Verdana" font-size="12" lengthAdjust="spacing" textLength="64.3828" x="303.13" y="345.628">reads data</text></g><!--link svc to holding--><g class="link" data-entity-1="ent0005" data-entity-2="ent0011" data-link-type="dependency" data-source-line="47" id="lnk25"><path d="M241.48,281.0294 C309.51,303.9294 425.46,343.9994 442,356.4894 C461.08,370.8894 473.2366,389.1431 481.9066,404.8931" fill="none" id="svc-to-holding" style="stroke:#000000;stroke-width:1;"/><polygon fill="#000000" points="484.8,410.1494,483.964,400.3361,482.3888,405.7692,476.9557,404.194,484.8,410.1494" style="stroke:#000000;stroke-width:1;"/><text fill="#000000" font-family="Verdana" font-size="12" lengthAdjust="spacing" textLength="58.9863" x="426.48" y="345.628">reads lots</text></g><!--link svc to lot--><g class="link" data-entity-1="ent0005" data-entity-2="ent0012" data-link-type="dependency" data-source-line="48" id="lnk26"><path d="M239.67,281.0394 C262.81,288.6194 291.14,297.2894 317,303.4894 C394.16,321.9894 417.19,310.0394 493,333.4894 C516.37,340.7194 525.23,339.6794 543,356.4894 C558.77,371.4094 567.121,388.9301 572.771,404.4801" fill="none" id="svc-to-lot" style="stroke:#000000;stroke-width:1;"/><polygon fill="#000000" points="574.82,410.1194,575.506,400.2944,573.1125,405.42,567.987,403.0264,574.82,410.1194" style="stroke:#000000;stroke-width:1;"/><text fill="#000000" font-family="Verdana" font-size="12" lengthAdjust="spacing" textLength="85.7051" x="534.22" y="345.628">inspects fields</text></g><!--link svc to result--><g class="link" data-entity-1="ent0005" data-entity-2="ent0013" data-link-type="dependency" data-source-line="49" id="lnk27"><path d="M236.84,280.9894 C260.4,288.9794 289.93,298.0294 317,303.4894 C385.06,317.2094 570.84,294.0694 628,333.4894 C654.09,351.4794 664.7084,382.8413 669.6384,404.3313" fill="none" id="svc-to-result" style="stroke:#000000;stroke-width:1;"/><polygon fill="#000000" points="670.98,410.1794,672.8663,400.5128,669.862,405.306,665.0689,402.3016,670.98,410.1794" style="stroke:#000000;stroke-width:1;"/><text fill="#000000" font-family="Verdana" font-size="12" lengthAdjust="spacing" textLength="44.6074" x="643.24" y="345.628">creates</text></g><!--link svc to repo--><g class="link" data-entity-1="ent0005" data-entity-2="ent0021" data-link-type="dependency" data-source-line="50" id="lnk28"><path d="M236.22,280.9794 C259.86,289.0794 289.66,298.2194 317,303.4894 C516.91,342.0194 585.97,273.7794 772,356.4894 C805.96,371.5894 837.2288,391.335 859.9888,406.815" fill="none" id="svc-to-repo" style="stroke:#000000;stroke-width:1;"/><polygon fill="#000000" points="864.95,410.1894,859.7577,401.8204,860.8156,407.3774,855.2586,408.4354,864.95,410.1894" style="stroke:#000000;stroke-width:1;"/><text fill="#000000" font-family="Verdana" font-size="12" lengthAdjust="spacing" textLength="70.2832" x="751.22" y="345.628">saves/loads</text></g><!--link svc to price--><g class="link" data-entity-1="ent0005" data-entity-2="ent0022" data-link-type="dependency" data-source-line="51" id="lnk29"><path d="M235.6,281.0094 C259.32,289.2194 289.38,298.4594 317,303.4894 C608.7,356.6094 705.95,248.3094 982,356.4894 C1014.61,369.2694 1042.5896,390.0476 1062.1296,406.4076" fill="none" id="svc-to-price" style="stroke:#000000;stroke-width:1;"/><polygon fill="#000000" points="1066.73,410.2594,1062.3972,401.4148,1062.8963,407.0496,1057.2615,407.5487,1066.73,410.2594" style="stroke:#000000;stroke-width:1;"/><text fill="#000000" font-family="Verdana" font-size="12" lengthAdjust="spacing" textLength="77.8301" x="950.71" y="345.628">fetches price</text></g><?plantuml-src TLJDRjD04BxxAQRbaWGL-WC2gb8ffB4eAagLLEe1STYin_Og6-zgTv8I459FY7F54_1eUHB6wyHrcf3JUhxv_RwPx56EKmIhXIeYFr655KvCGPgfDGKMDAA5Hd0eIHIPnePBWgcOQOeDEwdl24V74IbYvsw1KoNXmamv9tms2MfOtl-1hfEv8iuqSnX5LiY9o13shvsQ2hU0RY8ieTk7ixFXkjpvEJphlurVzz_1ZmZuz-NQE4gDLcQ8ddfSsncjqNq5uK6Iqz7FHkgkjLf9GSeKS2KMkvAVnCVnnLRo4Hav6LXq8TQFqCsLn534psLmBWmXZ0sHcO99QpD0fnCB0b-5XC65rZ2UULMWzw1DnkJawF2qqrc5BE__mcMXsG7YotZ0FiR2dQASqn1JEcKXGEOe9zi13ijIrOnFNM94a4BBcQvmKIGm5beKtDZC9eAmuVpcy3cK6NqvpcQxmGivk1nwW-4DaLiNWWHyD3f1vzjRNCTnVD8_tE8wi6hNNnLOvb155g2yUbV0bQ5Wr8OgmmYrvbNWHGns5vxHBeKsIm1Jg_KjSpogAMwrJrSOW7KcLGJlouT4J3miVp_mMNZw8BpojL-dqqgDov0yf8ZjbQGrLxiQMVSEe7ntBfGMOusnSIEXiTc2ybLhIKluGThULNAlKX-JhS9DaKOeJP4qRinlQzFhl-htrjfyig9nPzPuHSOjLWJRbKQnAlBPE5mAdx34LUvApj9Gzb2U91mSd9Vt0QSmyrXf7PNVfRrMXL67WddcjHGrl1A_1faxNuFymO0glELHc7-5Edb4grLW1ycXX4t0bjMycAD_gOren8I-6KkH-9RMSqH1GAUod1vFlTEvkJDXYS0AoZtWD-MfkkcZ5m48t3nTiKh6vQy7RZmSSFM7qEeDXiD-xwR4Z_yRtiqoXnbFqyp3fnTi7iX0KXraAxxgtlOlsb6z4Fy0?></g></svg>