<?plantuml 1.2026.1?><svg xmlns="http://www.w3.org/2000/svg" xmlns:xlink="http://www.w3.org/1999/xlink" contentStyleType="text/css" data-diagram-type="CLASS" height="938px" preserveAspectRatio="none" style="width:717px;height:938px;background:#FFFFFF;" version="1.1" viewBox="0 0 717 938" width="717px" zoomAndPan="magnify"><title>Domain Model &#8212; Portfolio Aggregate</title><defs/><g><g class="title" data-source-line="4"><text fill="#000000" font-family="Verdana" font-size="22" font-weight="bold" lengthAdjust="spacing" textLength="460.0127" x="124.1554" y="35.4209">Domain Model &#8212; Portfolio Aggregate</text></g><!--class Portfolio--><g class="entity" data-qualified-name="Portfolio" data-source-line="6" id="ent0002"><rect fill="#FFFFFF" height="205.2656" rx="2.5" ry="2.5" style="stroke:#000000;stroke-width:1;" width="263.9741" x="207.08" y="58.6094"/><ellipse cx="287.28" cy="76.4141" fill="#FFFFFF" rx="9" ry="9" style="stroke:#000000;stroke-width:1;"/><path d="M288.5925,80.1797 Q288.2175,80.3828 287.7956,80.4766 Q287.3893,80.5703 286.9206,80.5703 Q285.3112,80.5703 284.4518,79.5078 Q283.5925,78.4297 283.5925,76.4141 Q283.5925,74.3828 284.4518,73.3203 Q285.3112,72.2422 286.9206,72.2422 Q287.3893,72.2422 287.7956,72.3516 Q288.2175,72.4453 288.5925,72.6328 L288.5925,74.3984 Q288.1706,74.0234 287.78,73.8516 Q287.405,73.6797 286.9987,73.6797 Q286.1393,73.6797 285.6862,74.3672 Q285.2487,75.0547 285.2487,76.4141 Q285.2487,77.7734 285.6862,78.4609 Q286.1393,79.1484 286.9987,79.1484 Q287.405,79.1484 287.78,78.9766 Q288.1706,78.8047 288.5925,78.4141 L288.5925,80.1797 Z " fill="#000000"/><text fill="#000000" font-family="Verdana" font-size="11" font-style="italic" lengthAdjust="spacing" textLength="100.0742" x="302.78" y="73.8198">&#171;Aggregate Root&#187;</text><text fill="#000000" font-family="Verdana" font-size="11" lengthAdjust="spacing" textLength="45.6436" x="329.9953" y="86.6245">Portfolio</text><line style="stroke:#000000;stroke-width:1;" x1="208.08" x2="470.0541" y1="94.2188" y2="94.2188"/><text fill="#000000" font-family="Verdana" font-size="11" lengthAdjust="spacing" textLength="77.0806" x="213.08" y="108.4292">-id: PortfolioId</text><text fill="#000000" font-family="Verdana" font-size="11" lengthAdjust="spacing" textLength="110.4404" x="213.08" y="121.2339">-ownerName: String</text><text fill="#000000" font-family="Verdana" font-size="11" lengthAdjust="spacing" textLength="90.9487" x="213.08" y="134.0386">-balance: Money</text><text fill="#000000" font-family="Verdana" font-size="11" lengthAdjust="spacing" textLength="147.4043" x="213.08" y="146.8433">-createdAt: LocalDateTime</text><text fill="#000000" font-family="Verdana" font-size="11" lengthAdjust="spacing" textLength="181.8276" x="213.08" y="159.6479">-holdings: Map&lt;Ticker, Holding&gt;</text><line style="stroke:#000000;stroke-width:1;" x1="208.08" x2="470.0541" y1="166.2422" y2="166.2422"/><text fill="#000000" font-family="Verdana" font-size="11" lengthAdjust="spacing" textLength="222.7607" x="213.08" y="180.4526">+buy(Ticker, ShareQuantity, Price): void</text><text fill="#000000" font-family="Verdana" font-size="11" lengthAdjust="spacing" textLength="251.9741" x="213.08" y="193.2573">+sell(Ticker, ShareQuantity, Price): SellResult</text><text fill="#000000" font-family="Verdana" font-size="11" lengthAdjust="spacing" textLength="194.6323" x="213.08" y="206.062">+sellWithSettlement(...): SellResult</text><text fill="#000000" font-family="Verdana" font-size="11" lengthAdjust="spacing" textLength="174.915" x="213.08" y="218.8667">+reserveLot(Ticker, LotId): void</text><text fill="#000000" font-family="Verdana" font-size="11" lengthAdjust="spacing" textLength="188.8584" x="213.08" y="231.6714">+unreserveLot(Ticker, LotId): void</text><text fill="#000000" font-family="Verdana" font-size="11" lengthAdjust="spacing" textLength="125.313" x="213.08" y="244.4761">+deposit(Money): void</text><text fill="#000000" font-family="Verdana" font-size="11" lengthAdjust="spacing" textLength="135.3301" x="213.08" y="257.2808">+withdraw(Money): void</text></g><!--class Holding--><g class="entity" data-qualified-name="Holding" data-source-line="21" id="ent0003"><rect fill="#FFFFFF" height="166.8516" rx="2.5" ry="2.5" style="stroke:#000000;stroke-width:1;" width="351.9258" x="40.11" y="337.8694"/><ellipse cx="191.2977" cy="355.6741" fill="#FFFFFF" rx="9" ry="9" style="stroke:#000000;stroke-width:1;"/><path d="M192.6102,359.4397 Q192.2352,359.6428 191.8134,359.7366 Q191.4071,359.8303 190.9384,359.8303 Q189.329,359.8303 188.4696,358.7678 Q187.6102,357.6897 187.6102,355.6741 Q187.6102,353.6428 188.4696,352.5803 Q189.329,351.5022 190.9384,351.5022 Q191.4071,351.5022 191.8134,351.6116 Q192.2352,351.7053 192.6102,351.8928 L192.6102,353.6584 Q192.1884,353.2834 191.7977,353.1116 Q191.4227,352.9397 191.0165,352.9397 Q190.1571,352.9397 189.704,353.6272 Q189.2665,354.3147 189.2665,355.6741 Q189.2665,357.0334 189.704,357.7209 Q190.1571,358.4084 191.0165,358.4084 Q191.4227,358.4084 191.7977,358.2366 Q192.1884,358.0647 192.6102,357.6741 L192.6102,359.4397 Z " fill="#000000"/><text fill="#000000" font-family="Verdana" font-size="11" font-style="italic" lengthAdjust="spacing" textLength="45.6919" x="206.9769" y="353.0798">&#171;Entity&#187;</text><text fill="#000000" font-family="Verdana" font-size="11" lengthAdjust="spacing" textLength="42.0503" x="208.7977" y="365.8845">Holding</text><line style="stroke:#000000;stroke-width:1;" x1="41.11" x2="391.0358" y1="373.4788" y2="373.4788"/><text fill="#000000" font-family="Verdana" font-size="11" lengthAdjust="spacing" textLength="73.4873" x="46.11" y="387.6892">-id: HoldingId</text><text fill="#000000" font-family="Verdana" font-size="11" lengthAdjust="spacing" textLength="75.7324" x="46.11" y="400.4939">-ticker: Ticker</text><text fill="#000000" font-family="Verdana" font-size="11" lengthAdjust="spacing" textLength="85.8354" x="46.11" y="413.2986">-lots: List&lt;Lot&gt;</text><line style="stroke:#000000;stroke-width:1;" x1="41.11" x2="391.0358" y1="419.8928" y2="419.8928"/><text fill="#000000" font-family="Verdana" font-size="11" lengthAdjust="spacing" textLength="182.2842" x="46.11" y="434.1033">+buy(ShareQuantity, Price): void</text><text fill="#000000" font-family="Verdana" font-size="11" lengthAdjust="spacing" textLength="211.4976" x="46.11" y="446.9079">+sell(ShareQuantity, Price): SellResult</text><text fill="#000000" font-family="Verdana" font-size="11" lengthAdjust="spacing" textLength="339.9258" x="46.11" y="459.7126">+sellSettled(ShareQuantity, Price, LocalDateTime): SellResult</text><text fill="#000000" font-family="Verdana" font-size="11" lengthAdjust="spacing" textLength="282.4604" x="46.11" y="472.5173">+getEligibleShares(LocalDateTime): ShareQuantity</text><text fill="#000000" font-family="Verdana" font-size="11" lengthAdjust="spacing" textLength="187.8594" x="46.11" y="485.322">+getTotalShares(): ShareQuantity</text><text fill="#000000" font-family="Verdana" font-size="11" lengthAdjust="spacing" textLength="131.9087" x="46.11" y="498.1267">+findLotById(LotId): Lot</text></g><!--class Lot--><g class="entity" data-qualified-name="Lot" data-source-line="33" id="ent0004"><rect fill="#FFFFFF" height="230.875" rx="2.5" ry="2.5" style="stroke:#000000;stroke-width:1;" width="286.1406" x="12" y="578.7294"/><ellipse cx="130.4744" cy="596.5341" fill="#FFFFFF" rx="9" ry="9" style="stroke:#000000;stroke-width:1;"/><path d="M131.7869,600.2997 Q131.4119,600.5028 130.99,600.5966 Q130.5837,600.6903 130.115,600.6903 Q128.5056,600.6903 127.6462,599.6278 Q126.7869,598.5497 126.7869,596.5341 Q126.7869,594.5028 127.6462,593.4403 Q128.5056,592.3622 130.115,592.3622 Q130.5837,592.3622 130.99,592.4716 Q131.4119,592.5653 131.7869,592.7528 L131.7869,594.5184 Q131.365,594.1434 130.9744,593.9716 Q130.5994,593.7997 130.1931,593.7997 Q129.3337,593.7997 128.8806,594.4872 Q128.4431,595.1747 128.4431,596.5341 Q128.4431,597.8934 128.8806,598.5809 Q129.3337,599.2684 130.1931,599.2684 Q130.5994,599.2684 130.9744,599.0966 Q131.365,598.9247 131.7869,598.5341 L131.7869,600.2997 Z " fill="#000000"/><text fill="#000000" font-family="Verdana" font-size="11" font-style="italic" lengthAdjust="spacing" textLength="45.6919" x="145.9744" y="593.9398">&#171;Entity&#187;</text><text fill="#000000" font-family="Verdana" font-size="11" lengthAdjust="spacing" textLength="17.1714" x="160.2346" y="606.7445">Lot</text><line style="stroke:#000000;stroke-width:1;" x1="13" x2="297.1406" y1="614.3388" y2="614.3388"/><text fill="#000000" font-family="Verdana" font-size="11" lengthAdjust="spacing" textLength="48.6084" x="18" y="628.5492">-id: LotId</text><text fill="#000000" font-family="Verdana" font-size="11" lengthAdjust="spacing" textLength="158.6567" x="18" y="641.3539">-initialShares: ShareQuantity</text><text fill="#000000" font-family="Verdana" font-size="11" lengthAdjust="spacing" textLength="184.1909" x="18" y="654.1586">-remainingShares: ShareQuantity</text><text fill="#000000" font-family="Verdana" font-size="11" lengthAdjust="spacing" textLength="86.5391" x="18" y="666.9633">-unitPrice: Price</text><text fill="#000000" font-family="Verdana" font-size="11" lengthAdjust="spacing" textLength="162.9805" x="18" y="679.7679">-purchasedAt: LocalDateTime</text><text fill="#000000" font-family="Verdana" font-size="11" lengthAdjust="spacing" textLength="179.4321" x="18" y="692.5726">-settlementDate: LocalDateTime</text><text fill="#000000" font-family="Verdana" font-size="11" lengthAdjust="spacing" textLength="103.7212" x="18" y="705.3773">-reserved: boolean</text><line style="stroke:#000000;stroke-width:1;" x1="13" x2="297.1406" y1="711.9716" y2="711.9716"/><text fill="#000000" font-family="Verdana" font-size="11" lengthAdjust="spacing" textLength="199.2031" x="18" y="726.182">+isSettled(LocalDateTime): boolean</text><text fill="#000000" font-family="Verdana" font-size="11" lengthAdjust="spacing" textLength="251.582" x="18" y="738.9867">+isAvailableForSale(LocalDateTime): boolean</text><text fill="#000000" font-family="Verdana" font-size="11" lengthAdjust="spacing" textLength="274.1406" x="18" y="751.7914">+availableShares(LocalDateTime): ShareQuantity</text><text fill="#000000" font-family="Verdana" font-size="11" lengthAdjust="spacing" textLength="165.8594" x="18" y="764.5961">+reduce(ShareQuantity): void</text><text fill="#000000" font-family="Verdana" font-size="11" lengthAdjust="spacing" textLength="89.8691" x="18" y="777.4008">+reserve(): void</text><text fill="#000000" font-family="Verdana" font-size="11" lengthAdjust="spacing" textLength="103.8125" x="18" y="790.2054">+unreserve(): void</text><text fill="#000000" font-family="Verdana" font-size="11" lengthAdjust="spacing" textLength="243.9927" x="18" y="803.0101">+calculateCostBasis(ShareQuantity): Money</text></g><!--class SellResult--><g class="entity" data-qualified-name="SellResult" data-source-line="50" id="ent0005"><rect fill="#FFFFFF" height="141.2422" rx="2.5" ry="2.5" style="stroke:#000000;stroke-width:1;" width="257.9424" x="333.1" y="623.5394"/><ellipse cx="418.3407" cy="641.3441" fill="#FFFFFF" rx="9" ry="9" style="stroke:#000000;stroke-width:1;"/><path d="M419.6532,645.1097 Q419.2782,645.3128 418.8563,645.4066 Q418.4501,645.5003 417.9813,645.5003 Q416.372,645.5003 415.5126,644.4378 Q414.6532,643.3597 414.6532,641.3441 Q414.6532,639.3128 415.5126,638.2503 Q416.372,637.1722 417.9813,637.1722 Q418.4501,637.1722 418.8563,637.2816 Q419.2782,637.3753 419.6532,637.5628 L419.6532,639.3284 Q419.2313,638.9534 418.8407,638.7816 Q418.4657,638.6097 418.0595,638.6097 Q417.2001,638.6097 416.747,639.2972 Q416.3095,639.9847 416.3095,641.3441 Q416.3095,642.7034 416.747,643.3909 Q417.2001,644.0784 418.0595,644.0784 Q418.4657,644.0784 418.8407,643.9066 Q419.2313,643.7347 419.6532,643.3441 L419.6532,645.1097 Z " fill="#000000"/><text fill="#000000" font-family="Verdana" font-size="11" font-style="italic" lengthAdjust="spacing" textLength="83.9609" x="433.8407" y="638.7498">&#171;Value Object&#187;</text><text fill="#000000" font-family="Verdana" font-size="11" lengthAdjust="spacing" textLength="54.3447" x="448.6488" y="651.5545">SellResult</text><line style="stroke:#000000;stroke-width:1;" x1="334.1" x2="590.0424" y1="659.1488" y2="659.1488"/><text fill="#000000" font-family="Verdana" font-size="11" lengthAdjust="spacing" textLength="103.4204" x="339.1" y="673.3592">+proceeds: Money</text><text fill="#000000" font-family="Verdana" font-size="11" lengthAdjust="spacing" textLength="104.5161" x="339.1" y="686.1639">+costBasis: Money</text><text fill="#000000" font-family="Verdana" font-size="11" lengthAdjust="spacing" textLength="82.3657" x="339.1" y="698.9686">+profit: Money</text><text fill="#000000" font-family="Verdana" font-size="11" lengthAdjust="spacing" textLength="70.2969" x="339.1" y="711.7733">+fee: Money</text><line style="stroke:#000000;stroke-width:1;" x1="334.1" x2="590.0424" y1="718.3675" y2="718.3675"/><text fill="#000000" font-family="Verdana" font-size="11" lengthAdjust="spacing" text-decoration="underline" textLength="169.8823" x="339.1" y="732.5779">+of(Money, Money): SellResult</text><text fill="#000000" font-family="Verdana" font-size="11" lengthAdjust="spacing" text-decoration="underline" textLength="245.9424" x="339.1" y="745.3826">+withFee(Money, Money, Money): SellResult</text><text fill="#000000" font-family="Verdana" font-size="11" lengthAdjust="spacing" textLength="129.7065" x="339.1" y="758.1873">+netProceeds(): Money</text></g><g class="entity" data-qualified-name="GMN10" data-source-line="66" id="ent0011"><path d="M505.82,137.0294 L505.82,157.2394 L471.47,161.2394 L505.82,165.2394 L505.82,185.4434 A0,0 0 0 0 505.82,185.4434 L710.3234,185.4434 A0,0 0 0 0 710.3234,185.4434 L710.3234,147.0294 L700.3234,137.0294 L505.82,137.0294 A0,0 0 0 0 505.82,137.0294" fill="#FFFFFF" style="stroke:#000000;stroke-width:1;"/><path d="M700.3234,137.0294 L700.3234,147.0294 L710.3234,147.0294 L700.3234,137.0294" fill="#FFFFFF" style="stroke:#000000;stroke-width:1;"/><text fill="#000000" font-family="Verdana" font-size="11" lengthAdjust="spacing" textLength="117.1973" x="511.82" y="152.2398">Aggregate boundary:</text><text fill="#000000" font-family="Verdana" font-size="11" lengthAdjust="spacing" textLength="183.5034" x="511.82" y="165.0445">All access goes through Portfolio.</text><text fill="#000000" font-family="Verdana" font-size="11" lengthAdjust="spacing" textLength="178.229" x="511.82" y="177.8492">Invariants enforced at this level.</text></g><g class="entity" data-qualified-name="GMN13" data-source-line="72" id="ent0014"><path d="M22.57,870.5994 L22.57,931.8181 A0,0 0 0 0 22.57,931.8181 L287.568,931.8181 A0,0 0 0 0 287.568,931.8181 L287.568,880.5994 L277.568,870.5994 L159.07,870.5994 L155.07,809.9794 L151.07,870.5994 L22.57,870.5994 A0,0 0 0 0 22.57,870.5994" fill="#FFFFFF" style="stroke:#000000;stroke-width:1;"/><path d="M277.568,870.5994 L277.568,880.5994 L287.568,880.5994 L277.568,870.5994" fill="#FFFFFF" style="stroke:#000000;stroke-width:1;"/><text fill="#000000" font-family="Verdana" font-size="11" font-weight="bold" lengthAdjust="spacing" textLength="133.1064" x="28.57" y="885.8098">T+2 Settlement Rule:</text><text fill="#000000" font-family="Verdana" font-size="11" lengthAdjust="spacing" textLength="224.4419" x="28.57" y="898.6145">settlementDate = purchasedAt + 2 days</text><text fill="#000000" font-family="Verdana" font-size="11" lengthAdjust="spacing" textLength="3.4966" x="28.57" y="911.4192">&#160;</text><text fill="#000000" font-family="Verdana" font-size="11" font-weight="bold" lengthAdjust="spacing" textLength="243.998" x="28.57" y="924.2239">Availability = settled AND not reserved</text></g><!--reverse link Portfolio to Holding--><g class="link" data-entity-1="ent0002" data-entity-2="ent0003" data-link-type="composition" data-source-line="60" id="lnk6"><path codeLine="60" d="M285.297,275.0619 C273.677,299.4419 266.58,314.3294 255.44,337.6994" fill="none" id="Portfolio-backto-Holding" style="stroke:#000000;stroke-width:1;"/><polygon fill="#000000" points="290.46,264.2294,284.2677,267.9246,285.297,275.0619,291.4893,271.3666,290.46,264.2294" style="stroke:#000000;stroke-width:1;"/><text fill="#000000" font-family="Verdana" font-size="11" lengthAdjust="spacing" textLength="46.562" x="274.88" y="305.0798">contains</text><text fill="#000000" font-family="Verdana" font-size="11" lengthAdjust="spacing" textLength="6.9985" x="280.8665" y="282.1313">1</text><text fill="#000000" font-family="Verdana" font-size="11" lengthAdjust="spacing" textLength="19.4917" x="239.3101" y="327.4086">0..*</text></g><!--reverse link Holding to Lot--><g class="link" data-entity-1="ent0003" data-entity-2="ent0004" data-link-type="composition" data-source-line="61" id="lnk7"><path codeLine="61" d="M194.8037,516.7462 C189.5837,539.9262 186.45,553.8394 180.89,578.5194" fill="none" id="Holding-backto-Lot" style="stroke:#000000;stroke-width:1;"/><polygon fill="#000000" points="197.44,505.0394,192.2196,510.014,194.8037,516.7462,200.0241,511.7716,197.44,505.0394" style="stroke:#000000;stroke-width:1;"/><text fill="#000000" font-family="Verdana" font-size="11" lengthAdjust="spacing" textLength="129.9697" x="190.22" y="545.9398">contains (FIFO ordered)</text><text fill="#000000" font-family="Verdana" font-size="11" lengthAdjust="spacing" textLength="6.9985" x="189.6238" y="522.9968">1</text><text fill="#000000" font-family="Verdana" font-size="11" lengthAdjust="spacing" textLength="19.4917" x="163.0548" y="568.2048">1..*</text></g><!--link Holding to SellResult--><g class="link" data-entity-1="ent0003" data-entity-2="ent0005" data-link-type="dependency" data-source-line="62" id="lnk8"><path codeLine="62" d="M300.02,505.0594 C309.6,514.9394 319.13,524.9894 328.07,534.7294 C354.02,562.9894 377.7235,590.5545 401.0535,618.4845" fill="none" id="Holding-to-SellResult" style="stroke:#000000;stroke-width:1;stroke-dasharray:7,7;"/><polygon fill="#000000" points="404.9,623.0894,402.2002,613.6178,401.6946,619.252,396.0604,618.7464,404.9,623.0894" style="stroke:#000000;stroke-width:1;"/><text fill="#000000" font-family="Verdana" font-size="11" lengthAdjust="spacing" textLength="39.7998" x="340.38" y="545.9398">returns</text></g><!--link Portfolio to SellResult--><g class="link" data-entity-1="ent0002" data-entity-2="ent0005" data-link-type="dependency" data-source-line="63" id="lnk9"><path codeLine="63" d="M384.22,263.9794 C393.53,287.8594 402.48,313.4694 409.07,337.8694 C435.28,434.9594 448.9281,544.7267 455.8581,617.1067" fill="none" id="Portfolio-to-SellResult" style="stroke:#000000;stroke-width:1;stroke-dasharray:7,7;"/><polygon fill="#000000" points="456.43,623.0794,459.554,613.7391,455.9535,618.1021,451.5904,614.5016,456.43,623.0794" style="stroke:#000000;stroke-width:1;"/><text fill="#000000" font-family="Verdana" font-size="11" lengthAdjust="spacing" textLength="39.7998" x="443.08" y="425.5098">returns</text></g><?plantuml-src bLNRJjj047tFLqnv2WbOmAEL8eL2r4XSMeBQvurtucpPx4Ixuw0K8VKZ-eNzaexjs8uXKCfByCoPsvdBVk0vBX2MLXdN2VV6BPLN2z0uKvdb4JcUc9y8nyTRoiIg48RCtampnd52hi0STTYmHJYdXJY3Az9euS-lt_25FC_86e9XcdfC5MEdKpZPKWq6jH9kYVZq51ux87-7HiSDRgnB8JquzDTgWJ5C916NbkAfiieb8hmYX-jIbdWKfth8CLnIekovVDsP1PRQELajva5Cr79mPv9xz0VmkPIU5fZ-D5jtAyrahZn-pPIJOjS7yCMR1FTZM94fC-i7jFPVw8bWRZ48mutDTyFp2R8mk437tIYATW0z1lGhl2IkGyZ_OztA87FlWcbSKZ3SBQXgQHua5UtLGrlrL3LjGuwqxAAegzsgZRPg51VnOoZpA6MMMFY-D847ajOMoUyZzpz8BGdLEqqEskEmmqEAV65DQgOM2mUX-y9YsszjT4UixCPYDsXcd9RIpzPZtQqw8xyDn_Bn2hy5VFFf39igqguuXnxpNPHsl879n4j1I5poKagNcK_cAhowDw4UrLo-4xAPGibvIcHHkR9s4wgkF6Vp6MouKiOg8Nz4Vg8ilerN5VhzhVAeimJRmz4Qjqq5tTthrHPBj2Ip4kyJ1JvJmOGNZikZLFUu6JTfzJTbCuIRwGzCcjlNNtfA47NOFcZzf0hGaWfqPhWbcc7h4Zu6LhAEJz2dMRdQ1r1j-BFHRw3vBHWXjl2lclKToYYLANUt2sxk_Dxn7lGE3s7lA8fwU_KjYK6U4PPP3PrAL2EF2sI-4GqAkgFnw0R8QvGkxjT6KNIwpMiC7ZdpuhN9u5L8nv4yFjwaSmQQDM-EbDQyJLFAd5P-7UTIQq4b2KelKy80FFUKfVF6CXBGsAsKDp830T3Do2UeGR5WJG2BAxHH1vs6FFOcWoanqo9F8Jy90BtUNVy4chS1RZEBSQydglOMmaVOMblemmbejGw2AxnizibOcKQ1bhOQXjVdUNIerbKSrmdz1G00?></g></svg>