<?plantuml 1.2026.1?><svg xmlns="http://www.w3.org/2000/svg" xmlns:xlink="http://www.w3.org/1999/xlink" contentStyleType="text/css" data-diagram-type="DESCRIPTION" height="673px" preserveAspectRatio="none" style="width:1314px;height:673px;background:#FFFFFF;" version="1.1" viewBox="0 0 1314 673" width="1314px" zoomAndPan="magnify"><title>Invariant Enforcement &#8212; Rich vs Anemic</title><defs/><g><g class="title" data-source-line="3"><text fill="#000000" font-family="Verdana" font-size="22" font-weight="bold" lengthAdjust="spacing" textLength="502.6914" x="401.1543" y="35.4209">Invariant Enforcement &#8212; Rich vs Anemic</text></g><!--cluster Rich Domain Model--><g class="cluster" data-qualified-name="Rich Domain Model" data-source-line="5" id="ent0002"><rect fill="#E8F5E9" height="600.62" rx="2.5" ry="2.5" style="stroke:#000000;stroke-width:1;" width="388" x="920" y="65.0094"/><text fill="#000000" font-family="Verdana" font-size="11" font-weight="bold" lengthAdjust="spacing" textLength="119.0342" x="1054.4829" y="77.2198">Rich Domain Model</text></g><!--cluster rich_lot--><g class="cluster" data-qualified-name="Rich Domain Model.rich_lot" data-source-line="6" id="ent0003"><rect fill="#C8E6C9" height="81.8" rx="2.5" ry="2.5" style="stroke:#000000;stroke-width:1;" width="246" x="952" y="551.8294"/><line style="stroke:#000000;stroke-width:1;" x1="952" x2="1198" y1="568.6341" y2="568.6341"/><text fill="#000000" font-family="Verdana" font-size="11" font-weight="bold" lengthAdjust="spacing" textLength="148.6235" x="1000.6882" y="564.0398">Lot.isAvailableForSale()</text></g><!--cluster rich_sell--><g class="cluster" data-qualified-name="Rich Domain Model.rich_sell" data-source-line="9" id="ent0005"><rect fill="#C8E6C9" height="81.8" rx="2.5" ry="2.5" style="stroke:#000000;stroke-width:1;" width="269" x="963" y="262.2194"/><line style="stroke:#000000;stroke-width:1;" x1="963" x2="1232" y1="279.0241" y2="279.0241"/><text fill="#000000" font-family="Verdana" font-size="11" font-weight="bold" lengthAdjust="spacing" textLength="187.6606" x="1003.6697" y="274.4298">Portfolio.sellWithSettlement()</text></g><!--cluster rich_eligible--><g class="cluster" data-qualified-name="Rich Domain Model.rich_eligible" data-source-line="12" id="ent0007"><rect fill="#C8E6C9" height="81.81" rx="2.5" ry="2.5" style="stroke:#000000;stroke-width:1;" width="236" x="968" y="406.0194"/><line style="stroke:#000000;stroke-width:1;" x1="968" x2="1204" y1="422.8241" y2="422.8241"/><text fill="#000000" font-family="Verdana" font-size="11" font-weight="bold" lengthAdjust="spacing" textLength="171.123" x="1000.4385" y="418.2298">Holding.getEligibleShares()</text></g><!--cluster rich_svc--><g class="cluster" data-qualified-name="Rich Domain Model.rich_svc" data-source-line="15" id="ent0009"><rect fill="#B2DFDB" height="81.8" rx="2.5" ry="2.5" style="stroke:#000000;stroke-width:1;" width="324" x="952" y="112.0094"/><line style="stroke:#000000;stroke-width:1;" x1="952" x2="1276" y1="128.8141" y2="128.8141"/><text fill="#000000" font-family="Verdana" font-size="11" font-weight="bold" lengthAdjust="spacing" textLength="214.2207" x="1006.8896" y="124.2198">Service.sellStockWithSettlement()</text></g><!--cluster Anemic Domain Model--><g class="cluster" data-qualified-name="Anemic Domain Model" data-source-line="24" id="ent0014"><rect fill="#FFEBEE" height="609.02" rx="2.5" ry="2.5" style="stroke:#000000;stroke-width:1;" width="664" x="12" y="58.6094"/><text fill="#000000" font-family="Verdana" font-size="11" font-weight="bold" lengthAdjust="spacing" textLength="137.9995" x="275.0002" y="70.8198">Anemic Domain Model</text></g><!--cluster anemic_lot--><g class="cluster" data-qualified-name="Anemic Domain Model.anemic_lot" data-source-line="25" id="ent0015"><rect fill="#FFCDD2" height="229.61" rx="2.5" ry="2.5" style="stroke:#000000;stroke-width:1;" width="216" x="338" y="406.0194"/><line style="stroke:#000000;stroke-width:1;" x1="338" x2="554" y1="422.8241" y2="422.8241"/><text fill="#000000" font-family="Verdana" font-size="11" font-weight="bold" lengthAdjust="spacing" textLength="148.6235" x="371.6882" y="418.2298">Lot.isAvailableForSale()</text></g><!--cluster anemic_sell--><g class="cluster" data-qualified-name="Anemic Domain Model.anemic_sell" data-source-line="29" id="ent0020"><rect fill="#FFCDD2" height="227.61" rx="2.5" ry="2.5" style="stroke:#000000;stroke-width:1;" width="251" x="44" y="262.2194"/><line style="stroke:#000000;stroke-width:1;" x1="44" x2="295" y1="279.0241" y2="279.0241"/><text fill="#000000" font-family="Verdana" font-size="11" font-weight="bold" lengthAdjust="spacing" textLength="187.6606" x="75.6697" y="274.4298">Portfolio.sellWithSettlement()</text></g><!--cluster anemic_svc--><g class="cluster" data-qualified-name="Anemic Domain Model.anemic_svc" data-source-line="33" id="ent0025"><rect fill="#B2DFDB" height="94.61" rx="2.5" ry="2.5" style="stroke:#000000;stroke-width:1;" width="250" x="220" y="105.6094"/><line style="stroke:#000000;stroke-width:1;" x1="220" x2="470" y1="122.4141" y2="122.4141"/><text fill="#000000" font-family="Verdana" font-size="11" font-weight="bold" lengthAdjust="spacing" textLength="214.2207" x="237.8896" y="117.8198">Service.sellStockWithSettlement()</text></g><!--cluster anemic_query--><g class="cluster" data-qualified-name="Anemic Domain Model.anemic_query" data-source-line="36" id="ent0027"><rect fill="#FFCDD2" height="81.8" rx="2.5" ry="2.5" style="stroke:#000000;stroke-width:1;" width="309" x="335" y="262.2194"/><line style="stroke:#000000;stroke-width:1;" x1="335" x2="644" y1="279.0241" y2="279.0241"/><text fill="#000000" font-family="Verdana" font-size="11" font-weight="bold" lengthAdjust="spacing" textLength="205.5195" x="386.7402" y="274.4298">Service.getEligibleSharesCount()</text></g><!--entity rich_check--><g class="entity" data-qualified-name="Rich Domain Model.rich_lot.rich_check" data-source-line="7" id="ent0004"><rect fill="#FFFFFF" height="18.8047" rx="2.5" ry="2.5" style="stroke:#000000;stroke-width:1;" width="178.6836" x="975.66" y="590.8294"/><text fill="#000000" font-family="Verdana" font-size="11" lengthAdjust="spacing" textLength="158.6836" x="985.66" y="604.0398">isSettled(asOf) &amp;&amp; !reserved</text></g><!--entity rich_profit--><g class="entity" data-qualified-name="Rich Domain Model.rich_sell.rich_profit" data-source-line="10" id="ent0006"><rect fill="#FFFFFF" height="18.8047" rx="2.5" ry="2.5" style="stroke:#000000;stroke-width:1;" width="201.7578" x="987.12" y="301.2194"/><text fill="#000000" font-family="Verdana" font-size="11" lengthAdjust="spacing" textLength="181.7578" x="997.12" y="314.4298">profit = netProceeds &#8722; costBasis</text></g><!--entity rich_sum--><g class="entity" data-qualified-name="Rich Domain Model.rich_eligible.rich_sum" data-source-line="13" id="ent0008"><rect fill="#FFFFFF" height="18.8047" rx="2.5" ry="2.5" style="stroke:#000000;stroke-width:1;" width="168.9941" x="991.5" y="445.0194"/><text fill="#000000" font-family="Verdana" font-size="11" lengthAdjust="spacing" textLength="148.9941" x="1001.5" y="458.2298">&#931; lot.availableShares(asOf)</text></g><!--entity rich_delegate--><g class="entity" data-qualified-name="Rich Domain Model.rich_svc.rich_delegate" data-source-line="16" id="ent0010"><rect fill="#FFFFFF" height="18.8047" rx="2.5" ry="2.5" style="stroke:#000000;stroke-width:1;" width="256.5" x="975.75" y="151.0094"/><text fill="#000000" font-family="Verdana" font-size="11" lengthAdjust="spacing" textLength="236.5" x="985.75" y="164.2198">Delegates to portfolio.sellWithSettlement()</text></g><!--entity anemic_check--><g class="entity" data-qualified-name="Anemic Domain Model.anemic_lot.anemic_check" data-source-line="26" id="ent0016"><rect fill="#FF8A80" height="18.8047" rx="2.5" ry="2.5" style="stroke:#000000;stroke-width:1;" width="101.5547" x="391.22" y="445.0194"/><text fill="#000000" font-family="Verdana" font-size="11" lengthAdjust="spacing" textLength="81.5547" x="401.22" y="458.2298">isSettled(asOf)</text></g><g class="entity" data-qualified-name="Anemic Domain Model.anemic_lot.GMN17" data-source-line="27" id="ent0018"><path d="M362.31,588.8294 L362.31,611.6341 A0,0 0 0 0 362.31,611.6341 L521.6801,611.6341 A0,0 0 0 0 521.6801,611.6341 L521.6801,598.8294 L511.6801,588.8294 L446,588.8294 L442,463.9894 L438,588.8294 L362.31,588.8294 A0,0 0 0 0 362.31,588.8294" fill="#FFFFFF" style="stroke:#000000;stroke-width:1;"/><path d="M511.6801,588.8294 L511.6801,598.8294 L521.6801,598.8294 L511.6801,588.8294" fill="#FFFFFF" style="stroke:#000000;stroke-width:1;"/><text fill="#000000" font-family="Verdana" font-size="11" font-weight="bold" lengthAdjust="spacing" textLength="138.3701" x="368.31" y="604.0398">Missing: &amp;&amp; !reserved</text></g><!--entity anemic_profit--><g class="entity" data-qualified-name="Anemic Domain Model.anemic_sell.anemic_profit" data-source-line="30" id="ent0021"><rect fill="#FF8A80" height="18.8047" rx="2.5" ry="2.5" style="stroke:#000000;stroke-width:1;" width="184.0547" x="67.97" y="301.2194"/><text fill="#000000" font-family="Verdana" font-size="11" lengthAdjust="spacing" textLength="164.0547" x="77.97" y="314.4298">profit = proceeds &#8722; costBasis</text></g><g class="entity" data-qualified-name="Anemic Domain Model.anemic_sell.GMN22" data-source-line="31" id="ent0023"><path d="M105.37,443.0194 L105.37,465.8241 A0,0 0 0 0 105.37,465.8241 L214.6386,465.8241 A0,0 0 0 0 214.6386,465.8241 L214.6386,453.0194 L204.6386,443.0194 L164,443.0194 L160,320.4894 L156,443.0194 L105.37,443.0194 A0,0 0 0 0 105.37,443.0194" fill="#FFFFFF" style="stroke:#000000;stroke-width:1;"/><path d="M204.6386,443.0194 L204.6386,453.0194 L214.6386,453.0194 L204.6386,443.0194" fill="#FFFFFF" style="stroke:#000000;stroke-width:1;"/><text fill="#000000" font-family="Verdana" font-size="11" font-weight="bold" lengthAdjust="spacing" textLength="88.2686" x="111.37" y="458.2298">Missing: &#8722; fee</text></g><!--entity anemic_inline--><g class="entity" data-qualified-name="Anemic Domain Model.anemic_svc.anemic_inline" data-source-line="34" id="ent0026"><rect fill="#FFFFFF" height="31.6094" rx="2.5" ry="2.5" style="stroke:#000000;stroke-width:1;" width="182.4004" x="243.8" y="144.6094"/><text fill="#000000" font-family="Verdana" font-size="11" lengthAdjust="spacing" textLength="152.3296" x="253.8" y="157.8198">Inline: settled &amp;&amp; !reserved</text><text fill="#000000" font-family="Verdana" font-size="11" lengthAdjust="spacing" textLength="162.4004" x="253.8" y="170.6245">profit via SellResult.withFee()</text></g><!--entity anemic_delegate--><g class="entity" data-qualified-name="Anemic Domain Model.anemic_query.anemic_delegate" data-source-line="37" id="ent0028"><rect fill="#FFFFFF" height="18.8047" rx="2.5" ry="2.5" style="stroke:#000000;stroke-width:1;" width="242.1484" x="358.93" y="301.2194"/><text fill="#000000" font-family="Verdana" font-size="11" lengthAdjust="spacing" textLength="222.1484" x="368.93" y="314.4298">Delegates to holding.getEligibleShares()</text></g><g class="entity" data-qualified-name="GMN32" data-source-line="46" id="ent0033"><path d="M691.63,286.4094 L691.63,334.8234 L904.3619,334.8234 L904.3619,296.4094 L894.3619,286.4094 L691.63,286.4094" fill="#FFFFFF" style="stroke:#000000;stroke-width:1;"/><path d="M894.3619,286.4094 L894.3619,296.4094 L904.3619,296.4094 L894.3619,286.4094" fill="#FFFFFF" style="stroke:#000000;stroke-width:1;"/><text fill="#000000" font-family="Verdana" font-size="11" lengthAdjust="spacing" textLength="182.8105" x="697.63" y="301.6198">Service has CORRECT logic inline</text><text fill="#000000" font-family="Verdana" font-size="11" lengthAdjust="spacing" textLength="18.2671" x="697.63" y="314.4245">but</text><text fill="#000000" font-family="Verdana" font-size="11" font-weight="bold" lengthAdjust="spacing" textLength="118.0942" x="719.3937" y="314.4245">two new endpoints</text><text fill="#000000" font-family="Verdana" font-size="11" lengthAdjust="spacing" textLength="48.3774" x="840.9845" y="314.4245">delegate</text><text fill="#000000" font-family="Verdana" font-size="11" lengthAdjust="spacing" textLength="172.6753" x="697.63" y="327.2292">to domain methods that DRIFT.</text></g><!--link rich_svc to rich_sell--><g class="link" data-entity-1="ent0009" data-entity-2="ent0005" data-link-type="dependency" data-source-line="19" id="lnk11"><path d="M1258.3145,194.0417 C1258.0329,194.99 1257.7474,195.9517 1257.4582,196.9256 C1256.3014,200.8216 1255.086,204.9149 1253.8316,209.1397 C1251.3227,217.5895 1248.6575,226.5653 1245.9925,235.5406 C1243.3275,244.5159 1240.6627,253.4907 1238.1544,261.9382 C1236.9002,266.162 1235.6852,270.2539 1234.5289,274.1482 C1233.9508,276.0954 1233.3873,277.9931 1232.8409,279.8332 C1232.5677,280.7533 1234.0067,275.9071 1233.7424,276.7973" fill="none" id="rich_svc-to-rich_sell" style="stroke:#000000;stroke-width:1;"/><polygon fill="#000000" points="1232.0345,282.5491,1238.4308,275.0599,1233.4577,277.7559,1230.7617,272.7828,1232.0345,282.5491" style="stroke:#000000;stroke-width:1;"/><text fill="#000000" font-family="Verdana" font-size="11" lengthAdjust="spacing" textLength="54.1084" x="1249.63" y="235.4298">delegates</text></g><!--link rich_sell to rich_eligible--><g class="link" data-entity-1="ent0005" data-entity-2="ent0007" data-link-type="dependency" data-source-line="20" id="lnk12"><path d="M1217.5668,344.2087 C1217.476,344.6687 1217.3845,345.1317 1217.2925,345.5977 C1216.5564,349.3254 1215.783,353.242 1214.9847,357.2845 C1213.3882,365.3695 1211.6922,373.9578 1209.9963,382.5456 C1208.3003,391.1334 1206.6045,399.7207 1205.0082,407.8035 C1204.8087,408.8138 1204.6107,409.8163 1204.4145,410.8099 C1204.3164,411.3067 1204.2187,411.8012 1204.1215,412.2935 C1204.0972,412.4165 1205.2354,406.6531 1205.2112,406.7759" fill="none" id="rich_sell-to-rich_eligible" style="stroke:#000000;stroke-width:1;"/><polygon fill="#000000" points="1204.0487,412.6622,1209.7166,404.6077,1205.0174,407.757,1201.8682,403.0578,1204.0487,412.6622" style="stroke:#000000;stroke-width:1;"/><text fill="#000000" font-family="Verdana" font-size="11" lengthAdjust="spacing" textLength="84.4282" x="1213.51" y="379.2298">validates count</text></g><!--link rich_eligible to rich_lot--><g class="link" data-entity-1="ent0007" data-entity-2="ent0003" data-link-type="dependency" data-source-line="21" id="lnk13"><path d="M1194.6237,488.4731 C1194.6042,488.9395 1194.5846,489.4091 1194.5649,489.8816 C1194.407,493.662 1194.2411,497.6339 1194.0699,501.7335 C1193.7275,509.9327 1193.3638,518.6425 1193,527.3519 C1192.8181,531.7066 1192.6363,536.0611 1192.457,540.3517 C1192.3674,542.497 1192.2785,544.6263 1192.1906,546.7315 C1192.1466,547.7842 1192.1029,548.8308 1192.0594,549.8705 C1192.0377,550.3903 1192.0161,550.9084 1191.9945,551.4246 C1191.9891,551.5536 1192.2342,545.6878 1192.2288,545.8166" fill="none" id="rich_eligible-to-rich_lot" style="stroke:#000000;stroke-width:1;"/><polygon fill="#000000" points="1191.9784,551.8114,1196.3505,542.9862,1192.187,546.8158,1188.3575,542.6523,1191.9784,551.8114" style="stroke:#000000;stroke-width:1;"/><text fill="#000000" font-family="Verdana" font-size="11" lengthAdjust="spacing" textLength="104.1133" x="1194.54" y="525.0398">queries availability</text></g><!--link anemic_svc to anemic_sell--><!--link anemic_query to anemic_lot--><g class="link" data-entity-1="ent0027" data-entity-2="ent0015" data-link-type="dependency" data-source-line="41" id="lnk30"><path d="M624.6345,344.2216 C624.5994,344.3046 624.5642,344.3876 624.5289,344.4706 C622.2713,349.7844 619.7425,355.1394 617,360.0194 C604.625,382.0394 587.58,404.6419 573.2925,422.0956 C566.1488,430.8225 559.6944,438.2622 554.8578,443.6983 C554.7067,443.8682 554.5571,444.0361 554.4092,444.202 C554.3352,444.285 558.2569,439.8911 558.1837,439.9731" fill="none" id="anemic_query-to-anemic_lot" style="stroke:#000000;stroke-width:1;"/><polygon fill="#000000" points="554.1884,444.4495,563.1656,440.3985,557.5178,440.7192,557.1971,435.0714,554.1884,444.4495" style="stroke:#000000;stroke-width:1;"/><text fill="#000000" font-family="Verdana" font-size="11" lengthAdjust="spacing" textLength="109.8066" x="613.2" y="379.2298">uses flawed domain</text></g><!--link anemic_sell to anemic_lot--><g class="link" data-entity-1="ent0020" data-entity-2="ent0015" data-link-type="dependency" data-source-line="42" id="lnk31"><path d="M295.0867,321.3216 C295.1438,321.3861 295.2012,321.4508 295.2589,321.5158 C295.3743,321.6457 295.4907,321.7765 295.6081,321.9082 C295.843,322.1715 296.0822,322.4384 296.3254,322.7086 C296.8119,323.2489 297.3148,323.8025 297.8336,324.3677 C299.9088,326.6287 302.2375,329.0766 304.78,331.6131 C314.95,341.7594 328.54,353.3244 343,360.0194 C400.55,386.6794 421.3,372.4794 484,382.0194 C495.99,383.8394 529.52,381.3494 538,390.0194 C540.405,392.4781 542.3448,395.2711 543.8969,398.2813 C544.6729,399.7864 545.352,401.3458 545.9439,402.9449 C546.2398,403.7444 546.5139,404.5539 546.7674,405.3714 C546.8307,405.5758 545.1892,400.0277 545.25,400.233" fill="none" id="anemic_sell-to-anemic_lot" style="stroke:#000000;stroke-width:1;"/><polygon fill="#000000" points="546.9536,405.9861,548.2336,396.2208,545.534,401.1919,540.5629,398.4922,546.9536,405.9861" style="stroke:#000000;stroke-width:1;"/><text fill="#000000" font-family="Verdana" font-size="11" lengthAdjust="spacing" textLength="109.8066" x="485" y="379.2298">uses flawed domain</text></g><!--link anemic_svc to GMN32--><g class="link" data-entity-1="ent0025" data-entity-2="ent0033" data-link-type="association" data-source-line="46" id="lnk34"><path d="M470.4244,165.1291 C470.7564,165.2755 471.0974,165.4259 471.4474,165.5803 C477.0477,168.0505 484.9423,171.5326 494.6008,175.7927 C513.9178,184.3128 540.2906,195.945 569.4763,208.8181 C627.8475,234.5644 697.47,265.2744 744.4,285.9794" fill="none" id="anemic_svc-GMN32" style="stroke:#000000;stroke-width:1;stroke-dasharray:7,7;"/></g><?plantuml-src dLJRQjj057pNLvmu41A3JHDeSGqjn9P40mq9Lg0FRIaRwSXQijfrjSSoQGdqiS-bVz3_wKVaItfqiIp7SMAQ5mVsp9pPsHdjKO8fmam9gHrx8_LCP2A526CnL-GRJO7yXd1yx90aXN2cSv59eGay7PiiP33_V__ZDqnac41kuLHZAaF7oJ0aeQUCwPH7habv1voR25K7zhs1_z9x3TyTuBzGP15qtXlgItkQ2wd4jKBVP85GU7ZK0M4XOuuloX3iZmVUg_4IkK9B6o2nnEXGs8lu20uEO2z3YrcEqOeXJ32yAP5thSsN9gFOA6dw5fNw82cfk8hBjVSNfri5p38JIu8te94kCnCYHXRkV_w2q5WQ2IljYgYQtT3npgX8wcb_YkGfEPNiGf08laLR1DOdMuNy_GDiL5yiZQmfIbjQTvcd6_i3Tak6MBeGa0bldh0Y3s5_TEBwxcX3W8iAfuBG0XcOxUXjL8DgKULFiwdNUzjwWI4iXsrhh3XfvXgJXf0B9QDIJMZccbQ8PgP15VaQmjSvPfB7QmEbadJhtAqbkWhvmqpxlZVolDqpBKgMAjM-FtRTa-TItOQLKIw0WzF1YmQc3I5S6oAJ3g7RFPVMSgA6QtNeTl-d0VNQgWDRv3OTc6qlGCrJZ-wgl-294H-Hlbjeb-gVYEsPLbBZ46pb-9fbdtIjDvS20juqGSiVoFw2T_duu45bIRHLw4QxnqKkrocA3DvkjNcjOCap7usQyR5-jKpfVKna5A7-p5relNHxhDBKMmrKTPbRrX4hiM3Beh8GQzpBMZw7OKcjjmSJjzGnOMqU97oZySLauesl-2itvH8sRb_FYHD32yDVu0MWZcP6QhBTBhJkpePL2o55IWmdb191u4xE_Ak-mw0oWSu_?></g></svg>