<?plantuml 1.2026.1?><svg xmlns="http://www.w3.org/2000/svg" xmlns:xlink="http://www.w3.org/1999/xlink" contentStyleType="text/css" data-diagram-type="DESCRIPTION" height="811px" preserveAspectRatio="none" style="width:1042px;height:811px;background:#FFFFFF;" version="1.1" viewBox="0 0 1042 811" width="1042px" zoomAndPan="magnify"><title>Rich Domain Model &#8212; Architecture</title><defs/><g><g class="title" data-source-line="4"><text fill="#000000" font-family="Verdana" font-size="22" font-weight="bold" lengthAdjust="spacing" textLength="429.9346" x="301.5327" y="35.4209">Rich Domain Model &#8212; Architecture</text></g><!--cluster Primary Adapter--><g class="cluster" data-qualified-name="Primary Adapter" data-source-line="6" id="ent0002"><path d="M42.5,57.6094 L155.2031,57.6094 A3.75,3.75 0 0 1 157.7031,60.1094 L164.7031,77.5781 L225.5,77.5781 A2.5,2.5 0 0 1 228,80.0781 L228,151.0794 A2.5,2.5 0 0 1 225.5,153.5794 L42.5,153.5794 A2.5,2.5 0 0 1 40,151.0794 L40,60.1094 A2.5,2.5 0 0 1 42.5,57.6094" fill="#E8F5E9" style="stroke:#000000;stroke-width:1;"/><line style="stroke:#000000;stroke-width:1;" x1="40" x2="164.7031" y1="77.5781" y2="77.5781"/><text fill="#000000" font-family="Verdana" font-size="12" font-weight="bold" lengthAdjust="spacing" textLength="111.7031" x="44" y="70.748">Primary Adapter</text><text fill="#000000" font-family="Verdana" font-size="12" font-style="italic" lengthAdjust="spacing" textLength="75.1289" x="100.4355" y="90.7168">&#171;Rectangle&#187;</text></g><!--cluster Application Layer--><g class="cluster" data-qualified-name="Application Layer" data-source-line="10" id="ent0004"><path d="M13.5,200.5794 L132.8418,200.5794 A3.75,3.75 0 0 1 135.3418,203.0794 L142.3418,220.5481 L254.5,220.5481 A2.5,2.5 0 0 1 257,223.0481 L257,436.9994 A2.5,2.5 0 0 1 254.5,439.4994 L13.5,439.4994 A2.5,2.5 0 0 1 11,436.9994 L11,203.0794 A2.5,2.5 0 0 1 13.5,200.5794" fill="#E3F2FD" style="stroke:#000000;stroke-width:1;"/><line style="stroke:#000000;stroke-width:1;" x1="11" x2="142.3418" y1="220.5481" y2="220.5481"/><text fill="#000000" font-family="Verdana" font-size="12" font-weight="bold" lengthAdjust="spacing" textLength="118.3418" x="15" y="213.718">Application Layer</text><text fill="#000000" font-family="Verdana" font-size="12" font-style="italic" lengthAdjust="spacing" textLength="75.1289" x="100.4355" y="233.6868">&#171;Rectangle&#187;</text></g><!--cluster Domain Model (Aggregate)--><g class="cluster" data-qualified-name="Domain Model .Aggregate." data-source-line="18" id="ent0009"><path d="M283.5,341.5494 L467.4004,341.5494 A3.75,3.75 0 0 1 469.9004,344.0494 L476.9004,361.5181 L617.5,361.5181 A2.5,2.5 0 0 1 620,364.0181 L620,801.7494 A2.5,2.5 0 0 1 617.5,804.2494 L283.5,804.2494 A2.5,2.5 0 0 1 281,801.7494 L281,344.0494 A2.5,2.5 0 0 1 283.5,341.5494" fill="#FFF3E0" style="stroke:#000000;stroke-width:1;"/><line style="stroke:#000000;stroke-width:1;" x1="281" x2="476.9004" y1="361.5181" y2="361.5181"/><text fill="#000000" font-family="Verdana" font-size="12" font-weight="bold" lengthAdjust="spacing" textLength="182.9004" x="285" y="354.688">Domain Model (Aggregate)</text><text fill="#000000" font-family="Verdana" font-size="12" font-style="italic" lengthAdjust="spacing" textLength="75.1289" x="416.9355" y="374.6568">&#171;Rectangle&#187;</text></g><!--cluster Secondary Adapters--><g class="cluster" data-qualified-name="Secondary Adapters" data-source-line="38" id="ent0020"><path d="M646.5,341.5494 L784.2871,341.5494 A3.75,3.75 0 0 1 786.7871,344.0494 L793.7871,361.5181 L1032.5,361.5181 A2.5,2.5 0 0 1 1035,364.0181 L1035,435.0194 A2.5,2.5 0 0 1 1032.5,437.5194 L646.5,437.5194 A2.5,2.5 0 0 1 644,435.0194 L644,344.0494 A2.5,2.5 0 0 1 646.5,341.5494" fill="#FCE4EC" style="stroke:#000000;stroke-width:1;"/><line style="stroke:#000000;stroke-width:1;" x1="644" x2="793.7871" y1="361.5181" y2="361.5181"/><text fill="#000000" font-family="Verdana" font-size="12" font-weight="bold" lengthAdjust="spacing" textLength="136.7871" x="648" y="354.688">Secondary Adapters</text><text fill="#000000" font-family="Verdana" font-size="12" font-style="italic" lengthAdjust="spacing" textLength="75.1289" x="805.9355" y="374.6568">&#171;Rectangle&#187;</text></g><!--entity ctrl--><g class="entity" data-qualified-name="Primary Adapter.ctrl" data-source-line="7" id="ent0003"><rect fill="#FFFFFF" height="33.9688" rx="2.5" ry="2.5" style="stroke:#000000;stroke-width:1;" width="155.7617" x="56.12" y="103.6094"/><text fill="#000000" font-family="Verdana" font-size="12" lengthAdjust="spacing" textLength="135.7617" x="66.12" y="124.748">PortfolioRestController</text></g><!--entity svc--><g class="entity" data-qualified-name="Application Layer.svc" data-source-line="11" id="ent0005"><rect fill="#FFFFFF" height="33.9688" rx="2.5" ry="2.5" style="stroke:#000000;stroke-width:1;" width="213.3242" x="27.34" y="246.5794"/><text fill="#000000" font-family="Verdana" font-size="12" lengthAdjust="spacing" textLength="193.3242" x="37.34" y="267.718">PortfolioStockOperationsService</text></g><g class="entity" data-qualified-name="Application Layer.GMN6" data-source-line="13" id="ent0007"><path d="M46.37,385.5594 L46.37,423.4969 A0,0 0 0 0 46.37,423.4969 L221.6356,423.4969 A0,0 0 0 0 221.6356,423.4969 L221.6356,395.5594 L211.6356,385.5594 L138,385.5594 L134,280.7794 L130,385.5594 L46.37,385.5594 A0,0 0 0 0 46.37,385.5594" fill="#FFFFFF" style="stroke:#000000;stroke-width:1;"/><path d="M211.6356,385.5594 L211.6356,395.5594 L221.6356,395.5594 L211.6356,385.5594" fill="#FFFFFF" style="stroke:#000000;stroke-width:1;"/><text fill="#000000" font-family="Verdana" font-size="12" lengthAdjust="spacing" textLength="107.8184" x="52.37" y="401.698">Thin orchestrator:</text><text fill="#000000" font-family="Verdana" font-size="12" lengthAdjust="spacing" textLength="154.2656" x="52.37" y="415.6668">load &#8594; delegate &#8594; persist</text></g><!--entity portfolio--><g class="entity" data-qualified-name="Domain Model .Aggregate..portfolio" data-source-line="19" id="ent0010"><rect fill="#FFFFFF" height="33.9688" rx="2.5" ry="2.5" style="stroke:#000000;stroke-width:1;" width="69.793" x="297.1" y="387.5494"/><text fill="#000000" font-family="Verdana" font-size="12" lengthAdjust="spacing" textLength="49.793" x="307.1" y="408.688">Portfolio</text></g><!--entity holding--><g class="entity" data-qualified-name="Domain Model .Aggregate..holding" data-source-line="20" id="ent0011"><rect fill="#FFFFFF" height="33.9688" rx="2.5" ry="2.5" style="stroke:#000000;stroke-width:1;" width="65.873" x="297.06" y="523.4394"/><text fill="#000000" font-family="Verdana" font-size="12" lengthAdjust="spacing" textLength="45.873" x="307.06" y="544.578">Holding</text></g><!--entity lot--><g class="entity" data-qualified-name="Domain Model .Aggregate..lot" data-source-line="21" id="ent0012"><rect fill="#FFFFFF" height="33.9688" rx="2.5" ry="2.5" style="stroke:#000000;stroke-width:1;" width="38.7324" x="326.63" y="655.3394"/><text fill="#000000" font-family="Verdana" font-size="12" lengthAdjust="spacing" textLength="18.7324" x="336.63" y="676.478">Lot</text></g><!--entity result--><g class="entity" data-qualified-name="Domain Model .Aggregate..result" data-source-line="22" id="ent0013"><rect fill="#FFFFFF" height="33.9688" rx="2.5" ry="2.5" style="stroke:#000000;stroke-width:1;" width="79.2852" x="415.36" y="655.3394"/><text fill="#000000" font-family="Verdana" font-size="12" lengthAdjust="spacing" textLength="59.2852" x="425.36" y="676.478">SellResult</text></g><g class="entity" data-qualified-name="Domain Model .Aggregate..GMN14" data-source-line="25" id="ent0015"><path d="M398.15,500.4994 L398.15,580.3431 L603.8551,580.3431 L603.8551,510.4994 L593.8551,500.4994 L398.15,500.4994" fill="#FFFFFF" style="stroke:#000000;stroke-width:1;"/><path d="M593.8551,500.4994 L593.8551,510.4994 L603.8551,510.4994 L593.8551,500.4994" fill="#FFFFFF" style="stroke:#000000;stroke-width:1;"/><text fill="#000000" font-family="Verdana" font-size="12" font-weight="bold" lengthAdjust="spacing" textLength="157.1133" x="404.15" y="516.638">All business logic here:</text><text fill="#000000" font-family="Verdana" font-size="12" lengthAdjust="spacing" textLength="134.5781" x="404.15" y="530.6068">&#8226; sellWithSettlement()</text><text fill="#000000" font-family="Verdana" font-size="12" lengthAdjust="spacing" textLength="184.7051" x="404.15" y="544.5755">&#8226; reserveLot() / unreserveLot()</text><text fill="#000000" font-family="Verdana" font-size="12" lengthAdjust="spacing" textLength="83.918" x="404.15" y="558.5443">&#8226; buy() / sell()</text><text fill="#000000" font-family="Verdana" font-size="12" lengthAdjust="spacing" textLength="121.6465" x="404.15" y="572.513">&#8226; Balance validation</text></g><g class="entity" data-qualified-name="Domain Model .Aggregate..GMN17" data-source-line="33" id="ent0018"><path d="M297.13,750.3094 L297.13,788.2469 A0,0 0 0 0 297.13,788.2469 L498.8683,788.2469 A0,0 0 0 0 498.8683,788.2469 L498.8683,760.3094 L488.8683,750.3094 L391.89,750.3094 L354.82,689.4394 L383.89,750.3094 L297.13,750.3094 A0,0 0 0 0 297.13,750.3094" fill="#FFFFFF" style="stroke:#000000;stroke-width:1;"/><path d="M488.8683,750.3094 L488.8683,760.3094 L498.8683,760.3094 L488.8683,750.3094" fill="#FFFFFF" style="stroke:#000000;stroke-width:1;"/><text fill="#000000" font-family="Verdana" font-size="12" lengthAdjust="spacing" textLength="122.877" x="303.13" y="766.448">isAvailableForSale():</text><text fill="#000000" font-family="Verdana" font-size="12" lengthAdjust="spacing" textLength="173.1094" x="310.7589" y="780.4168">isSettled(asOf) &amp;&amp; !reserved</text></g><!--entity repo--><g class="entity" data-qualified-name="Secondary Adapters.repo" data-source-line="39" id="ent0021"><rect fill="#FFFFFF" height="33.9688" rx="2.5" ry="2.5" style="stroke:#000000;stroke-width:1;" width="152.6504" x="659.67" y="387.5494"/><text fill="#000000" font-family="Verdana" font-size="12" lengthAdjust="spacing" textLength="132.6504" x="669.67" y="408.688">JpaPortfolioRepository</text></g><!--entity price--><g class="entity" data-qualified-name="Secondary Adapters.price" data-source-line="40" id="ent0022"><rect fill="#FFFFFF" height="33.9688" rx="2.5" ry="2.5" style="stroke:#000000;stroke-width:1;" width="171.1836" x="847.41" y="387.5494"/><text fill="#000000" font-family="Verdana" font-size="12" lengthAdjust="spacing" textLength="151.1836" x="857.41" y="408.688">FinhubStockPriceAdapter</text></g><!--link portfolio to GMN14--><g class="link" data-entity-1="ent0010" data-entity-2="ent0015" data-link-type="association" data-source-line="25" id="lnk16"><path d="M354.53,421.9194 C367.63,431.5494 384.38,444.0394 399,455.4994 C417.23,469.7894 436.95,485.8594 454.15,500.0894" fill="none" id="portfolio-GMN14" style="stroke:#000000;stroke-width:1;stroke-dasharray:7,7;"/></g><!--link ctrl to svc--><g class="link" data-entity-1="ent0003" data-entity-2="ent0005" data-link-type="dependency" data-source-line="43" id="lnk23"><path d="M134,138.0394 C134,165.1994 134,213.1294 134,240.2194" fill="none" id="ctrl-to-svc" style="stroke:#000000;stroke-width:1;"/><polygon fill="#000000" points="134,246.2194,138,237.2194,134,241.2194,130,237.2194,134,246.2194" style="stroke:#000000;stroke-width:1;"/><text fill="#000000" font-family="Verdana" font-size="12" lengthAdjust="spacing" textLength="55.9043" x="135" y="181.718">uses port</text></g><!--link svc to portfolio--><g class="link" data-entity-1="ent0005" data-entity-2="ent0010" data-link-type="dependency" data-source-line="44" id="lnk24"><path d="M168.21,280.9494 C193.66,293.7894 228.73,312.8894 257,333.5494 C279.29,349.8294 297.9069,367.7383 312.4269,382.7383" fill="none" id="svc-to-portfolio" style="stroke:#000000;stroke-width:1;"/><polygon fill="#000000" points="316.6,387.0494,313.2144,377.8007,313.1224,383.4568,307.4663,383.3649,316.6,387.0494" style="stroke:#000000;stroke-width:1;"/><text fill="#000000" font-family="Verdana" font-size="12" lengthAdjust="spacing" textLength="140.666" x="245.48" y="322.688">delegates to aggregate</text></g><!--link portfolio to holding--><g class="link" data-entity-1="ent0010" data-entity-2="ent0011" data-link-type="dependency" data-source-line="45" id="lnk25"><path d="M331.75,421.9494 C331.37,447.7894 330.7088,491.63 330.3288,517.29" fill="none" id="portfolio-to-holding" style="stroke:#000000;stroke-width:1;"/><polygon fill="#000000" points="330.24,523.2894,334.3728,514.3496,330.314,518.2899,326.3737,514.2311,330.24,523.2894" style="stroke:#000000;stroke-width:1;"/><text fill="#000000" font-family="Verdana" font-size="12" lengthAdjust="spacing" textLength="58.7051" x="332.24" y="467.638">navigates</text></g><!--link holding to lot--><g class="link" data-entity-1="ent0011" data-entity-2="ent0012" data-link-type="dependency" data-source-line="46" id="lnk26"><path d="M328.01,557.6594 C326.35,574.6694 324.84,602.1094 329,625.3394 C330.83,635.5694 332.4537,640.9587 336.0837,649.5887" fill="none" id="holding-to-lot" style="stroke:#000000;stroke-width:1;"/><polygon fill="#000000" points="338.41,655.1194,338.6076,645.2725,336.4714,650.5105,331.2334,648.3743,338.41,655.1194" style="stroke:#000000;stroke-width:1;"/><text fill="#000000" font-family="Verdana" font-size="12" lengthAdjust="spacing" textLength="81.2988" x="330" y="622.478">FIFO iteration</text></g><!--link holding to result--><g class="link" data-entity-1="ent0011" data-entity-2="ent0013" data-link-type="dependency" data-source-line="47" id="lnk27"><path d="M351.17,557.8094 C374.85,576.2194 410.6,604.3294 416,610.3394 C428.35,624.0794 436.4582,636.9033 443.6182,649.8033" fill="none" id="holding-to-result" style="stroke:#000000;stroke-width:1;"/><polygon fill="#000000" points="446.53,655.0494,445.6597,645.239,444.1035,650.6776,438.6649,649.1214,446.53,655.0494" style="stroke:#000000;stroke-width:1;"/><text fill="#000000" font-family="Verdana" font-size="12" lengthAdjust="spacing" textLength="43.418" x="428.14" y="622.478">returns</text></g><!--link svc to repo--><g class="link" data-entity-1="ent0005" data-entity-2="ent0021" data-link-type="dependency" data-source-line="48" id="lnk28"><path d="M240.72,267.4894 C341.19,273.0494 494.55,288.8994 620,333.5494 C655.9,346.3194 687.9748,367.3968 710.2548,383.7668" fill="none" id="svc-to-repo" style="stroke:#000000;stroke-width:1;"/><polygon fill="#000000" points="715.09,387.3194,710.2056,378.767,711.0607,384.3589,705.4688,385.2139,715.09,387.3194" style="stroke:#000000;stroke-width:1;"/><text fill="#000000" font-family="Verdana" font-size="12" lengthAdjust="spacing" textLength="70.2832" x="596" y="322.688">saves/loads</text></g><!--link svc to price--><g class="link" data-entity-1="ent0005" data-entity-2="ent0022" data-link-type="dependency" data-source-line="49" id="lnk29"><path d="M241.11,268.1294 C408.92,274.8994 725.44,292.7394 830,333.5494 C862.63,346.2794 890.6138,367.0625 910.1338,383.4425" fill="none" id="svc-to-price" style="stroke:#000000;stroke-width:1;"/><polygon fill="#000000" points="914.73,387.2994,910.407,378.45,910.8999,384.0853,905.2645,384.5782,914.73,387.2994" style="stroke:#000000;stroke-width:1;"/><text fill="#000000" font-family="Verdana" font-size="12" lengthAdjust="spacing" textLength="77.8301" x="800.76" y="322.688">fetches price</text></g><?plantuml-src TLJDQjj04BxhAIOf1DiGqYOjj2O4tCIYBIaEKQ67qCDuDPQMh7R5xihWba9EVO3I9-YZvKawkv8S6QS-QUVxvlyR7_YIAe9QeTI9kvUwHeiL25FLHfFscTye0al2eouK3IWvhR1HFZLCajy9NfqcNdectqfHmfMfE29yDZafU7pu0pChIkavJcCfIMeKzrWG7DvOMQ7Tm2p7sfCzXFFpspxPnGMycBzDtypVmOy4-7TtOwnV6INDBJb_oPcjKOhiDq07mbkL_1o4djMraWAzD1gkSVDSyBFqDBtQ2vvv8-uNDTdewpAoQoae9d5h4SdQU8AbyTvKO5PRCy2Nahist2iNoFx6JZj06SpXyTTldfkY0jazF3Y9ayv73kaynjrfOcUEerbHsEWytkibJTEp-SkzNcBLTVzgmGz6vL8N4IhRxnQuDZuQbMahkij8AHurhpdQRVnCdfl0RWg0oMIc52mR9pMv4B6G0agoD9rCEihZmrzmdE2hz6L6dgLJiU16um7C2Ndun7MDnd02ZHuQ1hnbiuc446u7U8yAjI1Oev9vNEVkg9zhfUyUGBhP6gN2fQBKs0mLZSRzFWFQLfsFq2rMOpWwWeEkllp_2yr869qF9E_sLtavVps_x5VvgSQ1x6lZ9Ajgq-sZxbQQIbqsooXSlYX1NUns-y4GQWWN0iV75q6kC8N6KIkD9Bo3VRj4HdkPEl06iDTTyaG93frwcAvnBICzwMq1vr4obdvC5y2ttzxJ3g5L57CiyH-3TjjIGcjiThWcTn9kvmcA_J2s8X_EhEll7m00?></g></svg>