<?plantuml 1.2026.1?><svg xmlns="http://www.w3.org/2000/svg" xmlns:xlink="http://www.w3.org/1999/xlink" contentStyleType="text/css" data-diagram-type="SEQUENCE" height="1157px" preserveAspectRatio="none" style="width:1331px;height:1157px;background:#FFFFFF;" version="1.1" viewBox="0 0 1331 1157" width="1331px" zoomAndPan="magnify"><title>Rich Model &#8212; Settlement-Aware Sell Sequence</title><defs/><g><text fill="#000000" font-family="Verdana" font-size="22" font-weight="bold" lengthAdjust="spacing" textLength="580.6475" x="385.0082" y="35.4209">Rich Model &#8212; Settlement-Aware Sell Sequence</text><g><title>REST Controller</title><rect fill="#FFFFFF" height="894.5313" style="stroke:#000000;stroke-width:1;" width="10" x="236.9417" y="167.0234"/></g><g><title>StockOperationsService</title><rect fill="#FFFFFF" height="828.1172" style="stroke:#000000;stroke-width:1;" width="10" x="475.5969" y="193.8281"/></g><g><title>Portfolio</title><rect fill="#FFFFFF" height="575.4844" style="stroke:#000000;stroke-width:1;" width="10" x="755.239" y="340.0469"/></g><g><title>Holding</title><rect fill="#FFFFFF" height="120.2188" style="stroke:#000000;stroke-width:1;" width="10" x="990.655" y="446.4609"/></g><g><title>Holding</title><rect fill="#FFFFFF" height="136.0234" style="stroke:#000000;stroke-width:1;" width="10" x="990.655" y="712.8984"/></g><g><title>Lot</title><rect fill="#FFFFFF" height="66.6094" style="stroke:#000000;stroke-width:1;" width="10" x="1151.2844" y="473.2656"/></g><g><title>Lot</title><rect fill="#FFFFFF" height="26.8047" style="stroke:#000000;stroke-width:1;" width="10" x="1151.2844" y="761.5078"/></g><rect fill="#FFFFFF" height="95.2188" style="stroke:#000000;stroke-width:1;" width="258.3647" x="947.6299" y="727.8984"/><g class="participant-lifeline" data-entity-uid="part1" data-qualified-name="Client" id="part1-lifeline"><g><title>Client</title><rect fill="#000000" fill-opacity="0.00000" height="954.1406" width="8" x="24.9226" y="125.4141"/><line style="stroke:#000000;stroke-width:1;stroke-dasharray:5,5;" x1="28" x2="28" y1="125.4141" y2="1079.5547"/></g></g><g class="participant-lifeline" data-entity-uid="part2" data-qualified-name="ctrl" id="part2-lifeline"><g><title>REST Controller</title><rect fill="#000000" fill-opacity="0.00000" height="954.1406" width="8" x="237.9417" y="125.4141"/><line style="stroke:#000000;stroke-width:1;stroke-dasharray:5,5;" x1="241.8708" x2="241.8708" y1="125.4141" y2="1079.5547"/></g></g><g class="participant-lifeline" data-entity-uid="part3" data-qualified-name="svc" id="part3-lifeline"><g><title>StockOperationsService</title><rect fill="#000000" fill-opacity="0.00000" height="954.1406" width="8" x="476.5969" y="125.4141"/><line style="stroke:#000000;stroke-width:1;stroke-dasharray:5,5;" x1="479.8118" x2="479.8118" y1="125.4141" y2="1079.5547"/></g></g><g class="participant-lifeline" data-entity-uid="part4" data-qualified-name="portfolio" id="part4-lifeline"><g><title>Portfolio</title><rect fill="#000000" fill-opacity="0.00000" height="954.1406" width="8" x="756.239" y="125.4141"/><line style="stroke:#000000;stroke-width:1;stroke-dasharray:5,5;" x1="759.4172" x2="759.4172" y1="125.4141" y2="1079.5547"/></g></g><g class="participant-lifeline" data-entity-uid="part5" data-qualified-name="holding" id="part5-lifeline"><g><title>Holding</title><rect fill="#000000" fill-opacity="0.00000" height="954.1406" width="8" x="991.655" y="125.4141"/><line style="stroke:#000000;stroke-width:1;stroke-dasharray:5,5;" x1="995.6299" x2="995.6299" y1="125.4141" y2="1079.5547"/></g></g><g class="participant-lifeline" data-entity-uid="part6" data-qualified-name="lot" id="part6-lifeline"><g><title>Lot</title><rect fill="#000000" fill-opacity="0.00000" height="954.1406" width="8" x="1152.2844" y="125.4141"/><line style="stroke:#000000;stroke-width:1;stroke-dasharray:5,5;" x1="1155.6987" x2="1155.6987" y1="125.4141" y2="1079.5547"/></g></g><g class="participant participant-head" data-entity-uid="part1" data-qualified-name="Client" id="part1-head"><text fill="#000000" font-family="Verdana" font-size="11" lengthAdjust="spacing" textLength="31.8452" x="10" y="122.8198">Client</text><ellipse cx="28.9226" cy="60.6094" fill="#FFFFFF" rx="8" ry="8" style="stroke:#000000;stroke-width:1;"/><path d="M28.9226,68.6094 L28.9226,95.6094 M15.9226,76.6094 L41.9226,76.6094 M28.9226,95.6094 L15.9226,110.6094 M28.9226,95.6094 L41.9226,110.6094" fill="none" style="stroke:#000000;stroke-width:1;"/></g><g class="participant participant-tail" data-entity-uid="part1" data-qualified-name="Client" id="part1-tail"><text fill="#000000" font-family="Verdana" font-size="11" lengthAdjust="spacing" textLength="31.8452" x="10" y="1088.7651">Client</text><ellipse cx="28.9226" cy="1100.3594" fill="#FFFFFF" rx="8" ry="8" style="stroke:#000000;stroke-width:1;"/><path d="M28.9226,1108.3594 L28.9226,1135.3594 M15.9226,1116.3594 L41.9226,1116.3594 M28.9226,1135.3594 L15.9226,1150.3594 M28.9226,1135.3594 L41.9226,1150.3594" fill="none" style="stroke:#000000;stroke-width:1;"/></g><g class="participant participant-head" data-entity-uid="part2" data-qualified-name="ctrl" id="part2-head"><rect fill="#FFFFFF" height="26.8047" rx="2.5" ry="2.5" style="stroke:#000000;stroke-width:1;" width="100.1416" x="191.8708" y="97.6094"/><text fill="#000000" font-family="Verdana" font-size="11" lengthAdjust="spacing" textLength="86.1416" x="198.8708" y="114.8198">REST Controller</text></g><g class="participant participant-tail" data-entity-uid="part2" data-qualified-name="ctrl" id="part2-tail"><rect fill="#FFFFFF" height="26.8047" rx="2.5" ry="2.5" style="stroke:#000000;stroke-width:1;" width="100.1416" x="191.8708" y="1078.5547"/><text fill="#000000" font-family="Verdana" font-size="11" lengthAdjust="spacing" textLength="86.1416" x="198.8708" y="1095.7651">REST Controller</text></g><g class="participant participant-head" data-entity-uid="part3" data-qualified-name="svc" id="part3-head"><rect fill="#FFFFFF" height="26.8047" rx="2.5" ry="2.5" style="stroke:#000000;stroke-width:1;" width="145.5703" x="407.8118" y="97.6094"/><text fill="#000000" font-family="Verdana" font-size="11" lengthAdjust="spacing" textLength="131.5703" x="414.8118" y="114.8198">StockOperationsService</text></g><g class="participant participant-tail" data-entity-uid="part3" data-qualified-name="svc" id="part3-tail"><rect fill="#FFFFFF" height="26.8047" rx="2.5" ry="2.5" style="stroke:#000000;stroke-width:1;" width="145.5703" x="407.8118" y="1078.5547"/><text fill="#000000" font-family="Verdana" font-size="11" lengthAdjust="spacing" textLength="131.5703" x="414.8118" y="1095.7651">StockOperationsService</text></g><g class="participant participant-head" data-entity-uid="part4" data-qualified-name="portfolio" id="part4-head"><rect fill="#FFFFFF" height="26.8047" rx="2.5" ry="2.5" style="stroke:#000000;stroke-width:1;" width="59.6436" x="730.4172" y="97.6094"/><text fill="#000000" font-family="Verdana" font-size="11" lengthAdjust="spacing" textLength="45.6436" x="737.4172" y="114.8198">Portfolio</text></g><g class="participant participant-tail" data-entity-uid="part4" data-qualified-name="portfolio" id="part4-tail"><rect fill="#FFFFFF" height="26.8047" rx="2.5" ry="2.5" style="stroke:#000000;stroke-width:1;" width="59.6436" x="730.4172" y="1078.5547"/><text fill="#000000" font-family="Verdana" font-size="11" lengthAdjust="spacing" textLength="45.6436" x="737.4172" y="1095.7651">Portfolio</text></g><g class="participant participant-head" data-entity-uid="part5" data-qualified-name="holding" id="part5-head"><rect fill="#FFFFFF" height="26.8047" rx="2.5" ry="2.5" style="stroke:#000000;stroke-width:1;" width="56.0503" x="967.6299" y="97.6094"/><text fill="#000000" font-family="Verdana" font-size="11" lengthAdjust="spacing" textLength="42.0503" x="974.6299" y="114.8198">Holding</text></g><g class="participant participant-tail" data-entity-uid="part5" data-qualified-name="holding" id="part5-tail"><rect fill="#FFFFFF" height="26.8047" rx="2.5" ry="2.5" style="stroke:#000000;stroke-width:1;" width="56.0503" x="967.6299" y="1078.5547"/><text fill="#000000" font-family="Verdana" font-size="11" lengthAdjust="spacing" textLength="42.0503" x="974.6299" y="1095.7651">Holding</text></g><g class="participant participant-head" data-entity-uid="part6" data-qualified-name="lot" id="part6-head"><rect fill="#FFFFFF" height="26.8047" rx="2.5" ry="2.5" style="stroke:#000000;stroke-width:1;" width="31.1714" x="1140.6987" y="97.6094"/><text fill="#000000" font-family="Verdana" font-size="11" lengthAdjust="spacing" textLength="17.1714" x="1147.6987" y="114.8198">Lot</text></g><g class="participant participant-tail" data-entity-uid="part6" data-qualified-name="lot" id="part6-tail"><rect fill="#FFFFFF" height="26.8047" rx="2.5" ry="2.5" style="stroke:#000000;stroke-width:1;" width="31.1714" x="1140.6987" y="1078.5547"/><text fill="#000000" font-family="Verdana" font-size="11" lengthAdjust="spacing" textLength="17.1714" x="1147.6987" y="1095.7651">Lot</text></g><g><title>REST Controller</title><rect fill="#FFFFFF" height="894.5313" style="stroke:#000000;stroke-width:1;" width="10" x="236.9417" y="167.0234"/></g><g><title>StockOperationsService</title><rect fill="#FFFFFF" height="828.1172" style="stroke:#000000;stroke-width:1;" width="10" x="475.5969" y="193.8281"/></g><g><title>Portfolio</title><rect fill="#FFFFFF" height="575.4844" style="stroke:#000000;stroke-width:1;" width="10" x="755.239" y="340.0469"/></g><g><title>Holding</title><rect fill="#FFFFFF" height="120.2188" style="stroke:#000000;stroke-width:1;" width="10" x="990.655" y="446.4609"/></g><g><title>Holding</title><rect fill="#FFFFFF" height="136.0234" style="stroke:#000000;stroke-width:1;" width="10" x="990.655" y="712.8984"/></g><g><title>Lot</title><rect fill="#FFFFFF" height="66.6094" style="stroke:#000000;stroke-width:1;" width="10" x="1151.2844" y="473.2656"/></g><g><title>Lot</title><rect fill="#FFFFFF" height="26.8047" style="stroke:#000000;stroke-width:1;" width="10" x="1151.2844" y="761.5078"/></g><g class="message" data-entity-1="part1" data-entity-2="part2" id="msg1"><polygon fill="#000000" points="224.9417,163.0234,234.9417,167.0234,224.9417,171.0234,228.9417,167.0234" style="stroke:#000000;stroke-width:1;"/><line style="stroke:#000000;stroke-width:1;" x1="28.9226" x2="230.9417" y1="167.0234" y2="167.0234"/><text fill="#000000" font-family="Verdana" font-size="11" lengthAdjust="spacing" textLength="127.9072" x="35.9226" y="149.6245">POST /settlement-sales</text><text fill="#000000" font-family="Verdana" font-size="11" lengthAdjust="spacing" textLength="154.1396" x="35.9226" y="162.4292">{ticker: AAPL, quantity: 10}</text></g><g class="message" data-entity-1="part2" data-entity-2="part3" id="msg2"><polygon fill="#000000" points="463.5969,189.8281,473.5969,193.8281,463.5969,197.8281,467.5969,193.8281" style="stroke:#000000;stroke-width:1;"/><line style="stroke:#000000;stroke-width:1;" x1="246.9417" x2="469.5969" y1="193.8281" y2="193.8281"/><text fill="#000000" font-family="Verdana" font-size="11" lengthAdjust="spacing" textLength="209.6553" x="253.9417" y="189.2339">sellStockWithSettlement(id, AAPL, 10)</text></g><g class="message" data-entity-1="part3" data-entity-2="part3" id="msg3"><line style="stroke:#000000;stroke-width:1;" x1="485.5969" x2="527.5969" y1="220.6328" y2="220.6328"/><line style="stroke:#000000;stroke-width:1;" x1="527.5969" x2="527.5969" y1="220.6328" y2="233.6328"/><line style="stroke:#000000;stroke-width:1;" x1="486.5969" x2="527.5969" y1="233.6328" y2="233.6328"/><polygon fill="#000000" points="496.5969,229.6328,486.5969,233.6328,496.5969,237.6328,492.5969,233.6328" style="stroke:#000000;stroke-width:1;"/><text fill="#000000" font-family="Verdana" font-size="11" lengthAdjust="spacing" textLength="133.9067" x="492.5969" y="216.0386">Load portfolio from repo</text></g><g class="message" data-entity-1="part3" data-entity-2="part3" id="msg4"><line style="stroke:#000000;stroke-width:1;" x1="485.5969" x2="527.5969" y1="260.4375" y2="260.4375"/><line style="stroke:#000000;stroke-width:1;" x1="527.5969" x2="527.5969" y1="260.4375" y2="273.4375"/><line style="stroke:#000000;stroke-width:1;" x1="486.5969" x2="527.5969" y1="273.4375" y2="273.4375"/><polygon fill="#000000" points="496.5969,269.4375,486.5969,273.4375,496.5969,277.4375,492.5969,273.4375" style="stroke:#000000;stroke-width:1;"/><text fill="#000000" font-family="Verdana" font-size="11" lengthAdjust="spacing" textLength="140.207" x="492.5969" y="255.8433">Fetch price from provider</text></g><g class="message" data-entity-1="part3" data-entity-2="part3" id="msg5"><line style="stroke:#000000;stroke-width:1;" x1="485.5969" x2="527.5969" y1="300.2422" y2="300.2422"/><line style="stroke:#000000;stroke-width:1;" x1="527.5969" x2="527.5969" y1="300.2422" y2="313.2422"/><line style="stroke:#000000;stroke-width:1;" x1="486.5969" x2="527.5969" y1="313.2422" y2="313.2422"/><polygon fill="#000000" points="496.5969,309.2422,486.5969,313.2422,496.5969,317.2422,492.5969,313.2422" style="stroke:#000000;stroke-width:1;"/><text fill="#000000" font-family="Verdana" font-size="11" lengthAdjust="spacing" textLength="211.3096" x="492.5969" y="295.6479">Compute fee = 0.1% &#215; grossProceeds</text></g><g class="message" data-entity-1="part3" data-entity-2="part4" id="msg6"><polygon fill="#000000" points="743.239,336.0469,753.239,340.0469,743.239,344.0469,747.239,340.0469" style="stroke:#000000;stroke-width:1;"/><line style="stroke:#000000;stroke-width:1;" x1="485.5969" x2="749.239" y1="340.0469" y2="340.0469"/><text fill="#000000" font-family="Verdana" font-size="11" lengthAdjust="spacing" textLength="250.6421" x="492.5969" y="335.4526">sellWithSettlement(AAPL, 10, price, fee, now)</text></g><g class="message" data-entity-1="part4" data-entity-2="part4" id="msg7"><line style="stroke:#000000;stroke-width:1;" x1="765.239" x2="807.239" y1="366.8516" y2="366.8516"/><line style="stroke:#000000;stroke-width:1;" x1="807.239" x2="807.239" y1="366.8516" y2="379.8516"/><line style="stroke:#000000;stroke-width:1;" x1="766.239" x2="807.239" y1="379.8516" y2="379.8516"/><polygon fill="#000000" points="776.239,375.8516,766.239,379.8516,776.239,383.8516,772.239,379.8516" style="stroke:#000000;stroke-width:1;"/><text fill="#000000" font-family="Verdana" font-size="11" lengthAdjust="spacing" textLength="117.7451" x="772.239" y="362.2573">Validate quantity &gt; 0</text></g><g class="message" data-entity-1="part4" data-entity-2="part4" id="msg8"><line style="stroke:#000000;stroke-width:1;" x1="765.239" x2="807.239" y1="406.6563" y2="406.6563"/><line style="stroke:#000000;stroke-width:1;" x1="807.239" x2="807.239" y1="406.6563" y2="419.6563"/><line style="stroke:#000000;stroke-width:1;" x1="766.239" x2="807.239" y1="419.6563" y2="419.6563"/><polygon fill="#000000" points="776.239,415.6563,766.239,419.6563,776.239,423.6563,772.239,419.6563" style="stroke:#000000;stroke-width:1;"/><text fill="#000000" font-family="Verdana" font-size="11" lengthAdjust="spacing" textLength="117.5142" x="772.239" y="402.062">Find holding for AAPL</text></g><g class="message" data-entity-1="part4" data-entity-2="part5" id="msg9"><polygon fill="#000000" points="978.655,442.4609,988.655,446.4609,978.655,450.4609,982.655,446.4609" style="stroke:#000000;stroke-width:1;"/><line style="stroke:#000000;stroke-width:1;" x1="765.239" x2="984.655" y1="446.4609" y2="446.4609"/><text fill="#000000" font-family="Verdana" font-size="11" lengthAdjust="spacing" textLength="126.9673" x="772.239" y="441.8667">getEligibleShares(now)</text></g><g class="message" data-entity-1="part5" data-entity-2="part6" id="msg10"><polygon fill="#000000" points="1139.2844,469.2656,1149.2844,473.2656,1139.2844,477.2656,1143.2844,473.2656" style="stroke:#000000;stroke-width:1;"/><line style="stroke:#000000;stroke-width:1;" x1="1000.655" x2="1145.2844" y1="473.2656" y2="473.2656"/><text fill="#000000" font-family="Verdana" font-size="11" lengthAdjust="spacing" textLength="118.6475" x="1007.655" y="468.6714">availableShares(now)</text></g><g class="message" data-entity-1="part6" data-entity-2="part6" id="msg11"><line style="stroke:#000000;stroke-width:1;" x1="1161.2844" x2="1203.2844" y1="500.0703" y2="500.0703"/><line style="stroke:#000000;stroke-width:1;" x1="1203.2844" x2="1203.2844" y1="500.0703" y2="513.0703"/><line style="stroke:#000000;stroke-width:1;" x1="1162.2844" x2="1203.2844" y1="513.0703" y2="513.0703"/><polygon fill="#000000" points="1172.2844,509.0703,1162.2844,513.0703,1172.2844,517.0703,1168.2844,513.0703" style="stroke:#000000;stroke-width:1;"/><text fill="#000000" font-family="Verdana" font-size="11" lengthAdjust="spacing" textLength="156.3794" x="1168.2844" y="495.4761">isSettled(now) &amp;&amp; !reserved</text></g><g class="message" data-entity-1="part6" data-entity-2="part5" id="msg12"><polygon fill="#000000" points="1011.655,535.875,1001.655,539.875,1011.655,543.875,1007.655,539.875" style="stroke:#000000;stroke-width:1;"/><line style="stroke:#000000;stroke-width:1;stroke-dasharray:2,2;" x1="1005.655" x2="1155.2844" y1="539.875" y2="539.875"/><text fill="#000000" font-family="Verdana" font-size="11" lengthAdjust="spacing" textLength="79.519" x="1017.655" y="535.2808">ShareQuantity</text></g><g class="message" data-entity-1="part5" data-entity-2="part4" id="msg13"><polygon fill="#000000" points="776.239,562.6797,766.239,566.6797,776.239,570.6797,772.239,566.6797" style="stroke:#000000;stroke-width:1;"/><line style="stroke:#000000;stroke-width:1;stroke-dasharray:2,2;" x1="770.239" x2="994.655" y1="566.6797" y2="566.6797"/><text fill="#000000" font-family="Verdana" font-size="11" lengthAdjust="spacing" textLength="69.9316" x="782.239" y="562.0854">eligible = 10</text></g><g class="message" data-entity-1="part4" data-entity-2="part4" id="msg14"><line style="stroke:#000000;stroke-width:1;" x1="765.239" x2="807.239" y1="593.4844" y2="593.4844"/><line style="stroke:#000000;stroke-width:1;" x1="807.239" x2="807.239" y1="593.4844" y2="606.4844"/><line style="stroke:#000000;stroke-width:1;" x1="766.239" x2="807.239" y1="606.4844" y2="606.4844"/><polygon fill="#000000" points="776.239,602.4844,766.239,606.4844,776.239,610.4844,772.239,606.4844" style="stroke:#000000;stroke-width:1;"/><text fill="#000000" font-family="Verdana" font-size="11" lengthAdjust="spacing" textLength="158.2915" x="772.239" y="588.8901">Check eligible &gt;= requested</text></g><g class="message" data-entity-1="part4" data-entity-2="part4" id="msg15"><line style="stroke:#000000;stroke-width:1;" x1="765.239" x2="807.239" y1="633.2891" y2="633.2891"/><line style="stroke:#000000;stroke-width:1;" x1="807.239" x2="807.239" y1="633.2891" y2="646.2891"/><line style="stroke:#000000;stroke-width:1;" x1="766.239" x2="807.239" y1="646.2891" y2="646.2891"/><polygon fill="#000000" points="776.239,642.2891,766.239,646.2891,776.239,650.2891,772.239,646.2891" style="stroke:#000000;stroke-width:1;"/><text fill="#000000" font-family="Verdana" font-size="11" lengthAdjust="spacing" textLength="201.416" x="772.239" y="628.6948">Compute netProceeds = gross &#8722; fee</text></g><g class="message" data-entity-1="part4" data-entity-2="part4" id="msg16"><line style="stroke:#000000;stroke-width:1;" x1="765.239" x2="807.239" y1="673.0938" y2="673.0938"/><line style="stroke:#000000;stroke-width:1;" x1="807.239" x2="807.239" y1="673.0938" y2="686.0938"/><line style="stroke:#000000;stroke-width:1;" x1="766.239" x2="807.239" y1="686.0938" y2="686.0938"/><polygon fill="#000000" points="776.239,682.0938,766.239,686.0938,776.239,690.0938,772.239,686.0938" style="stroke:#000000;stroke-width:1;"/><text fill="#000000" font-family="Verdana" font-size="11" lengthAdjust="spacing" textLength="158.6729" x="772.239" y="668.4995">Validate balance + net &gt;= 0</text></g><g class="message" data-entity-1="part4" data-entity-2="part5" id="msg17"><polygon fill="#000000" points="978.655,708.8984,988.655,712.8984,978.655,716.8984,982.655,712.8984" style="stroke:#000000;stroke-width:1;"/><line style="stroke:#000000;stroke-width:1;" x1="765.239" x2="984.655" y1="712.8984" y2="712.8984"/><text fill="#000000" font-family="Verdana" font-size="11" lengthAdjust="spacing" textLength="144.4341" x="772.239" y="708.3042">sellSettled(10, price, now)</text></g><path d="M947.6299,727.8984 L1019.3887,727.8984 L1019.3887,732.7031 L1009.3887,742.7031 L947.6299,742.7031 L947.6299,727.8984" fill="#FFFFFF" style="stroke:#000000;stroke-width:1;"/><rect fill="none" height="95.2188" style="stroke:#000000;stroke-width:1;" width="258.3647" x="947.6299" y="727.8984"/><text fill="#000000" font-family="Verdana" font-size="11" font-weight="bold" lengthAdjust="spacing" textLength="26.7588" x="962.6299" y="739.1089">loop</text><text fill="#000000" font-family="Verdana" font-size="11" font-weight="bold" lengthAdjust="spacing" textLength="166.606" x="1034.3887" y="740.1089">[for each lot in FIFO order]</text><g class="message" data-entity-1="part5" data-entity-2="part6" id="msg18"><polygon fill="#000000" points="1139.2844,757.5078,1149.2844,761.5078,1139.2844,765.5078,1143.2844,761.5078" style="stroke:#000000;stroke-width:1;"/><line style="stroke:#000000;stroke-width:1;" x1="1000.655" x2="1145.2844" y1="761.5078" y2="761.5078"/><text fill="#000000" font-family="Verdana" font-size="11" lengthAdjust="spacing" textLength="131.6294" x="1007.655" y="756.9136">isAvailableForSale(now)</text></g><g class="message" data-entity-1="part6" data-entity-2="part5" id="msg19"><polygon fill="#000000" points="1011.655,784.3125,1001.655,788.3125,1011.655,792.3125,1007.655,788.3125" style="stroke:#000000;stroke-width:1;"/><line style="stroke:#000000;stroke-width:1;stroke-dasharray:2,2;" x1="1005.655" x2="1155.2844" y1="788.3125" y2="788.3125"/><text fill="#000000" font-family="Verdana" font-size="11" lengthAdjust="spacing" textLength="52.4487" x="1017.655" y="783.7183">true/false</text></g><g class="message" data-entity-1="part5" data-entity-2="part6" id="msg20"><polygon fill="#000000" points="1144.2844,811.1172,1154.2844,815.1172,1144.2844,819.1172,1148.2844,815.1172" style="stroke:#000000;stroke-width:1;"/><line style="stroke:#000000;stroke-width:1;" x1="1000.655" x2="1150.2844" y1="815.1172" y2="815.1172"/><text fill="#000000" font-family="Verdana" font-size="11" lengthAdjust="spacing" textLength="83.1069" x="1007.655" y="810.5229">reduce(shares)</text></g><g class="message" data-entity-1="part5" data-entity-2="part4" id="msg21"><polygon fill="#000000" points="776.239,844.9219,766.239,848.9219,776.239,852.9219,772.239,848.9219" style="stroke:#000000;stroke-width:1;"/><line style="stroke:#000000;stroke-width:1;stroke-dasharray:2,2;" x1="770.239" x2="994.655" y1="848.9219" y2="848.9219"/><text fill="#000000" font-family="Verdana" font-size="11" lengthAdjust="spacing" textLength="172.0791" x="782.239" y="844.3276">SellResult(proceeds, costBasis)</text></g><g class="message" data-entity-1="part4" data-entity-2="part4" id="msg22"><line style="stroke:#000000;stroke-width:1;" x1="765.239" x2="807.239" y1="875.7266" y2="875.7266"/><line style="stroke:#000000;stroke-width:1;" x1="807.239" x2="807.239" y1="875.7266" y2="888.7266"/><line style="stroke:#000000;stroke-width:1;" x1="766.239" x2="807.239" y1="888.7266" y2="888.7266"/><polygon fill="#000000" points="776.239,884.7266,766.239,888.7266,776.239,892.7266,772.239,888.7266" style="stroke:#000000;stroke-width:1;"/><text fill="#000000" font-family="Verdana" font-size="11" lengthAdjust="spacing" textLength="136.9683" x="772.239" y="871.1323">balance += netProceeds</text></g><g class="message" data-entity-1="part4" data-entity-2="part3" id="msg23"><polygon fill="#000000" points="496.5969,911.5313,486.5969,915.5313,496.5969,919.5313,492.5969,915.5313" style="stroke:#000000;stroke-width:1;"/><line style="stroke:#000000;stroke-width:1;stroke-dasharray:2,2;" x1="490.5969" x2="759.239" y1="915.5313" y2="915.5313"/><text fill="#000000" font-family="Verdana" font-size="11" lengthAdjust="spacing" textLength="243.1763" x="502.5969" y="910.937">SellResult.withFee(proceeds, costBasis, fee)</text></g><g class="message" data-entity-1="part3" data-entity-2="part3" id="msg24"><line style="stroke:#000000;stroke-width:1;" x1="485.5969" x2="527.5969" y1="942.3359" y2="942.3359"/><line style="stroke:#000000;stroke-width:1;" x1="527.5969" x2="527.5969" y1="942.3359" y2="955.3359"/><line style="stroke:#000000;stroke-width:1;" x1="486.5969" x2="527.5969" y1="955.3359" y2="955.3359"/><polygon fill="#000000" points="496.5969,951.3359,486.5969,955.3359,496.5969,959.3359,492.5969,955.3359" style="stroke:#000000;stroke-width:1;"/><text fill="#000000" font-family="Verdana" font-size="11" lengthAdjust="spacing" textLength="76.4897" x="492.5969" y="937.7417">Save portfolio</text></g><g class="message" data-entity-1="part3" data-entity-2="part3" id="msg25"><line style="stroke:#000000;stroke-width:1;" x1="485.5969" x2="527.5969" y1="982.1406" y2="982.1406"/><line style="stroke:#000000;stroke-width:1;" x1="527.5969" x2="527.5969" y1="982.1406" y2="995.1406"/><line style="stroke:#000000;stroke-width:1;" x1="486.5969" x2="527.5969" y1="995.1406" y2="995.1406"/><polygon fill="#000000" points="496.5969,991.1406,486.5969,995.1406,496.5969,999.1406,492.5969,995.1406" style="stroke:#000000;stroke-width:1;"/><text fill="#000000" font-family="Verdana" font-size="11" lengthAdjust="spacing" textLength="104.3281" x="492.5969" y="977.5464">Record transaction</text></g><g class="message" data-entity-1="part3" data-entity-2="part2" id="msg26"><polygon fill="#000000" points="257.9417,1017.9453,247.9417,1021.9453,257.9417,1025.9453,253.9417,1021.9453" style="stroke:#000000;stroke-width:1;"/><line style="stroke:#000000;stroke-width:1;stroke-dasharray:2,2;" x1="251.9417" x2="479.5969" y1="1021.9453" y2="1021.9453"/><text fill="#000000" font-family="Verdana" font-size="11" lengthAdjust="spacing" textLength="54.3447" x="263.9417" y="1017.3511">SellResult</text></g><g class="message" data-entity-1="part2" data-entity-2="part1" id="msg27"><polygon fill="#000000" points="39.9226,1057.5547,29.9226,1061.5547,39.9226,1065.5547,35.9226,1061.5547" style="stroke:#000000;stroke-width:1;"/><line style="stroke:#000000;stroke-width:1;stroke-dasharray:2,2;" x1="33.9226" x2="240.9417" y1="1061.5547" y2="1061.5547"/><text fill="#000000" font-family="Verdana" font-size="11" lengthAdjust="spacing" textLength="40.3638" x="45.9226" y="1044.1558">200 OK</text><text fill="#000000" font-family="Verdana" font-size="11" lengthAdjust="spacing" textLength="184.019" x="45.9226" y="1056.9604">{proceeds, costBasis, profit, fee}</text></g><?plantuml-src bLJ1RXCn4BtlLqmhKQKYRJSS8xLIYBe2KPIGHN3XukvEibOSUsixgG1Lwf4pGkA3-9D-2MFlRdQT9XBa42NscpTlvetdo1QuGYW5up8oIovBfjaASfopjR29aZRbtn06WyXoAn1cF2lWlSfHmDFZBqZHqkaAfJqRtJEDT204VTsjKMOOHIopIiDOS494H6rvnaicBHpFhjEFC2P-hOH0VGpCG6Qr256fLTboKg9cbYjfKjGRdg47cqqMOgTAsxaINFdhilaNWjueaNEvy92Y-Xq2RfJrbqBPAAg4mzcLbmP3c4v8zOLfgpPCeFaYlnF14lKGHgFfJH_kriJ5xTSX3E87rmI-OHQh-Y9FHPHK034QQfYlyZEtHTlE7i_xDTaWFcqfNDMHYzmIt2YMjzN2NAiLQ2nLY4hGad6bfkvLa5Ah3SzHXx2nMfLhIZD7X4k8pmSluCzlM6Xbp5Ih334ts_HjpggAdG8QyVqgQzznza6g-qurhKbHoxP3_Oa9dZjmqrIuWlWmFE4oRvo5EGsVqn72cziXBD1U2xxWjmBJWiRNz49zpOGq4HHCSq61RCEuO8V2tEmut1REJTMOt0FXv0IEA8g66VCA6AZod1_gQgCS0zwjb9swiQw3R1l4tQ2cXiCj6nUOBLk2gqkQ7th0nfAwmq7rf4YqpMHGQZyfyFJZftFx7pozPOBHee2NZiTbZgD3Nlc7KdUnCrNx3HDAbTvzwaFXJU0IahV919HsGm_qUMOgDwF6raJfb5vsvQi31nwuW-UsMRt6YpaJ1ZrWnxUz6JNcwmnxnW_HQOGoF-YlMwmpDBIKUsNTxpvaojZNp72A_I_7jss_xFhNnMytGflt_9uUU8AuBxz_tO68pjCEDapADjtBu6w66Tb3ZMJIE28bg_js_xPgkhdyKgpMAa7hfJs4Lt4CatUqdFSAfiCvjrxuGvVCyVm5?></g></svg>