<svg xmlns="http://www.w3.org/2000/svg" xmlns:xlink="http://www.w3.org/1999/xlink" contentStyleType="text/css" data-diagram-type="DESCRIPTION" height="450px" preserveAspectRatio="none" style="width:1195px;height:450px;background:#FFFFFF;" version="1.1" viewBox="0 0 1195 450" width="1195px" zoomAndPan="magnify"><?plantuml 1.2026.6?><defs/><g><g class="title" data-source-line="1"><text fill="#000000" font-family="Arial" font-size="20" font-weight="700" lengthAdjust="spacing" textLength="552.3828" x="317.8697" y="28.7598">Despr&#233;s: port de sortida i adaptador per localitzar el canvi</text></g><!--cluster CORE--><g class="cluster" data-qualified-name="CORE" data-source-line="12" id="ent0001"><rect fill="#EEF6F2" height="246.59" rx="2.5" ry="2.5" style="stroke:#181818;stroke-width:1;" width="385" x="7" y="50.998"/><text fill="#000000" font-family="Arial" font-size="16" font-weight="700" lengthAdjust="spacing" textLength="143.4063" x="127.7969" y="68.0059">Nucli de l'aplicaci&#243;</text></g><!--cluster INFRA--><g class="cluster" data-qualified-name="INFRA" data-source-line="18" id="ent0005"><rect fill="#F7F7F7" height="385.39" rx="2.5" ry="2.5" style="stroke:#181818;stroke-width:1;" width="272" x="431" y="50.998"/><text fill="#000000" font-family="Arial" font-size="16" font-weight="700" lengthAdjust="spacing" textLength="112.9219" x="510.5391" y="68.0059">Infraestructura</text></g><!--entity USECASE--><g class="entity" data-qualified-name="CORE.USECASE" data-source-line="13" id="ent0002"><rect fill="#DDEFE6" height="56.7969" rx="2.5" ry="2.5" style="stroke:#181818;stroke-width:0.5;" width="137.7656" x="86.12" y="87.998"/><text fill="#000000" font-family="Arial" font-size="16" lengthAdjust="spacing" textLength="117.7656" x="96.12" y="113.0059">Cas d'&#250;s / servei</text><text fill="#000000" font-family="Arial" font-size="16" lengthAdjust="spacing" textLength="74.2109" x="96.12" y="131.4043">d'aplicaci&#243;</text></g><!--entity DOMAIN--><g class="entity" data-qualified-name="CORE.DOMAIN" data-source-line="14" id="ent0003"><rect fill="#DDEFE6" height="56.7969" rx="2.5" ry="2.5" style="stroke:#181818;stroke-width:0.5;" width="192.5234" x="22.74" y="224.798"/><text fill="#000000" font-family="Arial" font-size="16" lengthAdjust="spacing" textLength="117.3984" x="32.74" y="249.8059">Model de domini</text><text fill="#000000" font-family="Arial" font-size="16" lengthAdjust="spacing" textLength="172.5234" x="32.74" y="268.2043">(regles del procediment)</text></g><!--entity PORT--><g class="entity" data-qualified-name="CORE.PORT" data-source-line="15" id="ent0004"><ellipse cx="367" cy="253.188" fill="#FFFFFF" rx="8" ry="8" style="stroke:#181818;stroke-width:0.5;"/><text fill="#000000" font-family="Arial" font-size="16" lengthAdjust="spacing" textLength="104.0547" x="284.5508" y="285.1959">Port de sortida</text><text fill="#000000" font-family="Arial" font-size="16" lengthAdjust="spacing" textLength="164.8984" x="284.5508" y="303.5943">Necessitat d'informaci&#243;</text><text fill="#000000" font-family="Arial" font-size="16" lengthAdjust="spacing" textLength="98.7031" x="284.5508" y="321.9927">administrativa</text></g><!--entity ADAPTER--><g class="entity" data-qualified-name="INFRA.ADAPTER" data-source-line="19" id="ent0006"><rect fill="#FFF3D6" height="56.7969" rx="2.5" ry="2.5" style="stroke:#181818;stroke-width:0.5;" width="240.5234" x="446.74" y="87.998"/><text fill="#000000" font-family="Arial" font-size="16" lengthAdjust="spacing" textLength="115.625" x="456.74" y="113.0059">Adaptador PICA</text><text fill="#000000" font-family="Arial" font-size="16" lengthAdjust="spacing" textLength="220.5234" x="456.74" y="131.4043">SOAP / XML / mapping / errors</text></g><!--entity PICA--><g class="entity" data-qualified-name="INFRA.PICA" data-source-line="20" id="ent0007"><rect fill="#F4F4F4" height="38.3984" rx="2.5" ry="2.5" style="stroke:#181818;stroke-width:0.5;" width="57.3438" x="511.33" y="233.998"/><text fill="#000000" font-family="Arial" font-size="16" lengthAdjust="spacing" textLength="37.3438" x="521.33" y="259.0059">PICA</text></g><!--entity EXT--><g class="entity" data-qualified-name="INFRA.EXT" data-source-line="21" id="ent0008"><rect fill="#F4F4F4" height="56.7969" rx="2.5" ry="2.5" style="stroke:#181818;stroke-width:0.5;" width="176.5" x="451.75" y="363.588"/><text fill="#000000" font-family="Arial" font-size="16" lengthAdjust="spacing" textLength="156.5" x="461.75" y="388.5959">Serveis administratius</text><text fill="#000000" font-family="Arial" font-size="16" lengthAdjust="spacing" textLength="52.4688" x="461.75" y="406.9943">externs</text></g><g class="entity" data-qualified-name="GMN14" data-source-line="31" id="ent0015"><path d="M959.88,229.798 L959.88,276.5949 L1180.1222,276.5949 L1180.1222,239.798 L1170.1222,229.798 L959.88,229.798" fill="#FEFFDD" style="stroke:#181818;stroke-width:0.5;"/><path d="M1170.1222,229.798 L1170.1222,239.798 L1180.1222,239.798 L1170.1222,229.798" fill="#FEFFDD" style="stroke:#181818;stroke-width:1;"/><text fill="#000000" font-family="Arial" font-size="16" lengthAdjust="spacing" textLength="199.2422" x="965.88" y="249.8059">El port pertany al llenguatge</text><text fill="#000000" font-family="Arial" font-size="16" lengthAdjust="spacing" textLength="95.5547" x="965.88" y="268.2043">de l'aplicaci&#243;.</text></g><g class="entity" data-qualified-name="GMN17" data-source-line="36" id="ent0018"><path d="M719,229.798 L719,276.5949 L925,276.5949 L925,239.798 L915,229.798 L719,229.798" fill="#FEFFDD" style="stroke:#181818;stroke-width:0.5;"/><path d="M915,229.798 L915,239.798 L925,239.798 L915,229.798" fill="#FEFFDD" style="stroke:#181818;stroke-width:1;"/><text fill="#000000" font-family="Arial" font-size="16" lengthAdjust="spacing" textLength="185" x="725" y="249.8059">Els detalls t&#232;cnics queden</text><text fill="#000000" font-family="Arial" font-size="16" lengthAdjust="spacing" textLength="116.9141" x="725" y="268.2043">dins l'adaptador.</text></g><!--link USECASE to DOMAIN--><g class="link" data-entity-1="ent0002" data-entity-2="ent0003" data-link-type="dependency" data-source-line="24" id="lnk9"><path d="M85.73,144.228 C73.45,152.188 62.27,162.238 55,174.798 C44.69,192.598 53.6455,207.2293 70.4355,221.2793" fill="none" id="USECASE-to-DOMAIN" style="stroke:#444444;stroke-width:1;"/><polygon fill="#444444" points="74.27,224.488,69.9348,215.6446,70.4355,221.2793,64.8008,221.7799,74.27,224.488" style="stroke:#444444;stroke-width:1;stroke-linejoin:miter;stroke-miterlimit:10;"/><text fill="#000000" font-family="Arial" font-size="16" lengthAdjust="spacing" textLength="119.1953" x="56" y="190.8059">delega decisions</text></g><!--link USECASE to PORT--><g class="link" data-entity-1="ent0002" data-entity-2="ent0004" data-link-type="dependency" data-source-line="25" id="lnk10"><path d="M197.25,145.228 C219.92,160.068 248.39,178.568 274,194.798 C304.45,214.088 336.6574,233.7609 353.4374,243.9609" fill="none" id="USECASE-to-PORT" style="stroke:#444444;stroke-width:1;"/><polygon fill="#444444" points="357.71,246.558,352.0971,238.4651,353.4374,243.9609,347.9417,245.3012,357.71,246.558" style="stroke:#444444;stroke-width:1;stroke-linejoin:miter;stroke-miterlimit:10;"/><text fill="#000000" font-family="Arial" font-size="16" lengthAdjust="spacing" textLength="155.6563" x="275" y="190.8059">declara qu&#232; necessita</text></g><!--link ADAPTER to PORT--><g class="link" data-entity-1="ent0006" data-entity-2="ent0004" data-link-type="extension" data-source-line="26" id="lnk11"><path d="M509.94,145.268 C493.43,154.058 475.64,164.248 460,174.798 C426.91,197.108 404.8553,216.6416 388.9053,231.5616" fill="none" id="ADAPTER-to-PORT" style="stroke:#444444;stroke-width:1;stroke-dasharray:7,7;"/><polygon fill="none" points="375.76,243.858,393.0041,235.9434,384.8065,227.1799,375.76,243.858" style="stroke:#444444;stroke-width:1;stroke-linejoin:miter;stroke-miterlimit:10;"/><text fill="#000000" font-family="Arial" font-size="16" lengthAdjust="spacing" textLength="82.7031" x="461" y="190.8059">implementa</text></g><!--link ADAPTER to PICA--><g class="link" data-entity-1="ent0006" data-entity-2="ent0007" data-link-type="dependency" data-source-line="27" id="lnk12"><path d="M561.47,144.998 C556.16,171.498 549.2839,205.8758 544.6839,228.7958" fill="none" id="ADAPTER-to-PICA" style="stroke:#444444;stroke-width:1;"/><polygon fill="#444444" points="543.7,233.698,549.3928,225.6611,544.6839,228.7958,541.5492,224.0869,543.7,233.698" style="stroke:#444444;stroke-width:1;stroke-linejoin:miter;stroke-miterlimit:10;"/><text fill="#000000" font-family="Arial" font-size="16" lengthAdjust="spacing" textLength="145.8438" x="556.12" y="190.8059">resol com obtenir-ho</text></g><!--link PICA to EXT--><g class="link" data-entity-1="ent0007" data-entity-2="ent0008" data-link-type="dependency" data-source-line="28" id="lnk13"><path d="M540,272.638 C540,295.908 540,331.118 540,358.138" fill="none" id="PICA-to-EXT" style="stroke:#444444;stroke-width:1;"/><polygon fill="#444444" points="540,363.138,544,354.138,540,358.138,536,354.138,540,363.138" style="stroke:#444444;stroke-width:1;stroke-linejoin:miter;stroke-miterlimit:10;"/><text fill="#000000" font-family="Arial" font-size="16" lengthAdjust="spacing" textLength="59.5938" x="541" y="329.5959">consulta</text></g><!--link PORT to GMN14--><g class="link" data-entity-1="ent0004" data-entity-2="ent0015" data-link-type="association" data-source-line="31" id="lnk16"><path d="M374.29,243.798 C387.21,227.988 415.87,196.678 448.5,184.798 C547.9,148.608 821.27,161.738 924.5,184.798 C962.91,193.368 1003.15,213.248 1031.55,229.378" fill="none" id="PORT-GMN14" style="stroke:#444444;stroke-width:1;stroke-dasharray:7,7;"/></g><!--link ADAPTER to GMN17--><g class="link" data-entity-1="ent0006" data-entity-2="ent0018" data-link-type="association" data-source-line="36" id="lnk19"><path d="M645.25,145.158 C666.68,153.738 689.62,163.838 710,174.798 C739.77,190.798 771.23,213.068 793.2,229.618" fill="none" id="ADAPTER-GMN17" style="stroke:#444444;stroke-width:1;stroke-dasharray:7,7;"/></g><?plantuml-src TLF1Rjim3BtxAuZsqEtGTkkA3iXXW94uG80r2P8Ew24NLc9SeJBbINAxTjl_TEVTTisFZNAQr0as2x0ClwT7yf6A9bg20ONQhtw57jJEHz04GNQZ4GoWnZgYTXvgyc2TGclY4teW2mhvtcHPk3DSeySARb3TbTurhFlEof73OVjq6E5Mj1uCbx146wY3Q5fYO-FGSHnZHP1xW_RV-Dmy4Ro_w80nrR65pjvr8EMgsZ4951-bLayg8fUs6xgMjB6a_nDoxzt3IqddxPDbBuVWODmeQv9fzWXhQnGgi_fz01YWFvaLS5WKmulX6NpFu3KNEEWBhezMVmASGY1_JsR1Ub_WoxpevtFH60oAON6ngt3fjFH0ucfN6PRZRpn9sY8hlsll56bJ2VDjApMONEQZSKV9S2I_H2KLJ7Uxlk0nAGh1H9JVHuQNpbTjKWj6dMA5w36QUsoLfvFPrRRJFpl6Z7ZfaOJRgDZuDNaq7ivoONzCQz-JV3jhqr4_N_1yaa_5dklBp_AkiAxJt9m2IJTyQENoGJwzAcPj-0-3FOEIo3f3-H3AULgxb7dhV81kMKrOC7qJStWTexY-sXwMyZOzEJx-j36rbood4cLJ9XZ7OOVL6fGuoieqmTTczGoySJZRb71oycDBDLLjAVNk5Mw5KXqzcT3WRAe2t4qaDlxurcKjbaWftPwW7EIsO9QnYpBKfhoDu9Pj0B6WiEkhBdTQXlqHq8Arn6M3iIJ1zwRv92FMa9HUz6vSZ2d-SjE1LZEDNaGhUrmzApOgIB6aYPEYuP0qDotkIFu5?></g></svg>