<?plantuml 1.2026.2?><svg xmlns="http://www.w3.org/2000/svg" xmlns:xlink="http://www.w3.org/1999/xlink" contentStyleType="text/css" data-diagram-type="DESCRIPTION" height="496px" preserveAspectRatio="none" style="width:783px;height:496px;background:#FFFFFF;" version="1.1" viewBox="0 0 783 496" width="783px" zoomAndPan="magnify"><title>Comparaci&#243; final: localitzar el canvi</title><defs/><g><g class="title" data-source-line="1"><text fill="#000000" font-family="Arial" font-size="20" font-weight="bold" lengthAdjust="spacing" textLength="402.998" x="183.476" y="28.5645">Comparaci&#243; final: localitzar el canvi</text></g><!--cluster BEFORE--><g class="cluster" data-qualified-name="BEFORE" data-source-line="12" id="ent0002"><rect fill="#F8E9E9" height="439.5" rx="2.5" ry="2.5" style="stroke:#181818;stroke-width:1;" width="196" x="581.95" y="51.2813"/><text fill="#000000" font-family="Arial" font-size="16" font-weight="bold" lengthAdjust="spacing" textLength="176.3906" x="591.7547" y="68.1328">Acoblament directe</text></g><!--cluster AFTER--><g class="cluster" data-qualified-name="AFTER" data-source-line="22" id="ent0010"><rect fill="#EEF6F2" height="213.63" rx="2.5" ry="2.5" style="stroke:#181818;stroke-width:1;" width="363" x="20.95" y="51.2813"/><text fill="#000000" font-family="Arial" font-size="16" font-weight="bold" lengthAdjust="spacing" textLength="213.3594" x="95.7703" y="68.1328">Arquitectura hexagonal</text></g><!--entity B_USE--><g class="entity" data-qualified-name="BEFORE.B_USE" data-source-line="13" id="ent0003"><rect fill="#F1F1F1" height="38.625" rx="2.5" ry="2.5" style="stroke:#181818;stroke-width:0.5;" width="87.4297" x="636.24" y="88.2813"/><text fill="#000000" font-family="Arial" font-size="16" lengthAdjust="spacing" textLength="67.4297" x="646.24" y="113.1328">Cas d'&#250;s</text></g><!--entity B_CLIENT--><g class="entity" data-qualified-name="BEFORE.B_CLIENT" data-source-line="14" id="ent0004"><rect fill="#F1F1F1" height="38.625" rx="2.5" ry="2.5" style="stroke:#181818;stroke-width:0.5;" width="162.0234" x="598.94" y="198.5913"/><text fill="#000000" font-family="Arial" font-size="16" lengthAdjust="spacing" textLength="142.0234" x="608.94" y="223.4428">Client API concret</text></g><!--entity B_PROTOCOL--><g class="entity" data-qualified-name="BEFORE.B_PROTOCOL" data-source-line="15" id="ent0005"><rect fill="#F1F1F1" height="57.25" rx="2.5" ry="2.5" style="stroke:#181818;stroke-width:0.5;" width="120.0625" x="619.92" y="308.9113"/><text fill="#000000" font-family="Arial" font-size="16" lengthAdjust="spacing" textLength="100.0625" x="629.92" y="333.7628">SOAP / REST</text><text fill="#000000" font-family="Arial" font-size="16" lengthAdjust="spacing" textLength="88.6797" x="629.92" y="352.3878">JSON / XML</text></g><!--entity B_PROVIDER--><g class="entity" data-qualified-name="BEFORE.B_PROVIDER" data-source-line="16" id="ent0006"><path d="M608.0468,434.1712 C611.507,428.8246 616.0442,429.8939 618.8579,434.8496 C622.2469,426.8706 626.9505,426.925 632.5009,432.7068 C635.8436,427.5857 640.6595,427.3459 644.5238,432.0699 C647.714,425.2343 651.7063,424.8614 657.2375,429.4689 C660.2644,422.5967 665.7503,422.5557 669.4887,428.8045 C671.5181,422.801 675.7875,422.5037 680.0728,426.3904 C685.6215,419.8946 690.1712,422.0301 693.3591,428.7617 C696.9431,423.7833 702.0008,422.8416 705.2274,429.1379 C710.2967,423.1777 715.7963,424.1171 718.681,431.3633 C722.4099,427.6078 726.6712,427.697 729.1457,432.8387 C733.707,426.2288 738.4747,428.1885 741.8804,434.0214 C745.8678,427.4675 751.2406,429.2505 754.6683,434.6217 C764.5114,437.7014 766.0236,444.6537 759.8648,452.4085 C766.5328,459.5486 764.7979,465.8394 754.9696,467.6978 C752.4803,474.1566 747.1246,473.9035 743.401,468.9489 C739.6826,473.6967 734.2243,474.5418 731.2743,468.115 C727.3016,475.5451 722.6397,475.2067 717.5359,469.2783 C713.0227,476.1469 708.8478,476.08 704.62,469.0138 C701.3829,475.5684 696.3261,475.3743 692.8246,469.26 C688.9425,474.0428 683.6335,474.2702 680.4765,468.418 C677.5155,473.9043 674.2221,474.4247 669.6977,470.1432 C664.5056,475.6495 659.3393,475.8556 655.9217,468.2752 C652.5357,473.514 647.1432,474.0559 643.2991,468.8277 C640.2926,474.5529 635.2715,474.46 632.589,468.53 C628.2332,473.8292 624.0502,474.3128 620.6352,467.5941 C616.2693,473.6656 611.1826,474.4497 606.656,467.7702 C598.9177,464.8411 596.3531,458.1676 603.0111,451.9266 C596.525,444.7794 598.1773,436.6797 608.0468,434.1712" fill="#F1F1F1" style="stroke:#181818;stroke-width:0.5;"/><text fill="#000000" font-family="Arial" font-size="16" lengthAdjust="spacing" textLength="133.5313" x="613.18" y="456.0128">Prove&#239;dor extern</text></g><!--entity A_USE--><g class="entity" data-qualified-name="AFTER.A_USE" data-source-line="23" id="ent0011"><rect fill="#F1F1F1" height="38.625" rx="2.5" ry="2.5" style="stroke:#181818;stroke-width:0.5;" width="87.4297" x="59.24" y="88.2813"/><text fill="#000000" font-family="Arial" font-size="16" lengthAdjust="spacing" textLength="67.4297" x="69.24" y="113.1328">Cas d'&#250;s</text></g><!--entity A_PORT--><g class="entity" data-qualified-name="AFTER.A_PORT" data-source-line="24" id="ent0012"><ellipse cx="102.95" cy="217.9113" fill="#F1F1F1" rx="8" ry="8" style="stroke:#181818;stroke-width:0.5;"/><text fill="#000000" font-family="Arial" font-size="16" lengthAdjust="spacing" textLength="117.8438" x="44.0281" y="249.7628">Port de sortida</text></g><!--entity A_ADAPTER--><g class="entity" data-qualified-name="AFTER.A_ADAPTER" data-source-line="25" id="ent0013"><rect fill="#F1F1F1" height="38.625" rx="2.5" ry="2.5" style="stroke:#181818;stroke-width:0.5;" width="103.6641" x="208.12" y="88.2813"/><text fill="#000000" font-family="Arial" font-size="16" lengthAdjust="spacing" textLength="83.6641" x="218.12" y="113.1328">Adaptador</text></g><!--entity A_PROVIDER--><g class="entity" data-qualified-name="AFTER.A_PROVIDER" data-source-line="26" id="ent0014"><path d="M214.0468,201.6012 C217.507,196.2546 222.0442,197.3239 224.8579,202.2796 C228.2469,194.3006 232.9505,194.355 238.5009,200.1368 C241.8436,195.0157 246.6595,194.7759 250.5238,199.4999 C253.714,192.6643 257.7063,192.2914 263.2375,196.8989 C266.2644,190.0267 271.7503,189.9857 275.4887,196.2345 C277.5181,190.231 281.7875,189.9337 286.0728,193.8204 C291.6215,187.3246 296.1712,189.4601 299.3591,196.1917 C302.9431,191.2133 308.0008,190.2716 311.2274,196.5679 C316.2967,190.6077 321.7963,191.5471 324.681,198.7933 C328.4099,195.0378 332.6712,195.127 335.1457,200.2687 C339.707,193.6588 344.4747,195.6185 347.8804,201.4514 C351.8678,194.8975 357.2406,196.6805 360.6683,202.0517 C370.5114,205.1314 372.0236,212.0837 365.8648,219.8385 C372.5328,226.9786 370.7979,233.2694 360.9696,235.1278 C358.4803,241.5866 353.1246,241.3335 349.401,236.3789 C345.6826,241.1267 340.2243,241.9718 337.2743,235.545 C333.3016,242.9751 328.6397,242.6367 323.5359,236.7083 C319.0227,243.5769 314.8478,243.51 310.62,236.4438 C307.3829,242.9984 302.3261,242.8043 298.8246,236.69 C294.9425,241.4728 289.6335,241.7002 286.4765,235.848 C283.5155,241.3343 280.2221,241.8547 275.6977,237.5732 C270.5056,243.0795 265.3393,243.2856 261.9217,235.7052 C258.5357,240.944 253.1432,241.4859 249.2991,236.2577 C246.2926,241.9829 241.2715,241.89 238.589,235.96 C234.2332,241.2592 230.0502,241.7428 226.6352,235.0241 C222.2693,241.0956 217.1826,241.8797 212.656,235.2002 C204.9177,232.2711 202.3531,225.5976 209.0111,219.3566 C202.525,212.2094 204.1773,204.1097 214.0468,201.6012" fill="#F1F1F1" style="stroke:#181818;stroke-width:0.5;"/><text fill="#000000" font-family="Arial" font-size="16" lengthAdjust="spacing" textLength="133.5313" x="219.18" y="223.4428">Prove&#239;dor extern</text></g><g class="entity" data-qualified-name="GMN18" data-source-line="33" id="ent0019"><path d="M6,323.2213 L6,351.8463 A0,0 0 0 0 6,351.8463 L565.8906,351.8463 A0,0 0 0 0 565.8906,351.8463 L565.8906,333.2213 L555.8906,323.2213 L289.95,323.2213 L285.95,242.7113 L281.95,323.2213 L6,323.2213 A0,0 0 0 0 6,323.2213" fill="#FEFFDD" style="stroke:#181818;stroke-width:0.5;"/><path d="M555.8906,323.2213 L555.8906,333.2213 L565.8906,333.2213 L555.8906,323.2213" fill="#FEFFDD" style="stroke:#181818;stroke-width:0.5;"/><text fill="#000000" font-family="Arial" font-size="16" lengthAdjust="spacing" textLength="538.8906" x="12" y="343.0728">Canvia el prove&#239;dor: canvia l'adaptador, no el domini ni el cas d'&#250;s.</text></g><!--link B_USE to B_CLIENT--><g class="link" data-entity-1="ent0003" data-entity-2="ent0004" data-link-type="dependency" data-source-line="17" id="lnk7"><path d="M679.95,126.9713 C679.95,146.8813 679.95,172.4912 679.95,192.4413" fill="none" id="B_USE-to-B_CLIENT" style="stroke:#444444;stroke-width:1;"/><polygon fill="#444444" points="679.95,198.4413,683.95,189.4413,679.95,193.4413,675.95,189.4413,679.95,198.4413" style="stroke:#444444;stroke-width:1;"/></g><!--link B_CLIENT to B_PROTOCOL--><g class="link" data-entity-1="ent0004" data-entity-2="ent0005" data-link-type="dependency" data-source-line="18" id="lnk8"><path d="M679.95,237.5413 C679.95,256.7213 679.95,280.8113 679.95,302.7813" fill="none" id="B_CLIENT-to-B_PROTOCOL" style="stroke:#444444;stroke-width:1;"/><polygon fill="#444444" points="679.95,308.7813,683.95,299.7813,679.95,303.7813,675.95,299.7813,679.95,308.7813" style="stroke:#444444;stroke-width:1;"/></g><!--link B_PROTOCOL to B_PROVIDER--><g class="link" data-entity-1="ent0005" data-entity-2="ent0006" data-link-type="dependency" data-source-line="19" id="lnk9"><path d="M679.95,366.5213 C679.95,384.8813 679.95,402.6113 679.95,419.9813" fill="none" id="B_PROTOCOL-to-B_PROVIDER" style="stroke:#444444;stroke-width:1;"/><polygon fill="#444444" points="679.95,425.9813,683.95,416.9813,679.95,420.9813,675.95,416.9813,679.95,425.9813" style="stroke:#444444;stroke-width:1;"/></g><!--link A_USE to A_PORT--><g class="link" data-entity-1="ent0011" data-entity-2="ent0012" data-link-type="dependency" data-source-line="27" id="lnk15"><path d="M102.95,126.9713 C102.95,150.9912 102.95,186.0113 102.95,203.0913" fill="none" id="A_USE-to-A_PORT" style="stroke:#444444;stroke-width:1;"/><polygon fill="#444444" points="102.95,209.0913,106.95,200.0913,102.95,204.0913,98.95,200.0913,102.95,209.0913" style="stroke:#444444;stroke-width:1;"/></g><!--link A_ADAPTER to A_PORT--><g class="link" data-entity-1="ent0013" data-entity-2="ent0012" data-link-type="extension" data-source-line="28" id="lnk16"><path d="M232.96,127.2113 C196.84,152.1313 149.4848,184.7977 126.5748,200.6077" fill="none" id="A_ADAPTER-to-A_PORT" style="stroke:#444444;stroke-width:1;stroke-dasharray:7,7;"/><polygon fill="none" points="111.76,210.8313,129.9827,205.5459,123.1669,195.6694,111.76,210.8313" style="stroke:#444444;stroke-width:1;"/></g><!--link A_ADAPTER to A_PROVIDER--><g class="link" data-entity-1="ent0013" data-entity-2="ent0014" data-link-type="dependency" data-source-line="29" id="lnk17"><path d="M264.36,126.9713 C268.74,145.1913 274.0593,167.377 278.8393,187.287" fill="none" id="A_ADAPTER-to-A_PROVIDER" style="stroke:#444444;stroke-width:1;"/><polygon fill="#444444" points="280.24,193.1212,282.0285,183.4361,279.0728,188.2594,274.2495,185.3037,280.24,193.1212" style="stroke:#444444;stroke-width:1;"/></g><?plantuml-src VLF1RjGm4BtdAqRRGozqWGfLj0SaaphIecKJPLF40GdDnjxKgcClZjEM0j_4WHlN_R5EicdMLALM9CT-RsRUF7cyybf2REiDEYpLzW-ibK5z1jgMg9M_GmTIGudcMaLHSwLCHwnXXULLvMnhH6orTN2Gz2jWD9Sex8qo5QnHDp90X5nZgtrYZLzWBO4vXVffVAdk9Bm-2K3V2HwXurS1L58NraY2_7TgoidIewbqM7f3ih6I_oSmv-pDqDARVaNH40GJLjgL9iN6Wr1Tj9m0Dl2U9sdEoOAt_9IVmey8zb9W4XD376x_DZlkruibVqJGgjjPDgDRKphf1sOyd_55yIzvcR8CNaBEbyKNys6PBkZm-UDyYCZoj4ZZTDx5QDiAc6JENiljRq7zo5ildTapFytEUKxCNX8S7RqBIpxy3lT1ulrXZ-rI_GgjSjzQvScYrY5SobkiB3shlZXB2fx30UV9INByl5jiS4iPahx6aX9drf7x4XhQbS21bgNv8wEOm8sd5-W61ZjdMT7t-wmpB7I6ZSwC5SP4C9t-VF9-e0Uc6EibhAptjYPct8qITaEr6HMSxGOCGH_YW-uNO6p74hPMHW5z_HmEzamZQGHqcUy1?></g></svg>