<svg xmlns="http://www.w3.org/2000/svg" xmlns:xlink="http://www.w3.org/1999/xlink" contentStyleType="text/css" data-diagram-type="DESCRIPTION" height="503px" preserveAspectRatio="none" style="width:710px;height:503px;background:#FFFFFF;" version="1.1" viewBox="0 0 710 503" width="710px" zoomAndPan="magnify"><?plantuml 1.2026.6?><defs/><g><g class="title" data-source-line="1"><text fill="#000000" font-family="Arial" font-size="20" font-weight="700" lengthAdjust="spacing" textLength="340.1074" x="181.4563" y="28.7598">Comparaci&#243; final: localitzar el canvi</text></g><!--cluster BEFORE--><g class="cluster" data-qualified-name="BEFORE" data-source-line="12" id="ent0001"><rect fill="#F8E9E9" height="438.59" rx="2.5" ry="2.5" style="stroke:#181818;stroke-width:1;" width="180" x="516.02" y="50.998"/><text fill="#000000" font-family="Arial" font-size="16" font-weight="700" lengthAdjust="spacing" textLength="148.4844" x="531.7778" y="68.0059">Acoblament directe</text></g><!--cluster AFTER--><g class="cluster" data-qualified-name="AFTER" data-source-line="22" id="ent0009"><rect fill="#EEF6F2" height="213.39" rx="2.5" ry="2.5" style="stroke:#181818;stroke-width:1;" width="335" x="8.02" y="50.998"/><text fill="#000000" font-family="Arial" font-size="16" font-weight="700" lengthAdjust="spacing" textLength="178.7031" x="86.1684" y="68.0059">Arquitectura hexagonal</text></g><!--entity B_USE--><g class="entity" data-qualified-name="BEFORE.B_USE" data-source-line="13" id="ent0002"><rect fill="#F1F1F1" height="38.3984" rx="2.5" ry="2.5" style="stroke:#181818;stroke-width:0.5;" width="81.75" x="565.14" y="87.998"/><text fill="#000000" font-family="Arial" font-size="16" lengthAdjust="spacing" textLength="61.75" x="575.14" y="113.0059">Cas d'&#250;s</text></g><!--entity B_CLIENT--><g class="entity" data-qualified-name="BEFORE.B_CLIENT" data-source-line="14" id="ent0003"><rect fill="#F1F1F1" height="38.3984" rx="2.5" ry="2.5" style="stroke:#181818;stroke-width:0.5;" width="148.0547" x="531.99" y="198.198"/><text fill="#000000" font-family="Arial" font-size="16" lengthAdjust="spacing" textLength="128.0547" x="541.99" y="223.2059">Client API concret</text></g><!--entity B_PROTOCOL--><g class="entity" data-qualified-name="BEFORE.B_PROTOCOL" data-source-line="15" id="ent0004"><rect fill="#F1F1F1" height="56.7969" rx="2.5" ry="2.5" style="stroke:#181818;stroke-width:0.5;" width="120.4688" x="545.79" y="308.388"/><text fill="#000000" font-family="Arial" font-size="16" lengthAdjust="spacing" textLength="100.4688" x="555.79" y="333.3959">SOAP / REST</text><text fill="#000000" font-family="Arial" font-size="16" lengthAdjust="spacing" textLength="88.9063" x="555.79" y="351.7943">JSON / XML</text></g><!--entity B_PROVIDER--><g class="entity" data-qualified-name="BEFORE.B_PROVIDER" data-source-line="16" id="ent0005"><path d="M540.7798,435.3457 C543.0597,430.2222 548.3433,429.1437 552.2284,433.3829 C554.7918,428.3234 560.2433,426.9739 563.9471,432.0665 C565.7645,426.9442 570.6857,425.2851 574.5334,429.8471 C577.4711,424.187 582.6315,424.4482 585.6617,429.7533 C587.493,424.125 592.4671,423.7722 595.9348,428.0575 C597.9996,421.7523 601.6369,420.9184 606.4737,425.332 C610.9949,419.5354 615.1292,421.8769 618.0027,427.0618 C622.5487,422.4412 626.1696,423.6832 629.1207,428.8698 C633.4161,423.2006 636.9175,424.4406 640.1349,429.9336 C643.5368,424.2095 648.8694,425.6983 651.6287,430.6269 C655.7375,425.2161 660.0674,425.6341 662.8984,431.864 C667.7708,427.3563 671.1775,429.6603 673.2406,434.8577 C683.1637,435.5147 685.9452,441.7885 682.2077,450.3516 C687.5533,459.0732 683.9431,467.608 672.7802,466.9572 C670.7582,473.3252 665.4285,473.512 661.7452,468.5795 C658.7248,473.8991 653.466,473.5395 650.6251,468.3889 C648.3986,474.3875 643.8483,474.8192 639.4401,470.8328 C636.5951,474.9967 631.5898,475.9704 629.3042,470.2586 C626.8719,475.2633 623.0058,476.6743 619.2031,471.637 C616.1413,478.8842 612.1164,480.0134 606.653,473.8915 C602.0062,478.2509 598.6661,477.5448 596.6353,471.3973 C592.708,476.8862 588.7298,476.1356 584.8988,471.2879 C580.8039,476.2303 575.5998,474.5936 574.0117,468.7562 C570.7854,474.6472 565.8794,474.7188 562.1752,469.2543 C559.056,473.0721 554.9813,472.0457 553.0831,467.866 C549.0661,472.3663 545.3126,472.2527 541.9655,467.0949 C532.8498,463.6335 530.2058,458.7267 536.5344,450.2777 C530.474,444.125 533.0109,437.5665 540.7798,435.3457" fill="#F1F1F1" style="stroke:#181818;stroke-width:0.5;"/><text fill="#000000" font-family="Arial" font-size="16" lengthAdjust="spacing" textLength="118.2813" x="546.88" y="455.1959">Prove&#239;dor extern</text></g><!--entity A_USE--><g class="entity" data-qualified-name="AFTER.A_USE" data-source-line="23" id="ent0010"><rect fill="#F1F1F1" height="38.3984" rx="2.5" ry="2.5" style="stroke:#181818;stroke-width:0.5;" width="81.75" x="43.14" y="87.998"/><text fill="#000000" font-family="Arial" font-size="16" lengthAdjust="spacing" textLength="61.75" x="53.14" y="113.0059">Cas d'&#250;s</text></g><!--entity A_PORT--><g class="entity" data-qualified-name="AFTER.A_PORT" data-source-line="24" id="ent0011"><ellipse cx="84.02" cy="217.388" fill="#F1F1F1" rx="8" ry="8" style="stroke:#181818;stroke-width:0.5;"/><text fill="#000000" font-family="Arial" font-size="16" lengthAdjust="spacing" textLength="104.0547" x="31.9927" y="249.3959">Port de sortida</text></g><!--entity A_ADAPTER--><g class="entity" data-qualified-name="AFTER.A_ADAPTER" data-source-line="25" id="ent0012"><rect fill="#F1F1F1" height="38.3984" rx="2.5" ry="2.5" style="stroke:#181818;stroke-width:0.5;" width="93.8359" x="183.1" y="87.998"/><text fill="#000000" font-family="Arial" font-size="16" lengthAdjust="spacing" textLength="73.8359" x="193.1" y="113.0059">Adaptador</text></g><!--entity A_PROVIDER--><g class="entity" data-qualified-name="AFTER.A_PROVIDER" data-source-line="26" id="ent0013"><path d="M187.7798,203.3557 C190.0597,198.2322 195.3433,197.1537 199.2284,201.3929 C201.7918,196.3334 207.2433,194.9839 210.9471,200.0765 C212.7645,194.9542 217.6857,193.2951 221.5334,197.8571 C224.4711,192.197 229.6315,192.4582 232.6617,197.7633 C234.493,192.135 239.4671,191.7822 242.9348,196.0675 C244.9996,189.7623 248.6369,188.9284 253.4737,193.342 C257.9949,187.5454 262.1292,189.8869 265.0027,195.0718 C269.5487,190.4512 273.1696,191.6932 276.1207,196.8798 C280.4161,191.2106 283.9175,192.4506 287.1349,197.9436 C290.5368,192.2195 295.8694,193.7083 298.6287,198.6369 C302.7375,193.2261 307.0674,193.6441 309.8984,199.874 C314.7708,195.3663 318.1775,197.6703 320.2406,202.8677 C330.1637,203.5247 332.9452,209.7985 329.2077,218.3616 C334.5533,227.0832 330.9431,235.618 319.7802,234.9672 C317.7582,241.3352 312.4285,241.522 308.7452,236.5895 C305.7248,241.9091 300.466,241.5495 297.6251,236.3989 C295.3986,242.3975 290.8483,242.8292 286.4401,238.8428 C283.5951,243.0067 278.5898,243.9804 276.3042,238.2686 C273.8719,243.2733 270.0058,244.6843 266.2031,239.647 C263.1413,246.8942 259.1164,248.0234 253.653,241.9015 C249.0062,246.2609 245.6661,245.5548 243.6353,239.4073 C239.708,244.8962 235.7298,244.1456 231.8988,239.2979 C227.8039,244.2403 222.5998,242.6036 221.0117,236.7662 C217.7854,242.6572 212.8794,242.7288 209.1752,237.2643 C206.056,241.0821 201.9813,240.0557 200.0831,235.876 C196.0661,240.3763 192.3126,240.2627 188.9655,235.1049 C179.8498,231.6435 177.2058,226.7367 183.5344,218.2877 C177.474,212.135 180.0109,205.5765 187.7798,203.3557" fill="#F1F1F1" style="stroke:#181818;stroke-width:0.5;"/><text fill="#000000" font-family="Arial" font-size="16" lengthAdjust="spacing" textLength="118.2813" x="193.88" y="223.2059">Prove&#239;dor extern</text></g><g class="entity" data-qualified-name="GMN17" data-source-line="33" id="ent0018"><path d="M6,322.588 L6,350.9865 A0,0 0 0 0 6,350.9865 L500.0469,350.9865 A0,0 0 0 0 500.0469,350.9865 L500.0469,332.588 L490.0469,322.588 L257.02,322.588 L253.02,241.868 L249.02,322.588 L6,322.588 A0,0 0 0 0 6,322.588" fill="#FEFFDD" style="stroke:#181818;stroke-width:0.5;"/><path d="M490.0469,322.588 L490.0469,332.588 L500.0469,332.588 L490.0469,322.588" fill="#FEFFDD" style="stroke:#181818;stroke-width:0.5;"/><text fill="#000000" font-family="Arial" font-size="16" lengthAdjust="spacing" textLength="473.0469" x="12" y="342.5959">Canvia el prove&#239;dor: canvia l'adaptador, no el domini ni el cas d'&#250;s.</text></g><!--link B_USE to B_CLIENT--><g class="link" data-entity-1="ent0002" data-entity-2="ent0003" data-link-type="dependency" data-source-line="17" id="lnk6"><path d="M606.02,126.548 C606.02,146.448 606.02,173.018 606.02,192.948" fill="none" id="B_USE-to-B_CLIENT" style="stroke:#444444;stroke-width:1;"/><polygon fill="#444444" points="606.02,197.948,610.02,188.948,606.02,192.948,602.02,188.948,606.02,197.948" style="stroke:#444444;stroke-width:1;stroke-linejoin:miter;stroke-miterlimit:10;"/></g><!--link B_CLIENT to B_PROTOCOL--><g class="link" data-entity-1="ent0003" data-entity-2="ent0004" data-link-type="dependency" data-source-line="18" id="lnk7"><path d="M606.02,236.998 C606.02,256.128 606.02,281.158 606.02,303.098" fill="none" id="B_CLIENT-to-B_PROTOCOL" style="stroke:#444444;stroke-width:1;"/><polygon fill="#444444" points="606.02,308.098,610.02,299.098,606.02,303.098,602.02,299.098,606.02,308.098" style="stroke:#444444;stroke-width:1;stroke-linejoin:miter;stroke-miterlimit:10;"/></g><!--link B_PROTOCOL to B_PROVIDER--><g class="link" data-entity-1="ent0004" data-entity-2="ent0005" data-link-type="dependency" data-source-line="19" id="lnk8"><path d="M606.02,365.418 C606.02,383.708 606.02,402.458 606.02,419.858" fill="none" id="B_PROTOCOL-to-B_PROVIDER" style="stroke:#444444;stroke-width:1;"/><polygon fill="#444444" points="606.02,424.858,610.02,415.858,606.02,419.858,602.02,415.858,606.02,424.858" style="stroke:#444444;stroke-width:1;stroke-linejoin:miter;stroke-miterlimit:10;"/></g><!--link A_USE to A_PORT--><g class="link" data-entity-1="ent0010" data-entity-2="ent0011" data-link-type="dependency" data-source-line="27" id="lnk14"><path d="M84.02,126.548 C84.02,150.548 84.02,186.528 84.02,203.578" fill="none" id="A_USE-to-A_PORT" style="stroke:#444444;stroke-width:1;"/><polygon fill="#444444" points="84.02,208.578,88.02,199.578,84.02,203.578,80.02,199.578,84.02,208.578" style="stroke:#444444;stroke-width:1;stroke-linejoin:miter;stroke-miterlimit:10;"/></g><!--link A_ADAPTER to A_PORT--><g class="link" data-entity-1="ent0012" data-entity-2="ent0011" data-link-type="extension" data-source-line="28" id="lnk15"><path d="M204.92,126.798 C171.66,151.448 129.0911,182.99 107.3011,199.14" fill="none" id="A_ADAPTER-to-A_PORT" style="stroke:#444444;stroke-width:1;stroke-dasharray:7,7;"/><polygon fill="none" points="92.84,209.858,110.8738,203.9603,103.7284,194.3196,92.84,209.858" style="stroke:#444444;stroke-width:1;stroke-linejoin:miter;stroke-miterlimit:10;"/></g><!--link A_ADAPTER to A_PROVIDER--><g class="link" data-entity-1="ent0012" data-entity-2="ent0013" data-link-type="dependency" data-source-line="29" id="lnk16"><path d="M233.92,126.548 C237.82,144.878 242.7809,168.2272 247.0109,188.1372" fill="none" id="A_ADAPTER-to-A_PROVIDER" style="stroke:#444444;stroke-width:1;"/><polygon fill="#444444" points="248.05,193.028,250.0923,183.3933,247.0109,188.1372,242.267,185.0558,248.05,193.028" style="stroke:#444444;stroke-width:1;stroke-linejoin:miter;stroke-miterlimit:10;"/></g><?plantuml-src VLF1RjGm4BtdAqRRGozqWGfLj0SaaphIecKJPLF40GdDnjxKgcClZjEM0j_4WHlN_R5EicdMLALM9CT-RsRUF7cyybf2REiDEYpLzW-ibK5z1jgMg9M_GmTIGudcMaLHSwLCHwnXXULLvMnhH6orTN2Gz2jWD9Sex8qo5QnHDp90X5nZgtrYZLzWBO4vXVffVAdk9Bm-2K3V2HwXurS1L58NraY2_7TgoidIewbqM7f3ih6I_oSmv-pDqDARVaNH40GJLjgL9iN6Wr1Tj9m0Dl2U9sdEoOAt_9IVmey8zb9W4XD376x_DZlkruibVqJGgjjPDgDRKphf1sOyd_55yIzvcR8CNaBEbyKNys6PBkZm-UDyYCZoj4ZZTDx5QDiAc6JENiljRq7zo5ildTapFytEUKxCNX8S7RqBIpxy3lT1ulrXZ-rI_GgjSjzQvScYrY5SobkiB3shlZXB2fx30UV9INByl5jiS4iPahx6aX9drf7x4XhQbS21bgNv8wEOm8sd5-W61ZjdMT7t-wmpB7I6ZSwC5SP4C9t-VF9-e0Uc6EibhAptjYPct8qITaEr6HMSxGOCGH_YW-uNO6p74hPMHW5z_HmEzamZQGHqcUy1?></g></svg>