<svg xmlns="http://www.w3.org/2000/svg" xmlns:xlink="http://www.w3.org/1999/xlink" contentStyleType="text/css" data-diagram-type="DESCRIPTION" height="581px" preserveAspectRatio="none" style="width:2459px;height:581px;background:#FFFFFF;" version="1.1" viewBox="0 0 2459 581" width="2459px" zoomAndPan="magnify"><?plantuml 1.2026.6?><defs/><g><g class="title" data-source-line="1"><text fill="#000000" font-family="Arial" font-size="20" font-weight="700" lengthAdjust="spacing" textLength="620.4785" x="915.7607" y="28.7598">HexaStock: venda d'accions amb prove&#239;dor de preus substitu&#239;ble</text></g><!--cluster IN--><g class="cluster" data-qualified-name="IN" data-source-line="12" id="ent0001"><rect fill="#FFF7E6" height="89.25" rx="2.5" ry="2.5" style="stroke:#181818;stroke-width:1;" width="202" x="1463" y="59.618"/><text fill="#000000" font-family="Arial" font-size="15" font-weight="700" lengthAdjust="spacing" textLength="146.0815" x="1490.9592" y="75.6879">Adaptador d'entrada</text></g><!--cluster APP--><g class="cluster" data-qualified-name="APP" data-source-line="16" id="ent0003"><rect fill="#EEF4FA" height="281.74" rx="2.5" ry="2.5" style="stroke:#181818;stroke-width:1;" width="767" x="672" y="50.998"/><text fill="#000000" font-family="Arial" font-size="15" font-weight="700" lengthAdjust="spacing" textLength="66.687" x="1022.1565" y="67.0679">Aplicaci&#243;</text></g><!--cluster DOM--><g class="cluster" data-qualified-name="DOM" data-source-line="24" id="ent0009"><rect fill="#EEF6F2" height="360.75" rx="2.5" ry="2.5" style="stroke:#181818;stroke-width:1;" width="438" x="7" y="206.488"/><text fill="#000000" font-family="Arial" font-size="15" font-weight="700" lengthAdjust="spacing" textLength="50.8301" x="200.585" y="222.5579">Domini</text></g><!--cluster OUT--><g class="cluster" data-qualified-name="OUT" data-source-line="34" id="ent0017"><rect fill="#F7F7F7" height="258.37" rx="2.5" ry="2.5" style="stroke:#181818;stroke-width:1;" width="756" x="1689" y="50.998"/><text fill="#000000" font-family="Arial" font-size="15" font-weight="700" lengthAdjust="spacing" textLength="159.1919" x="1987.4041" y="67.0679">Adaptadors de sortida</text></g><!--entity REST--><g class="entity" data-qualified-name="IN.REST" data-source-line="13" id="ent0002"><rect fill="#F1F1F1" height="37.2485" rx="2.5" ry="2.5" style="stroke:#181818;stroke-width:0.5;" width="170.8936" x="1478.55" y="95.618"/><text fill="#000000" font-family="Arial" font-size="15" lengthAdjust="spacing" textLength="150.8936" x="1488.55" y="119.6879">PortfolioRestController</text></g><!--entity INPORT--><g class="entity" data-qualified-name="APP.INPORT" data-source-line="17" id="ent0004"><ellipse cx="1097" cy="269.738" fill="#F1F1F1" rx="8" ry="8" style="stroke:#181818;stroke-width:0.5;"/><text fill="#000000" font-family="Arial" font-size="15" lengthAdjust="spacing" textLength="227.6074" x="983.1963" y="300.8079">PortfolioStockOperationsUseCase</text><text fill="#000000" font-family="Arial" font-size="15" lengthAdjust="spacing" textLength="108.7793" x="983.1963" y="318.0564">&#171;port d'entrada&#187;</text></g><!--entity SERVICE--><g class="entity" data-qualified-name="APP.SERVICE" data-source-line="18" id="ent0005"><rect fill="#F1F1F1" height="54.4971" rx="2.5" ry="2.5" style="stroke:#181818;stroke-width:0.5;" width="235.9326" x="725.03" y="86.998"/><text fill="#000000" font-family="Arial" font-size="15" lengthAdjust="spacing" textLength="215.9326" x="735.03" y="111.0679">PortfolioStockOperationsService</text><text fill="#000000" font-family="Arial" font-size="15" lengthAdjust="spacing" textLength="130.437" x="735.03" y="128.3164">&#171;servei d'aplicaci&#243;&#187;</text></g><!--entity PRICEPORT--><g class="entity" data-qualified-name="APP.PRICEPORT" data-source-line="19" id="ent0006"><ellipse cx="1338" cy="269.738" fill="#F1F1F1" rx="8" ry="8" style="stroke:#181818;stroke-width:0.5;"/><text fill="#000000" font-family="Arial" font-size="15" lengthAdjust="spacing" textLength="155.0537" x="1260.4731" y="300.8079">StockPriceProviderPort</text><text fill="#000000" font-family="Arial" font-size="15" lengthAdjust="spacing" textLength="112.5732" x="1260.4731" y="318.0564">&#171;port de sortida&#187;</text></g><!--entity PORTFOLIOPORT--><g class="entity" data-qualified-name="APP.PORTFOLIOPORT" data-source-line="20" id="ent0007"><ellipse cx="737" cy="269.738" fill="#F1F1F1" rx="8" ry="8" style="stroke:#181818;stroke-width:0.5;"/><text fill="#000000" font-family="Arial" font-size="15" lengthAdjust="spacing" textLength="82.5366" x="695.7317" y="300.8079">PortfolioPort</text></g><!--entity TXPORT--><g class="entity" data-qualified-name="APP.TXPORT" data-source-line="21" id="ent0008"><ellipse cx="881" cy="269.738" fill="#F1F1F1" rx="8" ry="8" style="stroke:#181818;stroke-width:0.5;"/><text fill="#000000" font-family="Arial" font-size="15" lengthAdjust="spacing" textLength="105.8789" x="828.0605" y="300.8079">TransactionPort</text></g><!--entity PORTFOLIO--><g class="entity" data-qualified-name="DOM.PORTFOLIO" data-source-line="25" id="ent0010"><rect fill="#F1F1F1" height="54.4971" rx="2.5" ry="2.5" style="stroke:#181818;stroke-width:0.5;" width="116.2549" x="223.87" y="242.488"/><text fill="#000000" font-family="Arial" font-size="15" lengthAdjust="spacing" textLength="55.0269" x="233.87" y="266.5579">Portfolio</text><text fill="#000000" font-family="Arial" font-size="15" lengthAdjust="spacing" textLength="96.2549" x="233.87" y="283.8064">arrel d'agregat</text></g><!--entity HOLDING--><g class="entity" data-qualified-name="DOM.HOLDING" data-source-line="26" id="ent0011"><rect fill="#F1F1F1" height="37.2485" rx="2.5" ry="2.5" style="stroke:#181818;stroke-width:0.5;" width="70.8667" x="22.57" y="397.738"/><text fill="#000000" font-family="Arial" font-size="15" lengthAdjust="spacing" textLength="50.8667" x="32.57" y="421.8079">Holding</text></g><!--entity LOT--><g class="entity" data-qualified-name="DOM.LOT" data-source-line="27" id="ent0012"><rect fill="#F1F1F1" height="37.2485" rx="2.5" ry="2.5" style="stroke:#181818;stroke-width:0.5;" width="40.8521" x="37.57" y="513.988"/><text fill="#000000" font-family="Arial" font-size="15" lengthAdjust="spacing" textLength="20.8521" x="47.57" y="538.0579">Lot</text></g><!--entity SELLRESULT--><g class="entity" data-qualified-name="DOM.SELLRESULT" data-source-line="28" id="ent0013"><rect fill="#F1F1F1" height="37.2485" rx="2.5" ry="2.5" style="stroke:#181818;stroke-width:0.5;" width="87.5293" x="155.24" y="513.988"/><text fill="#000000" font-family="Arial" font-size="15" lengthAdjust="spacing" textLength="67.5293" x="165.24" y="538.0579">SellResult</text></g><!--entity TICKER--><g class="entity" data-qualified-name="DOM.TICKER" data-source-line="29" id="ent0014"><rect fill="#F1F1F1" height="37.2485" rx="2.5" ry="2.5" style="stroke:#181818;stroke-width:0.5;" width="60.8325" x="128.58" y="397.738"/><text fill="#000000" font-family="Arial" font-size="15" lengthAdjust="spacing" textLength="40.8325" x="138.58" y="421.8079">Ticker</text></g><!--entity QTY--><g class="entity" data-qualified-name="DOM.QTY" data-source-line="30" id="ent0015"><rect fill="#F1F1F1" height="37.2485" rx="2.5" ry="2.5" style="stroke:#181818;stroke-width:0.5;" width="115.8887" x="224.06" y="397.738"/><text fill="#000000" font-family="Arial" font-size="15" lengthAdjust="spacing" textLength="95.8887" x="234.06" y="421.8079">ShareQuantity</text></g><!--entity PRICE--><g class="entity" data-qualified-name="DOM.PRICE" data-source-line="31" id="ent0016"><rect fill="#F1F1F1" height="37.2485" rx="2.5" ry="2.5" style="stroke:#181818;stroke-width:0.5;" width="54.1748" x="374.91" y="397.738"/><text fill="#000000" font-family="Arial" font-size="15" lengthAdjust="spacing" textLength="34.1748" x="384.91" y="421.8079">Price</text></g><!--entity FINHUB--><g class="entity" data-qualified-name="OUT.FINHUB" data-source-line="35" id="ent0018"><rect fill="#F1F1F1" height="54.4971" rx="2.5" ry="2.5" style="stroke:#181818;stroke-width:0.5;" width="190.0903" x="1965.95" y="86.998"/><text fill="#000000" font-family="Arial" font-size="15" lengthAdjust="spacing" textLength="170.0903" x="1975.95" y="111.0679">FinhubStockPriceAdapter</text><text fill="#000000" font-family="Arial" font-size="15" lengthAdjust="spacing" textLength="81.7163" x="1975.95" y="128.3164">perfil: finhub</text></g><!--entity ALPHA--><g class="entity" data-qualified-name="OUT.ALPHA" data-source-line="36" id="ent0019"><rect fill="#F1F1F1" height="54.4971" rx="2.5" ry="2.5" style="stroke:#181818;stroke-width:0.5;" width="238.4741" x="2190.76" y="86.998"/><text fill="#000000" font-family="Arial" font-size="15" lengthAdjust="spacing" textLength="218.4741" x="2200.76" y="111.0679">AlphaVantageStockPriceAdapter</text><text fill="#000000" font-family="Arial" font-size="15" lengthAdjust="spacing" textLength="133.4326" x="2200.76" y="128.3164">perfil: alphaVantage</text></g><!--entity MOCK--><g class="entity" data-qualified-name="OUT.MOCK" data-source-line="37" id="ent0020"><rect fill="#F1F1F1" height="54.4971" rx="2.5" ry="2.5" style="stroke:#181818;stroke-width:0.5;" width="225.9277" x="1705.04" y="86.998"/><text fill="#000000" font-family="Arial" font-size="15" lengthAdjust="spacing" textLength="205.9277" x="1715.04" y="111.0679">MockFinhubStockPriceAdapter</text><text fill="#000000" font-family="Arial" font-size="15" lengthAdjust="spacing" textLength="117.5537" x="1715.04" y="128.3164">perfil: mockfinhub</text></g><!--entity API--><g class="entity" data-qualified-name="OUT.API" data-source-line="38" id="ent0021"><path d="M2095.429,255.5766 C2098.6642,247.8828 2104.7579,247.8298 2109.7461,253.7303 C2113.9384,249.0512 2117.3753,248.2723 2121.0389,254.2886 C2123.73,246.8427 2129.7175,246.6916 2134.2249,252.4787 C2137.1876,246.6115 2143.3015,244.1879 2147.6772,250.9767 C2152.2386,245.8336 2156.3998,246.1024 2160.2984,251.7518 C2164.5951,244.0736 2169.3954,245.1437 2174.1261,251.3186 C2176.3359,245.1412 2182.1274,243.7935 2186.3848,249.1407 C2190.7823,242.5404 2197.1014,244.8534 2199.8306,250.9127 C2202.8754,244.6272 2207.7656,244.8028 2211.7685,249.9088 C2216.9105,242.9608 2221.7769,243.8531 2225.6056,251.1817 C2229.1496,245.6864 2234.7979,247.0799 2237.1099,252.4824 C2241.5246,246.7423 2247.7651,248.6067 2249.9752,254.8494 C2253.8912,248.7807 2259.0842,247.2864 2263.9776,253.7581 C2268.1376,247.2698 2273.3156,248.6443 2277.0922,254.1765 C2287.394,256.9662 2289.0013,262.9941 2282.3387,271.0565 C2287.0933,278.742 2286.3207,283.5081 2276.7442,285.7292 C2274.0909,291.8883 2267.7902,294.25 2263.472,287.432 C2259.7866,294.5548 2254.3801,293.8191 2249.6546,288.596 C2246.7184,293.9669 2242.1316,295.2432 2238.3308,289.4751 C2235.6553,296.4192 2229.081,297.3716 2224.9283,290.9572 C2221.6332,297.8979 2216.4989,296.5853 2212.455,291.7505 C2209.5534,298.5747 2203.8194,298.7959 2199.4688,293.2747 C2196.7002,299.95 2190.8891,299.6995 2186.9496,294.5104 C2182.879,301.1537 2176.0816,301.2974 2172.816,293.7109 C2168.9315,298.765 2163.5275,298.3148 2161.5209,291.8668 C2156.8291,297.4455 2151.6277,297.3872 2148.0765,290.6241 C2143.8079,296.221 2137.5859,296.2755 2135.004,288.9215 C2131.0329,294.4826 2126.1571,295.2581 2121.8506,289.3047 C2117.106,295.4862 2113.5077,294.5399 2109.8646,288.2463 C2105.834,293.9483 2099.2748,293.9932 2096.0775,287.3182 C2086.0526,286.1399 2084.0796,279.5748 2088.5741,271.5064 C2084.0563,264.1543 2085.734,256.8127 2095.429,255.5766" fill="#F1F1F1" style="stroke:#181818;stroke-width:0.5;"/><text fill="#000000" font-family="Arial" font-size="15" lengthAdjust="spacing" textLength="165.9155" x="2102.04" y="275.1879">Serveis externs de preus</text></g><g class="entity" data-qualified-name="GMN39" data-source-line="62" id="ent0040"><path d="M461.03,238.868 L461.03,300.6137 L652.9699,300.6137 L652.9699,248.868 L642.9699,238.868 L461.03,238.868" fill="#FEFFDD" style="stroke:#181818;stroke-width:0.5;"/><path d="M642.9699,238.868 L642.9699,248.868 L652.9699,248.868 L642.9699,238.868" fill="#FEFFDD" style="stroke:#181818;stroke-width:1;"/><text fill="#000000" font-family="Arial" font-size="15" lengthAdjust="spacing" textLength="123.3911" x="467.03" y="257.9379">El servei coordina.</text><text fill="#000000" font-family="Arial" font-size="15" lengthAdjust="spacing" textLength="125.061" x="467.03" y="275.1864">El domini decideix.</text><text fill="#000000" font-family="Arial" font-size="15" lengthAdjust="spacing" textLength="170.9399" x="467.03" y="292.4349">La infraestructura adapta.</text></g><!--link REST to INPORT--><g class="link" data-entity-1="ent0002" data-entity-2="ent0004" data-link-type="dependency" data-source-line="41" id="lnk22"><path d="M1530.65,133.278 C1495.36,151.368 1437.49,178.248 1384,190.488 C1319.79,205.188 1299.64,181.498 1236,198.488 C1183.23,212.588 1131.3325,245.3781 1110.0425,259.7681" fill="none" id="REST-to-INPORT" style="stroke:#444444;stroke-width:1;"/><polygon fill="#444444" points="1105.9,262.568,1115.5965,260.8422,1110.0425,259.7681,1111.1166,254.2142,1105.9,262.568" style="stroke:#444444;stroke-width:1;stroke-linejoin:miter;stroke-miterlimit:10;"/><text fill="#000000" font-family="Arial" font-size="15" lengthAdjust="spacing" textLength="43.3594" x="1446.28" y="186.5579">invoca</text></g><!--link SERVICE to INPORT--><g class="link" data-entity-1="ent0005" data-entity-2="ent0004" data-link-type="extension" data-source-line="42" id="lnk23"><path d="M908.13,141.958 C927.2,150.598 947.81,160.738 966,171.488 C1015.01,200.458 1054.0933,232.2442 1074.5233,249.5742" fill="none" id="SERVICE-to-INPORT" style="stroke:#444444;stroke-width:1;stroke-dasharray:7,7;"/><polygon fill="none" points="1088.25,261.218,1078.4046,244.9987,1070.6421,254.1498,1088.25,261.218" style="stroke:#444444;stroke-width:1;stroke-linejoin:miter;stroke-miterlimit:10;"/><text fill="#000000" font-family="Arial" font-size="15" lengthAdjust="spacing" textLength="77.5342" x="993.38" y="186.5579">implementa</text></g><!--link SERVICE to PRICEPORT--><g class="link" data-entity-1="ent0005" data-entity-2="ent0006" data-link-type="dependency" data-source-line="43" id="lnk24"><path d="M961.03,127.898 C1041.06,139.418 1147.9,160.628 1236,198.488 C1273.93,214.798 1308.5698,242.8739 1325.3998,257.5339" fill="none" id="SERVICE-to-PRICEPORT" style="stroke:#444444;stroke-width:1;"/><polygon fill="#444444" points="1329.17,260.818,1325.0109,251.8905,1325.3998,257.5339,1319.7563,257.9228,1329.17,260.818" style="stroke:#444444;stroke-width:1;stroke-linejoin:miter;stroke-miterlimit:10;"/><text fill="#000000" font-family="Arial" font-size="15" lengthAdjust="spacing" textLength="150.0366" x="1217.02" y="186.5579">fetchStockPrice(ticker)</text></g><!--link SERVICE to PORTFOLIOPORT--><g class="link" data-entity-1="ent0005" data-entity-2="ent0007" data-link-type="dependency" data-source-line="44" id="lnk25"><path d="M773.83,141.978 C761.71,149.708 750.57,159.428 743,171.488 C725.03,200.158 730.4533,238.4946 734.1333,256.0346" fill="none" id="SERVICE-to-PORTFOLIOPORT" style="stroke:#444444;stroke-width:1;"/><polygon fill="#444444" points="735.16,260.928,737.2267,251.2985,734.1333,256.0346,729.3972,252.9412,735.16,260.928" style="stroke:#444444;stroke-width:1;stroke-linejoin:miter;stroke-miterlimit:10;"/><text fill="#000000" font-family="Arial" font-size="15" lengthAdjust="spacing" textLength="104.231" x="744" y="186.5579">recupera / desa</text></g><!--link SERVICE to TXPORT--><g class="link" data-entity-1="ent0005" data-entity-2="ent0008" data-link-type="dependency" data-source-line="45" id="lnk26"><path d="M849.62,141.978 C858.46,177.718 872.4473,234.2049 877.8373,255.9549" fill="none" id="SERVICE-to-TXPORT" style="stroke:#444444;stroke-width:1;"/><polygon fill="#444444" points="879.04,260.808,880.7577,251.1101,877.8373,255.9549,872.9926,253.0345,879.04,260.808" style="stroke:#444444;stroke-width:1;stroke-linejoin:miter;stroke-miterlimit:10;"/><text fill="#000000" font-family="Arial" font-size="15" lengthAdjust="spacing" textLength="95.0537" x="861.86" y="186.5579">registra venda</text></g><!--link SERVICE to PORTFOLIO--><g class="link" data-entity-1="ent0005" data-entity-2="ent0010" data-link-type="dependency" data-source-line="46" id="lnk27"><path d="M724.85,128.728 C660.55,137.678 580.06,151.508 510,171.488 C479.52,180.188 473.21,186.188 444,198.488 C409.53,213.018 375.712,227.6467 344.942,241.0867" fill="none" id="SERVICE-to-PORTFOLIO" style="stroke:#444444;stroke-width:1;"/><polygon fill="#444444" points="340.36,243.088,350.2087,243.1512,344.942,241.0867,347.0065,235.82,340.36,243.088" style="stroke:#444444;stroke-width:1;stroke-linejoin:miter;stroke-miterlimit:10;"/><text fill="#000000" font-family="Arial" font-size="15" lengthAdjust="spacing" textLength="170.0537" x="511" y="186.5579">sell(ticker, quantity, price)</text></g><!--link PORTFOLIO to HOLDING--><g class="link" data-entity-1="ent0010" data-entity-2="ent0011" data-link-type="dependency" data-source-line="48" id="lnk28"><path d="M223.54,288.888 C188,301.828 143.07,321.718 109,348.738 C91.99,362.228 80.1553,378.3451 71.0153,393.0051" fill="none" id="PORTFOLIO-to-HOLDING" style="stroke:#444444;stroke-width:1;"/><polygon fill="#444444" points="68.37,397.248,76.5259,391.727,71.0153,393.0051,69.7372,387.4946,68.37,397.248" style="stroke:#444444;stroke-width:1;stroke-linejoin:miter;stroke-miterlimit:10;"/><text fill="#000000" font-family="Arial" font-size="15" lengthAdjust="spacing" textLength="83.3716" x="110" y="363.8079">delega FIFO</text></g><!--link HOLDING to LOT--><g class="link" data-entity-1="ent0011" data-entity-2="ent0012" data-link-type="dependency" data-source-line="49" id="lnk29"><path d="M56.44,435.458 C55.46,448.858 54.48,467.558 55,483.988 C55.31,493.758 55.6225,499.6501 56.2425,508.5501" fill="none" id="HOLDING-to-LOT" style="stroke:#444444;stroke-width:1;"/><polygon fill="#444444" points="56.59,513.538,59.9549,504.2818,56.2425,508.5501,51.9742,504.8378,56.59,513.538" style="stroke:#444444;stroke-width:1;stroke-linejoin:miter;stroke-miterlimit:10;"/><text fill="#000000" font-family="Arial" font-size="15" lengthAdjust="spacing" textLength="99.2065" x="56" y="480.0579">consumeix lots</text></g><!--link HOLDING to SELLRESULT--><g class="link" data-entity-1="ent0011" data-entity-2="ent0013" data-link-type="dependency" data-source-line="50" id="lnk30"><path d="M93.78,431.398 C118.84,441.728 149.64,455.548 160,464.988 C174.86,478.528 183.6977,494.4965 190.1177,509.1865" fill="none" id="HOLDING-to-SELLRESULT" style="stroke:#444444;stroke-width:1;"/><polygon fill="#444444" points="192.12,513.768,192.1811,503.9194,190.1177,509.1865,184.8506,507.123,192.12,513.768" style="stroke:#444444;stroke-width:1;stroke-linejoin:miter;stroke-miterlimit:10;"/><text fill="#000000" font-family="Arial" font-size="15" lengthAdjust="spacing" textLength="100.8838" x="176.02" y="480.0579">retorna resultat</text></g><!--link PORTFOLIO to TICKER--><g class="link" data-entity-1="ent0010" data-entity-2="ent0014" data-link-type="dependency" data-source-line="51" id="lnk31"><path d="M259.44,297.268 C234.61,326.458 198.6387,368.7587 177.2987,393.8587" fill="none" id="PORTFOLIO-to-TICKER" style="stroke:#444444;stroke-width:1;stroke-dasharray:7,7;"/><polygon fill="#444444" points="174.06,397.668,182.9371,393.4022,177.2987,393.8587,176.8422,388.2203,174.06,397.668" style="stroke:#444444;stroke-width:1;stroke-linejoin:miter;stroke-miterlimit:10;"/></g><!--link PORTFOLIO to QTY--><g class="link" data-entity-1="ent0010" data-entity-2="ent0015" data-link-type="dependency" data-source-line="52" id="lnk32"><path d="M282,297.268 C282,326.458 282,367.568 282,392.668" fill="none" id="PORTFOLIO-to-QTY" style="stroke:#444444;stroke-width:1;stroke-dasharray:7,7;"/><polygon fill="#444444" points="282,397.668,286,388.668,282,392.668,278,388.668,282,397.668" style="stroke:#444444;stroke-width:1;stroke-linejoin:miter;stroke-miterlimit:10;"/></g><!--link PORTFOLIO to PRICE--><g class="link" data-entity-1="ent0010" data-entity-2="ent0016" data-link-type="dependency" data-source-line="53" id="lnk33"><path d="M304.01,297.268 C328.23,326.458 363.2978,368.7197 384.1178,393.8197" fill="none" id="PORTFOLIO-to-PRICE" style="stroke:#444444;stroke-width:1;stroke-dasharray:7,7;"/><polygon fill="#444444" points="387.31,397.668,384.6428,388.1872,384.1178,393.8197,378.4854,393.2947,387.31,397.668" style="stroke:#444444;stroke-width:1;stroke-linejoin:miter;stroke-miterlimit:10;"/></g><!--link FINHUB to PRICEPORT--><g class="link" data-entity-1="ent0018" data-entity-2="ent0006" data-link-type="extension" data-source-line="55" id="lnk34"><path d="M1995.06,141.958 C1979.79,147.468 1963.47,152.818 1948,156.868 C1835.22,186.408 1803.74,177.798 1689,198.488 C1552.31,223.148 1404.3609,254.5286 1364.5309,263.0586" fill="none" id="FINHUB-to-PRICEPORT" style="stroke:#444444;stroke-width:1;stroke-dasharray:7,7;"/><polygon fill="none" points="1346.93,266.828,1365.7874,268.9256,1363.2744,257.1917,1346.93,266.828" style="stroke:#444444;stroke-width:1;stroke-linejoin:miter;stroke-miterlimit:10;"/></g><!--link ALPHA to PRICEPORT--><g class="link" data-entity-1="ent0019" data-entity-2="ent0006" data-link-type="extension" data-source-line="56" id="lnk35"><path d="M2232.29,141.898 C2213.4,147.578 2193.12,153.018 2174,156.868 C2027.74,186.318 1988.76,179.068 1840,190.488 C1772.99,195.638 1755.68,190.098 1689,198.488 C1551.19,215.838 1403.919,252.0185 1364.319,262.0485" fill="none" id="ALPHA-to-PRICEPORT" style="stroke:#444444;stroke-width:1;stroke-dasharray:7,7;"/><polygon fill="none" points="1346.87,266.468,1365.7922,267.8648,1362.8458,256.2322,1346.87,266.468" style="stroke:#444444;stroke-width:1;stroke-linejoin:miter;stroke-miterlimit:10;"/></g><!--link MOCK to PRICEPORT--><g class="link" data-entity-1="ent0020" data-entity-2="ent0006" data-link-type="extension" data-source-line="57" id="lnk36"><path d="M1734.39,141.978 C1611.91,181.148 1410.3252,245.617 1363.9352,260.447" fill="none" id="MOCK-to-PRICEPORT" style="stroke:#444444;stroke-width:1;stroke-dasharray:7,7;"/><polygon fill="none" points="1346.79,265.928,1365.7622,266.1621,1362.1082,254.732,1346.79,265.928" style="stroke:#444444;stroke-width:1;stroke-linejoin:miter;stroke-miterlimit:10;"/></g><!--link FINHUB to API--><g class="link" data-entity-1="ent0018" data-entity-2="ent0021" data-link-type="dependency" data-source-line="58" id="lnk37"><path d="M2082.6,141.978 C2106.33,171.358 2140.9076,214.1589 2163.3376,241.9189" fill="none" id="FINHUB-to-API" style="stroke:#444444;stroke-width:1;"/><polygon fill="#444444" points="2166.48,245.808,2163.935,236.2937,2163.3376,241.9189,2157.7124,241.3215,2166.48,245.808" style="stroke:#444444;stroke-width:1;stroke-linejoin:miter;stroke-miterlimit:10;"/></g><!--link ALPHA to API--><g class="link" data-entity-1="ent0019" data-entity-2="ent0021" data-link-type="dependency" data-source-line="59" id="lnk38"><path d="M2288.23,141.978 C2264.3,171.358 2229.4376,214.1712 2206.8276,241.9312" fill="none" id="ALPHA-to-API" style="stroke:#444444;stroke-width:1;"/><polygon fill="#444444" points="2203.67,245.808,2212.4551,241.3559,2206.8276,241.9312,2206.2522,236.3037,2203.67,245.808" style="stroke:#444444;stroke-width:1;stroke-linejoin:miter;stroke-miterlimit:10;"/></g><!--link SERVICE to GMN39--><g class="link" data-entity-1="ent0005" data-entity-2="ent0040" data-link-type="association" data-source-line="62" id="lnk41"><path d="M784.91,141.838 C751.49,157.558 708.93,178.278 672,198.488 C649.32,210.898 624.79,225.688 604.24,238.488" fill="none" id="SERVICE-GMN39" style="stroke:#444444;stroke-width:1;stroke-dasharray:7,7;"/></g><?plantuml-src XLNRRjim37ttLmZTmpPWooxO1IY60baQBy7SEalIOGFwmiXq8bIMF4dkkjitxM6Vq1yR9RlnPIsMF3WM3wb3yf1nmabaCxo2bTFyuf1Teig0PVU1Sw6LPL1iM6dq9Lx_phHX6T8RLfRPQcETSDNrxut4AB8NGfLWe60Ru1TReokLJRGaZtjn-7GGTWUP_YhKbkKWBNOi6UPGIHThvKwXG3Os0kJjzfNuZkpPouxH-LJsfkTFEoQkYr8h99FxHkaQv0xKLdQlBeasRF5kmDWO_RL9wKNuH57Zn0x66PGEGe7kqpK6CZXWODdyDEJ_UlgA_OXOouCTBBHnkPP2Bz6w2R4sMaeqmMivNQsZNztmfHGSkBZ-4-pZnOBTcqxZ5_4uX1NAeSc1OoTiQ6TQeW7d-tXcSG8MpzMRDoL1Mff7HmtHHRfStq5n46k5vbBm4ClIJnHUBdk6JS3LTFbnFfdssOL02qFE2vAKoD3uErfIo2mznPxLOaaX6cAt9Ub_r432n6aoJ_y5hmqe2zmptyFNdmAkM-9ZNGWbWlKuFGdbVHK_lxDhvmgCGUaptnhSme16tskcPKPo3v1PcXpFJz_r0Ock_PDqq88LIaa28SqtHKqI4iTPCe2j1RzejBEUJzvFbuCeEp3ueG958_8je3wiFmyIyqrfQzvNtusuRQT30PkUhKdVh_rtMAbOg5srQHiUWg0vLoIZNCX3bWT021FFJsTdR_l-Ordku2DH3aDvPnJemEhPI1QpSJ_K2Nd_bqv1bWwbatJotaUHkify6xpCBSChyb5slmMRQPpxSlcXPOyV7pMZn0v9X9UQGzHC0XkDVdQDHIcn87ujm3ll5K-G71tVjPGVkD3bXtryL_ZaGvkhyeFAdX19suzTgpw0jiBIzDVB_lPu1BCalkRIH-nB8vz7b3cHUHX5BTGxDhecjmmb3GGrDKwZcrEF876JbTC2gGeKLqngPtk0Ljs1ezD60Jsz-i5rhXkDZcvatZ_qgkwVr6AEQe7L7MXtIf3AyD0tVdZMk7kEljcrtyrRfBH3jj7EwOBflBFuff8r-v5hRMW3mAW-pSAkeK9nMe7YofycG7B93T2VWQcugwWv4CPk556FcB_ZBm00?></g></svg>