<?plantuml 1.2026.2?><svg xmlns="http://www.w3.org/2000/svg" xmlns:xlink="http://www.w3.org/1999/xlink" contentStyleType="text/css" data-diagram-type="DESCRIPTION" height="574px" preserveAspectRatio="none" style="width:2656px;height:574px;background:#FFFFFF;" version="1.1" viewBox="0 0 2656 574" width="2656px" zoomAndPan="magnify"><title>HexaStock: venda d'accions amb prove&#239;dor de preus substitu&#239;ble</title><defs/><g><g class="title" data-source-line="1"><text fill="#000000" font-family="Arial" font-size="20" font-weight="bold" lengthAdjust="spacing" textLength="733.2227" x="954.3887" y="28.5645">HexaStock: venda d'accions amb prove&#239;dor de preus substitu&#239;ble</text></g><!--cluster IN--><g class="cluster" data-qualified-name="IN" data-source-line="12" id="ent0002"><rect fill="#FFF7E6" height="89.46" rx="2.5" ry="2.5" style="stroke:#181818;stroke-width:1;" width="222" x="1581" y="60.0112"/><text fill="#000000" font-family="Arial" font-size="15" font-weight="bold" lengthAdjust="spacing" textLength="141.0791" x="1621.4604" y="75.9346">Inbound adapter</text></g><!--cluster APP--><g class="cluster" data-qualified-name="APP" data-source-line="16" id="ent0004"><rect fill="#EEF4FA" height="282.38" rx="2.5" ry="2.5" style="stroke:#181818;stroke-width:1;" width="831" x="726" y="51.2813"/><text fill="#000000" font-family="Arial" font-size="15" font-weight="bold" lengthAdjust="spacing" textLength="95.6763" x="1093.6619" y="67.2046">Application</text></g><!--cluster DOM--><g class="cluster" data-qualified-name="DOM" data-source-line="24" id="ent0010"><rect fill="#EEF6F2" height="361.38" rx="2.5" ry="2.5" style="stroke:#181818;stroke-width:1;" width="466" x="7" y="207.2012"/><text fill="#000000" font-family="Arial" font-size="15" font-weight="bold" lengthAdjust="spacing" textLength="64.3286" x="207.8357" y="223.1246">Domain</text></g><!--cluster OUT--><g class="cluster" data-qualified-name="OUT" data-source-line="34" id="ent0018"><rect fill="#F7F7F7" height="259.11" rx="2.5" ry="2.5" style="stroke:#181818;stroke-width:1;" width="823" x="1827" y="51.2813"/><text fill="#000000" font-family="Arial" font-size="15" font-weight="bold" lengthAdjust="spacing" textLength="164.3481" x="2156.3259" y="67.2046">Outbound adapters</text></g><!--entity REST--><g class="entity" data-qualified-name="IN.REST" data-source-line="13" id="ent0003"><rect fill="#F1F1F1" height="37.4609" rx="2.5" ry="2.5" style="stroke:#181818;stroke-width:0.5;" width="189.7021" x="1597.15" y="96.0112"/><text fill="#000000" font-family="Arial" font-size="15" lengthAdjust="spacing" textLength="169.7021" x="1607.15" y="119.9346">PortfolioRestController</text></g><!--entity INPORT--><g class="entity" data-qualified-name="APP.INPORT" data-source-line="17" id="ent0005"><ellipse cx="1187" cy="270.6612" fill="#F1F1F1" rx="8" ry="8" style="stroke:#181818;stroke-width:0.5;"/><text fill="#000000" font-family="Arial" font-size="15" lengthAdjust="spacing" textLength="250.9497" x="1061.5251" y="301.5846">PortfolioStockOperationsUseCase</text><text fill="#000000" font-family="Arial" font-size="15" lengthAdjust="spacing" textLength="126.2036" x="1061.5251" y="319.0455">&#171;port d'entrada&#187;</text></g><!--entity SERVICE--><g class="entity" data-qualified-name="APP.SERVICE" data-source-line="18" id="ent0006"><rect fill="#F1F1F1" height="54.9219" rx="2.5" ry="2.5" style="stroke:#181818;stroke-width:0.5;" width="261.6553" x="781.17" y="87.2812"/><text fill="#000000" font-family="Arial" font-size="15" lengthAdjust="spacing" textLength="241.6553" x="791.17" y="111.2046">PortfolioStockOperationsService</text><text fill="#000000" font-family="Arial" font-size="15" lengthAdjust="spacing" textLength="148.3301" x="791.17" y="128.6655">&#171;servei d'aplicaci&#243;&#187;</text></g><!--entity PRICEPORT--><g class="entity" data-qualified-name="APP.PRICEPORT" data-source-line="19" id="ent0007"><ellipse cx="1448" cy="270.6612" fill="#F1F1F1" rx="8" ry="8" style="stroke:#181818;stroke-width:0.5;"/><text fill="#000000" font-family="Arial" font-size="15" lengthAdjust="spacing" textLength="170.9912" x="1362.5044" y="301.5846">StockPriceProviderPort</text><text fill="#000000" font-family="Arial" font-size="15" lengthAdjust="spacing" textLength="129.3091" x="1362.5044" y="319.0455">&#171;port de sortida&#187;</text></g><!--entity PORTFOLIOPORT--><g class="entity" data-qualified-name="APP.PORTFOLIOPORT" data-source-line="20" id="ent0008"><ellipse cx="796" cy="270.6612" fill="#F1F1F1" rx="8" ry="8" style="stroke:#181818;stroke-width:0.5;"/><text fill="#000000" font-family="Arial" font-size="15" lengthAdjust="spacing" textLength="92.5122" x="749.7439" y="301.5846">PortfolioPort</text></g><!--entity TXPORT--><g class="entity" data-qualified-name="APP.TXPORT" data-source-line="21" id="ent0009"><ellipse cx="952" cy="270.6612" fill="#F1F1F1" rx="8" ry="8" style="stroke:#181818;stroke-width:0.5;"/><text fill="#000000" font-family="Arial" font-size="15" lengthAdjust="spacing" textLength="118.2861" x="892.8569" y="301.5846">TransactionPort</text></g><!--entity PORTFOLIO--><g class="entity" data-qualified-name="DOM.PORTFOLIO" data-source-line="25" id="ent0011"><rect fill="#F1F1F1" height="54.9219" rx="2.5" ry="2.5" style="stroke:#181818;stroke-width:0.5;" width="132.6245" x="234.69" y="243.2012"/><text fill="#000000" font-family="Arial" font-size="15" lengthAdjust="spacing" textLength="62.2412" x="244.69" y="267.1246">Portfolio</text><text fill="#000000" font-family="Arial" font-size="15" lengthAdjust="spacing" textLength="112.6245" x="244.69" y="284.5855">aggregate root</text></g><!--entity HOLDING--><g class="entity" data-qualified-name="DOM.HOLDING" data-source-line="26" id="ent0012"><rect fill="#F1F1F1" height="37.4609" rx="2.5" ry="2.5" style="stroke:#181818;stroke-width:0.5;" width="77.3413" x="23.33" y="398.6613"/><text fill="#000000" font-family="Arial" font-size="15" lengthAdjust="spacing" textLength="57.3413" x="33.33" y="422.5846">Holding</text></g><!--entity LOT--><g class="entity" data-qualified-name="DOM.LOT" data-source-line="27" id="ent0013"><rect fill="#F1F1F1" height="37.4609" rx="2.5" ry="2.5" style="stroke:#181818;stroke-width:0.5;" width="43.4155" x="38.29" y="515.1212"/><text fill="#000000" font-family="Arial" font-size="15" lengthAdjust="spacing" textLength="23.4155" x="48.29" y="539.0446">Lot</text></g><!--entity SELLRESULT--><g class="entity" data-qualified-name="DOM.SELLRESULT" data-source-line="28" id="ent0014"><rect fill="#F1F1F1" height="37.4609" rx="2.5" ry="2.5" style="stroke:#181818;stroke-width:0.5;" width="94.1064" x="166.95" y="515.1212"/><text fill="#000000" font-family="Arial" font-size="15" lengthAdjust="spacing" textLength="74.1064" x="176.95" y="539.0446">SellResult</text></g><!--entity TICKER--><g class="entity" data-qualified-name="DOM.TICKER" data-source-line="29" id="ent0015"><rect fill="#F1F1F1" height="37.4609" rx="2.5" ry="2.5" style="stroke:#181818;stroke-width:0.5;" width="65.6592" x="136.17" y="398.6613"/><text fill="#000000" font-family="Arial" font-size="15" lengthAdjust="spacing" textLength="45.6592" x="146.17" y="422.5846">Ticker</text></g><!--entity QTY--><g class="entity" data-qualified-name="DOM.QTY" data-source-line="30" id="ent0016"><rect fill="#F1F1F1" height="37.4609" rx="2.5" ry="2.5" style="stroke:#181818;stroke-width:0.5;" width="128.4351" x="236.78" y="398.6613"/><text fill="#000000" font-family="Arial" font-size="15" lengthAdjust="spacing" textLength="108.4351" x="246.78" y="422.5846">ShareQuantity</text></g><!--entity PRICE--><g class="entity" data-qualified-name="DOM.PRICE" data-source-line="31" id="ent0017"><rect fill="#F1F1F1" height="37.4609" rx="2.5" ry="2.5" style="stroke:#181818;stroke-width:0.5;" width="56.8555" x="400.57" y="398.6613"/><text fill="#000000" font-family="Arial" font-size="15" lengthAdjust="spacing" textLength="36.8555" x="410.57" y="422.5846">Price</text></g><!--entity FINHUB--><g class="entity" data-qualified-name="OUT.FINHUB" data-source-line="35" id="ent0019"><rect fill="#F1F1F1" height="54.9219" rx="2.5" ry="2.5" style="stroke:#181818;stroke-width:0.5;" width="208.9795" x="2126.51" y="87.2812"/><text fill="#000000" font-family="Arial" font-size="15" lengthAdjust="spacing" textLength="188.9795" x="2136.51" y="111.2046">FinhubStockPriceAdapter</text><text fill="#000000" font-family="Arial" font-size="15" lengthAdjust="spacing" textLength="95.8447" x="2136.51" y="128.6655">perfil: finhub</text></g><!--entity ALPHA--><g class="entity" data-qualified-name="OUT.ALPHA" data-source-line="36" id="ent0020"><rect fill="#F1F1F1" height="54.9219" rx="2.5" ry="2.5" style="stroke:#181818;stroke-width:0.5;" width="263.5742" x="2370.21" y="87.2812"/><text fill="#000000" font-family="Arial" font-size="15" lengthAdjust="spacing" textLength="243.5742" x="2380.21" y="111.2046">AlphaVantageStockPriceAdapter</text><text fill="#000000" font-family="Arial" font-size="15" lengthAdjust="spacing" textLength="152.7173" x="2380.21" y="128.6655">perfil: alphaVantage</text></g><!--entity MOCK--><g class="entity" data-qualified-name="OUT.MOCK" data-source-line="37" id="ent0021"><rect fill="#F1F1F1" height="54.9219" rx="2.5" ry="2.5" style="stroke:#181818;stroke-width:0.5;" width="248.0322" x="1842.98" y="87.2812"/><text fill="#000000" font-family="Arial" font-size="15" lengthAdjust="spacing" textLength="228.0322" x="1852.98" y="111.2046">MockFinhubStockPriceAdapter</text><text fill="#000000" font-family="Arial" font-size="15" lengthAdjust="spacing" textLength="136.5674" x="1852.98" y="128.6655">perfil: mockfinhub</text></g><!--entity API--><g class="entity" data-qualified-name="OUT.API" data-source-line="38" id="ent0022"><path d="M2275.3018,255.7081 C2278.1351,250.4774 2283.6019,249.6326 2287.2152,254.8158 C2291.0167,247.8015 2296.5077,249.1526 2300.646,254.4482 C2304.2576,247.1735 2309.601,246.7458 2313.9441,253.7679 C2317.5706,247.6722 2323.6693,247.1585 2328.2174,252.6309 C2331.7103,246.2107 2335.4859,245.5288 2340.4796,251.0957 C2344.567,245.5758 2350.4157,245.1283 2354.3087,251.3253 C2357.1861,243.8829 2364.5819,243.3104 2369.4909,248.9714 C2374.3593,244.0042 2378.8696,244.7362 2381.3603,251.3982 C2385.5025,245.1745 2390.3675,243.6966 2395.0119,250.8872 C2400.3474,246.1145 2406.5247,245.3957 2409.0276,253.8815 C2412.6587,247.5854 2417.3466,247.4559 2422.0288,252.6971 C2426.7933,248.0212 2432.0418,248.1677 2434.2169,255.357 C2438.8256,247.8805 2444.2471,249.0719 2448.8158,255.3992 C2452.9007,249.6612 2458.8351,249.9912 2462.4261,255.9727 C2471.3662,256.5787 2477.4932,263.2133 2471.4072,272.1574 C2476.6044,283.009 2471.8963,287.5383 2461.238,288.5595 C2457.684,295.8902 2451.8672,296.3237 2447.6725,289.1592 C2444.2795,296.8875 2439.748,297.4222 2434.3042,291.1122 C2430.15,296.3277 2426.529,295.6963 2422.6138,290.8349 C2419.9225,299.1767 2412.5083,299.9839 2407.3737,293.3156 C2404.3464,301.0411 2398.6962,301.7647 2393.9779,294.8643 C2390.6248,299.981 2385.0891,300.2312 2381.7101,294.8947 C2379.2031,303.4848 2373.827,303.8579 2367.703,298.5366 C2363.4953,303.81 2356.8808,304.0874 2354.4508,296.6789 C2349.4694,302.551 2344.3097,301.0275 2340.8098,294.9829 C2335.6599,300.6437 2331.4471,301.3437 2327.2317,294.0067 C2322.3422,299.2801 2318.2609,300.1603 2314.4545,292.9023 C2308.6597,297.0433 2303.9271,297.1059 2301.3462,289.3585 C2297.4749,296.4641 2292.7622,295.8653 2288.3632,289.8821 C2283.6459,296.194 2278.98,295.9773 2275.4548,288.7458 C2266.9221,285.2894 2264.9603,279.3404 2272.5091,272.8954 C2264.6654,265.9951 2266.2119,259.8569 2275.3018,255.7081" fill="#F1F1F1" style="stroke:#181818;stroke-width:0.5;"/><text fill="#000000" font-family="Arial" font-size="15" lengthAdjust="spacing" textLength="172.771" x="2280.61" y="275.8546">APIs externes de preus</text></g><g class="entity" data-qualified-name="GMN40" data-source-line="62" id="ent0041"><path d="M489.37,239.4712 L489.37,301.8541 L706.6298,301.8541 L706.6298,249.4712 L696.6298,239.4712 L489.37,239.4712" fill="#FEFFDD" style="stroke:#181818;stroke-width:0.5;"/><path d="M696.6298,239.4712 L696.6298,249.4712 L706.6298,249.4712 L696.6298,239.4712" fill="#FEFFDD" style="stroke:#181818;stroke-width:1;"/><text fill="#000000" font-family="Arial" font-size="15" lengthAdjust="spacing" textLength="138.5889" x="495.37" y="258.3946">El servei coordina.</text><text fill="#000000" font-family="Arial" font-size="15" lengthAdjust="spacing" textLength="142.0605" x="495.37" y="275.8555">El domini decideix.</text><text fill="#000000" font-family="Arial" font-size="15" lengthAdjust="spacing" textLength="196.2598" x="495.37" y="293.3165">La infraestructura adapta.</text></g><!--link REST to INPORT--><g class="link" data-entity-1="ent0003" data-entity-2="ent0005" data-link-type="dependency" data-source-line="41" id="lnk23"><path d="M1657.09,133.8712 C1620.16,152.0512 1559.66,179.0512 1504,191.2012 C1431.84,206.9512 1409.7,181.4712 1338,199.2012 C1280.43,213.4312 1223.3207,246.8755 1200.8307,260.9055" fill="none" id="REST-to-INPORT" style="stroke:#444444;stroke-width:1;"/><polygon fill="#444444" points="1195.74,264.0812,1205.4931,262.7114,1199.9822,261.4348,1201.2588,255.9239,1195.74,264.0812" style="stroke:#444444;stroke-width:1;"/><text fill="#000000" font-family="Arial" font-size="15" lengthAdjust="spacing" textLength="49.1675" x="1568.87" y="187.1246">invoca</text></g><!--link SERVICE to INPORT--><g class="link" data-entity-1="ent0006" data-entity-2="ent0005" data-link-type="extension" data-source-line="42" id="lnk24"><path d="M986.51,142.5712 C1007.5,151.1012 1030.05,161.2112 1050,172.2012 C1101.65,200.6412 1143.2023,233.43 1164.2923,250.82" fill="none" id="SERVICE-to-INPORT" style="stroke:#444444;stroke-width:1;stroke-dasharray:7,7;"/><polygon fill="none" points="1178.18,262.2712,1168.1094,246.1907,1160.4752,255.4492,1178.18,262.2712" style="stroke:#444444;stroke-width:1;"/><text fill="#000000" font-family="Arial" font-size="15" lengthAdjust="spacing" textLength="90.1172" x="1082.57" y="187.1246">implementa</text></g><!--link SERVICE to PRICEPORT--><g class="link" data-entity-1="ent0006" data-entity-2="ent0007" data-link-type="dependency" data-source-line="43" id="lnk25"><path d="M1043.31,128.5312 C1129.43,140.0212 1243.23,161.1712 1338,199.2012 C1379.04,215.6712 1416.7153,244.1576 1434.5653,258.5976" fill="none" id="SERVICE-to-PRICEPORT" style="stroke:#444444;stroke-width:1;"/><polygon fill="#444444" points="1439.23,262.3713,1434.7486,253.601,1435.3427,259.2266,1429.7171,259.8207,1439.23,262.3713" style="stroke:#444444;stroke-width:1;"/><text fill="#000000" font-family="Arial" font-size="15" lengthAdjust="spacing" textLength="170.5957" x="1317.21" y="187.1246">fetchStockPrice(ticker)</text></g><!--link SERVICE to PORTFOLIOPORT--><g class="link" data-entity-1="ent0006" data-entity-2="ent0008" data-link-type="dependency" data-source-line="44" id="lnk26"><path d="M831.92,142.5712 C819.34,150.2212 807.9,159.9312 800,172.2012 C781.65,200.6712 788.1004,238.314 792.4304,255.964" fill="none" id="SERVICE-to-PORTFOLIOPORT" style="stroke:#444444;stroke-width:1;"/><polygon fill="#444444" points="793.86,261.7912,795.6005,252.0974,792.6687,256.9352,787.8308,254.0035,793.86,261.7912" style="stroke:#444444;stroke-width:1;"/><text fill="#000000" font-family="Arial" font-size="15" lengthAdjust="spacing" textLength="117.605" x="801" y="187.1246">recupera / desa</text></g><!--link SERVICE to TXPORT--><g class="link" data-entity-1="ent0006" data-entity-2="ent0009" data-link-type="dependency" data-source-line="45" id="lnk27"><path d="M918.97,142.5512 C928.28,178.3812 942.7628,234.0936 948.4228,255.9036" fill="none" id="SERVICE-to-TXPORT" style="stroke:#444444;stroke-width:1;"/><polygon fill="#444444" points="949.93,261.7112,951.541,251.995,948.674,256.8716,943.7975,254.0046,949.93,261.7112" style="stroke:#444444;stroke-width:1;"/><text fill="#000000" font-family="Arial" font-size="15" lengthAdjust="spacing" textLength="109.2334" x="931.8" y="187.1246">registra venda</text></g><!--link SERVICE to PORTFOLIO--><g class="link" data-entity-1="ent0006" data-entity-2="ent0011" data-link-type="dependency" data-source-line="46" id="lnk28"><path d="M780.79,127.3712 C707.55,135.8512 615.17,149.8712 535,172.2012 C471.2,189.9712 406.9577,217.9527 360.3777,240.1227" fill="none" id="SERVICE-to-PORTFOLIO" style="stroke:#444444;stroke-width:1;"/><polygon fill="#444444" points="354.96,242.7012,364.8055,242.4452,359.4747,240.5524,361.3674,235.2216,354.96,242.7012" style="stroke:#444444;stroke-width:1;"/><text fill="#000000" font-family="Arial" font-size="15" lengthAdjust="spacing" textLength="198.3984" x="536" y="187.1246">sell(ticker, quantity, price)</text></g><!--link PORTFOLIO to HOLDING--><g class="link" data-entity-1="ent0011" data-entity-2="ent0012" data-link-type="dependency" data-source-line="48" id="lnk29"><path d="M234.37,290.8512 C197.19,303.6512 151.38,323.0513 116,349.6613 C98.13,363.0912 85.9647,378.6833 76.2247,393.4433" fill="none" id="PORTFOLIO-to-HOLDING" style="stroke:#444444;stroke-width:1;"/><polygon fill="#444444" points="72.92,398.4512,81.2156,393.1425,75.6739,394.278,74.5384,388.7363,72.92,398.4512" style="stroke:#444444;stroke-width:1;"/><text fill="#000000" font-family="Arial" font-size="15" lengthAdjust="spacing" textLength="89.1138" x="117" y="364.5846">delega FIFO</text></g><!--link HOLDING to LOT--><g class="link" data-entity-1="ent0012" data-entity-2="ent0013" data-link-type="dependency" data-source-line="49" id="lnk30"><path d="M59.65,436.4912 C58.62,445.3912 57.51,456.3013 57,466.1213 C56.14,482.5613 56.6831,495.3202 57.7531,508.7402" fill="none" id="HOLDING-to-LOT" style="stroke:#444444;stroke-width:1;"/><polygon fill="#444444" points="58.23,514.7212,61.502,505.4318,57.8326,509.7371,53.5273,506.0676,58.23,514.7212" style="stroke:#444444;stroke-width:1;"/><text fill="#000000" font-family="Arial" font-size="15" lengthAdjust="spacing" textLength="112.9468" x="58" y="481.0446">consumeix lots</text></g><!--link HOLDING to SELLRESULT--><g class="link" data-entity-1="ent0012" data-entity-2="ent0014" data-link-type="dependency" data-source-line="50" id="lnk31"><path d="M101.06,431.8912 C128.93,442.0712 163.44,455.9612 175,466.1213 C190.12,479.4012 198.5442,494.5173 204.8942,509.3173" fill="none" id="HOLDING-to-SELLRESULT" style="stroke:#444444;stroke-width:1;"/><polygon fill="#444444" points="207.26,514.8313,207.3873,504.9832,205.2885,510.2363,200.0354,508.1376,207.26,514.8313" style="stroke:#444444;stroke-width:1;"/><text fill="#000000" font-family="Arial" font-size="15" lengthAdjust="spacing" textLength="117.9272" x="191.2" y="481.0446">retorna resultat</text></g><!--link PORTFOLIO to TICKER--><g class="link" data-entity-1="ent0011" data-entity-2="ent0015" data-link-type="dependency" data-source-line="51" id="lnk32"><path d="M276.48,298.5412 C249.94,327.6412 212.3829,368.8179 189.5029,393.9079" fill="none" id="PORTFOLIO-to-TICKER" style="stroke:#444444;stroke-width:1;stroke-dasharray:7,7;"/><polygon fill="#444444" points="185.46,398.3412,194.4799,394.3864,188.8291,394.6468,188.5687,388.9959,185.46,398.3412" style="stroke:#444444;stroke-width:1;"/></g><!--link PORTFOLIO to QTY--><g class="link" data-entity-1="ent0011" data-entity-2="ent0016" data-link-type="dependency" data-source-line="52" id="lnk33"><path d="M301,298.5412 C301,327.6412 301,367.2512 301,392.3412" fill="none" id="PORTFOLIO-to-QTY" style="stroke:#444444;stroke-width:1;stroke-dasharray:7,7;"/><polygon fill="#444444" points="301,398.3412,305,389.3412,301,393.3412,297,389.3412,301,398.3412" style="stroke:#444444;stroke-width:1;"/></g><!--link PORTFOLIO to PRICE--><g class="link" data-entity-1="ent0011" data-entity-2="ent0017" data-link-type="dependency" data-source-line="53" id="lnk34"><path d="M324.78,298.5412 C350.51,327.6412 386.8751,368.7568 409.0651,393.8468" fill="none" id="PORTFOLIO-to-PRICE" style="stroke:#444444;stroke-width:1;stroke-dasharray:7,7;"/><polygon fill="#444444" points="413.04,398.3412,410.0739,388.9497,409.7275,394.5959,404.0813,394.2496,413.04,398.3412" style="stroke:#444444;stroke-width:1;"/></g><!--link FINHUB to PRICEPORT--><g class="link" data-entity-1="ent0019" data-entity-2="ent0007" data-link-type="extension" data-source-line="55" id="lnk35"><path d="M2159.39,142.6612 C2143,148.1412 2125.53,153.4512 2109,157.4712 C1985.88,187.3712 1951.97,178.3412 1827,199.2012 C1678.47,223.9812 1515.9124,256.111 1474.4424,264.381" fill="none" id="FINHUB-to-PRICEPORT" style="stroke:#444444;stroke-width:1;stroke-dasharray:7,7;"/><polygon fill="none" points="1456.79,267.9012,1475.6158,270.2651,1473.269,258.4968,1456.79,267.9012" style="stroke:#444444;stroke-width:1;"/></g><!--link ALPHA to PRICEPORT--><g class="link" data-entity-1="ent0020" data-entity-2="ent0007" data-link-type="extension" data-source-line="56" id="lnk36"><path d="M2415.95,142.6812 C2395.49,148.3012 2373.6,153.6612 2353,157.4712 C2193.23,186.9912 2151.06,179.6912 1989,191.2012 C1917.09,196.3012 1898.6,190.8112 1827,199.2012 C1677.44,216.7112 1515.5313,253.7478 1474.2713,263.4578" fill="none" id="ALPHA-to-PRICEPORT" style="stroke:#444444;stroke-width:1;stroke-dasharray:7,7;"/><polygon fill="none" points="1456.75,267.5812,1475.6458,269.2983,1472.8969,257.6174,1456.75,267.5812" style="stroke:#444444;stroke-width:1;"/></g><!--link MOCK to PRICEPORT--><g class="link" data-entity-1="ent0021" data-entity-2="ent0007" data-link-type="extension" data-source-line="57" id="lnk37"><path d="M1876.3,142.6412 C1743.22,182.1012 1522.7672,247.4837 1474.1072,261.9137" fill="none" id="MOCK-to-PRICEPORT" style="stroke:#444444;stroke-width:1;stroke-dasharray:7,7;"/><polygon fill="none" points="1456.85,267.0312,1475.813,267.6661,1472.4013,256.1613,1456.85,267.0312" style="stroke:#444444;stroke-width:1;"/></g><!--link FINHUB to API--><g class="link" data-entity-1="ent0019" data-entity-2="ent0022" data-link-type="dependency" data-source-line="58" id="lnk38"><path d="M2254.69,142.5512 C2280.72,172.0012 2318.107,214.3251 2342.717,242.1751" fill="none" id="FINHUB-to-API" style="stroke:#444444;stroke-width:1;"/><polygon fill="#444444" points="2346.69,246.6712,2343.7278,237.2784,2343.3791,242.9245,2337.733,242.5758,2346.69,246.6712" style="stroke:#444444;stroke-width:1;"/></g><!--link ALPHA to API--><g class="link" data-entity-1="ent0020" data-entity-2="ent0022" data-link-type="dependency" data-source-line="59" id="lnk39"><path d="M2478.48,142.5512 C2452.65,172.0012 2415.5457,214.3099 2391.1257,242.1599" fill="none" id="ALPHA-to-API" style="stroke:#444444;stroke-width:1;"/><polygon fill="#444444" points="2387.17,246.6712,2396.1112,242.5414,2390.4664,242.9118,2390.096,237.2671,2387.17,246.6712" style="stroke:#444444;stroke-width:1;"/></g><!--link SERVICE to GMN40--><g class="link" data-entity-1="ent0006" data-entity-2="ent0041" data-link-type="association" data-source-line="62" id="lnk42"><path d="M850.36,142.6212 C829.28,151.9012 805.57,162.4212 784,172.2012 C758.1,183.9412 751.36,186.3312 726,199.2012 C701.34,211.7112 674.48,226.3412 651.75,239.0112" fill="none" id="SERVICE-GMN40" style="stroke:#444444;stroke-width:1;stroke-dasharray:7,7;"/></g><?plantuml-src XLNRRjiu47tNLn3fmsw1rhjRz084HG2lOws5Af5gEyKka9SnDRA9KAIMfD9qBz_KXtv2Vgn3Ih4kcs3j1rcSSuQ7d3DZ9vn4ji8xs3ZDRqxPBQe2MF43S2wqiWog7QkDliNxhuKsh41wmyOos-oi4wwv_xgJ64NsHgWQ35Hi1_ncRtIZYeMMn7WMXyy0OGzGwCz2xLa9qk8WKc09ZNInLkuIAcHp8q0-7j-8lv3zycOGTFuenz2hdmSXhgjQAwIG-qB7DSWTgBqSRbsJRDZZqu2vCVfpTwJNuHD57OcT96hdJyoWWDgXEM5WMN8Pplvk-PRz7R5U0pl9jN6bbaAlqRe5AJPQoewrNcwsqR-3rFEwbeA3ese4m3pFsRFbCduTpqDUeMZ34ZWEyePQPZMQGBDN5XTWyLgzVryJXAfBCWnfFJlhbERPUlk4nack3PfRmKCkIpzHUAy4XLpSV-iIRfRhJybYELON4kM6o3dvIHHe_1wzA6IMdkAeAbzJYaxOOuVqFreWOU8iJRB_WhS6b0NkbH_Xszy3RdZ7vxe2qLxlUNOHhlTj_Eh9ibqhsEyDxi6HLRIUg1YJLbeMPFK0MMNfUNBvsnYGTlmqcrHWWrAIGSZltPscAPdZAft0jeBVTDxP9eiFo_Kaom4CVcn0KNjy2QYFspycv_8rwQzyT3DPuqREjW6NNMt9s-_yTtf9iL27PjVNUjxohXKvg1Job9K14DB4oUNgwjSnVoxh0tmYkQ4Pdym20rZR5cc-cezJNH3xV-LK51b8kiWM7tmMgPk2nEI9PNX718NsEFkwDapyHVbsPIzVddKzn4x9VRUQGzIr09lD_Xa6grfYHUfwW2SVhKwG4Xq_z89_TA6-pyVueUE9G_EgyHtAVYAHTfoxjNi0xOMbjcz7_EFv26R9TjscBzYVdN5UqCb9pFCewg6Us3cQQ0LAQWWgQPn53wiUGRQcAAV9qLGexfZKpeu0lQ-3HgUD0dfwtuCRR3URdJqOVBpe_JnUQMqSjVPgAz0Fas2KwQ8l-tIjetkDljWjx-4jKfgQVwUTqnNJvM3YBINh1YFNsb3lmwnTBNGb58rBv3Jxn9rVJO7iKXgWlm7JSDTGSKAV4OLgnFmUtm40?></g></svg>