<?plantuml 1.2026.2?><svg xmlns="http://www.w3.org/2000/svg" xmlns:xlink="http://www.w3.org/1999/xlink" contentStyleType="text/css" data-diagram-type="DESCRIPTION" height="425px" preserveAspectRatio="none" style="width:994px;height:425px;background:#FFFFFF;" version="1.1" viewBox="0 0 994 425" width="994px" zoomAndPan="magnify"><title>Patr&#243;: el cas d'&#250;s dep&#232;n d'una capacitat, no d'un prove&#239;dor</title><defs/><g><g class="title" data-source-line="1"><text fill="#000000" font-family="Arial" font-size="20" font-weight="bold" lengthAdjust="spacing" textLength="666.9336" x="156.6982" y="28.5645">Patr&#243;: el cas d'&#250;s dep&#232;n d'una capacitat, no d'un prove&#239;dor</text></g><!--cluster APP--><g class="cluster" data-qualified-name="APP" data-source-line="12" id="ent0002"><rect fill="#EEF4FA" height="291.88" rx="2.5" ry="2.5" style="stroke:#181818;stroke-width:1;" width="212" x="556.33" y="51.2813"/><text fill="#000000" font-family="Arial" font-size="16" font-weight="bold" lengthAdjust="spacing" textLength="102.0547" x="611.3027" y="68.1328">Application</text></g><!--cluster DOM--><g class="cluster" data-qualified-name="DOM" data-source-line="17" id="ent0005"><rect fill="#EEF6F2" height="110.25" rx="2.5" ry="2.5" style="stroke:#181818;stroke-width:1;" width="196" x="792.33" y="211.5313"/><text fill="#000000" font-family="Arial" font-size="16" font-weight="bold" lengthAdjust="spacing" textLength="68.6172" x="856.0214" y="228.3828">Domain</text></g><!--cluster INFRA--><g class="cluster" data-qualified-name="INFRA" data-source-line="21" id="ent0007"><rect fill="#F7F7F7" height="275.5" rx="2.5" ry="2.5" style="stroke:#181818;stroke-width:1;" width="273" x="206.33" y="51.2813"/><text fill="#000000" font-family="Arial" font-size="16" font-weight="bold" lengthAdjust="spacing" textLength="126.7109" x="279.4745" y="68.1328">Infrastructure</text></g><!--entity SERVICE--><g class="entity" data-qualified-name="APP.SERVICE" data-source-line="13" id="ent0003"><rect fill="#DDEAF7" height="57.25" rx="2.5" ry="2.5" style="stroke:#181818;stroke-width:0.5;" width="179.0156" x="572.82" y="88.2813"/><text fill="#000000" font-family="Arial" font-size="16" lengthAdjust="spacing" textLength="153.6172" x="582.82" y="113.1328">Application Service</text><text fill="#000000" font-family="Arial" font-size="16" lengthAdjust="spacing" textLength="159.0156" x="582.82" y="131.7578">coordina el cas d'&#250;s</text></g><!--entity PORT--><g class="entity" data-qualified-name="APP.PORT" data-source-line="14" id="ent0004"><ellipse cx="658.33" cy="277.1613" fill="#FFFFFF" rx="8" ry="8" style="stroke:#181818;stroke-width:0.5;"/><text fill="#000000" font-family="Arial" font-size="16" lengthAdjust="spacing" textLength="92.9531" x="579.9355" y="309.0128">Output Port</text><text fill="#000000" font-family="Arial" font-size="16" lengthAdjust="spacing" textLength="156.7891" x="579.9355" y="327.6378">capacitat requerida</text></g><!--entity DOMAIN--><g class="entity" data-qualified-name="DOM.DOMAIN" data-source-line="18" id="ent0006"><rect fill="#DDEFE6" height="57.25" rx="2.5" ry="2.5" style="stroke:#181818;stroke-width:0.5;" width="163.2578" x="808.7" y="248.5313"/><text fill="#000000" font-family="Arial" font-size="16" lengthAdjust="spacing" textLength="115.2109" x="818.7" y="273.3828">Domain Model</text><text fill="#000000" font-family="Arial" font-size="16" lengthAdjust="spacing" textLength="143.2578" x="818.7" y="292.0078">invariants i regles</text></g><!--entity ADAPTER--><g class="entity" data-qualified-name="INFRA.ADAPTER" data-source-line="22" id="ent0008"><rect fill="#FFF3D6" height="57.25" rx="2.5" ry="2.5" style="stroke:#181818;stroke-width:0.5;" width="178.5938" x="253.03" y="88.2813"/><text fill="#000000" font-family="Arial" font-size="16" lengthAdjust="spacing" textLength="63.7578" x="263.03" y="113.1328">Adapter</text><text fill="#000000" font-family="Arial" font-size="16" lengthAdjust="spacing" textLength="158.5938" x="263.03" y="131.7578">tecnologia concreta</text></g><!--entity API--><g class="entity" data-qualified-name="INFRA.API" data-source-line="23" id="ent0009"><path d="M230.5984,252.6829 C234.1685,247.3776 239.1109,245.2956 243.2929,252.0381 C247.235,244.8134 252.4852,244.2072 257.1369,251.3546 C260.6038,246.4139 265.244,246.1375 268.673,251.3974 C271.999,245.2456 277.4377,244.7755 281.4422,250.6789 C284.4899,243.7925 288.989,243.9309 294.151,248.2892 C297.3118,242.4953 301.5584,242.3401 304.9463,248.0764 C309.3466,241.365 315.536,241.9687 318.3961,249.528 C321.6024,244.9329 327.1374,244.5713 329.4186,250.4971 C333.4774,243.7694 339.1688,245.1739 342.559,251.1866 C345.4607,244.5281 351.5786,244.5408 355.1143,250.5586 C360.53,244.2175 364.8032,246.3586 368.0621,252.7516 C371.1535,247.1137 376.737,246.9419 380.0205,252.5471 C387.3695,255.7428 387.0789,260.2808 381.7849,265.2347 C389.2414,266.0058 390.4807,272.3512 386.1309,277.3555 C391.8131,284.333 390.2003,289.0246 381.693,291.5729 C386.1249,296.6884 385.2164,300.7938 378.8661,303.313 C375.5631,308.797 371.2526,309.1777 366.9281,304.5148 C364.3487,311.3967 358.0185,311.3208 353.7507,306.3999 C351.3705,313.5295 346.945,313.8828 341.988,308.9029 C338.7653,315.0886 332.8737,315.8616 329.2064,309.3504 C326.3537,315.107 320.9551,315.288 317.4724,310.021 C314.9449,316.6245 310.1335,316.3031 305.7133,312.0758 C301.1257,317.1883 295.9149,316.7313 293.5811,309.8046 C289.6285,316.0608 284.0335,315.2276 280.6215,309.2327 C277.2973,314.2488 271.7495,314.2443 269.2679,308.3554 C263.92,313.45 259.3962,312.8773 256.0865,306.0936 C251.0366,311.168 246.5104,312.0871 242.6894,304.7654 C238.6469,309.627 234.0137,309.3463 230.5913,304.0284 C224.6282,300.3342 223.6872,296.6443 229.1009,291.5871 C221.4573,288.1597 221.7248,283.2693 227.4312,278.1793 C221.6775,273.6008 222.2369,268.3512 229.2503,265.6223 C223.6229,261.2432 224.9099,255.883 230.5984,252.6829" fill="#F4F4F4" style="stroke:#181818;stroke-width:0.5;"/><text fill="#000000" font-family="Arial" font-size="16" lengthAdjust="spacing" textLength="97.0625" x="237.31" y="273.3828">External API</text><text fill="#000000" font-family="Arial" font-size="16" lengthAdjust="spacing" textLength="134.0391" x="237.31" y="292.0078">prove&#239;dor extern</text></g><g class="entity" data-qualified-name="GMN14" data-source-line="32" id="ent0015"><path d="M6,390.1613 L6,418.7863 A0,0 0 0 0 6,418.7863 L602.6563,418.7863 A0,0 0 0 0 602.6563,418.7863 L602.6563,400.1613 L592.6563,390.1613 L308.33,390.1613 L304.33,311.0813 L300.33,390.1613 L6,390.1613 A0,0 0 0 0 6,390.1613" fill="#FEFFDD" style="stroke:#181818;stroke-width:0.5;"/><path d="M592.6563,390.1613 L592.6563,400.1613 L602.6563,400.1613 L592.6563,390.1613" fill="#FEFFDD" style="stroke:#181818;stroke-width:0.5;"/><text fill="#000000" font-family="Arial" font-size="16" lengthAdjust="spacing" textLength="575.6563" x="12" y="410.0128">Regla de depend&#232;ncies: el nucli no dep&#232;n dels detalls d'infraestructura.</text></g><!--link SERVICE to DOMAIN--><g class="link" data-entity-1="ent0003" data-entity-2="ent0006" data-link-type="dependency" data-source-line="26" id="lnk10"><path d="M727.28,145.9113 C744.74,154.4912 763.22,164.5813 779.33,175.5313 C810.73,196.8813 838.1942,222.3519 859.6242,243.9519" fill="none" id="SERVICE-to-DOMAIN" style="stroke:#444444;stroke-width:1;"/><polygon fill="#444444" points="863.85,248.2113,860.3508,239.005,860.3285,244.6618,854.6717,244.6394,863.85,248.2113" style="stroke:#444444;stroke-width:1;"/><text fill="#000000" font-family="Arial" font-size="16" lengthAdjust="spacing" textLength="133.625" x="806.59" y="191.3828">delega decisions</text></g><!--link SERVICE to PORT--><g class="link" data-entity-1="ent0003" data-entity-2="ent0004" data-link-type="dependency" data-source-line="27" id="lnk11"><path d="M661.62,145.8313 C660.68,182.9213 659.2297,240.3131 658.6797,262.3431" fill="none" id="SERVICE-to-PORT" style="stroke:#444444;stroke-width:1;"/><polygon fill="#444444" points="658.53,268.3413,662.7534,259.4439,658.6548,263.3428,654.7559,259.2442,658.53,268.3413" style="stroke:#444444;stroke-width:1;"/><text fill="#000000" font-family="Arial" font-size="16" lengthAdjust="spacing" textLength="109.6641" x="661.8" y="191.3828">usa contracte</text></g><!--link ADAPTER to PORT--><g class="link" data-entity-1="ent0008" data-entity-2="ent0004" data-link-type="extension" data-source-line="28" id="lnk12"><path d="M402.73,145.8913 C422.45,155.1713 444.39,165.6513 464.33,175.5313 C536.41,211.2313 606.2746,248.3277 633.6146,262.9377" fill="none" id="ADAPTER-to-PORT" style="stroke:#444444;stroke-width:1;stroke-dasharray:7,7;"/><polygon fill="none" points="649.49,271.4213,636.4424,257.6459,630.7867,268.2295,649.49,271.4213" style="stroke:#444444;stroke-width:1;"/><text fill="#000000" font-family="Arial" font-size="16" lengthAdjust="spacing" textLength="96.125" x="502.71" y="191.3828">implementa</text></g><!--link ADAPTER to API--><g class="link" data-entity-1="ent0008" data-entity-2="ent0009" data-link-type="dependency" data-source-line="29" id="lnk13"><path d="M281.88,145.8413 C270.82,153.8112 260.75,163.6413 254.33,175.5313 C242.27,197.8413 251.6065,218.7523 267.4065,238.5423" fill="none" id="ADAPTER-to-API" style="stroke:#444444;stroke-width:1;"/><polygon fill="#444444" points="271.15,243.2313,268.6606,233.7022,268.0304,239.3238,262.4087,238.6936,271.15,243.2313" style="stroke:#444444;stroke-width:1;"/><text fill="#000000" font-family="Arial" font-size="16" lengthAdjust="spacing" textLength="204.375" x="255.33" y="191.3828">HTTP / SOAP / JSON / XML</text></g><?plantuml-src TLCxRzim4DxrAmxEaALnszHm00y5X5X2NTIsO1j51oyNwkmIeKYLEZbz_fzk7RfrzH_haR4TfGyIq46y1x_lEnvhDWG5ij__704PKDX0URx_9L-gzz-j_BGMvRX6fHdv2LWNpw3sRaVx7wNpITBSQbkZnmfkKDrklMjjUUsCyt2MnzM9QDvZwUwqtS86JKCTJqaRR0tdpl8CAuBKQpJ_zY_rPuBdmuwJ0vEJw_9PnwLSLJjBuk9FmjQJOhHRqxrQsDtYbluVa7hlxWwK1d4boI49UcbT6wsGjRCz407Jee2pBCi7UGfV4dW0y2WKbkHtMj7QAkTygKNcRWDYfMMsU3kvpk1iFCxI_4fgQSlaDwZasddBTSjGECzIuzWXWV-X9QzBZ1MA-M9rwiAt3kYngr3VuntFfn7lCB_y4-zz54nTIMPjjTsXDCLo0rhk4OcQOu5qCeieyspuw9g9tNXisBUAMqynUZBB5wbWkWhxBu5Ah8NXMcWgAtfljRm-PvKdlYUKZjDYbIqYfnVZOSWshYsXbtsKF8j6v9-ixSFp18gEGsScaZW8Ew0yodjnyVB8OIJFpD0MnIZTI9kQHr5HpX6qJKJ57XLJSeJKxtyzHUYgDbG99JovGtu0C89NgrK1Js4vJuDvlPpFnBoRlaaIwvZWnZ6xIfWjHEA090mZsLBcKMbgug3QLXaTX_4mfsJ2p3AQOCzra9sEkcC_aNG8nNy3?></g></svg>