<svg xmlns="http://www.w3.org/2000/svg" xmlns:xlink="http://www.w3.org/1999/xlink" contentStyleType="text/css" data-diagram-type="DESCRIPTION" height="431px" preserveAspectRatio="none" style="width:926px;height:431px;background:#FFFFFF;" version="1.1" viewBox="0 0 926 431" width="926px" zoomAndPan="magnify"><?plantuml 1.2026.6?><defs/><g><g class="title" data-source-line="1"><text fill="#000000" font-family="Arial" font-size="20" font-weight="700" lengthAdjust="spacing" textLength="559.9219" x="179.6891" y="28.7598">Patr&#243;: el cas d'&#250;s dep&#232;n d'una capacitat, no d'un prove&#239;dor</text></g><!--cluster APP--><g class="cluster" data-qualified-name="APP" data-source-line="12" id="ent0001"><rect fill="#EEF4FA" height="290.19" rx="2.5" ry="2.5" style="stroke:#181818;stroke-width:1;" width="192" x="520.3" y="50.998"/><text fill="#000000" font-family="Arial" font-size="16" font-weight="700" lengthAdjust="spacing" textLength="71.1328" x="580.7336" y="68.0059">Aplicaci&#243;</text></g><!--cluster DOM--><g class="cluster" data-qualified-name="DOM" data-source-line="17" id="ent0004"><rect fill="#EEF6F2" height="109.8" rx="2.5" ry="2.5" style="stroke:#181818;stroke-width:1;" width="176" x="736.3" y="210.788"/><text fill="#000000" font-family="Arial" font-size="16" font-weight="700" lengthAdjust="spacing" textLength="54.2188" x="797.1906" y="227.7959">Domini</text></g><!--cluster INFRA--><g class="cluster" data-qualified-name="INFRA" data-source-line="21" id="ent0006"><rect fill="#F7F7F7" height="274.59" rx="2.5" ry="2.5" style="stroke:#181818;stroke-width:1;" width="270" x="180.3" y="50.998"/><text fill="#000000" font-family="Arial" font-size="16" font-weight="700" lengthAdjust="spacing" textLength="112.9219" x="258.8391" y="68.0059">Infraestructura</text></g><!--entity SERVICE--><g class="entity" data-qualified-name="APP.SERVICE" data-source-line="13" id="ent0002"><rect fill="#DDEAF7" height="56.7969" rx="2.5" ry="2.5" style="stroke:#181818;stroke-width:0.5;" width="160.9141" x="535.85" y="87.998"/><text fill="#000000" font-family="Arial" font-size="16" lengthAdjust="spacing" textLength="124.0078" x="545.85" y="113.0059">Servei d'aplicaci&#243;</text><text fill="#000000" font-family="Arial" font-size="16" lengthAdjust="spacing" textLength="140.9141" x="545.85" y="131.4043">coordina el cas d'&#250;s</text></g><!--entity PORT--><g class="entity" data-qualified-name="APP.PORT" data-source-line="14" id="ent0003"><ellipse cx="612.3" cy="276.188" fill="#FFFFFF" rx="8" ry="8" style="stroke:#181818;stroke-width:0.5;"/><text fill="#000000" font-family="Arial" font-size="16" lengthAdjust="spacing" textLength="104.0547" x="544.257" y="308.1959">Port de sortida</text><text fill="#000000" font-family="Arial" font-size="16" lengthAdjust="spacing" textLength="136.0859" x="544.257" y="326.5943">capacitat requerida</text></g><!--entity DOMAIN--><g class="entity" data-qualified-name="DOM.DOMAIN" data-source-line="18" id="ent0005"><rect fill="#DDEFE6" height="56.7969" rx="2.5" ry="2.5" style="stroke:#181818;stroke-width:0.5;" width="144.5" x="752.05" y="247.788"/><text fill="#000000" font-family="Arial" font-size="16" lengthAdjust="spacing" textLength="117.3984" x="762.05" y="272.7959">Model de domini</text><text fill="#000000" font-family="Arial" font-size="16" lengthAdjust="spacing" textLength="124.5" x="762.05" y="291.1943">invariants i regles</text></g><!--entity ADAPTER--><g class="entity" data-qualified-name="INFRA.ADAPTER" data-source-line="22" id="ent0007"><rect fill="#FFF3D6" height="56.7969" rx="2.5" ry="2.5" style="stroke:#181818;stroke-width:0.5;" width="158.7578" x="235.93" y="87.998"/><text fill="#000000" font-family="Arial" font-size="16" lengthAdjust="spacing" textLength="73.8359" x="245.93" y="113.0059">Adaptador</text><text fill="#000000" font-family="Arial" font-size="16" lengthAdjust="spacing" textLength="138.7578" x="245.93" y="131.4043">tecnologia concreta</text></g><!--entity API--><g class="entity" data-qualified-name="INFRA.API" data-source-line="23" id="ent0008"><path d="M205.5782,252.9754 C209.7941,247.016 214.1472,246.1789 218.9419,252.3371 C221.7456,245.5508 225.8039,245.3878 230.4518,250.5625 C234.0307,242.6719 240.6831,243.0462 245.1874,249.6197 C248.0907,244.7338 253.527,243.0659 256.9082,249.107 C261.2473,242.8305 265.5559,242.5463 270.3796,248.5765 C274.9707,242.4411 279.1542,243.8573 283.0647,249.3209 C288.2319,242.7178 292.6865,243.9198 296.5004,250.6814 C300.546,244.1635 304.4967,245.3763 308.9573,250.2265 C313.874,244.3829 317.9737,244.9734 322.4392,250.75 C326.7925,243.8013 332.646,244.0355 336.2452,251.4737 C344.0043,252.8912 345.6616,258.3914 340.7315,264.2608 C347.8101,267.5072 349.8375,272.7314 343.0697,278.2861 C348.8209,283.5057 348.2923,287.9851 340.7505,290.7266 C344.5088,296.3647 343.7806,301.0218 336.1656,302.0581 C332.2108,309.7182 327.5822,309.2648 321.7965,304.1112 C318.961,311.0623 312.723,311.5985 308.7362,305.241 C306.5665,311.367 301.4661,311.7052 297.3848,307.3017 C293.0813,313.4774 286.8946,314.6421 282.7254,307.1577 C279.7323,312.0474 274.8405,313.5749 271.1109,307.9731 C266.7408,313.6313 262.3392,314.7393 257.7841,308.1747 C252.921,314.3742 247.3014,313.53 244.4112,306.2215 C239.4621,311.3689 234.8988,310.6457 231.6325,304.3434 C227.371,311.0208 221.5775,312.0491 217.1048,304.5601 C213.3403,308.9314 207.8031,309.1478 205.9368,302.6158 C197.9157,300.4409 197.1505,295.5856 202.4785,289.8067 C195.0065,287.696 194.8739,283.8479 199.0948,278.299 C193.7855,272.9967 196.6314,266.6376 203.133,264.893 C197.9582,259.8064 198.2889,255.5047 205.5782,252.9754" fill="#F4F4F4" style="stroke:#181818;stroke-width:0.5;"/><text fill="#000000" font-family="Arial" font-size="16" lengthAdjust="spacing" textLength="94.2656" x="211.05" y="272.7959">Servei extern</text><text fill="#000000" font-family="Arial" font-size="16" lengthAdjust="spacing" textLength="116.5078" x="211.05" y="291.1943">prove&#239;dor extern</text></g><g class="entity" data-qualified-name="GMN13" data-source-line="32" id="ent0014"><path d="M6,388.188 L6,416.5865 A0,0 0 0 0 6,416.5865 L532.6094,416.5865 A0,0 0 0 0 532.6094,416.5865 L532.6094,398.188 L522.6094,388.188 L273.3,388.188 L269.3,309.818 L265.3,388.188 L6,388.188 A0,0 0 0 0 6,388.188" fill="#FEFFDD" style="stroke:#181818;stroke-width:0.5;"/><path d="M522.6094,388.188 L522.6094,398.188 L532.6094,398.188 L522.6094,388.188" fill="#FEFFDD" style="stroke:#181818;stroke-width:0.5;"/><text fill="#000000" font-family="Arial" font-size="16" lengthAdjust="spacing" textLength="505.6094" x="12" y="408.1959">Regla de depend&#232;ncies: el nucli no dep&#232;n dels detalls d'infraestructura.</text></g><!--link SERVICE to DOMAIN--><g class="link" data-entity-1="ent0002" data-entity-2="ent0005" data-link-type="dependency" data-source-line="26" id="lnk9"><path d="M673.02,145.178 C688.85,153.858 705.71,164.008 720.3,174.788 C749.78,196.558 776.0413,222.4994 796.1113,243.9194" fill="none" id="SERVICE-to-DOMAIN" style="stroke:#444444;stroke-width:1;"/><polygon fill="#444444" points="799.53,247.568,796.2953,238.2655,796.1113,243.9194,790.4575,243.7354,799.53,247.568" style="stroke:#444444;stroke-width:1;stroke-linejoin:miter;stroke-miterlimit:10;"/><text fill="#000000" font-family="Arial" font-size="16" lengthAdjust="spacing" textLength="119.1953" x="745.94" y="190.7959">delega decisions</text></g><!--link SERVICE to PORT--><g class="link" data-entity-1="ent0002" data-entity-2="ent0003" data-link-type="dependency" data-source-line="27" id="lnk10"><path d="M615.6,145.238 C614.66,182.228 613.1875,240.4397 612.6275,262.3997" fill="none" id="SERVICE-to-PORT" style="stroke:#444444;stroke-width:1;"/><polygon fill="#444444" points="612.5,267.398,616.7281,258.5029,612.6275,262.3997,608.7307,258.299,612.5,267.398" style="stroke:#444444;stroke-width:1;stroke-linejoin:miter;stroke-miterlimit:10;"/><text fill="#000000" font-family="Arial" font-size="16" lengthAdjust="spacing" textLength="96.0547" x="615.78" y="190.7959">usa contracte</text></g><!--link ADAPTER to PORT--><g class="link" data-entity-1="ent0007" data-entity-2="ent0003" data-link-type="extension" data-source-line="28" id="lnk11"><path d="M375.53,145.188 C394.77,154.338 416.06,164.748 435.3,174.788 C501.07,209.118 562.6023,245.4485 588.1323,260.7185" fill="none" id="ADAPTER-to-PORT" style="stroke:#444444;stroke-width:1;stroke-dasharray:7,7;"/><polygon fill="none" points="603.58,269.958,591.2122,255.5693,585.0525,265.8677,603.58,269.958" style="stroke:#444444;stroke-width:1;stroke-linejoin:miter;stroke-miterlimit:10;"/><text fill="#000000" font-family="Arial" font-size="16" lengthAdjust="spacing" textLength="82.7031" x="470.65" y="190.7959">implementa</text></g><!--link ADAPTER to API--><g class="link" data-entity-1="ent0007" data-entity-2="ent0008" data-link-type="dependency" data-source-line="29" id="lnk12"><path d="M255.98,144.978 C244.87,152.968 234.74,162.838 228.3,174.788 C216.53,196.678 224.9729,218.5572 238.6529,238.6172" fill="none" id="ADAPTER-to-API" style="stroke:#444444;stroke-width:1;"/><polygon fill="#444444" points="241.47,242.748,239.704,233.0588,238.6529,238.6172,233.0946,237.5661,241.47,242.748" style="stroke:#444444;stroke-width:1;stroke-linejoin:miter;stroke-miterlimit:10;"/><text fill="#000000" font-family="Arial" font-size="16" lengthAdjust="spacing" textLength="201.8125" x="229.3" y="190.7959">HTTP / SOAP / JSON / XML</text></g><?plantuml-src TLDDRzf04BtxLupWa4j3snGHYKEbLMohL0KiG5KFN2RhmLsntdNNQzAFzF_qraDklVB7Eju0CL5hInvvv-kzDpjUUKsGeNVxXp6G1earv1VxF_obQl_By4zZa8yhbCgZVm76XZEedDtH_dTkNHJLMsKgT5Z2BSfjuMnZyXkhhOD-6fvEHFqPStkdJ04Rr3LrF3bjiD4-jSRFi2GGJg7-jt-flXEy7dMSlcLoSbszwhYaBIjhY5t-6xDr93sQGdTRCxij5lJ_0E6SlJjG6eOdYWv9q1ELLfBrsJ_qWFKJMGRz94c7gO0V4JprXzwIt8uK2uYdbBMHrhfSiSfT_KEbPRBuEBb9e1_7YKYlkPOodjm69NVDhFEi2THiLOvSvpWaPl2b8SU7eKesNwnEW_ZPmHtRKXaLOkBvD60UfLVFCKzjpi2uKHx2rqQP7V9eZAz1SIiMgZxM49DP09icexDE4xDnIBLtZVIDUuGrcQKBmRYks_TvKv5ZvVcYk3KJbeQ5BnHVGska8_-OBsAHhP95OFOc7hNvsZRvIMJwobAPjNcwg8UZmv0cd3bitnRfKUdBoxT77cFchAb0DbBLofhwB2geEeQc3h2yG-afEc8Q3EvF4QgiD9NC2a_kDhy5C8PtgrK6Bs4v5wrvlvpFs7oQVeWYOpt1hVNUbanjmJ9Z609LP7BUJAce3Yjh6gbLMCl3nf9kjzUZRks5EfT-474wjCN_0W00?></g></svg>