<?plantuml 1.2026.1?><svg xmlns="http://www.w3.org/2000/svg" xmlns:xlink="http://www.w3.org/1999/xlink" contentStyleType="text/css" data-diagram-type="SEQUENCE" height="1543px" preserveAspectRatio="none" style="width:1516px;height:1543px;background:#FEFEFE;" version="1.1" viewBox="0 0 1516 1543" width="1516px" zoomAndPan="magnify"><title>Watchlist Command Flow (Write Side)</title><defs/><g><rect fill="#FEFEFE" height="1543" style="stroke:none;stroke-width:1;" width="1516" x="0" y="0"/><text fill="#000000" font-family="Verdana" font-size="22" font-weight="bold" lengthAdjust="spacing" textLength="471.292" x="521.1057" y="35.4209">Watchlist Command Flow (Write Side)</text><g><title>REST Controller</title><rect fill="#BBDEFB" height="1115.4453" style="stroke:#000000;stroke-width:1;" width="10" x="246.2188" y="233.4375"/></g><g><title>WatchlistCommandPort</title><rect fill="#BBDEFB" height="942.6484" style="stroke:#000000;stroke-width:1;" width="10" x="458.7358" y="319.8359"/></g><g><title>WatchlistService</title><rect fill="#BBDEFB" height="884.3828" style="stroke:#000000;stroke-width:1;" width="10" x="658.0313" y="348.9688"/></g><g><title>Watchlist</title><rect fill="#BBDEFB" height="155.5313" style="stroke:#000000;stroke-width:1;" width="10" x="854.6792" y="816.625"/></g><g><title>WatchlistRepositoryPort</title><rect fill="#BBDEFB" height="218.0625" style="stroke:#000000;stroke-width:1;" width="10" x="1071.6313" y="458.6328"/></g><g><title>WatchlistRepositoryPort</title><rect fill="#BBDEFB" height="202.9297" style="stroke:#000000;stroke-width:1;" width="10" x="1071.6313" y="1001.2891"/></g><g><title>JPA Adapter</title><rect fill="#BBDEFB" height="159.7969" style="stroke:#000000;stroke-width:1;" width="10" x="1270.1304" y="487.7656"/></g><g><title>JPA Adapter</title><rect fill="#BBDEFB" height="144.6641" style="stroke:#000000;stroke-width:1;" width="10" x="1270.1304" y="1030.4219"/></g><g><title>Database</title><rect fill="#BBDEFB" height="29.1328" style="stroke:#000000;stroke-width:1;" width="10" x="1463.103" y="532.0313"/></g><g><title>Database</title><rect fill="#BBDEFB" height="29.1328" style="stroke:#000000;stroke-width:1;" width="10" x="1463.103" y="1116.8203"/></g><g class="participant-lifeline" data-entity-uid="part1" data-qualified-name="Client" id="part1-lifeline"><g><title>Client</title><rect fill="#000000" fill-opacity="0.00000" height="1333.6406" width="8" x="33.2651" y="128.9063"/><line style="stroke:#000000;stroke-width:1;stroke-dasharray:5,5;" x1="37" x2="37" y1="128.9063" y2="1462.5469"/></g></g><g class="participant-lifeline" data-entity-uid="part2" data-qualified-name="Controller" id="part2-lifeline"><g><title>REST Controller</title><rect fill="#000000" fill-opacity="0.00000" height="1333.6406" width="8" x="247.2188" y="128.9063"/><line style="stroke:#000000;stroke-width:1;stroke-dasharray:5,5;" x1="251.0942" x2="251.0942" y1="128.9063" y2="1462.5469"/></g></g><g class="participant-lifeline" data-entity-uid="part3" data-qualified-name="Port" id="part3-lifeline"><g><title>WatchlistCommandPort</title><rect fill="#000000" fill-opacity="0.00000" height="1333.6406" width="8" x="459.7358" y="128.9063"/><line style="stroke:#000000;stroke-width:1;stroke-dasharray:5,5;" x1="463.1099" x2="463.1099" y1="128.9063" y2="1462.5469"/></g></g><g class="participant-lifeline" data-entity-uid="part4" data-qualified-name="Service" id="part4-lifeline"><g><title>WatchlistService</title><rect fill="#000000" fill-opacity="0.00000" height="1333.6406" width="8" x="659.0313" y="128.9063"/><line style="stroke:#000000;stroke-width:1;stroke-dasharray:5,5;" x1="662.3618" x2="662.3618" y1="128.9063" y2="1462.5469"/></g></g><g class="participant-lifeline" data-entity-uid="part5" data-qualified-name="Watchlist" id="part5-lifeline"><g><title>Watchlist</title><rect fill="#000000" fill-opacity="0.00000" height="1333.6406" width="8" x="855.6792" y="128.9063"/><line style="stroke:#000000;stroke-width:1;stroke-dasharray:5,5;" x1="859.5732" x2="859.5732" y1="128.9063" y2="1462.5469"/></g></g><g class="participant-lifeline" data-entity-uid="part6" data-qualified-name="RepoPort" id="part6-lifeline"><g><title>WatchlistRepositoryPort</title><rect fill="#000000" fill-opacity="0.00000" height="1333.6406" width="8" x="1072.6313" y="128.9063"/><line style="stroke:#000000;stroke-width:1;stroke-dasharray:5,5;" x1="1076.4468" x2="1076.4468" y1="128.9063" y2="1462.5469"/></g></g><g class="participant-lifeline" data-entity-uid="part7" data-qualified-name="JpaAdapter" id="part7-lifeline"><g><title>JPA Adapter</title><rect fill="#000000" fill-opacity="0.00000" height="1333.6406" width="8" x="1271.1304" y="128.9063"/><line style="stroke:#000000;stroke-width:1;stroke-dasharray:5,5;" x1="1274.8159" x2="1274.8159" y1="128.9063" y2="1462.5469"/></g></g><g class="participant-lifeline" data-entity-uid="part8" data-qualified-name="DB" id="part8-lifeline"><g><title>Database</title><rect fill="#000000" fill-opacity="0.00000" height="1333.6406" width="8" x="1464.103" y="128.9063"/><line style="stroke:#000000;stroke-width:1;stroke-dasharray:5,5;" x1="1467.7026" x2="1467.7026" y1="128.9063" y2="1462.5469"/></g></g><g class="participant participant-head" data-entity-uid="part1" data-qualified-name="Client" id="part1-head"><text fill="#000000" font-family="Verdana" font-size="14" lengthAdjust="spacing" textLength="40.5303" x="14" y="125.6045">Client</text><ellipse cx="37.2651" cy="60.6094" fill="#E3F2FD" rx="8" ry="8" style="stroke:#000000;stroke-width:1;"/><path d="M37.2651,68.6094 L37.2651,95.6094 M24.2651,76.6094 L50.2651,76.6094 M37.2651,95.6094 L24.2651,110.6094 M37.2651,95.6094 L50.2651,110.6094" fill="none" style="stroke:#000000;stroke-width:1;"/></g><g class="participant participant-tail" data-entity-uid="part1" data-qualified-name="Client" id="part1-tail"><text fill="#000000" font-family="Verdana" font-size="14" lengthAdjust="spacing" textLength="40.5303" x="14" y="1474.542">Client</text><ellipse cx="37.2651" cy="1486.8438" fill="#E3F2FD" rx="8" ry="8" style="stroke:#000000;stroke-width:1;"/><path d="M37.2651,1494.8438 L37.2651,1521.8438 M24.2651,1502.8438 L50.2651,1502.8438 M37.2651,1521.8438 L24.2651,1536.8438 M37.2651,1521.8438 L50.2651,1536.8438" fill="none" style="stroke:#000000;stroke-width:1;"/></g><g class="participant participant-head" data-entity-uid="part2" data-qualified-name="Controller" id="part2-head"><rect fill="#E3F2FD" height="46.5938" rx="5" ry="5" style="stroke:#1976D2;stroke-width:1;" width="142.249" x="180.0942" y="81.3125"/><text fill="#0D47A1" font-family="Verdana" font-size="14" lengthAdjust="spacing" textLength="109.6348" x="196.4014" y="101.3076">REST Controller</text><text fill="#0D47A1" font-family="Verdana" font-size="14" lengthAdjust="spacing" textLength="128.249" x="187.0942" y="117.6045">(Inbound Adapter)</text></g><g class="participant participant-tail" data-entity-uid="part2" data-qualified-name="Controller" id="part2-tail"><rect fill="#E3F2FD" height="46.5938" rx="5" ry="5" style="stroke:#1976D2;stroke-width:1;" width="142.249" x="180.0942" y="1461.5469"/><text fill="#0D47A1" font-family="Verdana" font-size="14" lengthAdjust="spacing" textLength="109.6348" x="196.4014" y="1481.542">REST Controller</text><text fill="#0D47A1" font-family="Verdana" font-size="14" lengthAdjust="spacing" textLength="128.249" x="187.0942" y="1497.8389">(Inbound Adapter)</text></g><g class="participant participant-head" data-entity-uid="part3" data-qualified-name="Port" id="part3-head"><rect fill="#E3F2FD" height="46.5938" rx="5" ry="5" style="stroke:#1976D2;stroke-width:1;" width="179.252" x="374.1099" y="81.3125"/><text fill="#0D47A1" font-family="Verdana" font-size="14" lengthAdjust="spacing" textLength="165.252" x="381.1099" y="101.3076">WatchlistCommandPort</text><text fill="#0D47A1" font-family="Verdana" font-size="14" lengthAdjust="spacing" textLength="79.8779" x="423.7969" y="117.6045">(Input Port)</text></g><g class="participant participant-tail" data-entity-uid="part3" data-qualified-name="Port" id="part3-tail"><rect fill="#E3F2FD" height="46.5938" rx="5" ry="5" style="stroke:#1976D2;stroke-width:1;" width="179.252" x="374.1099" y="1461.5469"/><text fill="#0D47A1" font-family="Verdana" font-size="14" lengthAdjust="spacing" textLength="165.252" x="381.1099" y="1481.542">WatchlistCommandPort</text><text fill="#0D47A1" font-family="Verdana" font-size="14" lengthAdjust="spacing" textLength="79.8779" x="423.7969" y="1497.8389">(Input Port)</text></g><g class="participant participant-head" data-entity-uid="part4" data-qualified-name="Service" id="part4-head"><rect fill="#E3F2FD" height="46.5938" rx="5" ry="5" style="stroke:#1976D2;stroke-width:1;" width="159.3389" x="583.3618" y="81.3125"/><text fill="#0D47A1" font-family="Verdana" font-size="14" lengthAdjust="spacing" textLength="116.7852" x="604.6387" y="101.3076">WatchlistService</text><text fill="#0D47A1" font-family="Verdana" font-size="14" lengthAdjust="spacing" textLength="145.3389" x="590.3618" y="117.6045">(Application Service)</text></g><g class="participant participant-tail" data-entity-uid="part4" data-qualified-name="Service" id="part4-tail"><rect fill="#E3F2FD" height="46.5938" rx="5" ry="5" style="stroke:#1976D2;stroke-width:1;" width="159.3389" x="583.3618" y="1461.5469"/><text fill="#0D47A1" font-family="Verdana" font-size="14" lengthAdjust="spacing" textLength="116.7852" x="604.6387" y="1481.542">WatchlistService</text><text fill="#0D47A1" font-family="Verdana" font-size="14" lengthAdjust="spacing" textLength="145.3389" x="590.3618" y="1497.8389">(Application Service)</text></g><g class="participant participant-head" data-entity-uid="part5" data-qualified-name="Watchlist" id="part5-head"><rect fill="#E3F2FD" height="46.5938" rx="5" ry="5" style="stroke:#1976D2;stroke-width:1;" width="98.2119" x="810.5732" y="81.3125"/><text fill="#0D47A1" font-family="Verdana" font-size="14" lengthAdjust="spacing" textLength="65.0439" x="827.1572" y="101.3076">Watchlist</text><text fill="#0D47A1" font-family="Verdana" font-size="14" lengthAdjust="spacing" textLength="84.2119" x="817.5732" y="117.6045">(Aggregate)</text></g><g class="participant participant-tail" data-entity-uid="part5" data-qualified-name="Watchlist" id="part5-tail"><rect fill="#E3F2FD" height="46.5938" rx="5" ry="5" style="stroke:#1976D2;stroke-width:1;" width="98.2119" x="810.5732" y="1461.5469"/><text fill="#0D47A1" font-family="Verdana" font-size="14" lengthAdjust="spacing" textLength="65.0439" x="827.1572" y="1481.542">Watchlist</text><text fill="#0D47A1" font-family="Verdana" font-size="14" lengthAdjust="spacing" textLength="84.2119" x="817.5732" y="1497.8389">(Aggregate)</text></g><g class="participant participant-head" data-entity-uid="part6" data-qualified-name="RepoPort" id="part6-head"><rect fill="#E3F2FD" height="46.5938" rx="5" ry="5" style="stroke:#1976D2;stroke-width:1;" width="182.3691" x="985.4468" y="81.3125"/><text fill="#0D47A1" font-family="Verdana" font-size="14" lengthAdjust="spacing" textLength="168.3691" x="992.4468" y="101.3076">WatchlistRepositoryPort</text><text fill="#0D47A1" font-family="Verdana" font-size="14" lengthAdjust="spacing" textLength="92.2578" x="1030.5024" y="117.6045">(Output Port)</text></g><g class="participant participant-tail" data-entity-uid="part6" data-qualified-name="RepoPort" id="part6-tail"><rect fill="#E3F2FD" height="46.5938" rx="5" ry="5" style="stroke:#1976D2;stroke-width:1;" width="182.3691" x="985.4468" y="1461.5469"/><text fill="#0D47A1" font-family="Verdana" font-size="14" lengthAdjust="spacing" textLength="168.3691" x="992.4468" y="1481.542">WatchlistRepositoryPort</text><text fill="#0D47A1" font-family="Verdana" font-size="14" lengthAdjust="spacing" textLength="92.2578" x="1030.5024" y="1497.8389">(Output Port)</text></g><g class="participant participant-head" data-entity-uid="part7" data-qualified-name="JpaAdapter" id="part7-head"><rect fill="#E3F2FD" height="46.5938" rx="5" ry="5" style="stroke:#1976D2;stroke-width:1;" width="154.6289" x="1197.8159" y="81.3125"/><text fill="#0D47A1" font-family="Verdana" font-size="14" lengthAdjust="spacing" textLength="82.3867" x="1233.937" y="101.3076">JPA Adapter</text><text fill="#0D47A1" font-family="Verdana" font-size="14" lengthAdjust="spacing" textLength="140.6289" x="1204.8159" y="117.6045">(Outbound Adapter)</text></g><g class="participant participant-tail" data-entity-uid="part7" data-qualified-name="JpaAdapter" id="part7-tail"><rect fill="#E3F2FD" height="46.5938" rx="5" ry="5" style="stroke:#1976D2;stroke-width:1;" width="154.6289" x="1197.8159" y="1461.5469"/><text fill="#0D47A1" font-family="Verdana" font-size="14" lengthAdjust="spacing" textLength="82.3867" x="1233.937" y="1481.542">JPA Adapter</text><text fill="#0D47A1" font-family="Verdana" font-size="14" lengthAdjust="spacing" textLength="140.6289" x="1204.8159" y="1497.8389">(Outbound Adapter)</text></g><g class="participant participant-head" data-entity-uid="part8" data-qualified-name="DB" id="part8-head"><text fill="#000000" font-family="Verdana" font-size="14" lengthAdjust="spacing" textLength="66.8008" x="1431.7026" y="125.6045">Database</text><path d="M1450.103,76.6094 C1450.103,66.6094 1468.103,66.6094 1468.103,66.6094 C1468.103,66.6094 1486.103,66.6094 1486.103,76.6094 L1486.103,102.6094 C1486.103,112.6094 1468.103,112.6094 1468.103,112.6094 C1468.103,112.6094 1450.103,112.6094 1450.103,102.6094 L1450.103,76.6094" fill="#E3F2FD" style="stroke:#000000;stroke-width:1;"/><path d="M1450.103,76.6094 C1450.103,86.6094 1468.103,86.6094 1468.103,86.6094 C1468.103,86.6094 1486.103,86.6094 1486.103,76.6094" fill="none" style="stroke:#000000;stroke-width:1;"/></g><g class="participant participant-tail" data-entity-uid="part8" data-qualified-name="DB" id="part8-tail"><text fill="#000000" font-family="Verdana" font-size="14" lengthAdjust="spacing" textLength="66.8008" x="1431.7026" y="1474.542">Database</text><path d="M1450.103,1487.8438 C1450.103,1477.8438 1468.103,1477.8438 1468.103,1477.8438 C1468.103,1477.8438 1486.103,1477.8438 1486.103,1487.8438 L1486.103,1513.8438 C1486.103,1523.8438 1468.103,1523.8438 1468.103,1523.8438 C1468.103,1523.8438 1450.103,1523.8438 1450.103,1513.8438 L1450.103,1487.8438" fill="#E3F2FD" style="stroke:#000000;stroke-width:1;"/><path d="M1450.103,1487.8438 C1450.103,1497.8438 1468.103,1497.8438 1468.103,1497.8438 C1468.103,1497.8438 1486.103,1497.8438 1486.103,1487.8438" fill="none" style="stroke:#000000;stroke-width:1;"/></g><g><title>REST Controller</title><rect fill="#BBDEFB" height="1115.4453" style="stroke:#000000;stroke-width:1;" width="10" x="246.2188" y="233.4375"/></g><g><title>WatchlistCommandPort</title><rect fill="#BBDEFB" height="942.6484" style="stroke:#000000;stroke-width:1;" width="10" x="458.7358" y="319.8359"/></g><g><title>WatchlistService</title><rect fill="#BBDEFB" height="884.3828" style="stroke:#000000;stroke-width:1;" width="10" x="658.0313" y="348.9688"/></g><g><title>Watchlist</title><rect fill="#BBDEFB" height="155.5313" style="stroke:#000000;stroke-width:1;" width="10" x="854.6792" y="816.625"/></g><g><title>WatchlistRepositoryPort</title><rect fill="#BBDEFB" height="218.0625" style="stroke:#000000;stroke-width:1;" width="10" x="1071.6313" y="458.6328"/></g><g><title>WatchlistRepositoryPort</title><rect fill="#BBDEFB" height="202.9297" style="stroke:#000000;stroke-width:1;" width="10" x="1071.6313" y="1001.2891"/></g><g><title>JPA Adapter</title><rect fill="#BBDEFB" height="159.7969" style="stroke:#000000;stroke-width:1;" width="10" x="1270.1304" y="487.7656"/></g><g><title>JPA Adapter</title><rect fill="#BBDEFB" height="144.6641" style="stroke:#000000;stroke-width:1;" width="10" x="1270.1304" y="1030.4219"/></g><g><title>Database</title><rect fill="#BBDEFB" height="29.1328" style="stroke:#000000;stroke-width:1;" width="10" x="1463.103" y="532.0313"/></g><g><title>Database</title><rect fill="#BBDEFB" height="29.1328" style="stroke:#000000;stroke-width:1;" width="10" x="1463.103" y="1116.8203"/></g><rect fill="#FFFFFF" height="3" rx="5" ry="5" style="stroke:#FFFFFF;stroke-width:1;" width="1504.5034" x="5" y="159.4727"/><line style="stroke:#000000;stroke-width:0.5;" x1="5" x2="1509.5034" y1="159.4727" y2="159.4727"/><line style="stroke:#000000;stroke-width:0.5;" x1="5" x2="1509.5034" y1="162.4727" y2="162.4727"/><rect fill="#FFFFFF" height="23.1328" rx="5" ry="5" style="stroke:#000000;stroke-width:1;" width="273.6128" x="620.4453" y="148.9063"/><text fill="#000000" font-family="Verdana" font-size="13" font-weight="bold" lengthAdjust="spacing" textLength="255.0869" x="626.4453" y="164.9731">Add Entry to Watchlist (Command)</text><g class="message" data-entity-1="part1" data-entity-2="part2" id="msg1"><polygon fill="#000000" points="234.2188,229.4375,244.2188,233.4375,234.2188,237.4375,238.2188,233.4375" style="stroke:#000000;stroke-width:1;"/><line style="stroke:#000000;stroke-width:2;" x1="37.2651" x2="240.2188" y1="233.4375" y2="233.4375"/><text fill="#000000" font-family="Verdana" font-size="13" lengthAdjust="spacing" textLength="34.2646" x="44.2651" y="198.106">POST</text><text fill="#000000" font-family="Verdana" font-size="13" lengthAdjust="spacing" textLength="4.1323" x="78.5298" y="198.106">&#160;</text><text fill="#000000" font-family="Verdana" font-size="13" lengthAdjust="spacing" textLength="151.5566" x="82.6621" y="198.106">/watchlists/{id}/entries</text><text fill="#000000" font-family="Verdana" font-size="13" lengthAdjust="spacing" textLength="49.3784" x="44.2651" y="213.2388">{ticker:</text><text fill="#000000" font-family="Verdana" font-size="13" lengthAdjust="spacing" textLength="4.1323" x="93.6436" y="213.2388">&#160;</text><text fill="#000000" font-family="Verdana" font-size="13" lengthAdjust="spacing" textLength="48.9595" x="97.7759" y="213.2388">"AAPL",</text><text fill="#000000" font-family="Verdana" font-size="13" lengthAdjust="spacing" textLength="4.1323" x="146.7354" y="213.2388">&#160;</text><text fill="#000000" font-family="Verdana" font-size="13" lengthAdjust="spacing" textLength="65.8887" x="150.8677" y="213.2388">threshold:</text><text fill="#000000" font-family="Verdana" font-size="13" lengthAdjust="spacing" textLength="53.7583" x="44.2651" y="228.3716">150.00}</text></g><g class="message" data-entity-1="part2" data-entity-2="part2" id="msg2"><line style="stroke:#000000;stroke-width:2;" x1="256.2188" x2="298.2188" y1="262.5703" y2="262.5703"/><line style="stroke:#000000;stroke-width:2;" x1="298.2188" x2="298.2188" y1="262.5703" y2="275.5703"/><line style="stroke:#000000;stroke-width:2;" x1="257.2188" x2="298.2188" y1="275.5703" y2="275.5703"/><polygon fill="#000000" points="267.2188,271.5703,257.2188,275.5703,267.2188,279.5703,263.2188,275.5703" style="stroke:#000000;stroke-width:1;"/><text fill="#000000" font-family="Verdana" font-size="13" lengthAdjust="spacing" textLength="53.3965" x="263.2188" y="257.5044">Validate</text><text fill="#000000" font-family="Verdana" font-size="13" lengthAdjust="spacing" textLength="4.1323" x="316.6152" y="257.5044">&#160;</text><text fill="#000000" font-family="Verdana" font-size="13" lengthAdjust="spacing" textLength="33.4395" x="320.7476" y="257.5044">input</text><text fill="#000000" font-family="Verdana" font-size="13" lengthAdjust="spacing" textLength="4.1323" x="354.187" y="257.5044">&#160;</text><text fill="#000000" font-family="Verdana" font-size="13" lengthAdjust="spacing" textLength="28.1836" x="358.3193" y="257.5044">DTO</text></g><g class="message" data-entity-1="part2" data-entity-2="part3" id="msg3"><polygon fill="#000000" points="446.7358,315.8359,456.7358,319.8359,446.7358,323.8359,450.7358,319.8359" style="stroke:#000000;stroke-width:1;"/><line style="stroke:#000000;stroke-width:2;" x1="256.2188" x2="452.7358" y1="319.8359" y2="319.8359"/><text fill="#000000" font-family="Verdana" font-size="13" lengthAdjust="spacing" textLength="138.5249" x="263.2188" y="299.6372">addEntry(watchlistId,</text><text fill="#000000" font-family="Verdana" font-size="13" lengthAdjust="spacing" textLength="4.1323" x="401.7437" y="299.6372">&#160;</text><text fill="#000000" font-family="Verdana" font-size="13" lengthAdjust="spacing" textLength="40.8599" x="405.876" y="299.6372">ticker,</text><text fill="#000000" font-family="Verdana" font-size="13" lengthAdjust="spacing" textLength="98.522" x="263.2188" y="314.77">thresholdPrice)</text></g><g class="message" data-entity-1="part3" data-entity-2="part4" id="msg4"><polygon fill="#000000" points="646.0313,344.9688,656.0313,348.9688,646.0313,352.9688,650.0313,348.9688" style="stroke:#000000;stroke-width:1;"/><line style="stroke:#000000;stroke-width:2;" x1="468.7358" x2="652.0313" y1="348.9688" y2="348.9688"/><text fill="#000000" font-family="Verdana" font-size="13" lengthAdjust="spacing" textLength="81.5991" x="475.7358" y="343.9028">addEntry(...)</text></g><path d="M673,366.9688 L673,426.9688 A5,5 0 0 0 678,431.9688 L905,431.9688 A5,5 0 0 0 910,426.9688 L910,371.9688 L900,361.9688 L678,361.9688 A5,5 0 0 0 673,366.9688" fill="#BBDEFB" style="stroke:#1976D2;stroke-width:1;"/><path d="M900,361.9688 L900,369.4688 A2.5,2.5 0 0 0 902.5,371.9688 L910,371.9688 L900,361.9688" fill="#BBDEFB" style="stroke:#1976D2;stroke-width:1;"/><text fill="#000000" font-family="Verdana" font-size="13" font-weight="bold" lengthAdjust="spacing" textLength="183.4282" x="679" y="379.0356">Application Service Role:</text><text fill="#000000" font-family="Verdana" font-size="13" lengthAdjust="spacing" textLength="174.77" x="679" y="394.1685">Orchestrates the use case.</text><text fill="#000000" font-family="Verdana" font-size="13" lengthAdjust="spacing" textLength="216.7852" x="679" y="409.3013">Does NOT contain business logic.</text><text fill="#000000" font-family="Verdana" font-size="13" lengthAdjust="spacing" textLength="211.0977" x="679" y="424.4341">Delegates to domain aggregate.</text><g class="message" data-entity-1="part4" data-entity-2="part6" id="msg5"><polygon fill="#000000" points="1059.6313,454.6328,1069.6313,458.6328,1059.6313,462.6328,1063.6313,458.6328" style="stroke:#000000;stroke-width:1;"/><line style="stroke:#000000;stroke-width:2;" x1="668.0313" x2="1065.6313" y1="458.6328" y2="458.6328"/><text fill="#000000" font-family="Verdana" font-size="13" lengthAdjust="spacing" textLength="133.7832" x="675.0313" y="453.5669">findById(watchlistId)</text></g><g class="message" data-entity-1="part6" data-entity-2="part7" id="msg6"><polygon fill="#000000" points="1258.1304,483.7656,1268.1304,487.7656,1258.1304,491.7656,1262.1304,487.7656" style="stroke:#000000;stroke-width:1;"/><line style="stroke:#000000;stroke-width:2;" x1="1081.6313" x2="1264.1304" y1="487.7656" y2="487.7656"/><text fill="#000000" font-family="Verdana" font-size="13" lengthAdjust="spacing" textLength="133.7832" x="1088.6313" y="482.6997">findById(watchlistId)</text></g><g class="message" data-entity-1="part7" data-entity-2="part8" id="msg7"><polygon fill="#000000" points="1451.103,528.0313,1461.103,532.0313,1451.103,536.0313,1455.103,532.0313" style="stroke:#000000;stroke-width:1;"/><line style="stroke:#000000;stroke-width:2;" x1="1280.1304" x2="1457.103" y1="532.0313" y2="532.0313"/><text fill="#000000" font-family="Verdana" font-size="13" lengthAdjust="spacing" textLength="48.9404" x="1287.1304" y="511.8325">SELECT</text><text fill="#000000" font-family="Verdana" font-size="13" lengthAdjust="spacing" textLength="4.1323" x="1336.0708" y="511.8325">&#160;</text><text fill="#000000" font-family="Verdana" font-size="13" lengthAdjust="spacing" textLength="6.5" x="1340.2031" y="511.8325">*</text><text fill="#000000" font-family="Verdana" font-size="13" lengthAdjust="spacing" textLength="4.1323" x="1346.7031" y="511.8325">&#160;</text><text fill="#000000" font-family="Verdana" font-size="13" lengthAdjust="spacing" textLength="37.959" x="1350.8354" y="511.8325">FROM</text><text fill="#000000" font-family="Verdana" font-size="13" lengthAdjust="spacing" textLength="4.1323" x="1388.7944" y="511.8325">&#160;</text><text fill="#000000" font-family="Verdana" font-size="13" lengthAdjust="spacing" textLength="58.1763" x="1392.9268" y="511.8325">watchlist</text><text fill="#000000" font-family="Verdana" font-size="13" lengthAdjust="spacing" textLength="48.0898" x="1287.1304" y="526.9653">WHERE</text><text fill="#000000" font-family="Verdana" font-size="13" lengthAdjust="spacing" textLength="4.1323" x="1335.2202" y="526.9653">&#160;</text><text fill="#000000" font-family="Verdana" font-size="13" lengthAdjust="spacing" textLength="11.8638" x="1339.3525" y="526.9653">id</text><text fill="#000000" font-family="Verdana" font-size="13" lengthAdjust="spacing" textLength="4.1323" x="1351.2163" y="526.9653">&#160;</text><text fill="#000000" font-family="Verdana" font-size="13" lengthAdjust="spacing" textLength="10.8926" x="1355.3486" y="526.9653">=</text><text fill="#000000" font-family="Verdana" font-size="13" lengthAdjust="spacing" textLength="4.1323" x="1366.2412" y="526.9653">&#160;</text><text fill="#000000" font-family="Verdana" font-size="13" lengthAdjust="spacing" textLength="6.8999" x="1370.3735" y="526.9653">?</text></g><g class="message" data-entity-1="part8" data-entity-2="part7" id="msg8"><polygon fill="#000000" points="1291.1304,557.1641,1281.1304,561.1641,1291.1304,565.1641,1287.1304,561.1641" style="stroke:#000000;stroke-width:1;"/><line style="stroke:#000000;stroke-width:2;stroke-dasharray:2,2;" x1="1285.1304" x2="1467.103" y1="561.1641" y2="561.1641"/><text fill="#000000" font-family="Verdana" font-size="13" lengthAdjust="spacing" textLength="118.4028" x="1297.1304" y="556.0981">WatchlistJpaEntity</text></g><g class="message" data-entity-1="part7" data-entity-2="part7" id="msg9"><line style="stroke:#000000;stroke-width:2;" x1="1280.1304" x2="1322.1304" y1="605.4297" y2="605.4297"/><line style="stroke:#000000;stroke-width:2;" x1="1322.1304" x2="1322.1304" y1="605.4297" y2="618.4297"/><line style="stroke:#000000;stroke-width:2;" x1="1281.1304" x2="1322.1304" y1="618.4297" y2="618.4297"/><polygon fill="#000000" points="1291.1304,614.4297,1281.1304,618.4297,1291.1304,622.4297,1287.1304,618.4297" style="stroke:#000000;stroke-width:1;"/><text fill="#000000" font-family="Verdana" font-size="13" lengthAdjust="spacing" textLength="27.4346" x="1287.1304" y="585.231">Map</text><text fill="#000000" font-family="Verdana" font-size="13" lengthAdjust="spacing" textLength="4.1323" x="1314.5649" y="585.231">&#160;</text><text fill="#000000" font-family="Verdana" font-size="13" lengthAdjust="spacing" textLength="13.0508" x="1318.6973" y="585.231">to</text><text fill="#000000" font-family="Verdana" font-size="13" lengthAdjust="spacing" textLength="4.1323" x="1331.748" y="585.231">&#160;</text><text fill="#000000" font-family="Verdana" font-size="13" lengthAdjust="spacing" textLength="50.4448" x="1335.8804" y="585.231">Domain</text><text fill="#000000" font-family="Verdana" font-size="13" lengthAdjust="spacing" textLength="60.3979" x="1287.1304" y="600.3638">Watchlist</text><text fill="#000000" font-family="Verdana" font-size="13" lengthAdjust="spacing" textLength="4.1323" x="1347.5283" y="600.3638">&#160;</text><text fill="#000000" font-family="Verdana" font-size="13" lengthAdjust="spacing" textLength="67.1265" x="1351.6606" y="600.3638">aggregate</text></g><g class="message" data-entity-1="part7" data-entity-2="part6" id="msg10"><polygon fill="#000000" points="1092.6313,643.5625,1082.6313,647.5625,1092.6313,651.5625,1088.6313,647.5625" style="stroke:#000000;stroke-width:1;"/><line style="stroke:#000000;stroke-width:2;stroke-dasharray:2,2;" x1="1086.6313" x2="1274.1304" y1="647.5625" y2="647.5625"/><text fill="#000000" font-family="Verdana" font-size="13" lengthAdjust="spacing" textLength="60.3979" x="1098.6313" y="642.4966">Watchlist</text></g><g class="message" data-entity-1="part6" data-entity-2="part4" id="msg11"><polygon fill="#000000" points="679.0313,672.6953,669.0313,676.6953,679.0313,680.6953,675.0313,676.6953" style="stroke:#000000;stroke-width:1;"/><line style="stroke:#000000;stroke-width:2;stroke-dasharray:2,2;" x1="673.0313" x2="1075.6313" y1="676.6953" y2="676.6953"/><text fill="#000000" font-family="Verdana" font-size="13" lengthAdjust="spacing" textLength="60.3979" x="685.0313" y="671.6294">Watchlist</text></g><path d="M864,694.6953 L864,769.6953 A5,5 0 0 0 869,774.6953 L1072,774.6953 A5,5 0 0 0 1077,769.6953 L1077,699.6953 L1067,689.6953 L869,689.6953 A5,5 0 0 0 864,694.6953" fill="#BBDEFB" style="stroke:#1976D2;stroke-width:1;"/><path d="M1067,689.6953 L1067,697.1953 A2.5,2.5 0 0 0 1069.5,699.6953 L1077,699.6953 L1067,689.6953" fill="#BBDEFB" style="stroke:#1976D2;stroke-width:1;"/><text fill="#000000" font-family="Verdana" font-size="13" font-weight="bold" lengthAdjust="spacing" textLength="145.8755" x="870" y="706.7622">Rich Domain Model:</text><text fill="#000000" font-family="Verdana" font-size="13" lengthAdjust="spacing" textLength="192.9116" x="870" y="721.895">Business rules enforced here.</text><text fill="#000000" font-family="Verdana" font-size="13" lengthAdjust="spacing" textLength="162.062" x="870" y="737.0278">- Validates threshold &gt; 0</text><text fill="#000000" font-family="Verdana" font-size="13" lengthAdjust="spacing" textLength="179.7593" x="870" y="752.1606">- Ensures ticker uniqueness</text><text fill="#000000" font-family="Verdana" font-size="13" lengthAdjust="spacing" textLength="191.8452" x="870" y="767.2935">- Encapsulates entries in Map</text><g class="message" data-entity-1="part4" data-entity-2="part5" id="msg12"><polygon fill="#000000" points="842.6792,812.625,852.6792,816.625,842.6792,820.625,846.6792,816.625" style="stroke:#000000;stroke-width:1;"/><line style="stroke:#000000;stroke-width:2;" x1="668.0313" x2="848.6792" y1="816.625" y2="816.625"/><text fill="#000000" font-family="Verdana" font-size="13" lengthAdjust="spacing" textLength="167.6479" x="675.0313" y="796.4263">addOrUpdateEntry(ticker,</text><text fill="#000000" font-family="Verdana" font-size="13" lengthAdjust="spacing" textLength="98.522" x="675.0313" y="811.5591">thresholdPrice)</text></g><g class="message" data-entity-1="part5" data-entity-2="part5" id="msg13"><line style="stroke:#000000;stroke-width:2;" x1="864.6792" x2="906.6792" y1="845.7578" y2="845.7578"/><line style="stroke:#000000;stroke-width:2;" x1="906.6792" x2="906.6792" y1="845.7578" y2="858.7578"/><line style="stroke:#000000;stroke-width:2;" x1="865.6792" x2="906.6792" y1="858.7578" y2="858.7578"/><polygon fill="#000000" points="875.6792,854.7578,865.6792,858.7578,875.6792,862.7578,871.6792,858.7578" style="stroke:#000000;stroke-width:1;"/><text fill="#000000" font-family="Verdana" font-size="13" lengthAdjust="spacing" textLength="53.3965" x="871.6792" y="840.6919">Validate</text><text fill="#000000" font-family="Verdana" font-size="13" lengthAdjust="spacing" textLength="4.1323" x="925.0757" y="840.6919">&#160;</text><text fill="#000000" font-family="Verdana" font-size="13" lengthAdjust="spacing" textLength="61.5088" x="929.208" y="840.6919">threshold</text><text fill="#000000" font-family="Verdana" font-size="13" lengthAdjust="spacing" textLength="4.1323" x="990.7168" y="840.6919">&#160;</text><text fill="#000000" font-family="Verdana" font-size="13" lengthAdjust="spacing" textLength="32.354" x="994.8491" y="840.6919">price</text><text fill="#000000" font-family="Verdana" font-size="13" lengthAdjust="spacing" textLength="4.1323" x="1027.2031" y="840.6919">&#160;</text><text fill="#000000" font-family="Verdana" font-size="13" lengthAdjust="spacing" textLength="10.8926" x="1031.3354" y="840.6919">&gt;</text><text fill="#000000" font-family="Verdana" font-size="13" lengthAdjust="spacing" textLength="4.1323" x="1042.228" y="840.6919">&#160;</text><text fill="#000000" font-family="Verdana" font-size="13" lengthAdjust="spacing" textLength="8.271" x="1046.3604" y="840.6919">0</text></g><g class="message" data-entity-1="part5" data-entity-2="part5" id="msg14"><line style="stroke:#000000;stroke-width:2;" x1="864.6792" x2="906.6792" y1="887.8906" y2="887.8906"/><line style="stroke:#000000;stroke-width:2;" x1="906.6792" x2="906.6792" y1="887.8906" y2="900.8906"/><line style="stroke:#000000;stroke-width:2;" x1="865.6792" x2="906.6792" y1="900.8906" y2="900.8906"/><polygon fill="#000000" points="875.6792,896.8906,865.6792,900.8906,875.6792,904.8906,871.6792,900.8906" style="stroke:#000000;stroke-width:1;"/><text fill="#000000" font-family="Verdana" font-size="13" lengthAdjust="spacing" textLength="43.4814" x="871.6792" y="882.8247">Create</text><text fill="#000000" font-family="Verdana" font-size="13" lengthAdjust="spacing" textLength="4.1323" x="915.1606" y="882.8247">&#160;</text><text fill="#000000" font-family="Verdana" font-size="13" lengthAdjust="spacing" textLength="94.9863" x="919.293" y="882.8247">WatchlistEntry</text></g><g class="message" data-entity-1="part5" data-entity-2="part5" id="msg15"><line style="stroke:#000000;stroke-width:2;" x1="864.6792" x2="906.6792" y1="930.0234" y2="930.0234"/><line style="stroke:#000000;stroke-width:2;" x1="906.6792" x2="906.6792" y1="930.0234" y2="943.0234"/><line style="stroke:#000000;stroke-width:2;" x1="865.6792" x2="906.6792" y1="943.0234" y2="943.0234"/><polygon fill="#000000" points="875.6792,939.0234,865.6792,943.0234,875.6792,947.0234,871.6792,943.0234" style="stroke:#000000;stroke-width:1;"/><text fill="#000000" font-family="Verdana" font-size="13" lengthAdjust="spacing" textLength="116.7144" x="871.6792" y="924.9575">entries.put(ticker,</text><text fill="#000000" font-family="Verdana" font-size="13" lengthAdjust="spacing" textLength="4.1323" x="988.3936" y="924.9575">&#160;</text><text fill="#000000" font-family="Verdana" font-size="13" lengthAdjust="spacing" textLength="39.4443" x="992.5259" y="924.9575">entry)</text></g><g class="message" data-entity-1="part5" data-entity-2="part4" id="msg16"><polygon fill="#000000" points="679.0313,968.1563,669.0313,972.1563,679.0313,976.1563,675.0313,972.1563" style="stroke:#000000;stroke-width:1;"/><line style="stroke:#000000;stroke-width:2;stroke-dasharray:2,2;" x1="673.0313" x2="858.6792" y1="972.1563" y2="972.1563"/><text fill="#000000" font-family="Verdana" font-size="13" lengthAdjust="spacing" textLength="27.5107" x="685.0313" y="967.0903">void</text></g><g class="message" data-entity-1="part4" data-entity-2="part6" id="msg17"><polygon fill="#000000" points="1059.6313,997.2891,1069.6313,1001.2891,1059.6313,1005.2891,1063.6313,1001.2891" style="stroke:#000000;stroke-width:1;"/><line style="stroke:#000000;stroke-width:2;" x1="668.0313" x2="1065.6313" y1="1001.2891" y2="1001.2891"/><text fill="#000000" font-family="Verdana" font-size="13" lengthAdjust="spacing" textLength="98.7505" x="675.0313" y="996.2231">save(watchlist)</text></g><g class="message" data-entity-1="part6" data-entity-2="part7" id="msg18"><polygon fill="#000000" points="1258.1304,1026.4219,1268.1304,1030.4219,1258.1304,1034.4219,1262.1304,1030.4219" style="stroke:#000000;stroke-width:1;"/><line style="stroke:#000000;stroke-width:2;" x1="1081.6313" x2="1264.1304" y1="1030.4219" y2="1030.4219"/><text fill="#000000" font-family="Verdana" font-size="13" lengthAdjust="spacing" textLength="98.7505" x="1088.6313" y="1025.356">save(watchlist)</text></g><g class="message" data-entity-1="part7" data-entity-2="part7" id="msg19"><line style="stroke:#000000;stroke-width:2;" x1="1280.1304" x2="1322.1304" y1="1059.5547" y2="1059.5547"/><line style="stroke:#000000;stroke-width:2;" x1="1322.1304" x2="1322.1304" y1="1059.5547" y2="1072.5547"/><line style="stroke:#000000;stroke-width:2;" x1="1281.1304" x2="1322.1304" y1="1072.5547" y2="1072.5547"/><polygon fill="#000000" points="1291.1304,1068.5547,1281.1304,1072.5547,1291.1304,1076.5547,1287.1304,1072.5547" style="stroke:#000000;stroke-width:1;"/><text fill="#000000" font-family="Verdana" font-size="13" lengthAdjust="spacing" textLength="27.4346" x="1287.1304" y="1054.4888">Map</text><text fill="#000000" font-family="Verdana" font-size="13" lengthAdjust="spacing" textLength="4.1323" x="1314.5649" y="1054.4888">&#160;</text><text fill="#000000" font-family="Verdana" font-size="13" lengthAdjust="spacing" textLength="13.0508" x="1318.6973" y="1054.4888">to</text><text fill="#000000" font-family="Verdana" font-size="13" lengthAdjust="spacing" textLength="4.1323" x="1331.748" y="1054.4888">&#160;</text><text fill="#000000" font-family="Verdana" font-size="13" lengthAdjust="spacing" textLength="20.5664" x="1335.8804" y="1054.4888">JPA</text><text fill="#000000" font-family="Verdana" font-size="13" lengthAdjust="spacing" textLength="4.1323" x="1356.4468" y="1054.4888">&#160;</text><text fill="#000000" font-family="Verdana" font-size="13" lengthAdjust="spacing" textLength="48.4263" x="1360.5791" y="1054.4888">entities</text></g><g class="message" data-entity-1="part7" data-entity-2="part8" id="msg20"><polygon fill="#000000" points="1451.103,1112.8203,1461.103,1116.8203,1451.103,1120.8203,1455.103,1116.8203" style="stroke:#000000;stroke-width:1;"/><line style="stroke:#000000;stroke-width:2;" x1="1280.1304" x2="1457.103" y1="1116.8203" y2="1116.8203"/><text fill="#000000" font-family="Verdana" font-size="13" lengthAdjust="spacing" textLength="103.7905" x="1287.1304" y="1096.6216">INSERT/UPDATE</text><text fill="#000000" font-family="Verdana" font-size="13" lengthAdjust="spacing" textLength="99.0488" x="1287.1304" y="1111.7544">watchlist_entry</text></g><g class="message" data-entity-1="part8" data-entity-2="part7" id="msg21"><polygon fill="#000000" points="1291.1304,1141.9531,1281.1304,1145.9531,1291.1304,1149.9531,1287.1304,1145.9531" style="stroke:#000000;stroke-width:1;"/><line style="stroke:#000000;stroke-width:2;stroke-dasharray:2,2;" x1="1285.1304" x2="1467.103" y1="1145.9531" y2="1145.9531"/><text fill="#000000" font-family="Verdana" font-size="13" lengthAdjust="spacing" textLength="18.7573" x="1297.1304" y="1140.8872">OK</text></g><g class="message" data-entity-1="part7" data-entity-2="part6" id="msg22"><polygon fill="#000000" points="1092.6313,1171.0859,1082.6313,1175.0859,1092.6313,1179.0859,1088.6313,1175.0859" style="stroke:#000000;stroke-width:1;"/><line style="stroke:#000000;stroke-width:2;stroke-dasharray:2,2;" x1="1086.6313" x2="1274.1304" y1="1175.0859" y2="1175.0859"/><text fill="#000000" font-family="Verdana" font-size="13" lengthAdjust="spacing" textLength="60.3979" x="1098.6313" y="1170.02">Watchlist</text></g><g class="message" data-entity-1="part6" data-entity-2="part4" id="msg23"><polygon fill="#000000" points="679.0313,1200.2188,669.0313,1204.2188,679.0313,1208.2188,675.0313,1204.2188" style="stroke:#000000;stroke-width:1;"/><line style="stroke:#000000;stroke-width:2;stroke-dasharray:2,2;" x1="673.0313" x2="1075.6313" y1="1204.2188" y2="1204.2188"/><text fill="#000000" font-family="Verdana" font-size="13" lengthAdjust="spacing" textLength="60.3979" x="685.0313" y="1199.1528">Watchlist</text></g><g class="message" data-entity-1="part4" data-entity-2="part3" id="msg24"><polygon fill="#000000" points="479.7358,1229.3516,469.7358,1233.3516,479.7358,1237.3516,475.7358,1233.3516" style="stroke:#000000;stroke-width:1;"/><line style="stroke:#000000;stroke-width:2;stroke-dasharray:2,2;" x1="473.7358" x2="662.0313" y1="1233.3516" y2="1233.3516"/><text fill="#000000" font-family="Verdana" font-size="13" lengthAdjust="spacing" textLength="60.3979" x="485.7358" y="1228.2856">Watchlist</text></g><g class="message" data-entity-1="part3" data-entity-2="part2" id="msg25"><polygon fill="#000000" points="267.2188,1258.4844,257.2188,1262.4844,267.2188,1266.4844,263.2188,1262.4844" style="stroke:#000000;stroke-width:1;"/><line style="stroke:#000000;stroke-width:2;stroke-dasharray:2,2;" x1="261.2188" x2="462.7358" y1="1262.4844" y2="1262.4844"/><text fill="#000000" font-family="Verdana" font-size="13" lengthAdjust="spacing" textLength="60.3979" x="273.2188" y="1257.4185">Watchlist</text></g><g class="message" data-entity-1="part2" data-entity-2="part2" id="msg26"><line style="stroke:#000000;stroke-width:2;" x1="256.2188" x2="298.2188" y1="1291.6172" y2="1291.6172"/><line style="stroke:#000000;stroke-width:2;" x1="298.2188" x2="298.2188" y1="1291.6172" y2="1304.6172"/><line style="stroke:#000000;stroke-width:2;" x1="257.2188" x2="298.2188" y1="1304.6172" y2="1304.6172"/><polygon fill="#000000" points="267.2188,1300.6172,257.2188,1304.6172,267.2188,1308.6172,263.2188,1304.6172" style="stroke:#000000;stroke-width:1;"/><text fill="#000000" font-family="Verdana" font-size="13" lengthAdjust="spacing" textLength="27.4346" x="263.2188" y="1286.5513">Map</text><text fill="#000000" font-family="Verdana" font-size="13" lengthAdjust="spacing" textLength="4.1323" x="290.6533" y="1286.5513">&#160;</text><text fill="#000000" font-family="Verdana" font-size="13" lengthAdjust="spacing" textLength="13.0508" x="294.7856" y="1286.5513">to</text><text fill="#000000" font-family="Verdana" font-size="13" lengthAdjust="spacing" textLength="4.1323" x="307.8364" y="1286.5513">&#160;</text><text fill="#000000" font-family="Verdana" font-size="13" lengthAdjust="spacing" textLength="63.0195" x="311.9688" y="1286.5513">Response</text><text fill="#000000" font-family="Verdana" font-size="13" lengthAdjust="spacing" textLength="4.1323" x="374.9883" y="1286.5513">&#160;</text><text fill="#000000" font-family="Verdana" font-size="13" lengthAdjust="spacing" textLength="28.1836" x="379.1206" y="1286.5513">DTO</text></g><g class="message" data-entity-1="part2" data-entity-2="part1" id="msg27"><polygon fill="#000000" points="48.2651,1344.8828,38.2651,1348.8828,48.2651,1352.8828,44.2651,1348.8828" style="stroke:#000000;stroke-width:1;"/><line style="stroke:#000000;stroke-width:2;stroke-dasharray:2,2;" x1="42.2651" x2="250.2188" y1="1348.8828" y2="1348.8828"/><text fill="#000000" font-family="Verdana" font-size="13" lengthAdjust="spacing" textLength="24.813" x="54.2651" y="1328.6841">200</text><text fill="#000000" font-family="Verdana" font-size="13" lengthAdjust="spacing" textLength="4.1323" x="79.0781" y="1328.6841">&#160;</text><text fill="#000000" font-family="Verdana" font-size="13" lengthAdjust="spacing" textLength="18.7573" x="83.2104" y="1328.6841">OK</text><text fill="#000000" font-family="Verdana" font-size="13" lengthAdjust="spacing" textLength="82.6655" x="54.2651" y="1343.8169">{watchlistId,</text><text fill="#000000" font-family="Verdana" font-size="13" lengthAdjust="spacing" textLength="4.1323" x="136.9307" y="1343.8169">&#160;</text><text fill="#000000" font-family="Verdana" font-size="13" lengthAdjust="spacing" textLength="49.4419" x="141.063" y="1343.8169">entries:</text><text fill="#000000" font-family="Verdana" font-size="13" lengthAdjust="spacing" textLength="4.1323" x="190.5049" y="1343.8169">&#160;</text><text fill="#000000" font-family="Verdana" font-size="13" lengthAdjust="spacing" textLength="30.8115" x="194.6372" y="1343.8169">[...]}</text></g><path d="M10,1366.8828 L10,1441.8828 A5,5 0 0 0 15,1446.8828 L1490,1446.8828 A5,5 0 0 0 1495,1441.8828 L1495,1371.8828 L1485,1361.8828 L15,1361.8828 A5,5 0 0 0 10,1366.8828" fill="#BBDEFB" style="stroke:#1976D2;stroke-width:1;"/><path d="M1485,1361.8828 L1485,1369.3828 A2.5,2.5 0 0 0 1487.5,1371.8828 L1495,1371.8828 L1485,1361.8828" fill="#BBDEFB" style="stroke:#1976D2;stroke-width:1;"/><text fill="#000000" font-family="Verdana" font-size="13" font-weight="bold" lengthAdjust="spacing" textLength="196.6377" x="580.5815" y="1378.9497">Write Side Characteristics:</text><text fill="#000000" font-family="Verdana" font-size="13" lengthAdjust="spacing" textLength="247.7173" x="580.5815" y="1394.0825">&#10003; Loads full aggregate from database</text><text fill="#000000" font-family="Verdana" font-size="13" lengthAdjust="spacing" textLength="192.7656" x="580.5815" y="1409.2153">&#10003; Enforces domain invariants</text><text fill="#000000" font-family="Verdana" font-size="13" lengthAdjust="spacing" textLength="189.4268" x="580.5815" y="1424.3481">&#10003; Modifies and persists state</text><text fill="#000000" font-family="Verdana" font-size="13" lengthAdjust="spacing" textLength="335.3403" x="580.5815" y="1439.481">&#10003; Application service orchestrates, domain decides</text><?plantuml-src lLRDRkCs4BxhAQRk9J4InqcxNTH0jl2FZ6QRh0tRsnowHS68j4r49bMISkeDyXIzzkdw91rIb4HxxRZeeJ4GIEJCDt_VpEWhisGh1bbAk8WCDoc3UsAIPSgrWRvShOYWC4pb4vpSAsuOJ3bbfr6a7xd8Y28hU239uqB9ND2-JAM2huUn_GKIclsUCv6mhbBoQRRaoQDWMiDL8EBq4wa4Kt3P3YvMv8yL2fC5q_mpWwjsExID_mrFU4Q4WUS8yA-twqtypV1gE2ZkfA9C-VFBxzz-DxXovqCfZ3zj3xvzsxsCNa8ZGcBO1z1xlK4yx1r4HnoI63nez5FEX6a0qL0yLfw5CJGcyNI6QHT6oJHbwfCukH4FrXvqASaCKwS5H2Mn7wOgeQ_WM2hZiBBSW7qfOEpJ4O0fKskUC5JkPbdA4sAu5E1F2nJ_SWJ88YmMYYs8yNerprxNdB1CQevPtFWmHhdPZiDA78xb_RXRPgzGtfFGzndnxnK69OOy4CsWCV1FJdBGgoIYwsj4eH1ZCJPWP13HYK_yALnVHv6l-Fcxi70T68-ms1TFfPA-UERqvG8b5MVwatZ641wPwa2ZsntVDix0B1NJIvdI3bo-QRVQxHVBBhx6Z6unmfCo2ivsJVzCKawj7dUK6Cn6Ez8kdHqWbBheJYelRoWwuXmB71ehouRQcw8OfH_k3J5BeWImhLOhKAkOL6gwrbDyiJGWvrzS0pIRUrW94vcoJhE9zoELB9as2i4rUiiWntecMCeMNWua7duOpI31o77ymKEkkPjCgLpmn8cmr15Ms-fIkR9If6HnAs988-jY59McCSgAZ1sOSq5xcniQPYy8jwQj3wWwG9Y0aKU1GlPwgE08mP2q7PZ6jt5_1aqOJaPty5GtvlsFyIG6Jk4QVgX1BT4z63wUxxfKSHrFiPRSR2BA0kKT3xPqxqXc4pfm2KNxLTjKkTtItavg9HtQgyM396vHRgzQARlBj60q1LoRy6JfdOOxILbQaAnNqaRbAJA5YRbK2QEmPChnxBpgDbrt3Bo3jhkBXSwLlN4z1RdWTbaYdBzDIARpr2dxoG3MFCdsiw_st7NPI7tChEMYsuxsxPTnroSxuDK4gKFAB9eBxA1MNx4jEywlm-8-uXREgCfvUxOv3NMswhoMd8Obhkj-e4arMREwh_vJUnw4EDgO-zh2xYjcEmeZtzV7Dn-cyMHsyN4ywCxYkez_Sudvr_qx-kcLVlq_EgwgHhrjzcfukQYoiBN8zgeK1bvPVpxJ4wOpAN0bxEu_Ar_ix8xzvCHauJhUMe6UcHtu1LVOho-XzHh8ZnMvHim2xomiYvqfzKSrz9VukPbWGj44JtGnNFx-wq-ubOHgcETfMWz8c2kvWl8RnGl6nUZHvQhYOaqKnuyWxGLmQl6v7I7sgpvZIjlF3j36Jjn28jodsbT81blqhCIcB46dTJs5_W40?></g></svg>