<?plantuml 1.2026.1?><svg xmlns="http://www.w3.org/2000/svg" xmlns:xlink="http://www.w3.org/1999/xlink" contentStyleType="text/css" data-diagram-type="CLASS" height="1113px" preserveAspectRatio="none" style="width:1888px;height:1113px;background:#FEFEFE;" version="1.1" viewBox="0 0 1888 1113" width="1888px" zoomAndPan="magnify"><title>HexaStock Domain Model &#8212; Entities and Value Objects</title><defs/><g><rect fill="#FEFEFE" height="1113" style="stroke:none;stroke-width:1;" width="1888" x="0" y="0"/><g class="title" data-source-line="14"><text fill="#000000" font-family="Verdana" font-size="22" font-weight="bold" lengthAdjust="spacing" textLength="681.334" x="598.833" y="35.4209">HexaStock Domain Model &#8212; Entities and Value Objects</text></g><!--cluster Domain Model (pure Java ? no infrastructure)--><g class="cluster" data-qualified-name="Domain Model .pure Java . no infrastructure." data-source-line="16" id="ent0002"><path d="M472.5,57.6094 L837.1104,57.6094 A3.75,3.75 0 0 1 839.6104,60.1094 L846.6104,79.9063 L1230.5,79.9063 A2.5,2.5 0 0 1 1233,82.4063 L1233,851.3294 A2.5,2.5 0 0 1 1230.5,853.8294 L472.5,853.8294 A2.5,2.5 0 0 1 470,851.3294 L470,60.1094 A2.5,2.5 0 0 1 472.5,57.6094" fill="#FFFFFF" style="stroke:#000000;stroke-width:1;"/><line style="stroke:#000000;stroke-width:1;" x1="470" x2="846.6104" y1="79.9063" y2="79.9063"/><text fill="#000000" font-family="Verdana" font-size="14" font-weight="bold" lengthAdjust="spacing" textLength="363.6104" x="474" y="72.6045">Domain Model (pure Java &#8212; no infrastructure)</text></g><!--cluster Value Objects (immutable, validated at construction)--><g class="cluster" data-qualified-name="Value Objects .immutable. validated at construction." data-source-line="71" id="ent0014"><rect fill="#FFFFFF" height="205.05" rx="2.5" ry="2.5" style="stroke:#000000;stroke-width:1;" width="1870" x="12" y="902.8294"/><text fill="#000000" font-family="Verdana" font-size="14" font-weight="bold" lengthAdjust="spacing" textLength="420.1094" x="736.9453" y="917.8245">Value Objects (immutable, validated at construction)</text></g><!--class Portfolio--><g class="entity" data-qualified-name="Domain Model .pure Java . no infrastructure..Portfolio" data-source-line="18" id="ent0003"><rect fill="#FFFFFF" height="202.9375" rx="2.5" ry="2.5" style="stroke:#000000;stroke-width:1;" width="492.9561" x="485.52" y="92.6094"/><ellipse cx="677.792" cy="112.7422" fill="#FFFFFF" rx="9" ry="9" style="stroke:#000000;stroke-width:1;"/><path d="M680.7607,118.3828 Q680.1826,118.6797 679.542,118.8203 Q678.9013,118.9766 678.1982,118.9766 Q675.6982,118.9766 674.3701,117.3359 Q673.0576,115.6797 673.0576,112.5547 Q673.0576,109.4297 674.3701,107.7734 Q675.6982,106.1172 678.1982,106.1172 Q678.9013,106.1172 679.542,106.2734 Q680.1982,106.4297 680.7607,106.7266 L680.7607,109.4453 Q680.1357,108.8672 679.542,108.6016 Q678.9482,108.3203 678.3232,108.3203 Q676.9795,108.3203 676.292,109.3984 Q675.6045,110.4609 675.6045,112.5547 Q675.6045,114.6484 676.292,115.7266 Q676.9795,116.7891 678.3232,116.7891 Q678.9482,116.7891 679.542,116.5234 Q680.1357,116.2422 680.7607,115.6641 L680.7607,118.3828 Z " fill="#000000"/><text fill="#000000" font-family="Verdana" font-size="12" font-style="italic" lengthAdjust="spacing" textLength="104.9121" x="693.292" y="108.748">&#171;aggregate root&#187;</text><text fill="#000000" font-family="Verdana" font-size="14" lengthAdjust="spacing" textLength="58.0918" x="716.7021" y="124.5732">Portfolio</text><line style="stroke:#000000;stroke-width:1;" x1="486.52" x2="977.4761" y1="132.875" y2="132.875"/><text fill="#000000" font-family="Verdana" font-size="14" lengthAdjust="spacing" textLength="98.1025" x="491.52" y="149.8701">-id: PortfolioId</text><text fill="#000000" font-family="Verdana" font-size="14" lengthAdjust="spacing" textLength="99.2578" x="491.52" y="166.167">-owner: String</text><text fill="#000000" font-family="Verdana" font-size="14" lengthAdjust="spacing" textLength="115.7529" x="491.52" y="182.4639">-balance: Money</text><text fill="#000000" font-family="Verdana" font-size="14" lengthAdjust="spacing" textLength="231.417" x="491.52" y="198.7607">-holdings: Map&lt;Ticker, Holding&gt;</text><text fill="#000000" font-family="Verdana" font-size="14" lengthAdjust="spacing" textLength="187.6055" x="491.52" y="215.0576">-createdAt: LocalDateTime</text><line style="stroke:#000000;stroke-width:1;" x1="486.52" x2="977.4761" y1="222.3594" y2="222.3594"/><text fill="#000000" font-family="Verdana" font-size="14" lengthAdjust="spacing" textLength="480.9561" x="491.52" y="239.3545">+sell(ticker: Ticker, quantity: ShareQuantity, price: Price): SellResult</text><text fill="#000000" font-family="Verdana" font-size="14" lengthAdjust="spacing" textLength="443.7754" x="491.52" y="255.6514">+buy(ticker: Ticker, quantity: ShareQuantity, price: Price): void</text><text fill="#000000" font-family="Verdana" font-size="14" lengthAdjust="spacing" textLength="253.1826" x="491.52" y="271.9482">+getHolding(ticker: Ticker): Holding</text><text fill="#000000" font-family="Verdana" font-size="14" lengthAdjust="spacing" textLength="157.0625" x="491.52" y="288.2451">+getBalance(): Money</text></g><!--class Holding--><g class="entity" data-qualified-name="Domain Model .pure Java . no infrastructure..Holding" data-source-line="31" id="ent0004"><rect fill="#FFFFFF" height="170.3438" rx="2.5" ry="2.5" style="stroke:#000000;stroke-width:1;" width="392.7207" x="519.64" y="372.5494"/><ellipse cx="685.4911" cy="392.6822" fill="#FFFFFF" rx="9" ry="9" style="stroke:#000000;stroke-width:1;"/><path d="M688.4598,398.3228 Q687.8817,398.6197 687.2411,398.7603 Q686.6004,398.9166 685.8973,398.9166 Q683.3973,398.9166 682.0692,397.2759 Q680.7567,395.6197 680.7567,392.4947 Q680.7567,389.3697 682.0692,387.7134 Q683.3973,386.0572 685.8973,386.0572 Q686.6004,386.0572 687.2411,386.2134 Q687.8973,386.3697 688.4598,386.6666 L688.4598,389.3853 Q687.8348,388.8072 687.2411,388.5416 Q686.6473,388.2603 686.0223,388.2603 Q684.6786,388.2603 683.9911,389.3384 Q683.3036,390.4009 683.3036,392.4947 Q683.3036,394.5884 683.9911,395.6666 Q684.6786,396.7291 686.0223,396.7291 Q686.6473,396.7291 687.2411,396.4634 Q687.8348,396.1822 688.4598,395.6041 L688.4598,398.3228 Z " fill="#000000"/><text fill="#000000" font-family="Verdana" font-size="12" font-style="italic" lengthAdjust="spacing" textLength="49.6465" x="704.9271" y="388.688">&#171;entity&#187;</text><text fill="#000000" font-family="Verdana" font-size="14" lengthAdjust="spacing" textLength="53.5186" x="702.9911" y="404.5132">Holding</text><line style="stroke:#000000;stroke-width:1;" x1="520.64" x2="911.3607" y1="412.815" y2="412.815"/><text fill="#000000" font-family="Verdana" font-size="14" lengthAdjust="spacing" textLength="93.5293" x="525.64" y="429.8101">-id: HoldingId</text><text fill="#000000" font-family="Verdana" font-size="14" lengthAdjust="spacing" textLength="96.3867" x="525.64" y="446.107">-ticker: Ticker</text><text fill="#000000" font-family="Verdana" font-size="14" lengthAdjust="spacing" textLength="317.7002" x="525.64" y="462.4039">-lots: List&lt;Lot&gt;  {ordered by purchase date}</text><line style="stroke:#000000;stroke-width:1;" x1="520.64" x2="911.3607" y1="469.7056" y2="469.7056"/><text fill="#000000" font-family="Verdana" font-size="14" lengthAdjust="spacing" textLength="380.7207" x="525.64" y="486.7007">+sell(quantity: ShareQuantity, price: Price): SellResult</text><text fill="#000000" font-family="Verdana" font-size="14" lengthAdjust="spacing" textLength="343.54" x="525.64" y="502.9976">+buy(quantity: ShareQuantity, price: Price): void</text><text fill="#000000" font-family="Verdana" font-size="14" lengthAdjust="spacing" textLength="239.0938" x="525.64" y="519.2945">+getTotalShares(): ShareQuantity</text><text fill="#000000" font-family="Verdana" font-size="14" lengthAdjust="spacing" textLength="153.7471" x="525.64" y="535.5914">+getLots(): List&lt;Lot&gt;</text></g><!--class Lot--><g class="entity" data-qualified-name="Domain Model .pure Java . no infrastructure..Lot" data-source-line="42" id="ent0005"><rect fill="#FFFFFF" height="202.9375" rx="2.5" ry="2.5" style="stroke:#000000;stroke-width:1;" width="390.0684" x="485.97" y="634.8994"/><ellipse cx="654.4309" cy="655.0322" fill="#FFFFFF" rx="9" ry="9" style="stroke:#000000;stroke-width:1;"/><path d="M657.3997,660.6728 Q656.8216,660.9697 656.1809,661.1103 Q655.5403,661.2666 654.8372,661.2666 Q652.3372,661.2666 651.0091,659.6259 Q649.6966,657.9697 649.6966,654.8447 Q649.6966,651.7197 651.0091,650.0634 Q652.3372,648.4072 654.8372,648.4072 Q655.5403,648.4072 656.1809,648.5634 Q656.8372,648.7197 657.3997,649.0166 L657.3997,651.7353 Q656.7747,651.1572 656.1809,650.8916 Q655.5872,650.6103 654.9622,650.6103 Q653.6184,650.6103 652.9309,651.6884 Q652.2434,652.7509 652.2434,654.8447 Q652.2434,656.9384 652.9309,658.0166 Q653.6184,659.0791 654.9622,659.0791 Q655.5872,659.0791 656.1809,658.8134 Q656.7747,658.5322 657.3997,657.9541 L657.3997,660.6728 Z " fill="#000000"/><text fill="#000000" font-family="Verdana" font-size="12" font-style="italic" lengthAdjust="spacing" textLength="49.6465" x="669.9309" y="651.038">&#171;entity&#187;</text><text fill="#000000" font-family="Verdana" font-size="14" lengthAdjust="spacing" textLength="21.8545" x="683.8269" y="666.8632">Lot</text><line style="stroke:#000000;stroke-width:1;" x1="486.97" x2="875.0384" y1="675.165" y2="675.165"/><text fill="#000000" font-family="Verdana" font-size="14" lengthAdjust="spacing" textLength="61.8652" x="491.97" y="692.1601">-id: LotId</text><text fill="#000000" font-family="Verdana" font-size="14" lengthAdjust="spacing" textLength="201.9268" x="491.97" y="708.457">-initialShares: ShareQuantity</text><text fill="#000000" font-family="Verdana" font-size="14" lengthAdjust="spacing" textLength="234.4248" x="491.97" y="724.7539">-remainingShares: ShareQuantity</text><text fill="#000000" font-family="Verdana" font-size="14" lengthAdjust="spacing" textLength="110.1406" x="491.97" y="741.0507">-unitPrice: Price</text><text fill="#000000" font-family="Verdana" font-size="14" lengthAdjust="spacing" textLength="207.4297" x="491.97" y="757.3476">-purchasedAt: LocalDateTime</text><line style="stroke:#000000;stroke-width:1;" x1="486.97" x2="875.0384" y1="764.6494" y2="764.6494"/><text fill="#000000" font-family="Verdana" font-size="14" lengthAdjust="spacing" textLength="278.626" x="491.97" y="781.6445">+reduce(quantity: ShareQuantity): void</text><text fill="#000000" font-family="Verdana" font-size="14" lengthAdjust="spacing" textLength="378.0684" x="491.97" y="797.9414">+calculateCostBasis(quantity: ShareQuantity): Money</text><text fill="#000000" font-family="Verdana" font-size="14" lengthAdjust="spacing" textLength="278.9883" x="491.97" y="814.2382">+getRemainingShares(): ShareQuantity</text><text fill="#000000" font-family="Verdana" font-size="14" lengthAdjust="spacing" textLength="144.1221" x="491.97" y="830.5351">+isEmpty(): boolean</text></g><g class="entity" data-qualified-name="Domain Model .pure Java . no infrastructure..GMN8" data-source-line="59" id="ent0009"><path d="M1013.03,158.8194 L1013.03,190.0794 L978.86,194.0794 L1013.03,198.0794 L1013.03,229.3506 A0,0 0 0 0 1013.03,229.3506 L1216.9695,229.3506 A0,0 0 0 0 1216.9695,229.3506 L1216.9695,168.8194 L1206.9695,158.8194 L1013.03,158.8194 A0,0 0 0 0 1013.03,158.8194" fill="#FFFFF0" style="stroke:#CCCCAA;stroke-width:1;"/><path d="M1206.9695,158.8194 L1206.9695,168.8194 L1216.9695,168.8194 L1206.9695,158.8194" fill="#FFFFF0" style="stroke:#CCCCAA;stroke-width:1;"/><text fill="#000000" font-family="Verdana" font-size="13" font-weight="bold" lengthAdjust="spacing" textLength="115.6226" x="1019.03" y="175.8863">Aggregate Root</text><text fill="#000000" font-family="Verdana" font-size="13" lengthAdjust="spacing" textLength="182.9395" x="1019.03" y="191.0191">All state changes to Holding</text><text fill="#000000" font-family="Verdana" font-size="13" lengthAdjust="spacing" textLength="175.1826" x="1019.03" y="206.1519">and Lot must pass through</text><text fill="#000000" font-family="Verdana" font-size="13" lengthAdjust="spacing" textLength="58.0747" x="1019.03" y="221.2847">Portfolio.</text></g><g class="entity" data-qualified-name="Domain Model .pure Java . no infrastructure..GMN11" data-source-line="66" id="ent0012"><path d="M947.02,437.5894 L947.02,453.7194 L912.77,457.7194 L947.02,461.7194 L947.02,477.855 A0,0 0 0 0 947.02,477.855 L1196.9863,477.855 A0,0 0 0 0 1196.9863,477.855 L1196.9863,447.5894 L1186.9863,437.5894 L947.02,437.5894 A0,0 0 0 0 947.02,437.5894" fill="#FFFFF0" style="stroke:#CCCCAA;stroke-width:1;"/><path d="M1186.9863,437.5894 L1186.9863,447.5894 L1196.9863,447.5894 L1186.9863,437.5894" fill="#FFFFF0" style="stroke:#CCCCAA;stroke-width:1;"/><text fill="#000000" font-family="Verdana" font-size="13" lengthAdjust="spacing" textLength="127.8608" x="953.02" y="454.6563">Lots are ordered by</text><text fill="#000000" font-family="Verdana" font-size="13" font-weight="bold" lengthAdjust="spacing" textLength="92.8408" x="1085.0132" y="454.6563">purchasedAt</text><text fill="#000000" font-family="Verdana" font-size="13" lengthAdjust="spacing" textLength="4.1323" x="1177.854" y="454.6563">.</text><text fill="#000000" font-family="Verdana" font-size="13" lengthAdjust="spacing" textLength="203.9946" x="953.02" y="469.7891">FIFO consumes oldest lots first.</text></g><!--class Money--><g class="entity" data-qualified-name="Value Objects .immutable. validated at construction..Money" data-source-line="73" id="ent0015"><rect fill="#FFFFFF" height="105.1563" rx="2.5" ry="2.5" style="stroke:#000000;stroke-width:1;" width="241.1816" x="1624.41" y="962.2794"/><ellipse cx="1699.0594" cy="982.4122" fill="#FFFFFF" rx="9" ry="9" style="stroke:#000000;stroke-width:1;"/><path d="M1702.0282,988.0528 Q1701.45,988.3497 1700.8094,988.4903 Q1700.1688,988.6466 1699.4657,988.6466 Q1696.9657,988.6466 1695.6375,987.0059 Q1694.325,985.3497 1694.325,982.2247 Q1694.325,979.0997 1695.6375,977.4434 Q1696.9657,975.7872 1699.4657,975.7872 Q1700.1688,975.7872 1700.8094,975.9434 Q1701.4657,976.0997 1702.0282,976.3966 L1702.0282,979.1153 Q1701.4032,978.5372 1700.8094,978.2716 Q1700.2157,977.9903 1699.5907,977.9903 Q1698.2469,977.9903 1697.5594,979.0684 Q1696.8719,980.1309 1696.8719,982.2247 Q1696.8719,984.3184 1697.5594,985.3966 Q1698.2469,986.4591 1699.5907,986.4591 Q1700.2157,986.4591 1700.8094,986.1934 Q1701.4032,985.9122 1702.0282,985.3341 L1702.0282,988.0528 Z " fill="#000000"/><text fill="#000000" font-family="Verdana" font-size="12" font-style="italic" lengthAdjust="spacing" textLength="88.3828" x="1714.5594" y="978.418">&#171;value object&#187;</text><text fill="#000000" font-family="Verdana" font-size="14" lengthAdjust="spacing" textLength="46.416" x="1735.5428" y="994.2432">Money</text><line style="stroke:#000000;stroke-width:1;" x1="1625.41" x2="1864.5916" y1="1002.545" y2="1002.545"/><text fill="#000000" font-family="Verdana" font-size="14" lengthAdjust="spacing" textLength="147.7041" x="1630.41" y="1019.5401">-amount: BigDecimal</text><line style="stroke:#000000;stroke-width:1;" x1="1625.41" x2="1864.5916" y1="1026.8419" y2="1026.8419"/><text fill="#000000" font-family="Verdana" font-size="14" lengthAdjust="spacing" textLength="197.4697" x="1630.41" y="1043.837">+add(other: Money): Money</text><text fill="#000000" font-family="Verdana" font-size="14" lengthAdjust="spacing" textLength="229.1816" x="1630.41" y="1060.1339">+subtract(other: Money): Money</text></g><!--class Price--><g class="entity" data-qualified-name="Value Objects .immutable. validated at construction..Price" data-source-line="80" id="ent0016"><rect fill="#FFFFFF" height="105.1563" rx="2.5" ry="2.5" style="stroke:#000000;stroke-width:1;" width="280.1123" x="27.94" y="962.2794"/><ellipse cx="122.0547" cy="982.4122" fill="#FFFFFF" rx="9" ry="9" style="stroke:#000000;stroke-width:1;"/><path d="M125.0235,988.0528 Q124.4454,988.3497 123.8047,988.4903 Q123.1641,988.6466 122.461,988.6466 Q119.961,988.6466 118.6329,987.0059 Q117.3204,985.3497 117.3204,982.2247 Q117.3204,979.0997 118.6329,977.4434 Q119.961,975.7872 122.461,975.7872 Q123.1641,975.7872 123.8047,975.9434 Q124.461,976.0997 125.0235,976.3966 L125.0235,979.1153 Q124.3985,978.5372 123.8047,978.2716 Q123.211,977.9903 122.586,977.9903 Q121.2422,977.9903 120.5547,979.0684 Q119.8672,980.1309 119.8672,982.2247 Q119.8672,984.3184 120.5547,985.3966 Q121.2422,986.4591 122.586,986.4591 Q123.211,986.4591 123.8047,986.1934 Q124.3985,985.9122 125.0235,985.3341 L125.0235,988.0528 Z " fill="#000000"/><text fill="#000000" font-family="Verdana" font-size="12" font-style="italic" lengthAdjust="spacing" textLength="88.3828" x="137.5547" y="978.418">&#171;value object&#187;</text><text fill="#000000" font-family="Verdana" font-size="14" lengthAdjust="spacing" textLength="34.3984" x="164.5469" y="994.2432">Price</text><line style="stroke:#000000;stroke-width:1;" x1="28.94" x2="307.0523" y1="1002.545" y2="1002.545"/><text fill="#000000" font-family="Verdana" font-size="14" lengthAdjust="spacing" textLength="147.7041" x="33.94" y="1019.5401">-amount: BigDecimal</text><line style="stroke:#000000;stroke-width:1;" x1="28.94" x2="307.0523" y1="1026.8419" y2="1026.8419"/><text fill="#000000" font-family="Verdana" font-size="14" lengthAdjust="spacing" textLength="268.1123" x="33.94" y="1043.837">+multiply(qty: ShareQuantity): Money</text><text fill="#000000" font-family="Verdana" font-size="14" lengthAdjust="spacing" textLength="205.8779" x="33.94" y="1060.1339">{rejects non-positive values}</text></g><!--class ShareQuantity--><g class="entity" data-qualified-name="Value Objects .immutable. validated at construction..ShareQuantity" data-source-line="87" id="ent0017"><rect fill="#FFFFFF" height="154.0469" rx="2.5" ry="2.5" style="stroke:#000000;stroke-width:1;" width="350.7617" x="342.62" y="937.8294"/><ellipse cx="463.6478" cy="957.9622" fill="#FFFFFF" rx="9" ry="9" style="stroke:#000000;stroke-width:1;"/><path d="M466.6166,963.6028 Q466.0385,963.8997 465.3978,964.0403 Q464.7572,964.1966 464.0541,964.1966 Q461.5541,964.1966 460.226,962.5559 Q458.9135,960.8997 458.9135,957.7747 Q458.9135,954.6497 460.226,952.9934 Q461.5541,951.3372 464.0541,951.3372 Q464.7572,951.3372 465.3978,951.4934 Q466.0541,951.6497 466.6166,951.9466 L466.6166,954.6653 Q465.9916,954.0872 465.3978,953.8216 Q464.8041,953.5403 464.1791,953.5403 Q462.8353,953.5403 462.1478,954.6184 Q461.4603,955.6809 461.4603,957.7747 Q461.4603,959.8684 462.1478,960.9466 Q462.8353,962.0091 464.1791,962.0091 Q464.8041,962.0091 465.3978,961.7434 Q465.9916,961.4622 466.6166,960.8841 L466.6166,963.6028 Z " fill="#000000"/><text fill="#000000" font-family="Verdana" font-size="12" font-style="italic" lengthAdjust="spacing" textLength="88.3828" x="487.5595" y="953.968">&#171;value object&#187;</text><text fill="#000000" font-family="Verdana" font-size="14" lengthAdjust="spacing" textLength="101.2061" x="481.1478" y="969.7932">ShareQuantity</text><line style="stroke:#000000;stroke-width:1;" x1="343.62" x2="692.3817" y1="978.095" y2="978.095"/><text fill="#000000" font-family="Verdana" font-size="14" lengthAdjust="spacing" textLength="70.7109" x="348.62" y="995.0901">-value: int</text><line style="stroke:#000000;stroke-width:1;" x1="343.62" x2="692.3817" y1="1002.3919" y2="1002.3919"/><text fill="#000000" font-family="Verdana" font-size="14" lengthAdjust="spacing" textLength="307.0977" x="348.62" y="1019.387">+min(other: ShareQuantity): ShareQuantity</text><text fill="#000000" font-family="Verdana" font-size="14" lengthAdjust="spacing" textLength="338.7617" x="348.62" y="1035.6839">+subtract(other: ShareQuantity): ShareQuantity</text><text fill="#000000" font-family="Verdana" font-size="14" lengthAdjust="spacing" textLength="153.4463" x="348.62" y="1051.9807">+isPositive(): boolean</text><text fill="#000000" font-family="Verdana" font-size="14" lengthAdjust="spacing" textLength="131.5029" x="348.62" y="1068.2776">+isZero(): boolean</text><text fill="#000000" font-family="Verdana" font-size="14" lengthAdjust="spacing" textLength="180.8311" x="348.62" y="1084.5745">{rejects negative values}</text></g><!--class Ticker--><g class="entity" data-qualified-name="Value Objects .immutable. validated at construction..Ticker" data-source-line="97" id="ent0018"><rect fill="#FFFFFF" height="72.5625" rx="2.5" ry="2.5" style="stroke:#000000;stroke-width:1;" width="118.5586" x="1022.72" y="978.5794"/><ellipse cx="1038.4991" cy="998.7122" fill="#FFFFFF" rx="9" ry="9" style="stroke:#000000;stroke-width:1;"/><path d="M1041.4679,1004.3528 Q1040.8897,1004.6497 1040.2491,1004.7903 Q1039.6085,1004.9466 1038.9054,1004.9466 Q1036.4054,1004.9466 1035.0772,1003.3059 Q1033.7647,1001.6497 1033.7647,998.5247 Q1033.7647,995.3997 1035.0772,993.7434 Q1036.4054,992.0872 1038.9054,992.0872 Q1039.6085,992.0872 1040.2491,992.2434 Q1040.9054,992.3997 1041.4679,992.6966 L1041.4679,995.4153 Q1040.8429,994.8372 1040.2491,994.5716 Q1039.6554,994.2903 1039.0304,994.2903 Q1037.6866,994.2903 1036.9991,995.3684 Q1036.3116,996.4309 1036.3116,998.5247 Q1036.3116,1000.6184 1036.9991,1001.6966 Q1037.6866,1002.7591 1039.0304,1002.7591 Q1039.6554,1002.7591 1040.2491,1002.4934 Q1040.8429,1002.2122 1041.4679,1001.6341 L1041.4679,1004.3528 Z " fill="#000000"/><text fill="#000000" font-family="Verdana" font-size="12" font-style="italic" lengthAdjust="spacing" textLength="88.3828" x="1049.1167" y="994.718">&#171;value object&#187;</text><text fill="#000000" font-family="Verdana" font-size="14" lengthAdjust="spacing" textLength="42.6152" x="1072.0005" y="1010.5432">Ticker</text><line style="stroke:#000000;stroke-width:1;" x1="1023.72" x2="1140.2786" y1="1018.845" y2="1018.845"/><text fill="#000000" font-family="Verdana" font-size="14" lengthAdjust="spacing" textLength="106.5586" x="1028.72" y="1035.8401">-symbol: String</text><line style="stroke:#000000;stroke-width:1;" x1="1023.72" x2="1140.2786" y1="1043.1419" y2="1043.1419"/></g><!--class PortfolioId--><g class="entity" data-qualified-name="Value Objects .immutable. validated at construction..PortfolioId" data-source-line="101" id="ent0019"><rect fill="#FFFFFF" height="72.5625" rx="2.5" ry="2.5" style="stroke:#000000;stroke-width:1;" width="157.0176" x="1432.49" y="978.5794"/><ellipse cx="1465.5756" cy="998.7122" fill="#FFFFFF" rx="9" ry="9" style="stroke:#000000;stroke-width:1;"/><path d="M1468.5444,1004.3528 Q1467.9663,1004.6497 1467.3256,1004.7903 Q1466.685,1004.9466 1465.9819,1004.9466 Q1463.4819,1004.9466 1462.1538,1003.3059 Q1460.8413,1001.6497 1460.8413,998.5247 Q1460.8413,995.3997 1462.1538,993.7434 Q1463.4819,992.0872 1465.9819,992.0872 Q1466.685,992.0872 1467.3256,992.2434 Q1467.9819,992.3997 1468.5444,992.6966 L1468.5444,995.4153 Q1467.9194,994.8372 1467.3256,994.5716 Q1466.7319,994.2903 1466.1069,994.2903 Q1464.7631,994.2903 1464.0756,995.3684 Q1463.3881,996.4309 1463.3881,998.5247 Q1463.3881,1000.6184 1464.0756,1001.6966 Q1464.7631,1002.7591 1466.1069,1002.7591 Q1466.7319,1002.7591 1467.3256,1002.4934 Q1467.9194,1002.2122 1468.5444,1001.6341 L1468.5444,1004.3528 Z " fill="#000000"/><text fill="#000000" font-family="Verdana" font-size="12" font-style="italic" lengthAdjust="spacing" textLength="88.3828" x="1480.0391" y="994.718">&#171;value object&#187;</text><text fill="#000000" font-family="Verdana" font-size="14" lengthAdjust="spacing" textLength="71.1074" x="1488.6768" y="1010.5432">PortfolioId</text><line style="stroke:#000000;stroke-width:1;" x1="1433.49" x2="1588.5076" y1="1018.845" y2="1018.845"/><line style="stroke:#000000;stroke-width:1;" x1="1433.49" x2="1588.5076" y1="1026.845" y2="1026.845"/><text fill="#000000" font-family="Verdana" font-size="14" lengthAdjust="spacing" textLength="145.0176" x="1438.49" y="1043.8401">-value: String (UUID)</text></g><!--class HoldingId--><g class="entity" data-qualified-name="Value Objects .immutable. validated at construction..HoldingId" data-source-line="105" id="ent0020"><rect fill="#FFFFFF" height="72.5625" rx="2.5" ry="2.5" style="stroke:#000000;stroke-width:1;" width="112.3828" x="875.81" y="978.5794"/><ellipse cx="888.81" cy="998.7122" fill="#FFFFFF" rx="9" ry="9" style="stroke:#000000;stroke-width:1;"/><path d="M891.7788,1004.3528 Q891.2006,1004.6497 890.56,1004.7903 Q889.9194,1004.9466 889.2163,1004.9466 Q886.7163,1004.9466 885.3881,1003.3059 Q884.0756,1001.6497 884.0756,998.5247 Q884.0756,995.3997 885.3881,993.7434 Q886.7163,992.0872 889.2163,992.0872 Q889.9194,992.0872 890.56,992.2434 Q891.2163,992.3997 891.7788,992.6966 L891.7788,995.4153 Q891.1538,994.8372 890.56,994.5716 Q889.9663,994.2903 889.3413,994.2903 Q887.9975,994.2903 887.31,995.3684 Q886.6225,996.4309 886.6225,998.5247 Q886.6225,1000.6184 887.31,1001.6966 Q887.9975,1002.7591 889.3413,1002.7591 Q889.9663,1002.7591 890.56,1002.4934 Q891.1538,1002.2122 891.7788,1001.6341 L891.7788,1004.3528 Z " fill="#000000"/><text fill="#000000" font-family="Verdana" font-size="12" font-style="italic" lengthAdjust="spacing" textLength="88.3828" x="898.81" y="994.718">&#171;value object&#187;</text><text fill="#000000" font-family="Verdana" font-size="14" lengthAdjust="spacing" textLength="66.5342" x="909.7343" y="1010.5432">HoldingId</text><line style="stroke:#000000;stroke-width:1;" x1="876.81" x2="987.1928" y1="1018.845" y2="1018.845"/><text fill="#000000" font-family="Verdana" font-size="14" lengthAdjust="spacing" textLength="94.2402" x="881.81" y="1035.8401">-value: String</text><line style="stroke:#000000;stroke-width:1;" x1="876.81" x2="987.1928" y1="1043.1419" y2="1043.1419"/></g><!--class LotId--><g class="entity" data-qualified-name="Value Objects .immutable. validated at construction..LotId" data-source-line="109" id="ent0021"><rect fill="#FFFFFF" height="72.5625" rx="2.5" ry="2.5" style="stroke:#000000;stroke-width:1;" width="112.3828" x="728.81" y="978.5794"/><ellipse cx="741.81" cy="998.7122" fill="#FFFFFF" rx="9" ry="9" style="stroke:#000000;stroke-width:1;"/><path d="M744.7788,1004.3528 Q744.2006,1004.6497 743.56,1004.7903 Q742.9194,1004.9466 742.2163,1004.9466 Q739.7163,1004.9466 738.3881,1003.3059 Q737.0756,1001.6497 737.0756,998.5247 Q737.0756,995.3997 738.3881,993.7434 Q739.7163,992.0872 742.2163,992.0872 Q742.9194,992.0872 743.56,992.2434 Q744.2163,992.3997 744.7788,992.6966 L744.7788,995.4153 Q744.1538,994.8372 743.56,994.5716 Q742.9663,994.2903 742.3413,994.2903 Q740.9975,994.2903 740.31,995.3684 Q739.6225,996.4309 739.6225,998.5247 Q739.6225,1000.6184 740.31,1001.6966 Q740.9975,1002.7591 742.3413,1002.7591 Q742.9663,1002.7591 743.56,1002.4934 Q744.1538,1002.2122 744.7788,1001.6341 L744.7788,1004.3528 Z " fill="#000000"/><text fill="#000000" font-family="Verdana" font-size="12" font-style="italic" lengthAdjust="spacing" textLength="88.3828" x="751.81" y="994.718">&#171;value object&#187;</text><text fill="#000000" font-family="Verdana" font-size="14" lengthAdjust="spacing" textLength="34.8701" x="778.5663" y="1010.5432">LotId</text><line style="stroke:#000000;stroke-width:1;" x1="729.81" x2="840.1928" y1="1018.845" y2="1018.845"/><text fill="#000000" font-family="Verdana" font-size="14" lengthAdjust="spacing" textLength="94.2402" x="734.81" y="1035.8401">-value: String</text><line style="stroke:#000000;stroke-width:1;" x1="729.81" x2="840.1928" y1="1043.1419" y2="1043.1419"/></g><!--class SellResult--><g class="entity" data-qualified-name="Value Objects .immutable. validated at construction..SellResult" data-source-line="113" id="ent0022"><rect fill="#FFFFFF" height="121.4531" rx="2.5" ry="2.5" style="stroke:#000000;stroke-width:1;" width="220.7969" x="1176.6" y="954.1294"/><ellipse cx="1241.057" cy="974.2622" fill="#FFFFFF" rx="9" ry="9" style="stroke:#000000;stroke-width:1;"/><path d="M1244.0258,979.9028 Q1243.4477,980.1997 1242.807,980.3403 Q1242.1664,980.4966 1241.4633,980.4966 Q1238.9633,980.4966 1237.6352,978.8559 Q1236.3227,977.1997 1236.3227,974.0747 Q1236.3227,970.9497 1237.6352,969.2934 Q1238.9633,967.6372 1241.4633,967.6372 Q1242.1664,967.6372 1242.807,967.7934 Q1243.4633,967.9497 1244.0258,968.2466 L1244.0258,970.9653 Q1243.4008,970.3872 1242.807,970.1216 Q1242.2133,969.8403 1241.5883,969.8403 Q1240.2445,969.8403 1239.557,970.9184 Q1238.8695,971.9809 1238.8695,974.0747 Q1238.8695,976.1684 1239.557,977.2466 Q1240.2445,978.3091 1241.5883,978.3091 Q1242.2133,978.3091 1242.807,978.0434 Q1243.4008,977.7622 1244.0258,977.1841 L1244.0258,979.9028 Z " fill="#000000"/><text fill="#000000" font-family="Verdana" font-size="12" font-style="italic" lengthAdjust="spacing" textLength="88.3828" x="1256.557" y="970.268">&#171;value object&#187;</text><text fill="#000000" font-family="Verdana" font-size="14" lengthAdjust="spacing" textLength="69.166" x="1266.1654" y="986.0932">SellResult</text><line style="stroke:#000000;stroke-width:1;" x1="1177.6" x2="1396.3969" y1="994.395" y2="994.395"/><text fill="#000000" font-family="Verdana" font-size="14" lengthAdjust="spacing" textLength="124.9473" x="1182.6" y="1011.3901">-proceeds: Money</text><text fill="#000000" font-family="Verdana" font-size="14" lengthAdjust="spacing" textLength="126.3418" x="1182.6" y="1027.687">-costBasis: Money</text><text fill="#000000" font-family="Verdana" font-size="14" lengthAdjust="spacing" textLength="98.1504" x="1182.6" y="1043.9839">-profit: Money</text><line style="stroke:#000000;stroke-width:1;" x1="1177.6" x2="1396.3969" y1="1051.2856" y2="1051.2856"/><text fill="#000000" font-family="Verdana" font-size="14" lengthAdjust="spacing" textLength="208.7969" x="1182.6" y="1068.2807">profit = proceeds &#8722; costBasis</text></g><!--reverse link Portfolio to Holding--><g class="link" data-entity-1="ent0003" data-entity-2="ent0004" data-link-type="composition" data-source-line="55" id="lnk6"><path codeLine="55" d="M725.1077,307.847 C723.5677,333.037 722.66,347.8194 721.17,372.1394" fill="none" id="Portfolio-backto-Holding" style="stroke:#000000;stroke-width:1;"/><polygon fill="#000000" points="725.84,295.8694,721.4813,301.6141,725.1077,307.847,729.4664,302.1023,725.84,295.8694" style="stroke:#000000;stroke-width:1;"/><polygon fill="#000000" points="728.6943,339.1064,732.1807,330.2579,726.3139,329.8986,728.6943,339.1064" style="stroke:#000000;stroke-width:1;"/><text fill="#000000" font-family="Verdana" font-size="13" lengthAdjust="spacing" textLength="55.0278" x="738" y="338.6163">contains</text><text fill="#000000" font-family="Verdana" font-size="13" lengthAdjust="spacing" textLength="8.271" x="717.1353" y="315.6255">1</text><text fill="#000000" font-family="Verdana" font-size="13" lengthAdjust="spacing" textLength="23.0356" x="697.6472" y="361.5034">0..*</text></g><!--reverse link Holding to Lot--><g class="link" data-entity-1="ent0004" data-entity-2="ent0005" data-link-type="composition" data-source-line="56" id="lnk7"><path codeLine="56" d="M703.8033,555.1344 C700.1433,584.0544 697.52,604.7794 693.72,634.8394" fill="none" id="Holding-backto-Lot" style="stroke:#000000;stroke-width:1;"/><polygon fill="#000000" points="705.31,543.2294,700.5883,548.6797,703.8033,555.1344,708.525,549.6841,705.31,543.2294" style="stroke:#000000;stroke-width:1;"/><text fill="#000000" font-family="Verdana" font-size="13" lengthAdjust="spacing" textLength="55.0278" x="731.0055" y="585.9663">contains</text><polygon fill="#000000" points="705.9725,601.5591,710.0234,592.9544,704.192,592.2166,705.9725,601.5591" style="stroke:#000000;stroke-width:1;"/><text fill="#000000" font-family="Verdana" font-size="13" lengthAdjust="spacing" textLength="100.8389" x="714.6" y="601.0991">{ordered FIFO}</text><text fill="#000000" font-family="Verdana" font-size="13" lengthAdjust="spacing" textLength="8.271" x="696.1047" y="563.004">1</text><text fill="#000000" font-family="Verdana" font-size="13" lengthAdjust="spacing" textLength="23.0356" x="670.8106" y="623.9043">1..*</text></g><!--link Portfolio to PortfolioId--><g class="link" data-entity-1="ent0003" data-entity-2="ent0019" data-link-type="dependency" data-source-line="123" id="lnk23"><path codeLine="123" d="M978.75,291.0394 C984.53,292.6194 990.29,294.1294 996,295.5494 C1139.64,331.2694 1221.71,261.8894 1320,372.5494 C1482.78,555.8194 1506.7826,866.6426 1510.2626,972.3626" fill="none" id="Portfolio-to-PortfolioId" style="stroke:#000000;stroke-width:1;stroke-dasharray:7,7;"/><polygon fill="#000000" points="1510.46,978.3594,1514.1617,969.2326,1510.2955,973.3621,1506.1661,969.4958,1510.46,978.3594" style="stroke:#000000;stroke-width:1;"/><text fill="#000000" font-family="Verdana" font-size="13" lengthAdjust="spacing" textLength="29.7832" x="1447.16" y="593.4663">uses</text></g><!--link Portfolio to Money--><g class="link" data-entity-1="ent0003" data-entity-2="ent0015" data-link-type="dependency" data-source-line="124" id="lnk24"><path codeLine="124" d="M978.7,291.2394 C984.5,292.7694 990.27,294.2094 996,295.5494 C1172.67,337.0494 1266.28,246.6694 1397,372.5494 C1580.18,548.9394 1688.202,837.3476 1727.102,956.0876" fill="none" id="Portfolio-to-Money" style="stroke:#000000;stroke-width:1;stroke-dasharray:7,7;"/><polygon fill="#000000" points="1728.97,961.7894,1729.9693,951.9913,1727.4134,957.0379,1722.3669,954.4819,1728.97,961.7894" style="stroke:#000000;stroke-width:1;"/><text fill="#000000" font-family="Verdana" font-size="13" lengthAdjust="spacing" textLength="51.1812" x="1572.41" y="593.4663">balance</text></g><!--link Portfolio to Ticker--><g class="link" data-entity-1="ent0003" data-entity-2="ent0018" data-link-type="dependency" data-source-line="125" id="lnk25"><path codeLine="125" d="M978.91,289.2594 C984.66,291.3794 990.36,293.4794 996,295.5494 C1092.47,330.9394 1152.45,290.2694 1214,372.5494 C1246.58,416.0994 1257,815.8194 1228,861.8294 C1209.88,890.5894 1184.53,872.3794 1159,894.8294 C1132.57,918.0694 1114.3883,947.1558 1101.0683,973.0058" fill="none" id="Portfolio-to-Ticker" style="stroke:#000000;stroke-width:1;stroke-dasharray:7,7;"/><polygon fill="#000000" points="1098.32,978.3394,1105.9981,972.1712,1100.6102,973.8947,1098.8867,968.5068,1098.32,978.3394" style="stroke:#000000;stroke-width:1;"/><text fill="#000000" font-family="Verdana" font-size="13" lengthAdjust="spacing" textLength="89.0576" x="1244.62" y="593.4663">keys holdings</text></g><!--link Holding to HoldingId--><g class="link" data-entity-1="ent0004" data-entity-2="ent0020" data-link-type="dependency" data-source-line="126" id="lnk26"><path codeLine="126" d="M825,543.0494 C851.93,569.4694 877.71,600.7594 894,634.8994 C949.25,750.6694 943.1345,902.6251 936.6645,972.3351" fill="none" id="Holding-to-HoldingId" style="stroke:#000000;stroke-width:1;stroke-dasharray:7,7;"/><polygon fill="#000000" points="936.11,978.3094,940.9246,969.7176,936.5721,973.3308,932.9589,968.9782,936.11,978.3094" style="stroke:#000000;stroke-width:1;"/><text fill="#000000" font-family="Verdana" font-size="13" lengthAdjust="spacing" textLength="29.7832" x="941.01" y="740.9263">uses</text></g><!--link Holding to Ticker--><g class="link" data-entity-1="ent0004" data-entity-2="ent0018" data-link-type="dependency" data-source-line="127" id="lnk27"><path codeLine="127" d="M882.57,543.2194 C918.84,568.3794 953.85,598.9994 979,634.8994 C1055.29,743.7694 1074.6911,900.6747 1079.8111,972.1247" fill="none" id="Holding-to-Ticker" style="stroke:#000000;stroke-width:1;stroke-dasharray:7,7;"/><polygon fill="#000000" points="1080.24,978.1094,1083.5865,968.8465,1079.8826,973.1222,1075.607,969.4183,1080.24,978.1094" style="stroke:#000000;stroke-width:1;"/><text fill="#000000" font-family="Verdana" font-size="13" lengthAdjust="spacing" textLength="29.7832" x="1065.23" y="740.9263">uses</text></g><!--link Lot to LotId--><g class="link" data-entity-1="ent0005" data-entity-2="ent0021" data-link-type="dependency" data-source-line="128" id="lnk28"><path codeLine="128" d="M718.84,837.9694 C737.31,887.0694 756.2472,937.4137 769.5472,972.7637" fill="none" id="Lot-to-LotId" style="stroke:#000000;stroke-width:1;stroke-dasharray:7,7;"/><polygon fill="#000000" points="771.66,978.3794,772.2345,968.5473,769.8993,973.6996,764.747,971.3644,771.66,978.3794" style="stroke:#000000;stroke-width:1;"/><text fill="#000000" font-family="Verdana" font-size="13" lengthAdjust="spacing" textLength="29.7832" x="737.12" y="882.8963">uses</text></g><!--link Lot to ShareQuantity--><g class="link" data-entity-1="ent0005" data-entity-2="ent0017" data-link-type="dependency" data-source-line="129" id="lnk29"><path codeLine="129" d="M621.69,837.9694 C602.3,870.8594 584.1469,901.6506 565.9969,932.4406" fill="none" id="Lot-to-ShareQuantity" style="stroke:#000000;stroke-width:1;stroke-dasharray:7,7;"/><polygon fill="#000000" points="562.95,937.6094,570.9662,931.8874,565.4891,933.302,564.0745,927.8249,562.95,937.6094" style="stroke:#000000;stroke-width:1;"/><text fill="#000000" font-family="Verdana" font-size="13" lengthAdjust="spacing" textLength="29.7832" x="600.5" y="882.8963">uses</text></g><!--link Lot to Price--><g class="link" data-entity-1="ent0005" data-entity-2="ent0016" data-link-type="dependency" data-source-line="130" id="lnk30"><path codeLine="130" d="M485.7,814.0094 C432.34,837.5494 375.36,865.1494 325,894.8294 C291.85,914.3694 262.2194,935.989 234.1394,958.279" fill="none" id="Lot-to-Price" style="stroke:#000000;stroke-width:1;stroke-dasharray:7,7;"/><polygon fill="#000000" points="229.44,962.0094,238.976,959.5467,233.3562,958.9007,234.0022,953.2809,229.44,962.0094" style="stroke:#000000;stroke-width:1;"/><text fill="#000000" font-family="Verdana" font-size="13" lengthAdjust="spacing" textLength="29.7832" x="362.75" y="882.8963">uses</text></g><!--link Holding to SellResult--><g class="link" data-entity-1="ent0004" data-entity-2="ent0022" data-link-type="dependency" data-source-line="131" id="lnk31"><path codeLine="131" d="M912.84,541.3694 C1000.22,579.3394 1087.06,619.3494 1103,634.8994 C1195.67,725.2894 1246.4897,866.0737 1270.0597,947.9237" fill="none" id="Holding-to-SellResult" style="stroke:#000000;stroke-width:1;stroke-dasharray:7,7;"/><polygon fill="#000000" points="1271.72,953.6894,1273.0733,943.9339,1270.3364,948.8846,1265.3857,946.1477,1271.72,953.6894" style="stroke:#000000;stroke-width:1;"/><text fill="#000000" font-family="Verdana" font-size="13" lengthAdjust="spacing" textLength="47.0361" x="1240.19" y="740.9263">returns</text></g><!--link Portfolio to SellResult--><g class="link" data-entity-1="ent0003" data-entity-2="ent0022" data-link-type="dependency" data-source-line="132" id="lnk32"><path codeLine="132" d="M978.8,290.8494 C984.57,292.4894 990.31,294.0594 996,295.5494 C1082.95,318.3294 1113.9,288.9694 1196,325.5494 C1225.99,338.9194 1233.14,346.4094 1253,372.5494 C1311.94,450.1394 1321.78,477.5794 1342,572.8994 C1370.54,707.4194 1334.3957,862.6429 1308.7557,948.0229" fill="none" id="Portfolio-to-SellResult" style="stroke:#000000;stroke-width:1;stroke-dasharray:7,7;"/><polygon fill="#000000" points="1307.03,953.7694,1313.4495,946.3001,1308.4681,948.9806,1305.7876,943.9992,1307.03,953.7694" style="stroke:#000000;stroke-width:1;"/><text fill="#000000" font-family="Verdana" font-size="13" lengthAdjust="spacing" textLength="47.0361" x="1348.47" y="593.4663">returns</text></g><?plantuml-src fLPBRnit4BxhLqpbG-Mj9JZNXMf0VY4gNCILdHOe2WJStT6A5PVSabmbgY6Wnvw3_CByaWwvgtr5SW9NEWYQ6Nupyys3_CwkC4F81UDoODPSvaop328MhrEj2fbSAQ4qdDpUk6_B8XRCc9crcaU5nNciv0F_6-6yRm9F0u3B7jnlAsxHoPLEK9UoIq5699jfhTwtHRiMf5GM3oAUtBhFUG_pv8e-inb132ot0k4rVc0FLiLhk5OPfGm_gmG5VFxd4zn8Ck5eWCa4VcMYG7WJ_OcnDOD1JjvOYZ3id1hbXKRuYMsO1v0Ak5ngPgmkOakgqo65IX6LFDmhRPTAS0NJAKjJZIcZNBHIzkB2fmGm1fw4ZU4ygQJglKGTmWEHBTDA5Z71P8mXnI9nMmbNIYHaOaZAykaZZzUep-1rARseZ6ADv3cPsH3kLCp4DVrxv1bwzRjt_kS7C2Z4o7g44FP8VnNCiRIbM5PCuo_LtpF8DNUntBkVKzBIuGMQGjWABIgsBmRRA9vKC2dQAfaU6fbLYiRoicHeTDfmj6lAKPbJCT2xxHMXKjSbwBghX49PelgE6pkzep82FFdUmmIYBL1pn2jc41BYTtU0tFz5vil8UrIM2N_0E5ewHnihoiMhwyIwp97a66kagXdZaiPfx-sGhp5eTDD4D3zdL13EVIkfIhodzsjzJDKeg0cEyDLbY43YGX3CbJBKFeQRPyurS-T9MtHpEKOlDpTPRhTE7IabaCazkSr-6BuQGZ0Um_1yCWc6TQU6G4lMaXC3u4gobzVchxovAqzZ-eUiU_9sVljcvuxIMRz7DKzN5jIoSUs3389PlPuMj9w2m8jdGe2nJaYyovGMfLMTeNDxqpdF2cCXTvrYLxIXqvNNrZucz1V9r8NmPIXjGDU7G1H2Qwg2e5Nu89XuGvUPozWK6OL524WHkE649TV6TZpkMjkyi-LXnBEii2mIU0OR9hYRsmIOzSX-ftCbQQTFfmko9me4-lQl1yDt1Aat7bPvsDQ0i8okAshMIvvUOymp9hgTof9afEWwrbLlzNhC597LBBR7R5eJwkVavO5aj6fuBcZ9FD_tJnfBvgIIurmPclSDWdTgTjs8EY378_FYa5Q7xKN4vJxjVZY7XgnFrRUSuUQ-og0xcwNkTzIgBs_ITxDoDFNonZYUizbcaHAjstrtuCqmJxvAMdaUHc_VpgzF3zvrtmponRv_uSdcvZf-FDSgHanCzo4JxnTmLqp6IsxRigf5IWNyMCF1vty_DYW-B0hiUrWWxNUQOxFYEQq7hJB0_SEFzbaxI3DeLl9aSj4fHWY5mRv1EV_X_cdMqrPz4C8QjwP-gGtsMzoPD7MgyDlA-hpNk4Nhf6LnUiBkjFMKvN8uuA1LhP2kJNh1odw61qt-0m00?></g></svg>