<?plantuml 1.2026.1?><svg xmlns="http://www.w3.org/2000/svg" xmlns:xlink="http://www.w3.org/1999/xlink" contentStyleType="text/css" data-diagram-type="DESCRIPTION" height="985px" preserveAspectRatio="none" style="width:2192px;height:985px;background:#FEFEFE;" version="1.1" viewBox="0 0 2192 985" width="2192px" zoomAndPan="magnify"><title>HexaStock  -  Hexagonal Architecture (Sell Stock Use Case)</title><defs/><g><rect fill="#FEFEFE" height="985" style="stroke:none;stroke-width:1;" width="2192" x="0" y="0"/><g class="title" data-source-line="21"><text fill="#000000" font-family="Verdana" font-size="22" font-weight="bold" lengthAdjust="spacing" textLength="735.3994" x="724.0619" y="35.4209">HexaStock  -  Hexagonal Architecture (Sell Stock Use Case)</text></g><!--cluster Driving Adapter\n(adapters-inbound-rest)--><g class="cluster" data-qualified-name="Driving Adapter.n.adapters-inbound-rest." data-source-line="26" id="ent0002"><rect fill="#FFF3CD" height="110" rx="2.5" ry="2.5" style="stroke:#888888;stroke-width:1;" width="187.76" x="12" y="502.6094"/><text fill="#000000" font-family="Verdana" font-size="12" font-style="italic" lengthAdjust="spacing" textLength="56.3555" x="77.7023" y="515.748">&#171;driving&#187;</text><text fill="#000000" font-family="Verdana" font-size="12" font-weight="bold" lengthAdjust="spacing" textLength="107.5957" x="52.0821" y="529.7168">Driving Adapter</text><text fill="#000000" font-family="Verdana" font-size="12" font-weight="bold" lengthAdjust="spacing" textLength="163.3418" x="24.2091" y="543.6855">(adapters-inbound-rest)</text></g><!--cluster Application Core--><g class="cluster" data-qualified-name="Application Core" data-source-line="33" id="ent0004"><rect fill="#E8F4FD" height="458" rx="2.5" ry="2.5" style="stroke:#888888;stroke-width:1;" width="1514.82" x="259.76" y="261.6094"/><text fill="#000000" font-family="Verdana" font-size="12" font-style="italic" lengthAdjust="spacing" textLength="41.0684" x="996.6358" y="274.748">&#171;core&#187;</text><text fill="#000000" font-family="Verdana" font-size="12" font-weight="bold" lengthAdjust="spacing" textLength="111.8262" x="961.2569" y="288.7168">Application Core</text></g><!--cluster Domain Model (domain/)--><g class="cluster" data-qualified-name="Application Core.Domain Model .domain.." data-source-line="39" id="ent0007"><rect fill="#D4EDDA" height="167" rx="2.5" ry="2.5" style="stroke:#888888;stroke-width:1;" width="791.49" x="959.09" y="403.6094"/><text fill="#000000" font-family="Verdana" font-size="12" font-style="italic" lengthAdjust="spacing" textLength="59.7539" x="1324.958" y="416.748">&#171;domain&#187;</text><text fill="#000000" font-family="Verdana" font-size="12" font-weight="bold" lengthAdjust="spacing" textLength="166.2891" x="1271.6905" y="430.7168">Domain Model (domain/)</text></g><!--cluster Persistence Adapters\n(persistence-jpa)--><g class="cluster" data-qualified-name="Persistence Adapters.n.persistence-jpa." data-source-line="61" id="ent0020"><rect fill="#F8D7DA" height="179" rx="2.5" ry="2.5" style="stroke:#888888;stroke-width:1;" width="188.74" x="1878.58" y="574.6094"/><text fill="#000000" font-family="Verdana" font-size="12" font-style="italic" lengthAdjust="spacing" textLength="55.2891" x="1945.3055" y="587.748">&#171;persist&#187;</text><text fill="#000000" font-family="Verdana" font-size="12" font-weight="bold" lengthAdjust="spacing" textLength="144.5977" x="1900.6512" y="601.7168">Persistence Adapters</text><text fill="#000000" font-family="Verdana" font-size="12" font-weight="bold" lengthAdjust="spacing" textLength="115.4648" x="1915.2176" y="615.6855">(persistence-jpa)</text></g><!--cluster Market Adapters\n(outbound-market)--><g class="cluster" data-qualified-name="Market Adapters.n.outbound-market." data-source-line="66" id="ent0023"><rect fill="#F8D7DA" height="179" rx="2.5" ry="2.5" style="stroke:#888888;stroke-width:1;" width="246.86" x="1525.48" y="58.6094"/><text fill="#000000" font-family="Verdana" font-size="12" font-style="italic" lengthAdjust="spacing" textLength="57.8262" x="1619.9969" y="71.748">&#171;market&#187;</text><text fill="#000000" font-family="Verdana" font-size="12" font-weight="bold" lengthAdjust="spacing" textLength="113.4902" x="1592.1649" y="85.7168">Market Adapters</text><text fill="#000000" font-family="Verdana" font-size="12" font-weight="bold" lengthAdjust="spacing" textLength="129.3574" x="1584.2313" y="99.6855">(outbound-market)</text></g><!--entity ctrl--><g class="entity" data-qualified-name="Driving Adapter.n.adapters-inbound-rest..ctrl" data-source-line="27" id="ent0003"><rect fill="#FFFFFF" height="33.9688" rx="2.5" ry="2.5" style="stroke:#000000;stroke-width:1;" width="155.7617" x="28" y="562.6294"/><text fill="#000000" font-family="Verdana" font-size="12" lengthAdjust="spacing" textLength="135.7617" x="38" y="583.768">PortfolioRestController</text></g><!--entity inPort--><g class="entity" data-qualified-name="Application Core.inPort" data-source-line="35" id="ent0005"><ellipse cx="383.76" cy="579.6094" fill="#FFFFFF" rx="8" ry="8" style="stroke:#000000;stroke-width:1;"/><text fill="#000000" font-family="Verdana" font-size="12" lengthAdjust="spacing" textLength="200.7598" x="283.3801" y="607.748">PortfolioStockOperationsUseCase</text><text fill="#000000" font-family="Verdana" font-size="12" lengthAdjust="spacing" textLength="91.8223" x="283.3801" y="621.7168">&#171;inbound port&#187;</text></g><!--entity svc--><g class="entity" data-qualified-name="Application Core.svc" data-source-line="37" id="ent0006"><rect fill="#FFFFFF" height="47.9375" rx="2.5" ry="2.5" style="stroke:#000000;stroke-width:1;" width="213.3242" x="623.76" y="555.6394"/><text fill="#000000" font-family="Verdana" font-size="12" lengthAdjust="spacing" textLength="193.3242" x="633.76" y="576.778">PortfolioStockOperationsService</text><text fill="#000000" font-family="Verdana" font-size="12" lengthAdjust="spacing" textLength="127.6758" x="633.76" y="590.7468">&#171;application service&#187;</text></g><!--entity portPort--><g class="entity" data-qualified-name="Application Core.portPort" data-source-line="50" id="ent0015"><ellipse cx="1064.28" cy="626.6094" fill="#FFFFFF" rx="8" ry="8" style="stroke:#000000;stroke-width:1;"/><text fill="#000000" font-family="Verdana" font-size="12" lengthAdjust="spacing" textLength="74.0098" x="1014.0124" y="654.748">PortfolioPort</text><text fill="#000000" font-family="Verdana" font-size="12" lengthAdjust="spacing" textLength="100.5352" x="1014.0124" y="668.7168">&#171;outbound port&#187;</text></g><!--entity pricePort--><g class="entity" data-qualified-name="Application Core.pricePort" data-source-line="51" id="ent0016"><ellipse cx="1320.48" cy="347.6094" fill="#FFFFFF" rx="8" ry="8" style="stroke:#000000;stroke-width:1;"/><text fill="#000000" font-family="Verdana" font-size="12" lengthAdjust="spacing" textLength="136.793" x="1252.0835" y="375.748">StockPriceProviderPort</text><text fill="#000000" font-family="Verdana" font-size="12" lengthAdjust="spacing" textLength="100.5352" x="1252.0835" y="389.7168">&#171;outbound port&#187;</text></g><!--entity txPort--><g class="entity" data-qualified-name="Application Core.txPort" data-source-line="52" id="ent0017"><ellipse cx="1648.91" cy="633.6094" fill="#FFFFFF" rx="8" ry="8" style="stroke:#000000;stroke-width:1;"/><text fill="#000000" font-family="Verdana" font-size="12" lengthAdjust="spacing" textLength="94.6289" x="1598.6424" y="661.748">TransactionPort</text><text fill="#000000" font-family="Verdana" font-size="12" lengthAdjust="spacing" textLength="100.5352" x="1598.6424" y="675.7168">&#171;outbound port&#187;</text></g><!--entity portfolio--><g class="entity" data-qualified-name="Application Core.Domain Model .domain...portfolio" data-source-line="40" id="ent0008"><rect fill="#FFFFFF" height="33.9688" rx="2.5" ry="2.5" style="stroke:#000000;stroke-width:1;" width="178.3906" x="975.09" y="510.6294"/><text fill="#000000" font-family="Verdana" font-size="12" lengthAdjust="spacing" textLength="158.3906" x="985.09" y="531.768">Portfolio &#171;aggregate root&#187;</text></g><!--entity holding--><g class="entity" data-qualified-name="Application Core.Domain Model .domain...holding" data-source-line="41" id="ent0009"><rect fill="#FFFFFF" height="33.9688" rx="2.5" ry="2.5" style="stroke:#000000;stroke-width:1;" width="119.2051" x="1260.87" y="502.6294"/><text fill="#000000" font-family="Verdana" font-size="12" lengthAdjust="spacing" textLength="99.2051" x="1270.87" y="523.768">Holding &#171;entity&#187;</text></g><!--entity lot--><g class="entity" data-qualified-name="Application Core.Domain Model .domain...lot" data-source-line="42" id="ent0010"><rect fill="#FFFFFF" height="33.9688" rx="2.5" ry="2.5" style="stroke:#000000;stroke-width:1;" width="92.0645" x="1602.87" y="449.6294"/><text fill="#000000" font-family="Verdana" font-size="12" lengthAdjust="spacing" textLength="72.0645" x="1612.87" y="470.768">Lot &#171;entity&#187;</text></g><!--entity sellResult--><g class="entity" data-qualified-name="Application Core.Domain Model .domain...sellResult" data-source-line="43" id="ent0011"><rect fill="#FFFFFF" height="33.9688" rx="2.5" ry="2.5" style="stroke:#000000;stroke-width:1;" width="171.3535" x="1563.23" y="518.6294"/><text fill="#000000" font-family="Verdana" font-size="12" lengthAdjust="spacing" textLength="151.3535" x="1573.23" y="539.768">SellResult &#171;value object&#187;</text></g><!--entity jpaAdapter--><g class="entity" data-qualified-name="Persistence Adapters.n.persistence-jpa..jpaAdapter" data-source-line="62" id="ent0021"><rect fill="#FFFFFF" height="33.9688" rx="2.5" ry="2.5" style="stroke:#000000;stroke-width:1;" width="136.1211" x="1904.89" y="703.6294"/><text fill="#000000" font-family="Verdana" font-size="12" lengthAdjust="spacing" textLength="116.1211" x="1914.89" y="724.768">PortfolioJpaAdapter</text></g><!--entity txJpaAdapter--><g class="entity" data-qualified-name="Persistence Adapters.n.persistence-jpa..txJpaAdapter" data-source-line="63" id="ent0022"><rect fill="#FFFFFF" height="33.9688" rx="2.5" ry="2.5" style="stroke:#000000;stroke-width:1;" width="156.7402" x="1894.58" y="634.6294"/><text fill="#000000" font-family="Verdana" font-size="12" lengthAdjust="spacing" textLength="136.7402" x="1904.58" y="655.768">TransactionJpaAdapter</text></g><!--entity finnhub--><g class="entity" data-qualified-name="Market Adapters.n.outbound-market..finnhub" data-source-line="67" id="ent0024"><rect fill="#FFFFFF" height="33.9688" rx="2.5" ry="2.5" style="stroke:#000000;stroke-width:1;" width="178.7891" x="1559.51" y="118.6294"/><text fill="#000000" font-family="Verdana" font-size="12" lengthAdjust="spacing" textLength="158.7891" x="1569.51" y="139.768">FinnhubStockPriceAdapter</text></g><!--entity alpha--><g class="entity" data-qualified-name="Market Adapters.n.outbound-market..alpha" data-source-line="68" id="ent0025"><rect fill="#FFFFFF" height="33.9688" rx="2.5" ry="2.5" style="stroke:#000000;stroke-width:1;" width="214.8594" x="1541.48" y="187.6294"/><text fill="#000000" font-family="Verdana" font-size="12" lengthAdjust="spacing" textLength="194.8594" x="1551.48" y="208.768">AlphaVantageStockPriceAdapter</text></g><!--entity db--><g class="entity" data-qualified-name="db" data-source-line="71" id="ent0026"><path d="M2114.32,675.1294 C2114.32,665.1294 2144.9216,665.1294 2144.9216,665.1294 C2144.9216,665.1294 2175.5231,665.1294 2175.5231,675.1294 L2175.5231,698.0981 C2175.5231,708.0981 2144.9216,708.0981 2144.9216,708.0981 C2144.9216,708.0981 2114.32,708.0981 2114.32,698.0981 L2114.32,675.1294" fill="#FFFFFF" style="stroke:#000000;stroke-width:1;"/><path d="M2114.32,675.1294 C2114.32,685.1294 2144.9216,685.1294 2144.9216,685.1294 C2144.9216,685.1294 2175.5231,685.1294 2175.5231,675.1294" fill="none" style="stroke:#000000;stroke-width:1;"/><text fill="#000000" font-family="Verdana" font-size="12" lengthAdjust="spacing" textLength="41.2031" x="2124.32" y="700.268">MySQL</text></g><!--entity apis--><g class="entity" data-qualified-name="apis" data-source-line="72" id="ent0027"><path d="M1934.0532,149.4767 C1937.0048,143.4506 1942.7123,141.4796 1947.4127,147.5443 C1949.1737,139.807 1955.8151,138.6991 1960.8879,144.164 C1963.8783,137.0002 1968.4063,136.286 1974.2473,140.9421 C1979.7268,134.8617 1985.1953,136.9568 1987.0893,144.3576 C1991.9622,137.7396 1998.634,137.4822 2001.8681,145.9618 C2007.2747,141.4641 2011.9421,141.6877 2014.4096,149.0657 C2021.0987,151.3008 2023.0185,154.7946 2018.4661,160.8871 C2023.2915,162.1147 2025.0116,166.5224 2021.9484,170.5832 C2025.5268,175.654 2023.6577,179.7384 2017.7372,180.951 C2020.7228,185.3988 2019.4628,190.5078 2013.292,190.8394 C2010.7392,197.3355 2005.6146,198.2506 2001.2992,192.5763 C1998.9395,199.9285 1993.6334,201.5844 1988.2083,195.5808 C1985.8769,202.6185 1979.2634,204.2372 1974.7214,197.7921 C1969.3016,205.1312 1962.7275,202.8053 1959.5962,195.4383 C1954.2569,200.099 1950.2452,200.2596 1946.8191,193.3293 C1942.7162,200.2545 1936.6301,198.9657 1933.411,192.4478 C1927.0178,190.5341 1924.93,186.7193 1928.4979,180.6555 C1922.1146,179.0413 1921.6773,174.0104 1925.5694,169.6596 C1921.193,165.0235 1922.7526,160.3907 1929.1429,159.5667 C1926.0179,154.8063 1928.4125,149.9712 1934.0532,149.4767" fill="#FFFFFF" style="stroke:#000000;stroke-width:1;"/><text fill="#000000" font-family="Verdana" font-size="12" lengthAdjust="spacing" textLength="66.5098" x="1939.7" y="166.778">Stock Price</text><text fill="#000000" font-family="Verdana" font-size="12" lengthAdjust="spacing" textLength="25.2363" x="1939.7" y="180.7468">APIs</text></g><!--link portfolio to holding--><g class="link" data-entity-1="ent0008" data-entity-2="ent0009" data-link-type="dependency" data-source-line="45" id="lnk12"><path d="M1153.65,526.2294 C1173.65,525.8094 1194.8,525.2794 1214.48,524.6094 C1229.43,524.0994 1239.5867,523.6923 1254.6267,522.9823" fill="none" id="portfolio-to-holding" style="stroke:#555555;stroke-width:1;"/><polygon fill="#555555" points="1260.62,522.6994,1251.4414,519.1282,1255.6256,522.9351,1251.8186,527.1193,1260.62,522.6994" style="stroke:#555555;stroke-width:1;"/><text fill="#000000" font-family="Verdana" font-size="12" lengthAdjust="spacing" textLength="29.666" x="1184.48" y="521.748">sell()</text></g><!--link holding to lot--><g class="link" data-entity-1="ent0009" data-entity-2="ent0010" data-link-type="dependency" data-source-line="46" id="lnk13"><path d="M1380.21,510.0694 C1444,499.7194 1538.5876,484.3611 1596.5976,474.9411" fill="none" id="holding-to-lot" style="stroke:#555555;stroke-width:1;"/><polygon fill="#555555" points="1602.52,473.9794,1592.9952,471.4737,1597.5846,474.7808,1594.2775,479.3702,1602.52,473.9794" style="stroke:#555555;stroke-width:1;"/><text fill="#000000" font-family="Verdana" font-size="12" lengthAdjust="spacing" textLength="81.4863" x="1427.48" y="487.078">FIFO reduce()</text></g><!--link holding to sellResult--><g class="link" data-entity-1="ent0009" data-entity-2="ent0011" data-link-type="dependency" data-source-line="47" id="lnk14"><path d="M1380.21,522.4894 C1431.15,524.9894 1499.5172,528.3351 1556.9472,531.1551" fill="none" id="holding-to-sellResult" style="stroke:#555555;stroke-width:1;"/><polygon fill="#555555" points="1562.94,531.4494,1554.147,527.0128,1557.946,531.2042,1553.7547,535.0032,1562.94,531.4494" style="stroke:#555555;stroke-width:1;"/><text fill="#000000" font-family="Verdana" font-size="12" lengthAdjust="spacing" textLength="43.418" x="1446.48" y="521.928">returns</text></g><!--link portPort to pricePort--><!--link pricePort to txPort--><!--link ctrl to inPort--><g class="link" data-entity-1="ent0003" data-entity-2="ent0005" data-link-type="dependency" data-source-line="79" id="lnk28"><path d="M184.1,579.6094 C252.96,579.6094 341.05,579.6094 368.77,579.6094" fill="none" id="ctrl-to-inPort" style="stroke:#555555;stroke-width:1;"/><polygon fill="#555555" points="374.77,579.6094,365.77,575.6094,369.77,579.6094,365.77,583.6094,374.77,579.6094" style="stroke:#555555;stroke-width:1;"/><text fill="#000000" font-family="Verdana" font-size="12" lengthAdjust="spacing" textLength="26.8711" x="216.76" y="576.748">calls</text></g><!--reverse link inPort to svc--><g class="link" data-entity-1="ent0005" data-entity-2="ent0006" data-link-type="extension" data-source-line="80" id="lnk29"><path d="M410.61,579.6094 C441.12,579.6094 536.47,579.6094 623.34,579.6094" fill="none" id="inPort-backto-svc" style="stroke:#555555;stroke-width:1;stroke-dasharray:7,7;"/><polygon fill="none" points="392.61,579.6094,410.61,585.6094,410.61,573.6094,392.61,579.6094" style="stroke:#555555;stroke-width:1;"/><text fill="#000000" font-family="Verdana" font-size="12" lengthAdjust="spacing" textLength="70.9922" x="522.76" y="576.748">implements</text></g><!--link svc to portfolio--><g class="link" data-entity-1="ent0006" data-entity-2="ent0008" data-link-type="dependency" data-source-line="83" id="lnk30"><path d="M837.34,563.0094 C881.63,556.0694 926.5923,549.0282 968.8423,542.4082" fill="none" id="svc-to-portfolio" style="stroke:#555555;stroke-width:1;"/><polygon fill="#555555" points="974.77,541.4794,965.2593,538.9208,969.8303,542.2534,966.4977,546.8243,974.77,541.4794" style="stroke:#555555;stroke-width:1;"/><text fill="#000000" font-family="Verdana" font-size="12" lengthAdjust="spacing" textLength="74.8887" x="868.09" y="544.558">delegates to</text></g><!--link svc to portPort--><g class="link" data-entity-1="ent0006" data-entity-2="ent0015" data-link-type="dependency" data-source-line="86" id="lnk31"><path d="M837.23,598.9394 C847.31,600.5994 857.38,602.1794 867.09,603.6094 C940.04,614.3294 1022.8681,622.6895 1049.4381,625.2695" fill="none" id="svc-to-portPort" style="stroke:#555555;stroke-width:1;"/><polygon fill="#555555" points="1055.41,625.8494,1046.8387,620.9983,1050.4334,625.3661,1046.0655,628.9608,1055.41,625.8494" style="stroke:#555555;stroke-width:1;"/><text fill="#000000" font-family="Verdana" font-size="12" lengthAdjust="spacing" textLength="27.4922" x="891.59" y="600.748">uses</text></g><!--link svc to pricePort--><g class="link" data-entity-1="ent0006" data-entity-2="ent0016" data-link-type="dependency" data-source-line="87" id="lnk32"><path d="M760.35,555.3894 C800.59,522.9294 876.9,465.6794 951.09,433.6094 C1087.94,374.4594 1265.783,353.2178 1305.663,349.0178" fill="none" id="svc-to-pricePort" style="stroke:#555555;stroke-width:1;"/><polygon fill="#555555" points="1311.63,348.3894,1302.2606,345.354,1306.6575,348.9131,1303.0984,353.31,1311.63,348.3894" style="stroke:#555555;stroke-width:1;"/><text fill="#000000" font-family="Verdana" font-size="12" lengthAdjust="spacing" textLength="27.4922" x="1050.78" y="370.568">uses</text></g><!--link svc to txPort--><g class="link" data-entity-1="ent0006" data-entity-2="ent0017" data-link-type="dependency" data-source-line="88" id="lnk33"><path d="M769.21,603.8994 C811.54,629.5494 883.16,668.3394 951.09,683.6094 C1229.17,746.1094 1578.1257,653.3595 1634.4457,637.4595" fill="none" id="svc-to-txPort" style="stroke:#555555;stroke-width:1;"/><polygon fill="#555555" points="1640.22,635.8294,1630.4718,634.4251,1635.4081,637.1879,1632.6453,642.1242,1640.22,635.8294" style="stroke:#555555;stroke-width:1;"/><text fill="#000000" font-family="Verdana" font-size="12" lengthAdjust="spacing" textLength="27.4922" x="1185.48" y="700.948">uses</text></g><!--reverse link portPort to jpaAdapter--><g class="link" data-entity-1="ent0015" data-entity-2="ent0021" data-link-type="extension" data-source-line="91" id="lnk34"><path d="M1086.2094,646.3392 C1103.9794,662.8692 1136.53,689.9894 1183.48,704.6094 C1439.7,784.3794 1765.77,751.3794 1904.54,731.5294" fill="none" id="portPort-backto-jpaAdapter" style="stroke:#555555;stroke-width:1;stroke-dasharray:7,7;"/><polygon fill="none" points="1073.03,634.0794,1082.1229,650.7323,1090.296,641.946,1073.03,634.0794" style="stroke:#555555;stroke-width:1;"/><text fill="#000000" font-family="Verdana" font-size="12" lengthAdjust="spacing" textLength="70.9922" x="1432.98" y="746.588">implements</text></g><!--reverse link txPort to txJpaAdapter--><g class="link" data-entity-1="ent0017" data-entity-2="ent0022" data-link-type="extension" data-source-line="92" id="lnk35"><path d="M1675.8418,635.0568 C1707.9518,636.8568 1812.17,642.6794 1894.34,647.2694" fill="none" id="txPort-backto-txJpaAdapter" style="stroke:#555555;stroke-width:1;stroke-dasharray:7,7;"/><polygon fill="none" points="1657.87,634.0494,1675.506,641.0474,1676.1776,629.0662,1657.87,634.0494" style="stroke:#555555;stroke-width:1;"/><text fill="#000000" font-family="Verdana" font-size="12" lengthAdjust="spacing" textLength="70.9922" x="1791.58" y="638.668">implements</text></g><!--reverse link pricePort to finnhub--><g class="link" data-entity-1="ent0016" data-entity-2="ent0024" data-link-type="extension" data-source-line="93" id="lnk36"><path d="M1339.3322,324.7625 C1362.2522,295.6825 1429.7,215.4694 1517.48,170.6094 C1531.36,163.5194 1546.83,157.7394 1562.13,153.0894" fill="none" id="pricePort-backto-finnhub" style="stroke:#555555;stroke-width:1;stroke-dasharray:7,7;"/><polygon fill="none" points="1328.19,338.8994,1344.0445,328.4766,1334.62,321.0484,1328.19,338.8994" style="stroke:#555555;stroke-width:1;"/><text fill="#000000" font-family="Verdana" font-size="12" lengthAdjust="spacing" textLength="70.9922" x="1432.98" y="174.478">implements</text></g><!--reverse link pricePort to alpha--><g class="link" data-entity-1="ent0016" data-entity-2="ent0025" data-link-type="extension" data-source-line="94" id="lnk37"><path d="M1345.7064,336.9945 C1383.2664,320.5345 1531.23,255.7194 1608.07,222.0594" fill="none" id="pricePort-backto-alpha" style="stroke:#555555;stroke-width:1;stroke-dasharray:7,7;"/><polygon fill="none" points="1329.22,344.2194,1348.1147,342.49,1343.2981,331.499,1329.22,344.2194" style="stroke:#555555;stroke-width:1;"/><text fill="#000000" font-family="Verdana" font-size="12" lengthAdjust="spacing" textLength="70.9922" x="1432.98" y="264.688">implements</text></g><!--link jpaAdapter to db--><g class="link" data-entity-1="ent0021" data-entity-2="ent0026" data-link-type="dependency" data-source-line="97" id="lnk38"><path d="M2041.13,707.1694 C2066.37,702.1194 2087.9167,697.8172 2108.0967,693.7772" fill="none" id="jpaAdapter-to-db" style="stroke:#555555;stroke-width:1;"/><polygon fill="#555555" points="2113.98,692.5994,2104.3699,690.4439,2109.0773,693.5809,2105.9403,698.2883,2113.98,692.5994" style="stroke:#555555;stroke-width:1;"/></g><!--link txJpaAdapter to db--><g class="link" data-entity-1="ent0022" data-entity-2="ent0026" data-link-type="dependency" data-source-line="98" id="lnk39"><path d="M2051.48,667.5694 C2073.72,672.1494 2090.7636,675.6577 2108.2236,679.2577" fill="none" id="txJpaAdapter-to-db" style="stroke:#555555;stroke-width:1;"/><polygon fill="#555555" points="2114.1,680.4694,2106.0932,674.7343,2109.203,679.4597,2104.4777,682.5695,2114.1,680.4694" style="stroke:#555555;stroke-width:1;"/></g><!--link finnhub to apis--><g class="link" data-entity-1="ent0024" data-entity-2="ent0027" data-link-type="dependency" data-source-line="99" id="lnk40"><path d="M1738.76,144.9894 C1798.71,151.3194 1869.5231,158.7999 1918.2431,163.9399" fill="none" id="finnhub-to-apis" style="stroke:#555555;stroke-width:1;"/><polygon fill="#555555" points="1924.21,164.5694,1915.6793,159.6472,1919.2376,164.0448,1914.84,167.603,1924.21,164.5694" style="stroke:#555555;stroke-width:1;"/></g><!--link alpha to apis--><g class="link" data-entity-1="ent0025" data-entity-2="ent0027" data-link-type="dependency" data-source-line="100" id="lnk41"><path d="M1756.7,192.9994 C1813.46,186.8394 1874.4251,180.2075 1918.4151,175.4275" fill="none" id="alpha-to-apis" style="stroke:#555555;stroke-width:1;"/><polygon fill="#555555" points="1924.38,174.7794,1915.0006,171.775,1919.4093,175.3195,1915.8648,179.7282,1924.38,174.7794" style="stroke:#555555;stroke-width:1;"/></g><g class="legend" data-source-line="105"><rect fill="none" height="176.9688" rx="7.5" ry="7.5" style="stroke:#000000;stroke-width:1;" width="473.4287" x="10" y="795.3794"/><text fill="#000000" font-family="Verdana" font-size="14" font-weight="bold" lengthAdjust="spacing" textLength="41.2139" x="19.874" y="815.3745">Color</text><text fill="#000000" font-family="Verdana" font-size="14" font-weight="bold" lengthAdjust="spacing" textLength="43.8936" x="70.8359" y="815.3745">Layer</text><text fill="#000000" font-family="Verdana" font-size="14" font-weight="bold" lengthAdjust="spacing" textLength="114.6729" x="197.6289" y="815.3745">Maven Module</text><rect fill="#FFF3CD" height="16.2969" style="stroke:none;stroke-width:1;" width="50.9619" x="15" y="818.6763"/><text fill="#000000" font-family="Verdana" font-size="14" lengthAdjust="spacing" textLength="4.4502" x="15" y="831.6714">&#160;</text><text fill="#000000" font-family="Verdana" font-size="14" lengthAdjust="spacing" textLength="117.8926" x="70.4121" y="831.6714">Driving Adapters</text><text fill="#000000" font-family="Verdana" font-size="14" lengthAdjust="spacing" textLength="156.1875" x="197.2051" y="831.6714">adapters-inbound-rest</text><rect fill="#E8F4FD" height="16.2969" style="stroke:none;stroke-width:1;" width="50.9619" x="15" y="834.9731"/><text fill="#000000" font-family="Verdana" font-size="14" lengthAdjust="spacing" textLength="4.4502" x="15" y="847.9682">&#160;</text><text fill="#000000" font-family="Verdana" font-size="14" lengthAdjust="spacing" textLength="115.3838" x="70.4121" y="847.9682">Application Core</text><text fill="#000000" font-family="Verdana" font-size="14" lengthAdjust="spacing" textLength="77.2256" x="197.2051" y="847.9682">application</text><rect fill="#D4EDDA" height="16.2969" style="stroke:none;stroke-width:1;" width="50.9619" x="15" y="851.27"/><text fill="#000000" font-family="Verdana" font-size="14" lengthAdjust="spacing" textLength="4.4502" x="15" y="864.2651">&#160;</text><text fill="#000000" font-family="Verdana" font-size="14" lengthAdjust="spacing" textLength="100.8096" x="70.4121" y="864.2651">Domain Model</text><text fill="#000000" font-family="Verdana" font-size="14" lengthAdjust="spacing" textLength="52.4316" x="197.2051" y="864.2651">domain</text><rect fill="#F8D7DA" height="16.2969" style="stroke:none;stroke-width:1;" width="50.9619" x="15" y="867.5669"/><text fill="#000000" font-family="Verdana" font-size="14" lengthAdjust="spacing" textLength="4.4502" x="15" y="880.562">&#160;</text><text fill="#000000" font-family="Verdana" font-size="14" lengthAdjust="spacing" textLength="113.7295" x="70.4121" y="880.562">Driven Adapters</text><text fill="#000000" font-family="Verdana" font-size="14" lengthAdjust="spacing" textLength="146.2002" x="197.2051" y="880.562">adapters-outbound-*</text><line style="stroke:#000000;stroke-width:1;" x1="15" x2="357.8428" y1="802.3794" y2="802.3794"/><line style="stroke:#000000;stroke-width:1;" x1="15" x2="357.8428" y1="818.6763" y2="818.6763"/><line style="stroke:#000000;stroke-width:1;" x1="15" x2="357.8428" y1="834.9731" y2="834.9731"/><line style="stroke:#000000;stroke-width:1;" x1="15" x2="357.8428" y1="851.27" y2="851.27"/><line style="stroke:#000000;stroke-width:1;" x1="15" x2="357.8428" y1="867.5669" y2="867.5669"/><line style="stroke:#000000;stroke-width:1;" x1="15" x2="357.8428" y1="883.8638" y2="883.8638"/><line style="stroke:#000000;stroke-width:1;" x1="15" x2="15" y1="802.3794" y2="883.8638"/><line style="stroke:#000000;stroke-width:1;" x1="65.9619" x2="65.9619" y1="802.3794" y2="883.8638"/><line style="stroke:#000000;stroke-width:1;" x1="192.7549" x2="192.7549" y1="802.3794" y2="883.8638"/><line style="stroke:#000000;stroke-width:1;" x1="357.8428" x2="357.8428" y1="802.3794" y2="883.8638"/><text fill="#000000" font-family="Verdana" font-size="14" lengthAdjust="spacing" textLength="159.7012" x="15" y="898.8589">All dependencies point</text><text fill="#000000" font-family="Verdana" font-size="14" font-weight="bold" lengthAdjust="spacing" textLength="54.0723" x="179.1514" y="898.8589">inward</text><text fill="#000000" font-family="Verdana" font-size="14" lengthAdjust="spacing" textLength="137.4844" x="237.6738" y="898.8589">toward the domain.</text><text fill="#000000" font-family="Verdana" font-size="14" lengthAdjust="spacing" textLength="372.9551" x="15" y="915.1557">The domain module has zero external dependencies.</text><text fill="#000000" font-family="Verdana" font-size="14" lengthAdjust="spacing" textLength="381.2197" x="15" y="931.4526">PortfolioRestController: POST /api/portfolios/{id}/sales</text><text fill="#000000" font-family="Verdana" font-size="14" lengthAdjust="spacing" textLength="463.4287" x="15" y="947.7495">Service: orchestrates (retrieve, delegate, persist), @Transactional</text><text fill="#000000" font-family="Verdana" font-size="14" lengthAdjust="spacing" textLength="437.3838" x="15" y="964.0464">Value Objects: Money, Price, ShareQuantity, Ticker, PortfolioId</text></g><?plantuml-src fLTBSo8t4BxFh-Xu3m4Ns9NifkAYM2eJ7ZOf6rWWJgNMUn0pCcWjf2b9WytQ_kzfIVC24nziVD58NxVw-QdzardHDOM44oO2JcyD60cABLS6OgPeP9WKGQ3lc4Y88cju300M9BfRAfcAk2kvLF1XqBT_U1BJMv9oCv32pDWF2h_yYfi9micIpioMKx0gYLXoYWUHN2TIKCI-E0gLalUPzj_SBtYkcf7fTERykMjEknr9HJiT-D0_6tmQz0uXOhb6VosczwdVwuK7COfjc5XQq60m-DWzg2YXIZDj7EYiz_jXJMkYxkWUHggOgip1C_Up3XfcC10Nz87CZ8pk09hWlfPI48v1YLRCO9HIHQ4sevo3X_sjANI9flKW-1a-l-67OfVzmRm5lUdmUZWwXzfaEhmAf__M8Uo5atb_-bR5UQAEUZwS4COaCLJTY1hnAzraOc6ZrLHKc_eHL4Dly_jr8fMvbPp9AGAwM5jASaxLDo0Q8gEuZToR_UxsH-XU2yB9v7BO3UV3yGYwusd_tGw7IS9PH6m3GHShqZgMLUPZW6xLwd1KUERoECPgSdYD2RNvl17jTXOSI13QwHnPdvcmSi5EQFOKpAZQiCWf81KxjD_kT5piz2OAolx45BckW2iPKmurtoEdFY5vlzXyLA_5Cx9SAhea1XjOIfEfJdA0nrz87jlajzlOxSniCzJARtlCfJJxvrmQVsPh7PEFr8AG3U4f1RduZfsGUrAS1qwWk1wQpKv-3RGShbPta7pJ0l0UF1mC1sCaeJYDw05CUGL25SKU51f1pozIQHSsxZ8rBp9dbovtNiObRQ8m8nCbDmmPuLLX1oobvue8JHn3loPc7l9goM-7vjSLYsCgliNoNZHt51VhVL2cvZsjDXsUNsGSqnyXWVMxur6lIZApTpVTnFCn5H7DcKOZrIJbTlDxGbnDbzIzIp9_9IIJTANrlVYqg4hCzt3ceTomKIfCkdBiNxKcprBJFmpEckADSCOCc12hT57MH_McMtzeSI5FLkIQ2EFUrqDWOX7MdfWOia1EGOEsio-NhZJYHH1ncSPP9OAJlX7XPAZTEKcOVaU-_nbEyIrvgppAvM-6njO8BDExJlJqXrqO4Svra7ssdqvEBAFXFbid78SQOPpn6HNQkSRJM61HLb794YsSNBWZCKoat9FQQIgz8vqPacfQsIywQE_0Tr2-YtUupy9OJzn1eTOvL5RVhb-PBeUfLjukgZJ50RF2UHNZwkL53FiFgDkE87gBNRJMGSKkwneMqeuLsLv-eVrqjUIr5v_lcLRE-wFUM-KnrHJpkP36o3NOgHURwUap-7aC5vTaIztYYcoeUn5JdCkUB0hQsJZOmVNUKADnw-1KKuZwaTIAxey7LhIobGlu-TJTLNsTdx9QBcroasLk4zfyoAI2U8wTN8W3P4mJ30KI8wFsUMB2mF4n4_T4nSV7MFrs0VW_GdRV2OhDYozO-y2ia2j-K2M1vdLILMjb_cU4Qy5aF9l3ALR3QT6D-lIHnS-dcd1gNzYi4riWSVn5QUMwj8PFi69qGnj5wpOWe_Hw0_we43NXgENQ3GrZDpJe5aPHq6t34ru3PYkYw9UKkDcZ0NCMtL7LA8qUnW5wuwic-0y0?></g></svg>