<?plantuml 1.2026.1?><svg xmlns="http://www.w3.org/2000/svg" xmlns:xlink="http://www.w3.org/1999/xlink" contentStyleType="text/css" data-diagram-type="DESCRIPTION" height="922px" preserveAspectRatio="none" style="width:2367px;height:922px;background:#FEFEFE;" version="1.1" viewBox="0 0 2367 922" width="2367px" zoomAndPan="magnify"><title>HexaStock  Hexagonal Architecture (Sell Stock Use Case)</title><defs/><g><rect fill="#FEFEFE" height="922" style="stroke:none;stroke-width:1;" width="2367" x="0" y="0"/><g class="title" data-source-line="9"><text fill="#000000" font-family="Verdana" font-size="22" font-weight="bold" lengthAdjust="spacing" textLength="710.9502" x="823.6812" y="35.4209">HexaStock  Hexagonal Architecture (Sell Stock Use Case)</text></g><!--cluster Driving Adapters\n(adapters-inbound-rest)--><g class="cluster" data-qualified-name="Driving Adapters.n.adapters-inbound-rest." data-source-line="22" id="ent0002"><rect fill="#FFF3CD" height="241.02" rx="2.5" ry="2.5" style="stroke:#888888;stroke-width:1;" width="220" x="12" y="58.6094"/><text fill="#000000" font-family="Verdana" font-size="11" font-style="italic" lengthAdjust="spacing" textLength="51.6592" x="96.1704" y="70.8198">&#171;driving&#187;</text><text fill="#000000" font-family="Verdana" font-size="11" font-weight="bold" lengthAdjust="spacing" textLength="105.1768" x="69.4116" y="83.6245">Driving Adapters</text><text fill="#000000" font-family="Verdana" font-size="11" font-weight="bold" lengthAdjust="spacing" textLength="149.73" x="47.135" y="96.4292">(adapters-inbound-rest)</text></g><!--cluster Application Core--><g class="cluster" data-qualified-name="Application Core" data-source-line="35" id="ent0007"><rect fill="#E8F4FD" height="692.05" rx="2.5" ry="2.5" style="stroke:#888888;stroke-width:1;" width="1099" x="256" y="79.0094"/><text fill="#000000" font-family="Verdana" font-size="11" font-style="italic" lengthAdjust="spacing" textLength="37.646" x="786.677" y="91.2198">&#171;core&#187;</text><text fill="#000000" font-family="Verdana" font-size="11" font-weight="bold" lengthAdjust="spacing" textLength="102.5073" x="754.2463" y="104.0245">Application Core</text></g><!--cluster Domain Model (domain/)--><g class="cluster" data-qualified-name="Application Core.Domain Model .domain.." data-source-line="50" id="ent0016"><rect fill="#D4EDDA" height="401.43" rx="2.5" ry="2.5" style="stroke:#888888;stroke-width:1;" width="361" x="533" y="345.6294"/><text fill="#000000" font-family="Verdana" font-size="11" font-style="italic" lengthAdjust="spacing" textLength="54.7744" x="686.1128" y="357.8398">&#171;domain&#187;</text><text fill="#000000" font-family="Verdana" font-size="11" font-weight="bold" lengthAdjust="spacing" textLength="152.4316" x="637.2842" y="370.6445">Domain Model (domain/)</text></g><!--cluster Driven Adapters--><g class="cluster" data-qualified-name="Driven Adapters" data-source-line="66" id="ent0025"><rect fill="#F8D7DA" height="105.61" rx="2.5" ry="2.5" style="stroke:#888888;stroke-width:1;" width="773" x="1379" y="516.8394"/><text fill="#000000" font-family="Verdana" font-size="11" font-style="italic" lengthAdjust="spacing" textLength="48.3882" x="1741.3059" y="529.0498">&#171;driven&#187;</text><text fill="#000000" font-family="Verdana" font-size="11" font-weight="bold" lengthAdjust="spacing" textLength="100.9927" x="1715.0037" y="541.8545">Driven Adapters</text></g><!--entity ctrl--><g class="entity" data-qualified-name="Driving Adapters.n.adapters-inbound-rest..ctrl" data-source-line="23" id="ent0003"><rect fill="#FFFFFF" height="32.8047" rx="2.5" ry="2.5" style="stroke:#000000;stroke-width:1;" width="144.4482" x="64.78" y="115.6094"/><text fill="#000000" font-family="Verdana" font-size="11" lengthAdjust="spacing" textLength="124.4482" x="74.78" y="135.8198">PortfolioRestController</text></g><g class="entity" data-qualified-name="Driving Adapters.n.adapters-inbound-rest..GMN4" data-source-line="25" id="ent0005"><path d="M27.56,222.4194 L27.56,283.6381 A0,0 0 0 0 27.56,283.6381 L216.4389,283.6381 A0,0 0 0 0 216.4389,283.6381 L216.4389,232.4194 L206.4389,222.4194 L129.75,222.4194 L135.04,148.5694 L121.75,222.4194 L27.56,222.4194 A0,0 0 0 0 27.56,222.4194" fill="#FFFFDD" style="stroke:#000000;stroke-width:1;"/><path d="M206.4389,222.4194 L206.4389,232.4194 L216.4389,232.4194 L206.4389,222.4194" fill="#FFFFDD" style="stroke:#000000;stroke-width:1;"/><text fill="#000000" font-family="Verdana" font-size="11" lengthAdjust="spacing" textLength="167.8789" x="33.56" y="237.6298">POST /api/portfolios/{id}/sales</text><text fill="#000000" font-family="Verdana" font-size="11" lengthAdjust="spacing" textLength="132.3008" x="33.56" y="250.4345">Maps JSON primitives to</text><text fill="#000000" font-family="Verdana" font-size="11" lengthAdjust="spacing" textLength="143.2686" x="33.56" y="263.2392">Value Objects (PortfolioId,</text><text fill="#000000" font-family="Verdana" font-size="11" lengthAdjust="spacing" textLength="124.2871" x="33.56" y="276.0439">Ticker, ShareQuantity)</text></g><!--entity inPort--><g class="entity" data-qualified-name="Application Core.inPort" data-source-line="37" id="ent0008"><ellipse cx="294" cy="132.0094" fill="#FFFFFF" rx="8" ry="8" style="stroke:#000000;stroke-width:1;"/><text fill="#000000" font-family="Verdana" font-size="11" lengthAdjust="spacing" textLength="184.0298" x="201.9851" y="159.2198">PortfolioStockOperationsUseCase</text><text fill="#000000" font-family="Verdana" font-size="11" lengthAdjust="spacing" textLength="84.1704" x="201.9851" y="172.0245">&#171;inbound port&#187;</text></g><!--entity svc--><g class="entity" data-qualified-name="Application Core.svc" data-source-line="39" id="ent0009"><rect fill="#FFFFFF" height="45.6094" rx="2.5" ry="2.5" style="stroke:#000000;stroke-width:1;" width="197.2139" x="613.39" y="230.2194"/><text fill="#000000" font-family="Verdana" font-size="11" lengthAdjust="spacing" textLength="177.2139" x="623.39" y="250.4298">PortfolioStockOperationsService</text><text fill="#000000" font-family="Verdana" font-size="11" lengthAdjust="spacing" textLength="117.0361" x="623.39" y="263.2345">&#171;application service&#187;</text></g><g class="entity" data-qualified-name="Application Core.GMN10" data-source-line="41" id="ent0011"><path d="M272.01,394.6294 L272.01,443.0434 L513.9929,443.0434 L513.9929,404.6294 L503.9929,394.6294 L272.01,394.6294" fill="#FFFFDD" style="stroke:#000000;stroke-width:1;"/><path d="M503.9929,394.6294 L503.9929,404.6294 L513.9929,404.6294 L503.9929,394.6294" fill="#FFFFDD" style="stroke:#000000;stroke-width:1;"/><text fill="#000000" font-family="Verdana" font-size="11" lengthAdjust="spacing" textLength="220.9829" x="278.01" y="409.8398">Orchestrates: retrieve, delegate, persist</text><text fill="#000000" font-family="Verdana" font-size="11" lengthAdjust="spacing" textLength="149.3862" x="278.01" y="422.6445">Contains NO business logic</text><text fill="#000000" font-family="Verdana" font-size="11" lengthAdjust="spacing" textLength="141.249" x="278.01" y="435.4492">@Transactional boundary</text></g><!--entity portPort--><g class="entity" data-qualified-name="Application Core.portPort" data-source-line="46" id="ent0013"><ellipse cx="967" cy="418.8394" fill="#FFFFFF" rx="8" ry="8" style="stroke:#000000;stroke-width:1;"/><text fill="#000000" font-family="Verdana" font-size="11" lengthAdjust="spacing" textLength="67.8423" x="920.9214" y="446.0498">PortfolioPort</text><text fill="#000000" font-family="Verdana" font-size="11" lengthAdjust="spacing" textLength="92.1572" x="920.9214" y="458.8545">&#171;outbound port&#187;</text></g><!--entity pricePort--><g class="entity" data-qualified-name="Application Core.pricePort" data-source-line="47" id="ent0014"><ellipse cx="1126" cy="418.8394" fill="#FFFFFF" rx="8" ry="8" style="stroke:#000000;stroke-width:1;"/><text fill="#000000" font-family="Verdana" font-size="11" lengthAdjust="spacing" textLength="125.3936" x="1063.3032" y="446.0498">StockPriceProviderPort</text><text fill="#000000" font-family="Verdana" font-size="11" lengthAdjust="spacing" textLength="92.1572" x="1063.3032" y="458.8545">&#171;outbound port&#187;</text></g><!--entity txPort--><g class="entity" data-qualified-name="Application Core.txPort" data-source-line="48" id="ent0015"><ellipse cx="1285" cy="418.8394" fill="#FFFFFF" rx="8" ry="8" style="stroke:#000000;stroke-width:1;"/><text fill="#000000" font-family="Verdana" font-size="11" lengthAdjust="spacing" textLength="86.7432" x="1238.9214" y="446.0498">TransactionPort</text><text fill="#000000" font-family="Verdana" font-size="11" lengthAdjust="spacing" textLength="92.1572" x="1238.9214" y="458.8545">&#171;outbound port&#187;</text></g><!--entity portfolio--><g class="entity" data-qualified-name="Application Core.Domain Model .domain...portfolio" data-source-line="51" id="ent0017"><rect fill="#FFFFFF" height="45.6094" rx="2.5" ry="2.5" style="stroke:#000000;stroke-width:1;" width="116.0513" x="548.97" y="396.0394"/><text fill="#000000" font-family="Verdana" font-size="11" lengthAdjust="spacing" textLength="45.6436" x="558.97" y="416.2498">Portfolio</text><text fill="#000000" font-family="Verdana" font-size="11" lengthAdjust="spacing" textLength="96.0513" x="558.97" y="429.0545">&#171;aggregate root&#187;</text></g><!--entity holding--><g class="entity" data-qualified-name="Application Core.Domain Model .domain...holding" data-source-line="52" id="ent0018"><rect fill="#FFFFFF" height="45.6094" rx="2.5" ry="2.5" style="stroke:#000000;stroke-width:1;" width="65.3911" x="574.3" y="560.8394"/><text fill="#000000" font-family="Verdana" font-size="11" lengthAdjust="spacing" textLength="42.0503" x="584.3" y="581.0498">Holding</text><text fill="#000000" font-family="Verdana" font-size="11" lengthAdjust="spacing" textLength="45.3911" x="584.3" y="593.8545">&#171;entity&#187;</text></g><!--entity lot--><g class="entity" data-qualified-name="Application Core.Domain Model .domain...lot" data-source-line="53" id="ent0019"><rect fill="#FFFFFF" height="45.6094" rx="2.5" ry="2.5" style="stroke:#000000;stroke-width:1;" width="65.3911" x="562.3" y="685.4494"/><text fill="#000000" font-family="Verdana" font-size="11" lengthAdjust="spacing" textLength="17.1714" x="572.3" y="705.6598">Lot</text><text fill="#000000" font-family="Verdana" font-size="11" lengthAdjust="spacing" textLength="45.3911" x="572.3" y="718.4645">&#171;entity&#187;</text></g><!--entity sellResult--><g class="entity" data-qualified-name="Application Core.Domain Model .domain...sellResult" data-source-line="54" id="ent0020"><rect fill="#FFFFFF" height="45.6094" rx="2.5" ry="2.5" style="stroke:#000000;stroke-width:1;" width="100.8994" x="662.55" y="685.4494"/><text fill="#000000" font-family="Verdana" font-size="11" lengthAdjust="spacing" textLength="54.3447" x="672.55" y="705.6598">SellResult</text><text fill="#000000" font-family="Verdana" font-size="11" lengthAdjust="spacing" textLength="80.8994" x="672.55" y="718.4645">&#171;value object&#187;</text></g><!--entity vos--><g class="entity" data-qualified-name="Application Core.Domain Model .domain...vos" data-source-line="55" id="ent0021"><rect fill="#FFFFFF" height="58.4141" rx="2.5" ry="2.5" style="stroke:#000000;stroke-width:1;" width="177.0024" x="700.5" y="389.6294"/><text fill="#000000" font-family="Verdana" font-size="11" lengthAdjust="spacing" textLength="157.0024" x="710.5" y="409.8398">Money  Price  ShareQuantity</text><text fill="#000000" font-family="Verdana" font-size="11" lengthAdjust="spacing" textLength="96.3467" x="710.5" y="422.6445">Ticker  PortfolioId</text><text fill="#000000" font-family="Verdana" font-size="11" lengthAdjust="spacing" textLength="86.6304" x="710.5" y="435.4492">&#171;value objects&#187;</text></g><!--entity jpaAdapter--><g class="entity" data-qualified-name="Driven Adapters.jpaAdapter" data-source-line="67" id="ent0026"><rect fill="#FFFFFF" height="45.6094" rx="2.5" ry="2.5" style="stroke:#000000;stroke-width:1;" width="126.4443" x="1394.78" y="560.8394"/><text fill="#000000" font-family="Verdana" font-size="11" lengthAdjust="spacing" textLength="106.4443" x="1404.78" y="581.0498">PortfolioJpaAdapter</text><text fill="#000000" font-family="Verdana" font-size="11" lengthAdjust="spacing" textLength="92.9897" x="1404.78" y="593.8545">(persistence-jpa)</text></g><!--entity txJpaAdapter--><g class="entity" data-qualified-name="Driven Adapters.txJpaAdapter" data-source-line="68" id="ent0027"><rect fill="#FFFFFF" height="45.6094" rx="2.5" ry="2.5" style="stroke:#000000;stroke-width:1;" width="145.3452" x="1990.33" y="560.8394"/><text fill="#000000" font-family="Verdana" font-size="11" lengthAdjust="spacing" textLength="125.3452" x="2000.33" y="581.0498">TransactionJpaAdapter</text><text fill="#000000" font-family="Verdana" font-size="11" lengthAdjust="spacing" textLength="92.9897" x="2000.33" y="593.8545">(persistence-jpa)</text></g><!--entity finnhub--><g class="entity" data-qualified-name="Driven Adapters.finnhub" data-source-line="69" id="ent0028"><rect fill="#FFFFFF" height="45.6094" rx="2.5" ry="2.5" style="stroke:#000000;stroke-width:1;" width="165.5566" x="1556.22" y="560.8394"/><text fill="#000000" font-family="Verdana" font-size="11" lengthAdjust="spacing" textLength="145.5566" x="1566.22" y="581.0498">FinnhubStockPriceAdapter</text><text fill="#000000" font-family="Verdana" font-size="11" lengthAdjust="spacing" textLength="104.6343" x="1566.22" y="593.8545">(outbound-market)</text></g><!--entity alpha--><g class="entity" data-qualified-name="Driven Adapters.alpha" data-source-line="70" id="ent0029"><rect fill="#FFFFFF" height="45.6094" rx="2.5" ry="2.5" style="stroke:#000000;stroke-width:1;" width="198.6211" x="1756.69" y="560.8394"/><text fill="#000000" font-family="Verdana" font-size="11" lengthAdjust="spacing" textLength="178.6211" x="1766.69" y="581.0498">AlphaVantageStockPriceAdapter</text><text fill="#000000" font-family="Verdana" font-size="11" lengthAdjust="spacing" textLength="104.6343" x="1766.69" y="593.8545">(outbound-market)</text></g><!--entity db--><g class="entity" data-qualified-name="db" data-source-line="73" id="ent0030"><path d="M2171.12,572.7394 C2171.12,562.7394 2200.0048,562.7394 2200.0048,562.7394 C2200.0048,562.7394 2228.8895,562.7394 2228.8895,572.7394 L2228.8895,594.5441 C2228.8895,604.5441 2200.0048,604.5441 2200.0048,604.5441 C2200.0048,604.5441 2171.12,604.5441 2171.12,594.5441 L2171.12,572.7394" fill="#FFFFFF" style="stroke:#000000;stroke-width:1;"/><path d="M2171.12,572.7394 C2171.12,582.7394 2200.0048,582.7394 2200.0048,582.7394 C2200.0048,582.7394 2228.8895,582.7394 2228.8895,572.7394" fill="none" style="stroke:#000000;stroke-width:1;"/><text fill="#000000" font-family="Verdana" font-size="11" lengthAdjust="spacing" textLength="37.7695" x="2181.12" y="596.9498">MySQL</text></g><!--entity apis--><g class="entity" data-qualified-name="apis" data-source-line="74" id="ent0031"><path d="M2272.2981,565.1335 C2275.1416,558.4325 2279.3808,557.392 2284.3301,563.0899 C2287.6084,557.1779 2293.3681,556.3226 2296.962,562.7672 C2300.3685,556.0395 2305.3738,555.8019 2309.4205,562.1575 C2313.8215,556.6268 2317.666,555.0879 2322.2639,561.9534 C2327.4907,556.6534 2331.5482,557.5626 2334.2447,564.4423 C2338.0921,558.157 2343.9456,557.4674 2348.0438,564.176 C2357.693,568.0816 2358.9512,577.106 2351.3693,583.9147 C2360.3126,591.7548 2358.5537,599.357 2348.5445,604.6103 C2345.0016,611.1527 2339.8195,613.4157 2334.1654,606.9425 C2332.1718,613.4087 2327.7695,614.059 2322.6974,610.4446 C2320.1834,616.5232 2315.7563,617.7946 2310.8874,613.003 C2305.1115,618.3702 2300.5855,616.7439 2298.6465,609.3286 C2294.1483,615.8545 2287.516,614.6893 2284.4398,607.8203 C2278.9243,613.4952 2275.2937,611.6845 2271.9893,605.4991 C2259.8361,602.3354 2258.7826,594.3593 2266.5734,585.7313 C2257.3044,577.3399 2262.2485,568.1557 2272.2981,565.1335" fill="#FFFFFF" style="stroke:#000000;stroke-width:1;"/><text fill="#000000" font-family="Verdana" font-size="11" lengthAdjust="spacing" textLength="60.9673" x="2278.52" y="581.0498">Stock Price</text><text fill="#000000" font-family="Verdana" font-size="11" lengthAdjust="spacing" textLength="23.1333" x="2278.52" y="593.8545">APIs</text></g><!--link svc to GMN10--><g class="link" data-entity-1="ent0009" data-entity-2="ent0011" data-link-type="association" data-source-line="41" id="lnk12"><path d="M661.69,276.1694 C625.52,292.4194 575.78,315.4394 533,337.6294 C498.31,355.6294 459.86,377.8294 432.04,394.3094" fill="none" id="svc-GMN10" style="stroke:#444444;stroke-width:1;stroke-dasharray:7,7;"/></g><!--link portfolio to holding--><g class="link" data-entity-1="ent0017" data-entity-2="ent0018" data-link-type="dependency" data-source-line="57" id="lnk22"><path d="M563.73,442.0994 C541.88,456.6694 521.76,477.3294 531,500.8394 C540.36,524.6594 555.728,541.7389 572.828,556.4989" fill="none" id="portfolio-to-holding" style="stroke:#444444;stroke-width:1;"/><polygon fill="#444444" points="577.37,560.4194,573.1706,551.5107,573.585,557.1523,567.9433,557.5667,577.37,560.4194" style="stroke:#444444;stroke-width:1;"/><text fill="#000000" font-family="Verdana" font-size="11" lengthAdjust="spacing" textLength="84.7988" x="532" y="498.0498">delegates sell()</text></g><!--link holding to lot--><g class="link" data-entity-1="ent0018" data-entity-2="ent0019" data-link-type="dependency" data-source-line="58" id="lnk23"><path d="M600.22,606.8094 C597.38,617.2094 594.41,629.8594 593,641.4494 C592.25,647.6294 592.88,649.2294 593,655.4494 C593.19,665.1694 593.3151,669.9148 593.7051,679.0848" fill="none" id="holding-to-lot" style="stroke:#444444;stroke-width:1;"/><polygon fill="#444444" points="593.96,685.0794,597.574,675.9175,593.7475,680.0839,589.5812,676.2575,593.96,685.0794" style="stroke:#444444;stroke-width:1;"/><text fill="#000000" font-family="Verdana" font-size="11" lengthAdjust="spacing" textLength="74.6958" x="594" y="652.6598">FIFO reduce()</text></g><!--link holding to sellResult--><g class="link" data-entity-1="ent0018" data-entity-2="ent0020" data-link-type="dependency" data-source-line="59" id="lnk24"><path d="M636.75,606.8894 C648.8,616.7194 662.34,628.8794 673,641.4494 C684.33,654.8094 691.6588,666.4609 698.9288,679.8009" fill="none" id="holding-to-sellResult" style="stroke:#444444;stroke-width:1;"/><polygon fill="#444444" points="701.8,685.0694,701.0055,675.2526,699.4074,680.679,693.981,679.0808,701.8,685.0694" style="stroke:#444444;stroke-width:1;"/><text fill="#000000" font-family="Verdana" font-size="11" lengthAdjust="spacing" textLength="39.7998" x="684.24" y="652.6598">returns</text></g><!--link ctrl to inPort--><g class="link" data-entity-1="ent0003" data-entity-2="ent0008" data-link-type="dependency" data-source-line="79" id="lnk32"><path d="M209.53,132.0094 C239.09,132.0094 263.8,132.0094 278.73,132.0094" fill="none" id="ctrl-to-inPort" style="stroke:#444444;stroke-width:1;"/><polygon fill="#444444" points="284.73,132.0094,275.73,128.0094,279.73,132.0094,275.73,136.0094,284.73,132.0094" style="stroke:#444444;stroke-width:1;"/><text fill="#000000" font-family="Verdana" font-size="11" lengthAdjust="spacing" textLength="24.6318" x="235.11" y="126.2198">calls</text></g><!--reverse link inPort to svc--><g class="link" data-entity-1="ent0008" data-entity-2="ent0009" data-link-type="extension" data-source-line="81" id="lnk33"><path d="M320.4325,140.5366 C363.0525,152.6666 527.72,199.5594 633.99,229.8094" fill="none" id="inPort-backto-svc" style="stroke:#444444;stroke-width:1;stroke-dasharray:7,7;"/><polygon fill="none" points="303.12,135.6094,318.7901,146.3075,322.0749,134.7658,303.12,135.6094" style="stroke:#444444;stroke-width:1;"/><text fill="#000000" font-family="Verdana" font-size="11" lengthAdjust="spacing" textLength="65.0762" x="491.47" y="189.6298">implements</text></g><!--link svc to portPort--><g class="link" data-entity-1="ent0009" data-entity-2="ent0013" data-link-type="dependency" data-source-line="83" id="lnk34"><path d="M776.49,276.2894 C812.93,290.6194 858.22,311.4594 894,337.6294 C923.79,359.4194 947.2635,389.9763 958.2735,405.3963" fill="none" id="svc-to-portPort" style="stroke:#444444;stroke-width:1;"/><polygon fill="#444444" points="961.76,410.2794,959.7856,400.6305,958.8546,406.2102,953.2748,405.2792,961.76,410.2794" style="stroke:#444444;stroke-width:1;"/><text fill="#000000" font-family="Verdana" font-size="11" lengthAdjust="spacing" textLength="25.2012" x="881.69" y="326.8398">uses</text></g><!--link svc to pricePort--><g class="link" data-entity-1="ent0009" data-entity-2="ent0014" data-link-type="dependency" data-source-line="84" id="lnk35"><path d="M811.09,266.3394 C878.47,277.7594 967.94,299.0394 1039,337.6294 C1074.38,356.8494 1102.7986,389.0009 1115.9486,405.2009" fill="none" id="svc-to-pricePort" style="stroke:#444444;stroke-width:1;"/><polygon fill="#444444" points="1119.73,409.8594,1117.1635,400.3508,1116.5788,405.9773,1110.9523,405.3926,1119.73,409.8594" style="stroke:#444444;stroke-width:1;"/><text fill="#000000" font-family="Verdana" font-size="11" lengthAdjust="spacing" textLength="25.2012" x="1023.89" y="326.8398">uses</text></g><!--link svc to txPort--><g class="link" data-entity-1="ent0009" data-entity-2="ent0015" data-link-type="dependency" data-source-line="85" id="lnk36"><path d="M810.92,262.6194 C936.91,274.8994 1146.41,300.2194 1214,337.6294 C1246.05,355.3794 1267.7824,388.1351 1277.4924,404.6751" fill="none" id="svc-to-txPort" style="stroke:#444444;stroke-width:1;"/><polygon fill="#444444" points="1280.53,409.8494,1279.4231,400.0629,1277.9987,405.5375,1272.5241,404.1131,1280.53,409.8494" style="stroke:#444444;stroke-width:1;"/><text fill="#000000" font-family="Verdana" font-size="11" lengthAdjust="spacing" textLength="25.2012" x="1194.06" y="326.8398">uses</text></g><!--link svc to portfolio--><g class="link" data-entity-1="ent0009" data-entity-2="ent0017" data-link-type="dependency" data-source-line="86" id="lnk37"><path d="M697.84,276.1194 C677.8,307.3794 644.6077,359.1679 624.5077,390.5279" fill="none" id="svc-to-portfolio" style="stroke:#444444;stroke-width:1;"/><polygon fill="#444444" points="621.27,395.5794,629.4942,390.1607,623.9681,391.3698,622.7589,385.8437,621.27,395.5794" style="stroke:#444444;stroke-width:1;"/><text fill="#000000" font-family="Verdana" font-size="11" lengthAdjust="spacing" textLength="68.6479" x="672.99" y="326.8398">delegates to</text></g><!--reverse link portPort to jpaAdapter--><g class="link" data-entity-1="ent0013" data-entity-2="ent0026" data-link-type="extension" data-source-line="88" id="lnk38"><path d="M991.0312,435.3118 C1013.8612,449.9218 1061.7,479.0594 1119,500.8394 C1211.96,536.1694 1325.18,559.8394 1394.4,572.2694" fill="none" id="portPort-backto-jpaAdapter" style="stroke:#444444;stroke-width:1;stroke-dasharray:7,7;"/><polygon fill="none" points="975.87,425.6094,987.7971,440.3655,994.2654,430.258,975.87,425.6094" style="stroke:#444444;stroke-width:1;"/><text fill="#000000" font-family="Verdana" font-size="11" lengthAdjust="spacing" textLength="65.0762" x="1120" y="498.0498">implements</text></g><!--reverse link txPort to txJpaAdapter--><g class="link" data-entity-1="ent0015" data-entity-2="ent0027" data-link-type="extension" data-source-line="89" id="lnk39"><path d="M1311.6129,421.2869 C1381.8629,425.1469 1841.98,452.2494 1973,508.8394 C2000.45,520.6994 2026.25,543.5094 2043.12,560.6494" fill="none" id="txPort-backto-txJpaAdapter" style="stroke:#444444;stroke-width:1;stroke-dasharray:7,7;"/><polygon fill="none" points="1293.64,420.2994,1311.2837,427.2779,1311.9421,415.296,1293.64,420.2994" style="stroke:#444444;stroke-width:1;"/><text fill="#000000" font-family="Verdana" font-size="11" lengthAdjust="spacing" textLength="65.0762" x="1944.36" y="498.0498">implements</text></g><!--reverse link pricePort to finnhub--><g class="link" data-entity-1="ent0014" data-entity-2="ent0028" data-link-type="extension" data-source-line="90" id="lnk40"><path d="M1151.0691,432.5603 C1166.7091,440.4303 1184.04,448.2794 1214,456.8394 C1354.65,497.0294 1404.11,452.2494 1539,508.8394 C1568.25,521.1094 1596.88,543.6294 1615.96,560.5694" fill="none" id="pricePort-backto-finnhub" style="stroke:#444444;stroke-width:1;stroke-dasharray:7,7;"/><polygon fill="none" points="1134.99,424.4694,1148.3721,437.92,1153.7661,427.2006,1134.99,424.4694" style="stroke:#444444;stroke-width:1;"/><text fill="#000000" font-family="Verdana" font-size="11" lengthAdjust="spacing" textLength="65.0762" x="1516.6" y="498.0498">implements</text></g><!--reverse link pricePort to alpha--><g class="link" data-entity-1="ent0014" data-entity-2="ent0029" data-link-type="extension" data-source-line="91" id="lnk41"><path d="M1150.8227,433.1617 C1166.3627,441.4017 1183.73,449.4694 1214,456.8394 C1441.83,512.2794 1519.16,427.2994 1739,508.8394 C1772.1,521.1194 1805.77,543.6294 1828.43,560.5794" fill="none" id="pricePort-backto-alpha" style="stroke:#444444;stroke-width:1;stroke-dasharray:7,7;"/><polygon fill="none" points="1134.92,424.7294,1148.0119,438.4626,1153.6335,427.8608,1134.92,424.7294" style="stroke:#444444;stroke-width:1;"/><text fill="#000000" font-family="Verdana" font-size="11" lengthAdjust="spacing" textLength="65.0762" x="1714.28" y="498.0498">implements</text></g><!--link jpaAdapter to db--><g class="link" data-entity-1="ent0026" data-entity-2="ent0030" data-link-type="dependency" data-source-line="93" id="lnk42"><path d="M1472.38,560.4294 C1489.13,535.8494 1519.29,498.5094 1556.5,482.8394 C1615.69,457.9194 2077.81,452.6594 2134.5,482.8394 C2165.63,499.4194 2182.1243,532.4136 2191.1443,556.7436" fill="none" id="jpaAdapter-to-db" style="stroke:#444444;stroke-width:1;"/><polygon fill="#444444" points="2193.23,562.3694,2193.852,552.5402,2191.4919,557.6812,2186.3509,555.3211,2193.23,562.3694" style="stroke:#444444;stroke-width:1;"/></g><!--link txJpaAdapter to db--><g class="link" data-entity-1="ent0027" data-entity-2="ent0030" data-link-type="dependency" data-source-line="94" id="lnk43"><path d="M2136.05,583.6494 C2147.71,583.6494 2153.36,583.6494 2165.02,583.6494" fill="none" id="txJpaAdapter-to-db" style="stroke:#444444;stroke-width:1;"/><polygon fill="#444444" points="2171.02,583.6494,2162.02,579.6494,2166.02,583.6494,2162.02,587.6494,2171.02,583.6494" style="stroke:#444444;stroke-width:1;"/></g><!--link finnhub to apis--><g class="link" data-entity-1="ent0028" data-entity-2="ent0031" data-link-type="dependency" data-source-line="95" id="lnk44"><path d="M1656.84,560.7694 C1677.67,536.1194 1714.66,498.3294 1756.5,482.8394 C1805.68,464.6294 2181.24,460.0994 2228.5,482.8394 C2259.58,497.7994 2279.5249,525.9731 2292.7749,550.2431" fill="none" id="finnhub-to-apis" style="stroke:#444444;stroke-width:1;"/><polygon fill="#444444" points="2295.65,555.5094,2294.8482,545.6932,2293.2541,551.1208,2287.8265,549.5267,2295.65,555.5094" style="stroke:#444444;stroke-width:1;"/></g><!--link alpha to apis--><g class="link" data-entity-1="ent0029" data-entity-2="ent0031" data-link-type="dependency" data-source-line="96" id="lnk45"><path d="M1877.14,560.7094 C1901.63,535.9894 1944.54,498.1494 1990.5,482.8394 C2040.68,466.1194 2180.84,459.9094 2228.5,482.8394 C2259.58,497.7994 2279.5249,525.9731 2292.7749,550.2431" fill="none" id="alpha-to-apis" style="stroke:#444444;stroke-width:1;"/><polygon fill="#444444" points="2295.65,555.5094,2294.8482,545.6932,2293.2541,551.1208,2287.8265,549.5267,2295.65,555.5094" style="stroke:#444444;stroke-width:1;"/></g><g class="legend" data-source-line="101"><rect fill="none" height="128.0781" rx="7.5" ry="7.5" style="stroke:#000000;stroke-width:1;" width="382.9551" x="10" y="781.0594"/><text fill="#000000" font-family="Verdana" font-size="14" font-weight="bold" lengthAdjust="spacing" textLength="41.2139" x="19.874" y="801.0545">Color</text><text fill="#000000" font-family="Verdana" font-size="14" font-weight="bold" lengthAdjust="spacing" textLength="43.8936" x="70.8359" y="801.0545">Layer</text><text fill="#000000" font-family="Verdana" font-size="14" font-weight="bold" lengthAdjust="spacing" textLength="114.6729" x="197.6289" y="801.0545">Maven Module</text><rect fill="#FFF3CD" height="16.2969" style="stroke:none;stroke-width:1;" width="50.9619" x="15" y="804.3563"/><text fill="#000000" font-family="Verdana" font-size="14" lengthAdjust="spacing" textLength="4.4502" x="15" y="817.3514">&#160;</text><text fill="#000000" font-family="Verdana" font-size="14" lengthAdjust="spacing" textLength="117.8926" x="70.4121" y="817.3514">Driving Adapters</text><text fill="#000000" font-family="Verdana" font-size="14" lengthAdjust="spacing" textLength="156.1875" x="197.2051" y="817.3514">adapters-inbound-rest</text><rect fill="#E8F4FD" height="16.2969" style="stroke:none;stroke-width:1;" width="50.9619" x="15" y="820.6531"/><text fill="#000000" font-family="Verdana" font-size="14" lengthAdjust="spacing" textLength="4.4502" x="15" y="833.6482">&#160;</text><text fill="#000000" font-family="Verdana" font-size="14" lengthAdjust="spacing" textLength="115.3838" x="70.4121" y="833.6482">Application Core</text><text fill="#000000" font-family="Verdana" font-size="14" lengthAdjust="spacing" textLength="77.2256" x="197.2051" y="833.6482">application</text><rect fill="#D4EDDA" height="16.2969" style="stroke:none;stroke-width:1;" width="50.9619" x="15" y="836.95"/><text fill="#000000" font-family="Verdana" font-size="14" lengthAdjust="spacing" textLength="4.4502" x="15" y="849.9451">&#160;</text><text fill="#000000" font-family="Verdana" font-size="14" lengthAdjust="spacing" textLength="100.8096" x="70.4121" y="849.9451">Domain Model</text><text fill="#000000" font-family="Verdana" font-size="14" lengthAdjust="spacing" textLength="52.4316" x="197.2051" y="849.9451">domain</text><rect fill="#F8D7DA" height="16.2969" style="stroke:none;stroke-width:1;" width="50.9619" x="15" y="853.2469"/><text fill="#000000" font-family="Verdana" font-size="14" lengthAdjust="spacing" textLength="4.4502" x="15" y="866.242">&#160;</text><text fill="#000000" font-family="Verdana" font-size="14" lengthAdjust="spacing" textLength="113.7295" x="70.4121" y="866.242">Driven Adapters</text><text fill="#000000" font-family="Verdana" font-size="14" lengthAdjust="spacing" textLength="146.2002" x="197.2051" y="866.242">adapters-outbound-*</text><line style="stroke:#000000;stroke-width:1;" x1="15" x2="357.8428" y1="788.0594" y2="788.0594"/><line style="stroke:#000000;stroke-width:1;" x1="15" x2="357.8428" y1="804.3563" y2="804.3563"/><line style="stroke:#000000;stroke-width:1;" x1="15" x2="357.8428" y1="820.6531" y2="820.6531"/><line style="stroke:#000000;stroke-width:1;" x1="15" x2="357.8428" y1="836.95" y2="836.95"/><line style="stroke:#000000;stroke-width:1;" x1="15" x2="357.8428" y1="853.2469" y2="853.2469"/><line style="stroke:#000000;stroke-width:1;" x1="15" x2="357.8428" y1="869.5438" y2="869.5438"/><line style="stroke:#000000;stroke-width:1;" x1="15" x2="15" y1="788.0594" y2="869.5438"/><line style="stroke:#000000;stroke-width:1;" x1="65.9619" x2="65.9619" y1="788.0594" y2="869.5438"/><line style="stroke:#000000;stroke-width:1;" x1="192.7549" x2="192.7549" y1="788.0594" y2="869.5438"/><line style="stroke:#000000;stroke-width:1;" x1="357.8428" x2="357.8428" y1="788.0594" y2="869.5438"/><text fill="#000000" font-family="Verdana" font-size="14" lengthAdjust="spacing" textLength="159.7012" x="15" y="884.5389">All dependencies point</text><text fill="#000000" font-family="Verdana" font-size="14" font-weight="bold" lengthAdjust="spacing" textLength="54.0723" x="179.1514" y="884.5389">inward</text><text fill="#000000" font-family="Verdana" font-size="14" lengthAdjust="spacing" textLength="137.4844" x="237.6738" y="884.5389">toward the domain.</text><text fill="#000000" font-family="Verdana" font-size="14" lengthAdjust="spacing" textLength="372.9551" x="15" y="900.8357">The domain module has zero external dependencies.</text></g><?plantuml-src hLTjRo8t4Fw-lsAQ-z0GXKIdHhhenA5kMRWZIe03cgfIlfXT0xuOUsLxIRWa_xrZUtTPtj8gAVaGutbcF1u_yy8lPauN559Ec0ZqFHCfKMG14nBVpvJCHDAIN2huq6dRlmeYeLEISTEHmepOJmeVFrQ4AQgJ6HsP5QUWQ6o8c75Q0SHoaKf1KVSW95HAFkIdNxXFHIYaeN_i-8YVA0e2mmpQ_4OVoSZ8-1xSSYO5uMWqdZE3fsMAml68SWuUywUcq2AQreBTQy1J0B1rMgCHIqMRJVZGlknSTA9zY4GkCAeM4rsqeoZSYr5ioSJCWj3xtrhH8H1rXZgNqITlIAg4glpYb-uJl0J1h_3b3HzKYuRTssxlAnmFXjsRSFXt3S8e78pRmz5RRHR1Euhy5I5CI6geqdVYcEJBEXCJUy-wejhKZg0Q3nlqaYPmD93AJ2LdSeZG5h9EISwfEWAY8JQA8zgI0YRI6Ba0EIrs0GRzqHZEIShEqyA8FdzYoSkv9fngXxaXgOQhKRy7gM8BPZ3W6enqibl2CmhzoG_aZSO85KQwoQcJZrbyJzKfZEP4qUyP4KZ0LGr5L2JEgNUzJ3WON7TRuRYBlhNwm_QxtoDCKyvYOfWKq48Isx3dP7uAq6icy6cc9AQLeBiawQTKEJMDsMAJvKuq6laBWWrji-cUWmch5nnulorJ8wgMB7QcICKnxRTpYtePxxwltmJeOquZ9z0UrP-nb1Z5w9AUOeNYT8QRfu27QQQDGrlgO5PgwFLXacacgDR0vOnvOx-F5H6QnDO9h1VkRaIjgezv84HsOMyXCxCJ4RjqCTbGTP4OABpcGCabmtn-rOO3xXYf-FkQjdaitcITbwuymOt4GC6nBrRdFWcBmlNaOhBl5TrxpMRAHHYKbDMhEiIswZV94ynigqXTXkGASx-_3R-MPWVAfTc6sHAE5G4xaKKlNQPAbwa5TKh0jkeD_bzXTR1nXStalHC-fr6wJlRj0tH-mbBgmDakhmxrH3w8UhEu6tmkoUWTEguvXK9SmF5-2ErqEtsaSPB5z01kVITmXC-Ki5NivTqTeDt3fjXkzNlH_zy2g2WxG57egNYbpb-b9CTZmyWpc8gOrd-afEO2_wD4R9gefCI_6p6FLmVCT9WGysoopjArfIB3wWkYxgdnbgOUlsaavEcSt2Aht3Zq7oqHgsGVCo66JB3G8bbNe-_NJfXCWfZBBCdhX-VldGW7NUsLKwRVGOE_kaCx1q14Kwnu62j6RL9ZnS6gyq1KybRJjXr3NR7Pt225VOz0-iQ4S_Gt_zvuFZkpXHq5R95o74s5GQdTASXVr5A4P1gxzuQig97xXBu4xbKh4xUQgDZzW_8mvzYQS9l-vPOTfigdJTJQEGVCwV8gnX5XAnOL9yfe8YSspgqAYdFAFKSGRtbpx-sakMv_RVUYj-fZm6rppJixfrDRgf-_W9zkSN5DLjGjReWj8zYnCXpmdoqA6ldStCJrzgI9MtidpLBLp-vMTNieiggLhKB13_Bkh6htV0RVCjS-kJczyAbI-gekbRb_ulH2_36Ix6RToOdFkvCJPAHT0FvaoyyxGxLn-GqMFZ1ph08_gP907_4SEyPKpPu5kFGX3_u1?></g></svg>