<?plantuml 1.2026.1?><svg xmlns="http://www.w3.org/2000/svg" xmlns:xlink="http://www.w3.org/1999/xlink" contentStyleType="text/css" data-diagram-type="ACTIVITY" height="1881px" preserveAspectRatio="none" style="width:1733px;height:1881px;background:#FEFEFE;" version="1.1" viewBox="0 0 1733 1881" width="1733px" zoomAndPan="magnify"><title>Simplified Use Case Flow: Sell Stocks (Application Core Only)</title><defs/><g><rect fill="#FEFEFE" height="1881" style="stroke:none;stroke-width:1;" width="1733" x="0" y="0"/><g class="title" data-source-line="13"><text fill="#000000" font-family="Verdana" font-size="22" font-weight="bold" lengthAdjust="spacing" textLength="759.6875" x="485.4961" y="35.4209">Simplified Use Case Flow: Sell Stocks (Application Core Only)</text></g><rect fill="#FFFFFF" height="20.9531" style="stroke:#FFFFFF;stroke-width:1;" width="1710.6797" x="10" y="54.3545"/><rect fill="#ADD8E6" height="1819.9419" style="stroke:#ADD8E6;stroke-width:1;" width="564.7881" x="10" y="54.3545"/><ellipse cx="146.126" cy="90.3076" fill="#FFFFFF" rx="10" ry="10" style="stroke:#000000;stroke-width:1;"/><path d="M296.252,110.3076 L296.252,141.5732 L276.252,145.5732 L296.252,149.5732 L296.252,180.8389 A0,0 0 0 0 296.252,180.8389 L509.9985,180.8389 A0,0 0 0 0 509.9985,180.8389 L509.9985,120.3076 L499.9985,110.3076 L296.252,110.3076 A0,0 0 0 0 296.252,110.3076" fill="#FFFFF0" style="stroke:#CCCCAA;stroke-width:1;"/><path d="M499.9985,110.3076 L499.9985,120.3076 L509.9985,120.3076 L499.9985,110.3076" fill="#FFFFF0" style="stroke:#CCCCAA;stroke-width:1;"/><text fill="#000000" font-family="Verdana" font-size="13" lengthAdjust="spacing" textLength="133.5737" x="302.252" y="127.3745">The service receives</text><text fill="#000000" font-family="Verdana" font-size="13" lengthAdjust="spacing" textLength="191.1089" x="302.252" y="142.5073">domain types, not primitives.</text><text fill="#000000" font-family="Verdana" font-size="13" lengthAdjust="spacing" textLength="192.7466" x="302.252" y="157.6401">How they arrive (REST, CLI&#8230;)</text><text fill="#000000" font-family="Verdana" font-size="13" lengthAdjust="spacing" textLength="155.5239" x="302.252" y="172.7729">is not our concern here.</text><rect fill="#FFFFFF" height="47.9375" rx="12.5" ry="12.5" style="stroke:#000000;stroke-width:1;" width="260.252" x="16" y="121.6045"/><text fill="#000000" font-family="Verdana" font-size="12" lengthAdjust="spacing" textLength="47.5195" x="26" y="142.7432">Receive</text><text fill="#000000" font-family="Verdana" font-size="12" font-weight="bold" lengthAdjust="spacing" textLength="41.4492" x="77.334" y="142.7432">Ticker</text><text fill="#000000" font-family="Verdana" font-size="12" lengthAdjust="spacing" textLength="3.8145" x="118.7832" y="142.7432">,</text><text fill="#000000" font-family="Verdana" font-size="12" font-weight="bold" lengthAdjust="spacing" textLength="98.1328" x="126.4121" y="142.7432">ShareQuantity</text><text fill="#000000" font-family="Verdana" font-size="12" lengthAdjust="spacing" textLength="3.8145" x="224.5449" y="142.7432">,</text><text fill="#000000" font-family="Verdana" font-size="12" font-weight="bold" lengthAdjust="spacing" textLength="34.0781" x="232.1738" y="142.7432">Price</text><text fill="#000000" font-family="Verdana" font-size="12" lengthAdjust="spacing" textLength="110.2324" x="26" y="156.7119">(all Value Objects)</text><path d="M282.6816,190.8389 L282.6816,222.1045 L262.6816,226.1045 L282.6816,230.1045 L282.6816,261.3701 A0,0 0 0 0 282.6816,261.3701 L569.7881,261.3701 A0,0 0 0 0 569.7881,261.3701 L569.7881,200.8389 L559.7881,190.8389 L282.6816,190.8389 A0,0 0 0 0 282.6816,190.8389" fill="#FFFFF0" style="stroke:#CCCCAA;stroke-width:1;"/><path d="M559.7881,190.8389 L559.7881,200.8389 L569.7881,200.8389 L559.7881,190.8389" fill="#FFFFF0" style="stroke:#CCCCAA;stroke-width:1;"/><text fill="#000000" font-family="Courier" font-size="13" lengthAdjust="spacing" textLength="266.1064" x="288.6816" y="207.9058">portfolioPort.getPortfolioById(id)</text><text fill="#000000" font-family="Verdana" font-size="13" lengthAdjust="spacing" textLength="184.5264" x="288.6816" y="223.0386">The port is an abstraction &#8212;</text><text fill="#000000" font-family="Verdana" font-size="13" lengthAdjust="spacing" textLength="155.5747" x="288.6816" y="238.1714">we don't care about the</text><text fill="#000000" font-family="Verdana" font-size="13" lengthAdjust="spacing" textLength="129.835" x="288.6816" y="253.3042">storage technology.</text><rect fill="#FFFFFF" height="33.9688" rx="12.5" ry="12.5" style="stroke:#000000;stroke-width:1;" width="233.1113" x="29.5703" y="209.1201"/><text fill="#000000" font-family="Verdana" font-size="12" lengthAdjust="spacing" textLength="28.998" x="39.5703" y="230.2588">Load</text><text fill="#000000" font-family="Verdana" font-size="12" font-weight="bold" lengthAdjust="spacing" textLength="58.6289" x="72.3828" y="230.2588">Portfolio</text><text fill="#000000" font-family="Verdana" font-size="12" lengthAdjust="spacing" textLength="117.8555" x="134.8262" y="230.2588">from outbound port</text><rect fill="#FFFFFF" height="33.9688" rx="12.5" ry="12.5" style="stroke:#000000;stroke-width:1;" width="243.957" x="24.1475" y="1744.3589"/><text fill="#000000" font-family="Verdana" font-size="12" lengthAdjust="spacing" textLength="223.957" x="34.1475" y="1765.4976">Save Portfolio through outbound port</text><rect fill="#FFFFFF" height="33.9688" rx="12.5" ry="12.5" style="stroke:#000000;stroke-width:1;" width="132.3066" x="79.9727" y="1798.3276"/><text fill="#000000" font-family="Verdana" font-size="12" lengthAdjust="spacing" textLength="40.5703" x="89.9727" y="1819.4663">Return</text><text fill="#000000" font-family="Verdana" font-size="12" font-weight="bold" lengthAdjust="spacing" textLength="67.9219" x="134.3574" y="1819.4663">SellResult</text><ellipse cx="146.126" cy="1863.2964" fill="none" rx="11" ry="11" style="stroke:#000000;stroke-width:1;"/><ellipse cx="146.126" cy="1863.2964" fill="#FFFFFF" rx="6" ry="6" style="stroke:#000000;stroke-width:1;"/><line style="stroke:#000000;stroke-width:1;" x1="10" x2="10" y1="54.3545" y2="1874.2964"/><rect fill="#90EE90" height="1819.9419" style="stroke:#90EE90;stroke-width:1;" width="292.3398" x="574.7881" y="54.3545"/><rect fill="#FFFFFF" height="33.9688" rx="12.5" ry="12.5" style="stroke:#000000;stroke-width:1;" width="271.6719" x="580.7881" y="281.3701"/><text fill="#000000" font-family="Verdana" font-size="12" lengthAdjust="spacing" textLength="251.6719" x="590.7881" y="302.5088">portfolio.sell(Ticker, ShareQuantity, Price)</text><rect fill="#FFFFFF" height="33.9688" rx="12.5" ry="12.5" style="stroke:#000000;stroke-width:1;" width="207.3184" x="612.9648" y="335.3389"/><text fill="#000000" font-family="Verdana" font-size="12" lengthAdjust="spacing" textLength="107.1738" x="622.9648" y="356.4775">Validate: quantity</text><text fill="#000000" font-family="Verdana" font-size="12" font-weight="bold" lengthAdjust="spacing" textLength="76.3301" x="733.9531" y="356.4775">isPositive()</text><rect fill="#FFC0CB" height="33.9688" rx="12.5" ry="12.5" style="stroke:#000000;stroke-width:1;" width="229.168" x="602.04" y="437.71"/><text fill="#000000" font-family="Verdana" font-size="12" lengthAdjust="spacing" textLength="34.4004" x="612.04" y="458.8486">throw</text><text fill="#000000" font-family="Verdana" font-size="12" font-weight="bold" lengthAdjust="spacing" textLength="170.9531" x="650.2549" y="458.8486">InvalidQuantityException</text><ellipse cx="716.624" cy="511.1943" fill="none" rx="11" ry="11" style="stroke:#000000;stroke-width:1;"/><ellipse cx="716.624" cy="511.1943" fill="#FFFFFF" rx="6" ry="6" style="stroke:#000000;stroke-width:1;"/><polygon fill="#FFFFFF" points="667.4543,389.3076,765.7937,389.3076,777.7937,401.3076,765.7937,413.3076,667.4543,413.3076,655.4543,401.3076,667.4543,389.3076" style="stroke:#000000;stroke-width:1;"/><text fill="#000000" font-family="Verdana" font-size="11" lengthAdjust="spacing" textLength="13.7017" x="720.624" y="423.5181">no</text><text fill="#000000" font-family="Verdana" font-size="11" lengthAdjust="spacing" textLength="98.3394" x="667.4543" y="405.1157">quantity positive?</text><text fill="#000000" font-family="Verdana" font-size="11" lengthAdjust="spacing" textLength="19.0083" x="777.7937" y="398.7134">yes</text><rect fill="#FFFFFF" height="33.9688" rx="12.5" ry="12.5" style="stroke:#000000;stroke-width:1;" width="222.5293" x="605.3594" y="564.1943"/><text fill="#000000" font-family="Verdana" font-size="12" lengthAdjust="spacing" textLength="25.459" x="615.3594" y="585.333">Find</text><text fill="#000000" font-family="Verdana" font-size="12" font-weight="bold" lengthAdjust="spacing" textLength="52.2363" x="644.6328" y="585.333">Holding</text><text fill="#000000" font-family="Verdana" font-size="12" lengthAdjust="spacing" textLength="117.2051" x="700.6836" y="585.333">for the given Ticker</text><rect fill="#FFC0CB" height="33.9688" rx="12.5" ry="12.5" style="stroke:#000000;stroke-width:1;" width="243.0078" x="595.1201" y="666.5654"/><text fill="#000000" font-family="Verdana" font-size="12" lengthAdjust="spacing" textLength="34.4004" x="605.1201" y="687.7041">throw</text><text fill="#000000" font-family="Verdana" font-size="12" font-weight="bold" lengthAdjust="spacing" textLength="184.793" x="643.335" y="687.7041">HoldingNotFoundException</text><ellipse cx="716.624" cy="740.5186" fill="none" rx="11" ry="11" style="stroke:#000000;stroke-width:1;"/><ellipse cx="716.624" cy="740.5186" fill="#FFFFFF" rx="6" ry="6" style="stroke:#000000;stroke-width:1;"/><polygon fill="#FFFFFF" points="675.5271,618.1631,757.7209,618.1631,769.7209,630.1631,757.7209,642.1631,675.5271,642.1631,663.5271,630.1631,675.5271,618.1631" style="stroke:#000000;stroke-width:1;"/><text fill="#000000" font-family="Verdana" font-size="11" lengthAdjust="spacing" textLength="13.7017" x="720.624" y="652.3735">no</text><text fill="#000000" font-family="Verdana" font-size="11" lengthAdjust="spacing" textLength="82.1938" x="675.5271" y="633.9712">holding exists?</text><text fill="#000000" font-family="Verdana" font-size="11" lengthAdjust="spacing" textLength="19.0083" x="769.7209" y="627.5688">yes</text><rect fill="#FFFFFF" height="33.9688" rx="12.5" ry="12.5" style="stroke:#000000;stroke-width:1;" width="202.8301" x="615.209" y="1636.4214"/><text fill="#000000" font-family="Verdana" font-size="12" lengthAdjust="spacing" textLength="43.459" x="625.209" y="1657.5601">Update</text><text fill="#000000" font-family="Verdana" font-size="12" font-weight="bold" lengthAdjust="spacing" textLength="52.6934" x="672.4824" y="1657.5601">balance</text><text fill="#000000" font-family="Verdana" font-size="12" lengthAdjust="spacing" textLength="79.0488" x="728.9902" y="1657.5601">+= proceeds</text><rect fill="#FFFFFF" height="33.9688" rx="12.5" ry="12.5" style="stroke:#000000;stroke-width:1;" width="132.3066" x="650.4707" y="1690.3901"/><text fill="#000000" font-family="Verdana" font-size="12" lengthAdjust="spacing" textLength="40.5703" x="660.4707" y="1711.5288">Return</text><text fill="#000000" font-family="Verdana" font-size="12" font-weight="bold" lengthAdjust="spacing" textLength="67.9219" x="704.8555" y="1711.5288">SellResult</text><line style="stroke:#000000;stroke-width:1;" x1="574.7881" x2="574.7881" y1="54.3545" y2="1874.2964"/><rect fill="#FFFFE0" height="1819.9419" style="stroke:#FFFFE0;stroke-width:1;" width="547.1792" x="867.1279" y="54.3545"/><rect fill="#FFFFFF" height="33.9688" rx="12.5" ry="12.5" style="stroke:#000000;stroke-width:1;" width="221.7969" x="900.2803" y="793.5186"/><text fill="#000000" font-family="Verdana" font-size="12" lengthAdjust="spacing" textLength="201.7969" x="910.2803" y="814.6572">holding.sell(ShareQuantity, Price)</text><rect fill="#FFFFFF" height="33.9688" rx="12.5" ry="12.5" style="stroke:#000000;stroke-width:1;" width="254.6563" x="883.8506" y="847.4873"/><text fill="#000000" font-family="Verdana" font-size="12" lengthAdjust="spacing" textLength="40.957" x="893.8506" y="868.626">Check:</text><text fill="#000000" font-family="Verdana" font-size="12" font-weight="bold" lengthAdjust="spacing" textLength="189.8848" x="938.6221" y="868.626">getTotalShares() &#8805; quantity</text><rect fill="#FFC0CB" height="33.9688" rx="12.5" ry="12.5" style="stroke:#000000;stroke-width:1;" width="235.3145" x="893.5215" y="949.8584"/><text fill="#000000" font-family="Verdana" font-size="12" lengthAdjust="spacing" textLength="34.4004" x="903.5215" y="970.9971">throw</text><text fill="#000000" font-family="Verdana" font-size="12" font-weight="bold" lengthAdjust="spacing" textLength="177.0996" x="941.7363" y="970.9971">ConflictQuantityException</text><ellipse cx="1011.1787" cy="1023.3428" fill="none" rx="11" ry="11" style="stroke:#000000;stroke-width:1;"/><ellipse cx="1011.1787" cy="1023.3428" fill="#FFFFFF" rx="6" ry="6" style="stroke:#000000;stroke-width:1;"/><polygon fill="#FFFFFF" points="967.5815,901.4561,1054.7759,901.4561,1066.7759,913.4561,1054.7759,925.4561,967.5815,925.4561,955.5815,913.4561,967.5815,901.4561" style="stroke:#000000;stroke-width:1;"/><text fill="#000000" font-family="Verdana" font-size="11" lengthAdjust="spacing" textLength="13.7017" x="1015.1787" y="935.6665">no</text><text fill="#000000" font-family="Verdana" font-size="11" lengthAdjust="spacing" textLength="87.1943" x="967.5815" y="917.2642">enough shares?</text><text fill="#000000" font-family="Verdana" font-size="11" lengthAdjust="spacing" textLength="19.0083" x="1066.7759" y="910.8618">yes</text><rect fill="#FFFFFF" height="33.9688" rx="12.5" ry="12.5" style="stroke:#000000;stroke-width:1;" width="248.1758" x="887.0908" y="1076.3428"/><text fill="#000000" font-family="Verdana" font-size="12" lengthAdjust="spacing" textLength="80.2031" x="897.0908" y="1097.4814">Iterate lots in</text><text fill="#000000" font-family="Verdana" font-size="12" font-weight="bold" lengthAdjust="spacing" textLength="31.0605" x="981.1084" y="1097.4814">FIFO</text><text fill="#000000" font-family="Verdana" font-size="12" lengthAdjust="spacing" textLength="109.2832" x="1015.9834" y="1097.4814">order (oldest first)</text><rect fill="#FFFFFF" height="33.9688" rx="12.5" ry="12.5" style="stroke:#000000;stroke-width:1;" width="151.2148" x="935.5713" y="1289.749"/><text fill="#000000" font-family="Verdana" font-size="12" lengthAdjust="spacing" textLength="131.2148" x="945.5713" y="1310.8877">Accumulate costBasis</text><rect fill="#FFFFFF" height="33.9688" rx="12.5" ry="12.5" style="stroke:#000000;stroke-width:1;" width="276.1016" x="873.1279" y="1343.7178"/><text fill="#000000" font-family="Verdana" font-size="12" lengthAdjust="spacing" textLength="256.1016" x="883.1279" y="1364.8564">Subtract sold shares from remainingToSell</text><polygon fill="#FFFFFF" points="1011.1787,1130.3115,1023.1787,1142.3115,1011.1787,1154.3115,999.1787,1142.3115,1011.1787,1130.3115" style="stroke:#000000;stroke-width:1;"/><polygon fill="#FFFFFF" points="952.1074,1397.6865,1070.25,1397.6865,1082.25,1409.6865,1070.25,1421.6865,952.1074,1421.6865,940.1074,1409.6865,952.1074,1397.6865" style="stroke:#000000;stroke-width:1;"/><text fill="#000000" font-family="Verdana" font-size="11" lengthAdjust="spacing" textLength="118.1426" x="952.1074" y="1413.4946">remainingToSell &gt; 0?</text><text fill="#000000" font-family="Verdana" font-size="11" lengthAdjust="spacing" textLength="19.0083" x="1082.25" y="1407.0923">yes</text><rect fill="#FFFFFF" height="33.9688" rx="12.5" ry="12.5" style="stroke:#000000;stroke-width:1;" width="222.3594" x="899.999" y="1463.0854"/><text fill="#000000" font-family="Verdana" font-size="12" lengthAdjust="spacing" textLength="202.3594" x="909.999" y="1484.2241">Remove depleted lots (isEmpty())</text><rect fill="#FFFFFF" height="33.9688" rx="12.5" ry="12.5" style="stroke:#000000;stroke-width:1;" width="256.9941" x="882.6816" y="1517.0542"/><text fill="#000000" font-family="Verdana" font-size="12" lengthAdjust="spacing" textLength="56.0449" x="892.6816" y="1538.1929">Calculate</text><text fill="#000000" font-family="Verdana" font-size="12" font-weight="bold" lengthAdjust="spacing" textLength="61.875" x="952.541" y="1538.1929">proceeds</text><text fill="#000000" font-family="Verdana" font-size="12" lengthAdjust="spacing" textLength="111.4453" x="1018.2305" y="1538.1929">= price &#215; quantity</text><path d="M1161.334,1561.0229 L1161.334,1584.7222 L1141.334,1588.7222 L1161.334,1592.7222 L1161.334,1616.4214 A0,0 0 0 0 1161.334,1616.4214 L1409.3071,1616.4214 A0,0 0 0 0 1409.3071,1616.4214 L1409.3071,1571.0229 L1399.3071,1561.0229 L1161.334,1561.0229 A0,0 0 0 0 1161.334,1561.0229" fill="#FFFFF0" style="stroke:#CCCCAA;stroke-width:1;"/><path d="M1399.3071,1561.0229 L1399.3071,1571.0229 L1409.3071,1571.0229 L1399.3071,1561.0229" fill="#FFFFF0" style="stroke:#CCCCAA;stroke-width:1;"/><text fill="#000000" font-family="Courier" font-size="13" lengthAdjust="spacing" textLength="226.9731" x="1167.334" y="1578.0898">profit&#160;=&#160;proceeds&#160;&#8722;&#160;costBasis</text><text fill="#000000" font-family="Verdana" font-size="13" lengthAdjust="spacing" textLength="161.7256" x="1167.334" y="1593.2227">Calculated automatically</text><text fill="#000000" font-family="Verdana" font-size="13" lengthAdjust="spacing" textLength="155.397" x="1167.334" y="1608.3555">inside the Value Object.</text><rect fill="#FFFFFF" height="33.9688" rx="12.5" ry="12.5" style="stroke:#000000;stroke-width:1;" width="260.3105" x="881.0234" y="1571.7378"/><text fill="#000000" font-family="Verdana" font-size="12" lengthAdjust="spacing" textLength="40.1367" x="891.0234" y="1592.8765">Create</text><text fill="#000000" font-family="Verdana" font-size="12" font-weight="bold" lengthAdjust="spacing" textLength="67.9219" x="934.9746" y="1592.8765">SellResult</text><text fill="#000000" font-family="Verdana" font-size="12" lengthAdjust="spacing" textLength="128.4375" x="1002.8965" y="1592.8765">(proceeds, costBasis)</text><line style="stroke:#000000;stroke-width:1;" x1="867.1279" x2="867.1279" y1="54.3545" y2="1874.2964"/><rect fill="#F5DEB3" height="1819.9419" style="stroke:#F5DEB3;stroke-width:1;" width="304.5117" x="1414.3071" y="54.3545"/><rect fill="#FFFFFF" height="33.9688" rx="12.5" ry="12.5" style="stroke:#000000;stroke-width:1;" width="166.1973" x="1484.4644" y="1174.3115"/><text fill="#000000" font-family="Verdana" font-size="12" lengthAdjust="spacing" textLength="146.1973" x="1494.4644" y="1195.4502">lot.reduce(sharesToSell)</text><rect fill="#FFFFFF" height="33.9688" rx="12.5" ry="12.5" style="stroke:#000000;stroke-width:1;" width="294.5117" x="1420.3071" y="1228.2803"/><text fill="#000000" font-family="Verdana" font-size="12" lengthAdjust="spacing" textLength="274.5117" x="1430.3071" y="1249.4189">lot.calculateCostBasis(sharesToSell) &#8594; Money</text><line style="stroke:#000000;stroke-width:1;" x1="1414.3071" x2="1414.3071" y1="54.3545" y2="1874.2964"/><line style="stroke:#000000;stroke-width:1;" x1="1718.8188" x2="1718.8188" y1="54.3545" y2="1874.2964"/><line style="stroke:#000000;stroke-width:1;" x1="146.126" x2="146.126" y1="100.3076" y2="121.6045"/><polygon fill="#000000" points="142.126,111.6045,146.126,121.6045,150.126,111.6045,146.126,115.6045" style="stroke:#000000;stroke-width:1;"/><line style="stroke:#000000;stroke-width:1;" x1="146.126" x2="146.126" y1="169.542" y2="209.1201"/><polygon fill="#000000" points="142.126,199.1201,146.126,209.1201,150.126,199.1201,146.126,203.1201" style="stroke:#000000;stroke-width:1;"/><line style="stroke:#000000;stroke-width:1;" x1="146.126" x2="146.126" y1="1778.3276" y2="1798.3276"/><polygon fill="#000000" points="142.126,1788.3276,146.126,1798.3276,150.126,1788.3276,146.126,1792.3276" style="stroke:#000000;stroke-width:1;"/><line style="stroke:#000000;stroke-width:1;" x1="146.126" x2="146.126" y1="1832.2964" y2="1852.2964"/><polygon fill="#000000" points="142.126,1842.2964,146.126,1852.2964,150.126,1842.2964,146.126,1846.2964" style="stroke:#000000;stroke-width:1;"/><line style="stroke:#000000;stroke-width:1;" x1="716.624" x2="716.624" y1="315.3389" y2="335.3389"/><polygon fill="#000000" points="712.624,325.3389,716.624,335.3389,720.624,325.3389,716.624,329.3389" style="stroke:#000000;stroke-width:1;"/><line style="stroke:#000000;stroke-width:1;" x1="716.624" x2="716.624" y1="471.6787" y2="500.1943"/><polygon fill="#000000" points="712.624,490.1943,716.624,500.1943,720.624,490.1943,716.624,494.1943" style="stroke:#000000;stroke-width:1;"/><line style="stroke:#000000;stroke-width:1;" x1="716.624" x2="716.624" y1="413.3076" y2="437.71"/><polygon fill="#000000" points="712.624,427.71,716.624,437.71,720.624,427.71,716.624,431.71" style="stroke:#000000;stroke-width:1;"/><line style="stroke:#000000;stroke-width:1;" x1="777.7937" x2="841.208" y1="401.3076" y2="401.3076"/><polygon fill="#000000" points="837.208,470.1943,841.208,480.1943,845.208,470.1943,841.208,474.1943" style="stroke:#000000;stroke-width:1;"/><line style="stroke:#000000;stroke-width:1;" x1="841.208" x2="841.208" y1="401.3076" y2="544.1943"/><line style="stroke:#000000;stroke-width:1;" x1="841.208" x2="716.624" y1="544.1943" y2="544.1943"/><line style="stroke:#000000;stroke-width:1;" x1="716.624" x2="716.624" y1="544.1943" y2="564.1943"/><polygon fill="#000000" points="712.624,554.1943,716.624,564.1943,720.624,554.1943,716.624,558.1943" style="stroke:#000000;stroke-width:1;"/><line style="stroke:#000000;stroke-width:1;" x1="716.624" x2="716.624" y1="369.3076" y2="389.3076"/><polygon fill="#000000" points="712.624,379.3076,716.624,389.3076,720.624,379.3076,716.624,383.3076" style="stroke:#000000;stroke-width:1;"/><line style="stroke:#000000;stroke-width:1;" x1="716.624" x2="716.624" y1="700.5342" y2="729.5186"/><polygon fill="#000000" points="712.624,719.5186,716.624,729.5186,720.624,719.5186,716.624,723.5186" style="stroke:#000000;stroke-width:1;"/><line style="stroke:#000000;stroke-width:1;" x1="716.624" x2="716.624" y1="642.1631" y2="666.5654"/><polygon fill="#000000" points="712.624,656.5654,716.624,666.5654,720.624,656.5654,716.624,660.5654" style="stroke:#000000;stroke-width:1;"/><line style="stroke:#000000;stroke-width:1;" x1="769.7209" x2="1011.1787" y1="630.1631" y2="630.1631"/><polygon fill="#000000" points="1007.1787,710.5342,1011.1787,720.5342,1015.1787,710.5342,1011.1787,714.5342" style="stroke:#000000;stroke-width:1;"/><line style="stroke:#000000;stroke-width:1;" x1="1011.1787" x2="1011.1787" y1="630.1631" y2="793.5186"/><polygon fill="#000000" points="1007.1787,783.5186,1011.1787,793.5186,1015.1787,783.5186,1011.1787,787.5186" style="stroke:#000000;stroke-width:1;"/><line style="stroke:#000000;stroke-width:1;" x1="716.624" x2="716.624" y1="598.1631" y2="618.1631"/><polygon fill="#000000" points="712.624,608.1631,716.624,618.1631,720.624,608.1631,716.624,612.1631" style="stroke:#000000;stroke-width:1;"/><line style="stroke:#000000;stroke-width:1;" x1="716.624" x2="716.624" y1="1670.3901" y2="1690.3901"/><polygon fill="#000000" points="712.624,1680.3901,716.624,1690.3901,720.624,1680.3901,716.624,1684.3901" style="stroke:#000000;stroke-width:1;"/><line style="stroke:#000000;stroke-width:1;" x1="1011.1787" x2="1011.1787" y1="827.4873" y2="847.4873"/><polygon fill="#000000" points="1007.1787,837.4873,1011.1787,847.4873,1015.1787,837.4873,1011.1787,841.4873" style="stroke:#000000;stroke-width:1;"/><line style="stroke:#000000;stroke-width:1;" x1="1011.1787" x2="1011.1787" y1="983.8271" y2="1012.3428"/><polygon fill="#000000" points="1007.1787,1002.3428,1011.1787,1012.3428,1015.1787,1002.3428,1011.1787,1006.3428" style="stroke:#000000;stroke-width:1;"/><line style="stroke:#000000;stroke-width:1;" x1="1011.1787" x2="1011.1787" y1="925.4561" y2="949.8584"/><polygon fill="#000000" points="1007.1787,939.8584,1011.1787,949.8584,1015.1787,939.8584,1011.1787,943.8584" style="stroke:#000000;stroke-width:1;"/><line style="stroke:#000000;stroke-width:1;" x1="1066.7759" x2="1138.8359" y1="913.4561" y2="913.4561"/><polygon fill="#000000" points="1134.8359,982.3428,1138.8359,992.3428,1142.8359,982.3428,1138.8359,986.3428" style="stroke:#000000;stroke-width:1;"/><line style="stroke:#000000;stroke-width:1;" x1="1138.8359" x2="1138.8359" y1="913.4561" y2="1056.3428"/><line style="stroke:#000000;stroke-width:1;" x1="1138.8359" x2="1011.1787" y1="1056.3428" y2="1056.3428"/><line style="stroke:#000000;stroke-width:1;" x1="1011.1787" x2="1011.1787" y1="1056.3428" y2="1076.3428"/><polygon fill="#000000" points="1007.1787,1066.3428,1011.1787,1076.3428,1015.1787,1066.3428,1011.1787,1070.3428" style="stroke:#000000;stroke-width:1;"/><line style="stroke:#000000;stroke-width:1;" x1="1011.1787" x2="1011.1787" y1="881.4561" y2="901.4561"/><polygon fill="#000000" points="1007.1787,891.4561,1011.1787,901.4561,1015.1787,891.4561,1011.1787,895.4561" style="stroke:#000000;stroke-width:1;"/><line style="stroke:#000000;stroke-width:1;" x1="1011.1787" x2="1011.1787" y1="1323.7178" y2="1343.7178"/><polygon fill="#000000" points="1007.1787,1333.7178,1011.1787,1343.7178,1015.1787,1333.7178,1011.1787,1337.7178" style="stroke:#000000;stroke-width:1;"/><line style="stroke:#000000;stroke-width:1;" x1="1082.25" x2="1170.4346" y1="1409.6865" y2="1409.6865"/><polygon fill="#000000" points="1166.4346,1282.249,1170.4346,1272.249,1174.4346,1282.249,1170.4346,1278.249" style="stroke:#000000;stroke-width:1;"/><line style="stroke:#000000;stroke-width:1;" x1="1170.4346" x2="1170.4346" y1="1142.3115" y2="1409.6865"/><line style="stroke:#000000;stroke-width:1;" x1="1170.4346" x2="1023.1787" y1="1142.3115" y2="1142.3115"/><polygon fill="#000000" points="1033.1787,1138.3115,1023.1787,1142.3115,1033.1787,1146.3115,1029.1787,1142.3115" style="stroke:#000000;stroke-width:1;"/><line style="stroke:#000000;stroke-width:1;" x1="1011.1787" x2="1011.1787" y1="1377.6865" y2="1397.6865"/><polygon fill="#000000" points="1007.1787,1387.6865,1011.1787,1397.6865,1015.1787,1387.6865,1011.1787,1391.6865" style="stroke:#000000;stroke-width:1;"/><line style="stroke:#000000;stroke-width:1;" x1="1011.1787" x2="1011.1787" y1="1110.3115" y2="1130.3115"/><polygon fill="#000000" points="1007.1787,1120.3115,1011.1787,1130.3115,1015.1787,1120.3115,1011.1787,1124.3115" style="stroke:#000000;stroke-width:1;"/><line style="stroke:#000000;stroke-width:1;" x1="1011.1787" x2="1011.1787" y1="1421.6865" y2="1463.0854"/><polygon fill="#000000" points="1007.1787,1453.0854,1011.1787,1463.0854,1015.1787,1453.0854,1011.1787,1457.0854" style="stroke:#000000;stroke-width:1;"/><text fill="#000000" font-family="Verdana" font-size="11" lengthAdjust="spacing" textLength="13.7017" x="1015.1787" y="1442.9912">no</text><line style="stroke:#000000;stroke-width:1;" x1="1011.1787" x2="1011.1787" y1="1497.0542" y2="1517.0542"/><polygon fill="#000000" points="1007.1787,1507.0542,1011.1787,1517.0542,1015.1787,1507.0542,1011.1787,1511.0542" style="stroke:#000000;stroke-width:1;"/><line style="stroke:#000000;stroke-width:1;" x1="1011.1787" x2="1011.1787" y1="1551.0229" y2="1571.7378"/><polygon fill="#000000" points="1007.1787,1561.7378,1011.1787,1571.7378,1015.1787,1561.7378,1011.1787,1565.7378" style="stroke:#000000;stroke-width:1;"/><line style="stroke:#000000;stroke-width:1;" x1="1567.563" x2="1567.563" y1="1208.2803" y2="1228.2803"/><polygon fill="#000000" points="1563.563,1218.2803,1567.563,1228.2803,1571.563,1218.2803,1567.563,1222.2803" style="stroke:#000000;stroke-width:1;"/><line style="stroke:#000000;stroke-width:1;" x1="146.126" x2="146.126" y1="243.0889" y2="266.3701"/><line style="stroke:#000000;stroke-width:1;" x1="146.126" x2="716.624" y1="266.3701" y2="266.3701"/><line style="stroke:#000000;stroke-width:1;" x1="716.624" x2="716.624" y1="266.3701" y2="281.3701"/><polygon fill="#000000" points="712.624,271.3701,716.624,281.3701,720.624,271.3701,716.624,275.3701" style="stroke:#000000;stroke-width:1;"/><line style="stroke:#000000;stroke-width:1;" x1="1567.563" x2="1567.563" y1="1262.249" y2="1272.249"/><line style="stroke:#000000;stroke-width:1;" x1="1567.563" x2="1011.1787" y1="1272.249" y2="1272.249"/><line style="stroke:#000000;stroke-width:1;" x1="1011.1787" x2="1011.1787" y1="1272.249" y2="1289.749"/><polygon fill="#000000" points="1007.1787,1279.749,1011.1787,1289.749,1015.1787,1279.749,1011.1787,1283.749" style="stroke:#000000;stroke-width:1;"/><line style="stroke:#000000;stroke-width:1;" x1="1011.1787" x2="1011.1787" y1="1154.3115" y2="1159.3115"/><line style="stroke:#000000;stroke-width:1;" x1="1011.1787" x2="1567.563" y1="1159.3115" y2="1159.3115"/><line style="stroke:#000000;stroke-width:1;" x1="1567.563" x2="1567.563" y1="1159.3115" y2="1174.3115"/><polygon fill="#000000" points="1563.563,1164.3115,1567.563,1174.3115,1571.563,1164.3115,1567.563,1168.3115" style="stroke:#000000;stroke-width:1;"/><line style="stroke:#000000;stroke-width:1;" x1="1011.1787" x2="1011.1787" y1="1605.7065" y2="1621.4214"/><line style="stroke:#000000;stroke-width:1;" x1="1011.1787" x2="716.624" y1="1621.4214" y2="1621.4214"/><line style="stroke:#000000;stroke-width:1;" x1="716.624" x2="716.624" y1="1621.4214" y2="1636.4214"/><polygon fill="#000000" points="712.624,1626.4214,716.624,1636.4214,720.624,1626.4214,716.624,1630.4214" style="stroke:#000000;stroke-width:1;"/><line style="stroke:#000000;stroke-width:1;" x1="716.624" x2="716.624" y1="1724.3589" y2="1729.3589"/><line style="stroke:#000000;stroke-width:1;" x1="716.624" x2="146.126" y1="1729.3589" y2="1729.3589"/><line style="stroke:#000000;stroke-width:1;" x1="146.126" x2="146.126" y1="1729.3589" y2="1744.3589"/><polygon fill="#000000" points="142.126,1734.3589,146.126,1744.3589,150.126,1734.3589,146.126,1738.3589" style="stroke:#000000;stroke-width:1;"/><text fill="#000000" font-family="Verdana" font-size="18" lengthAdjust="spacing" textLength="306.8701" x="138.959" y="71.0625">Application Service (Orchestrator)</text><text fill="#000000" font-family="Verdana" font-size="18" lengthAdjust="spacing" textLength="235.9951" x="602.9604" y="71.0625">Portfolio (Aggregate Root)</text><text fill="#000000" font-family="Verdana" font-size="18" lengthAdjust="spacing" textLength="141.126" x="1070.1545" y="71.0625">Holding (Entity)</text><text fill="#000000" font-family="Verdana" font-size="18" lengthAdjust="spacing" textLength="100.415" x="1516.3555" y="71.0625">Lot (Entity)</text><?plantuml-src dLN1ZYCr4BttLnIJ0zrDYFRS4OkIA64Z3SoGP5bnTDoLRXF7RcptP5iRf3qXkAwG-0Bu4VuaNqBPtSba0mkZpKYZo5MkUlMUw-KJL-8EeP9CgCXkXQgOOJjOCxujZAvLFj5I6-ZDflxl8eDn9nw4Q-1D132-IdzL2eV-N9iSJNisbfH4PoDZzFxowAUBgaex_DUAlPd_FBkgsPlGPpIY4f4JJY8inQwIOYCmXvSMOSBetqpgVGPBb1AMJlEjXNXKKHPdJcW54sqGxfHiaYWwz6v5KRgnhF40bqbBD0-28yHtXfTedM5EcmGEaNNCk2XR84VnW92cAy6tQDAqJz-N9JFuRSqKWMlQetj3PT8qYXd1-OvH8xXR_u3SsMGOXUcDHq1phae4sxKrRNbBnxdUaLJWcWfjt_C5bH4xuNnuGF4NUW-aQGFC68yeNaoNgpvCRkV7jtycb21ikALh0rmhZaP1YGO74Qeyy1z5sQrckGUhZTjeANIQmiRe7LroQwy9L1IvmdjpKvtI_Rr1WUvyVzpCyrZaoSrDDvXFzKYO0hRsTF90y_7jRvImHvfIVUg04tqKfwv-98fOOfqL20vvgUW55Cqbx4wzhmoYEi2vESbT50OBHc0NMZilMtR6Eh3qCE9MjJwyfrWVWbeaJ9IHL2Ad2Xdys4M97s7ljGtKnqcQ3YEnWVWShhhGbua7ho1kq2OHIdgHiT9UYTwzKDlCbRGFL6ok7doFK_FfQuwL9yKN3fDNVbIn8J0peRmyBxJCXIgyEBGBr0GAwgUW7QQ5KxOvWA-5TVQfMBhAtsWtytB_1vQEy--9HBq_G7SHucaO8b3TGMY9_Y31anBvDgFUz6vMsZ4PCcsSmF7NFywadrX6fUkY11jodZhLHAiDRRHx2iLpXyO_6AcT1TgtD9tDPtT4TN0VY6aciW7O26ETns-mGkRNuD1xLTAt0zpIabtG091HhO71lEOOjy1NshjICZm5EPEybjHsegqRColi-ubm_FaTVAqLDiFGwV-efx8ZpkjTg4dRtXKD_PRrEgmTMBhN4TakkK7lC5IgxJhiPeDzASXXuwimF8Td903jSal_vy-LzdekSAV9VdAi93gouq1aBEnqLxacJcZeR78QbzYjZEQ8kIM6l_2EHgRtr-zdsNsomJRJDrsWhQLBq_XqhVyuNV9FNp9w8roessR3yPTtZnU2APsnvC1gHnxhoFgbRBnXAYjo3FjrQTWVwpmlgxmTPCqaK_x703vxX3RqpBdQgAj9Xn_puvGj6Kdm2CSlWb-RAnl_KCUm47y3?></g></svg>